<?xml version="1.0" encoding="utf-8"?>
<svg version="1.1" xmlns:xlink="http://www.w3.org/1999/xlink" width="13px" height="13px" viewBox="560 335  13 13" xmlns="http://www.w3.org/2000/svg">
  <path d="M 566.5 335  C 570.14 335  573 337.86  573 341.5  C 573 345.14  570.14 348  566.5 348  C 562.86 348  560 345.14  560 341.5  C 560 337.86  562.86 335  566.5 335  Z " fill-rule="nonzero" fill="#ffffff" stroke="none" />
  <path d="M 566.5 335.5  C 569.86 335.5  572.5 338.14  572.5 341.5  C 572.5 344.86  569.86 347.5  566.5 347.5  C 563.14 347.5  560.5 344.86  560.5 341.5  C 560.5 338.14  563.14 335.5  566.5 335.5  Z " stroke-width="1" stroke="#797979" fill="none" />
  <path d="M 566.5 344.75  C 564.68 344.75  563.25 343.32  563.25 341.5  C 563.25 339.68  564.68 338.25  566.5 338.25  C 568.32 338.25  569.75 339.68  569.75 341.5  C 569.75 343.32  568.32 344.75  566.5 344.75  " fill-rule="nonzero" fill="#797979" stroke="none" />
</svg>