<?xml version="1.0" encoding="utf-8"?>
<svg version="1.1" xmlns:xlink="http://www.w3.org/1999/xlink" width="8px" height="12px" xmlns="http://www.w3.org/2000/svg">
  <g transform="matrix(1 0 0 1 -717 -543 )">
    <path d="M 4.412797511284724 1.3368318269531252  C 4.412797511284724 1.0622317453125003  4.249273860243057 0.8414748164062499  4.045866392361112 0.8414748433593743  L 3.9321975173611117 0.8414748433593743  C 3.728790049479168 0.8414748433593743  3.5632722065972238 1.0649239312499992  3.5632722065972238 1.3395239859374994  L 3.5632722065972238 5.436987911718749  L 0.5281137630208335 5.436987911718749  C 0.32470629513888916 5.436987911718749  0.15918845225694472 5.660436999609374  0.15918845225694472 5.935037054296874  L 0.15918845225694472 6.088490062499997  C 0.15918845225694472 6.3630901441406245  0.32470629513888916 6.5865392320312495  0.5281137630208335 6.586539205078123  L 3.563272206597222 6.586539205078123  L 3.563272206597222 10.681310971875  C 3.563272206597222 10.955911053515624  3.7287900494791666 11.17936014140625  3.93219751736111 11.179360114453125  L 4.04586639236111 11.179360114453125  C 4.249273860243054 11.179360114453125  4.414791703124998 10.955911026562497  4.414791703124998 10.681310971875  L 4.414791703124998 6.5838470460937515  L 7.4499501467013864 6.5838470460937515  C 7.65335761458333 6.5838470460937515  7.818875457465276 6.3603979582031265  7.818875457465276 6.085797903515626  L 7.818875457465276 5.932344895312502  C 7.818875457465276 5.657744813671876  7.65335761458333 5.434295725781251  7.4499501467013864 5.434295752734377  L 4.412797511284724 5.434295752734377  L 4.412797511284724 1.3368318269531252  Z " fill-rule="nonzero" fill="#000000" stroke="none" transform="matrix(1 0 0 1 717 543 )" />
  </g>
</svg>