<?xml version="1.0" encoding="utf-8"?>
<svg version="1.1" xmlns:xlink="http://www.w3.org/1999/xlink" width="13px" height="13px" viewBox="659 407  13 13" xmlns="http://www.w3.org/2000/svg">
  <path d="M 665.5 407  C 669.14 407  672 409.86  672 413.5  C 672 417.14  669.14 420  665.5 420  C 661.86 420  659 417.14  659 413.5  C 659 409.86  661.86 407  665.5 407  Z " fill-rule="nonzero" fill="#f0f0f0" stroke="none" />
  <path d="M 665.5 407.5  C 668.86 407.5  671.5 410.14  671.5 413.5  C 671.5 416.86  668.86 419.5  665.5 419.5  C 662.14 419.5  659.5 416.86  659.5 413.5  C 659.5 410.14  662.14 407.5  665.5 407.5  Z " stroke-width="1" stroke="#797979" fill="none" />
  <path d="M 665.5 416.75  C 663.68 416.75  662.25 415.32  662.25 413.5  C 662.25 411.68  663.68 410.25  665.5 410.25  C 667.32 410.25  668.75 411.68  668.75 413.5  C 668.75 415.32  667.32 416.75  665.5 416.75  " fill-rule="nonzero" fill="#797979" stroke="none" />
</svg>