<?xml version="1.0" encoding="utf-8"?>
<svg version="1.1" xmlns:xlink="http://www.w3.org/1999/xlink" width="13px" height="13px" viewBox="659 370  13 13" xmlns="http://www.w3.org/2000/svg">
  <path d="M 665.5 370  C 669.14 370  672 372.86  672 376.5  C 672 380.14  669.14 383  665.5 383  C 661.86 383  659 380.14  659 376.5  C 659 372.86  661.86 370  665.5 370  Z " fill-rule="nonzero" fill="#ffffff" stroke="none" />
  <path d="M 665.5 370.5  C 668.86 370.5  671.5 373.14  671.5 376.5  C 671.5 379.86  668.86 382.5  665.5 382.5  C 662.14 382.5  659.5 379.86  659.5 376.5  C 659.5 373.14  662.14 370.5  665.5 370.5  Z " stroke-width="1" stroke="#797979" fill="none" />
  <path d="M 665.5 379.75  C 663.68 379.75  662.25 378.32  662.25 376.5  C 662.25 374.68  663.68 373.25  665.5 373.25  C 667.32 373.25  668.75 374.68  668.75 376.5  C 668.75 378.32  667.32 379.75  665.5 379.75  " fill-rule="nonzero" fill="#797979" stroke="none" />
</svg>