<?xml version="1.0" encoding="utf-8"?>
<svg version="1.1" xmlns:xlink="http://www.w3.org/1999/xlink" width="13px" height="13px" viewBox="659 334  13 13" xmlns="http://www.w3.org/2000/svg">
  <path d="M 665.5 334  C 669.14 334  672 336.86  672 340.5  C 672 344.14  669.14 347  665.5 347  C 661.86 347  659 344.14  659 340.5  C 659 336.86  661.86 334  665.5 334  Z " fill-rule="nonzero" fill="#f0f0f0" stroke="none" />
  <path d="M 665.5 334.5  C 668.86 334.5  671.5 337.14  671.5 340.5  C 671.5 343.86  668.86 346.5  665.5 346.5  C 662.14 346.5  659.5 343.86  659.5 340.5  C 659.5 337.14  662.14 334.5  665.5 334.5  Z " stroke-width="1" stroke="#797979" fill="none" />
  <path d="M 665.5 343.75  C 663.68 343.75  662.25 342.32  662.25 340.5  C 662.25 338.68  663.68 337.25  665.5 337.25  C 667.32 337.25  668.75 338.68  668.75 340.5  C 668.75 342.32  667.32 343.75  665.5 343.75  " fill-rule="nonzero" fill="#797979" stroke="none" />
</svg>