<?xml version="1.0" encoding="utf-8"?>
<svg version="1.1" xmlns:xlink="http://www.w3.org/1999/xlink" width="22px" height="11px" xmlns="http://www.w3.org/2000/svg">
  <defs>
    <mask fill="white" id="clip44">
      <path d="M 0 11  C 0 11  0 0  0 0  C 0 0  22 0  22 0  C 22 0  22 11  22 11  C 22 11  18.50865 11  18.50865 11  C 18.50865 11  18.50865 8  18.50865 8  C 18.50865 8  3.4902499999999996 8  3.4902499999999996 8  C 3.4902499999999996 8  3.4902499999999996 11  3.4902499999999996 11  C 3.4902499999999996 11  0 11  0 11  Z " fill-rule="evenodd" />
    </mask>
  </defs>
  <g transform="matrix(1 0 0 1 -482 -359 )">
    <path d="M 0 11  C 0 11  0 0  0 0  C 0 0  22 0  22 0  C 22 0  22 11  22 11  C 22 11  18.50865 11  18.50865 11  C 18.50865 11  18.50865 8  18.50865 8  C 18.50865 8  3.4902499999999996 8  3.4902499999999996 8  C 3.4902499999999996 8  3.4902499999999996 11  3.4902499999999996 11  C 3.4902499999999996 11  0 11  0 11  Z " fill-rule="nonzero" fill="#81d3f8" stroke="none" transform="matrix(1 0 0 1 482 359 )" />
    <path d="M 0 11  C 0 11  0 0  0 0  C 0 0  22 0  22 0  C 22 0  22 11  22 11  C 22 11  18.50865 11  18.50865 11  C 18.50865 11  18.50865 8  18.50865 8  C 18.50865 8  3.4902499999999996 8  3.4902499999999996 8  C 3.4902499999999996 8  3.4902499999999996 11  3.4902499999999996 11  C 3.4902499999999996 11  0 11  0 11  Z " stroke-width="4" stroke="#333333" fill="none" transform="matrix(1 0 0 1 482 359 )" mask="url(#clip44)" />
  </g>
</svg>