<?xml version="1.0" encoding="utf-8"?>
<svg version="1.1" xmlns:xlink="http://www.w3.org/1999/xlink" width="8px" height="6px" xmlns="http://www.w3.org/2000/svg">
  <defs>
    <mask fill="white" id="clip50">
      <path d="M 0 0  C 0 0  7.004149999999999 0  7.004149999999999 0  C 7.004149999999999 0  7 5.6923  7 5.6923  C 7 5.86225  6.7761499999999995 6  6.5 6  C 6.5 6  0.5 6  0.5 6  C 0.22384999999999966 6  0 5.86225  0 5.6923  C 0 5.6923  0 0  0 0  Z " fill-rule="evenodd" />
    </mask>
  </defs>
  <g transform="matrix(1 0 0 1 -522 -353 )">
    <path d="M 0 0  C 0 0  7.004149999999999 0  7.004149999999999 0  C 7.004149999999999 0  7 5.6923  7 5.6923  C 7 5.86225  6.7761499999999995 6  6.5 6  C 6.5 6  0.5 6  0.5 6  C 0.22384999999999966 6  0 5.86225  0 5.6923  C 0 5.6923  0 0  0 0  Z " fill-rule="nonzero" fill="#81d3f8" stroke="none" transform="matrix(1 0 0 1 522 353 )" />
    <path d="M 0 0  C 0 0  7.004149999999999 0  7.004149999999999 0  C 7.004149999999999 0  7 5.6923  7 5.6923  C 7 5.86225  6.7761499999999995 6  6.5 6  C 6.5 6  0.5 6  0.5 6  C 0.22384999999999966 6  0 5.86225  0 5.6923  C 0 5.6923  0 0  0 0  Z " stroke-width="4" stroke="#333333" fill="none" transform="matrix(1 0 0 1 522 353 )" mask="url(#clip50)" />
  </g>
</svg>