<?xml version="1.0" encoding="utf-8"?>
<svg version="1.1" xmlns:xlink="http://www.w3.org/1999/xlink" width="26px" height="13px" xmlns="http://www.w3.org/2000/svg">
  <g transform="matrix(1 0 0 1 -1554 -51 )">
    <path d="M 24.011524358302776 7.7741477272727275  C 24.174960712414876 7.63873106060606  24.256678889470926 7.518702651515151  24.256678889470926 7.4140625  C 24.256678889470926 7.198626893939394  24.016064257028113 7.09090909090909  23.534834992142486 7  L 8.716605552645365 7  C 8.353413654618475 7.09090909090909  7.965252313602236 7.157078598484849  7.552121529596647 7.289417613636364  C 7.138990745591061 7.421756628787877  6.8143879867295265 7.583333333333332  6.578313253012047 7.7741477272727275  L 2.574122577265584 11.125710227272727  C 2.4106862231534834 11.2734375  2.328968046097433 11.39654356060606  2.328968046097433 11.49502840909091  C 2.328968046097433 11.710464015151514  2.5695826785402485 11.818181818181818  3.0508119434258774 11.818181818181818  L 17.869041382922997 11.818181818181818  C 18.232233280949888 11.818181818181818  18.622664571328794 11.750473484848486  19.04033525405972 11.615056818181818  C 19.45800593679064 11.479640151515152  19.78033874628951 11.316524621212123  20.00733368255631 11.125710227272727  L 24.011524358302776 7.7741477272727275  Z M 6.809848088004191 6.22762784090909  C 7.463593504452592 6.015269886363637  8.099179325999652 5.90909090909091  8.716605552645365 6  L 19.1765322158198 6  L 19.1765322158198 4.4318181818181825  C 19.1765322158198 4.18560606060606  19.04941505151039 3.9763257575757565  18.795180722891565 3.8039772727272725  C 18.540946394272748 3.631628787878787  18.232233280949888 3.545454545454545  17.869041382922997 3.545454545454545  L 10.024096385542169 3.545454545454545  C 9.660904487515278 3.545454545454545  9.352191374192422 3.459280303030302  9.0979570455736 3.286931818181818  C 8.843722716954776 3.114583333333332  8.716605552645365 2.9053030303030294  8.716605552645365 2.6590909090909096  L 8.716605552645365 2.068181818181818  C 8.716605552645365 1.8219696969696968  8.589488388335953 1.6126893939393923  8.335254059717128 1.4403409090909096  C 8.081019731098307 1.2679924242424243  7.772306617775451 1.181818181818182  7.40911471974856 1.181818181818182  L 3.0508119434258774 1.181818181818182  C 2.687620045398987 1.181818181818182  2.3789069320761307 1.2679924242424243  2.1246726034573076 1.4403409090909096  C 1.8704382748384845 1.6126893939393923  1.743321110529073 1.8219696969696968  1.743321110529073 2.068181818181818  L 1.743321110529073 9.943892045454545  L 5.229963331587219 7.035511363636364  C 5.629474419416798 6.709280303030303  6.1561026715557885 6.439985795454545  6.809848088004191 6.22762784090909  Z M 25.795704557359873 6.78622159090909  C 25.931901519119958 6.983191287878787  26 7.19247159090909  26 7.4140625  C 26 7.795691287878787  25.79116465863454 8.165009469696969  25.373493975903614 8.522017045454545  L 21.35568360398114 11.873579545454545  C 20.965252313602235 12.199810606060606  20.438624061463244 12.469105113636363  19.77579884756417 12.681463068181818  C 19.1129736336651 12.893821022727273  18.47738781211804 13  17.869041382922997 13  L 3.0508119434258774 13  C 2.2154705779640302 13  1.4981665793609222 12.796875  0.8988999476165532 12.390625  C 0.2996333158721844 11.984375  0 11.49810606060606  0 10.931818181818182  L 0 2.068181818181818  C 0 1.5018939393939372  0.2996333158721844 1.015625  0.8988999476165532 0.609375  C 1.4981665793609222 0.203125  2.2154705779640302 0  3.0508119434258774 0  L 7.40911471974856 0  C 8.244456085210407 0  8.961760083813514 0.203125  9.561026715557883 0.609375  C 10.160293347302254 1.015625  10.459926663174437 1.5018939393939372  10.459926663174437 2.068181818181818  L 10.459926663174437 2.363636363636363  L 17.869041382922997 2.363636363636363  C 18.704382748384845 2.363636363636363  19.42168674698795 2.566761363636363  20.02095337873232 2.973011363636363  C 20.62022001047669 3.379261363636363  20.919853326348875 3.865530303030302  20.919853326348875 4.4318181818181825  L 20.919853326348875 5.90909090909091  L 23.534834992142486 5.90909090909091  C 24.025144054478787 5.90909090909091  24.474594028287065 5.984493371212123  24.883184913567312 6.135298295454545  C 25.291775798847567 6.28610321969697  25.595949013445086 6.503077651515151  25.795704557359873 6.78622159090909  Z " fill-rule="nonzero" fill="#000000" stroke="none" transform="matrix(1 0 0 1 1554 51 )" />
  </g>
</svg>