<?xml version="1.0" encoding="utf-8"?>
<svg version="1.1" xmlns:xlink="http://www.w3.org/1999/xlink" width="21px" height="21px" xmlns="http://www.w3.org/2000/svg">
  <g transform="matrix(1 0 0 1 -10 -70 )">
    <path d="M 4.443359375 8.496093750000002  C 6.320963541666667 8.832031250000002  8.33984375 9  10.5 9  C 12.66015625 9  14.679036458333334 8.832031250000002  16.556640625 8.496093750000002  C 18.434244791666668 8.160156249999998  19.915364583333336 7.664062499999999  21 7.007812499999999  L 21 9  C 21 9.5390625  20.530598958333332 10.0390625  19.591796875 10.5  C 18.652994791666668 10.960937499999998  17.376953125 11.326171874999998  15.763671875 11.595703125  C 14.150390625 11.865234375  12.395833333333334 12  10.5 12  C 8.604166666666668 12  6.849609375 11.865234375  5.236328125 11.595703125  C 3.623046875 11.326171874999998  2.3470052083333335 10.960937499999998  1.408203125 10.5  C 0.46940104166666663 10.0390625  0 9.5390625  0 9  L 0 7.007812499999999  C 1.0846354166666667 7.664062499999999  2.5657552083333335 8.160156249999998  4.443359375 8.496093750000002  Z M 4.443359375 17.49609375  C 6.320963541666667 17.832031250000004  8.33984375 18  10.5 18  C 12.66015625 18  14.679036458333334 17.832031250000004  16.556640625 17.49609375  C 18.434244791666668 17.16015625  19.915364583333336 16.6640625  21 16.0078125  L 21 18  C 21 18.5390625  20.530598958333332 19.0390625  19.591796875 19.5  C 18.652994791666668 19.9609375  17.376953125 20.326171875  15.763671875 20.595703125  C 14.150390625 20.865234375  12.395833333333334 21  10.5 21  C 8.604166666666668 21  6.849609375 20.865234375  5.236328125 20.595703125  C 3.623046875 20.326171875  2.3470052083333335 19.9609375  1.408203125 19.5  C 0.46940104166666663 19.0390625  0 18.5390625  0 18  L 0 16.0078125  C 1.0846354166666667 16.6640625  2.5657552083333335 17.16015625  4.443359375 17.49609375  Z M 4.443359375 12.996093750000002  C 6.320963541666667 13.33203125  8.33984375 13.499999999999998  10.5 13.499999999999998  C 12.66015625 13.499999999999998  14.679036458333334 13.33203125  16.556640625 12.996093750000002  C 18.434244791666668 12.660156249999998  19.915364583333336 12.1640625  21 11.5078125  L 21 13.499999999999998  C 21 14.0390625  20.530598958333332 14.539062499999998  19.591796875 15  C 18.652994791666668 15.4609375  17.376953125 15.826171875000002  15.763671875 16.095703125  C 14.150390625 16.365234375  12.395833333333334 16.5  10.5 16.5  C 8.604166666666668 16.5  6.849609375 16.365234375  5.236328125 16.095703125  C 3.623046875 15.826171875000002  2.3470052083333335 15.4609375  1.408203125 15  C 0.46940104166666663 14.539062499999998  0 14.0390625  0 13.499999999999998  L 0 11.5078125  C 1.0846354166666667 12.1640625  2.5657552083333335 12.660156249999998  4.443359375 12.996093750000002  Z M 5.236328125 0.404296874999999  C 6.849609375 0.13476562499999967  8.604166666666668 0  10.5 0  C 12.395833333333334 0  14.150390625 0.13476562499999967  15.763671875 0.404296874999999  C 17.376953125 0.6738281250000007  18.652994791666668 1.0390624999999991  19.591796875 1.4999999999999993  C 20.530598958333332 1.9609374999999996  21 2.4609375  21 3.000000000000001  L 21 4.5  C 21 5.039062499999999  20.530598958333332 5.539062499999997  19.591796875 6  C 18.652994791666668 6.4609375  17.376953125 6.826171875000001  15.763671875 7.095703125  C 14.150390625 7.365234374999999  12.395833333333334 7.499999999999999  10.5 7.499999999999999  C 8.604166666666668 7.499999999999999  6.849609375 7.365234374999999  5.236328125 7.095703125  C 3.623046875 6.826171875000001  2.3470052083333335 6.4609375  1.408203125 6  C 0.46940104166666663 5.539062499999997  0 5.039062499999999  0 4.5  L 0 3.000000000000001  C 0 2.4609375  0.46940104166666663 1.9609374999999996  1.408203125 1.4999999999999993  C 2.3470052083333335 1.0390624999999991  3.623046875 0.6738281250000007  5.236328125 0.404296874999999  Z " fill-rule="nonzero" fill="#eafeff" stroke="none" transform="matrix(1 0 0 1 10 70 )" />
  </g>
</svg>