<?xml version="1.0" encoding="utf-8"?>
<svg version="1.1" xmlns:xlink="http://www.w3.org/1999/xlink" width="30px" height="33px" xmlns="http://www.w3.org/2000/svg">
  <g transform="matrix(1 0 0 1 -14 -7 )">
    <path d="M 30 4.596190607645777  C 30 2.0703262176532977  28.17079037765143 0  25.871512010003116 0  L 4.188213070050708 0  C 1.8889347359839983 0  0 2.0703262176532977  0 4.596190607645777  L 0 23.382507681171774  C 0 25.908372071164266  1.888969056380901 27.93558692943654  4.188213070050708 27.93558692943654  L 9.99958765151312 27.93558692943654  L 14.296185576014324 32.65862003706692  C 14.49969072016497 32.881613681437415  14.766082484258334 33  15.032474248351733 33  C 15.29962200146184 33  15.566838496110563 32.89131559660225  15.77048112333842 32.66715169738132  C 16.177113417131338 32.21935239874989  16.176357428114613 31.49601043110735  15.768762920689142 31.049268132096834  L 11.166975937546596 25.986440634746643  C 10.97154639621997 25.772242937486723  10.706769739258732 25.632791699597902  10.430687265209187 25.632791699597902  L 4.188213070050708 25.632791662706936  C 3.0385910632158044 25.632791662706936  2.0962199595446442 24.645420987999444  2 23.382507681171774  L 2 4.596190607645777  C 2.0962199259630445 3.3332772639271546  3.0385910632158044 2.265044531909295  4.188213036469108 2.265044531909295  L 25.871511976421516 2.265044531909295  C 27.02113398325642 2.265044531909295  27.903780006873745 3.3332395244809696  28 4.596190607645777  L 28 23.382507681171774  C 27.903780006873745 24.64542102489041  27.02113394967482 25.632791662706936  25.871511976421516 25.632791662706936  L 17.323298951504484 25.632791662706936  C 16.747560122014576 25.632791662706936  16.280824720077874 26.151713364037718  16.280824720077874 26.784189296071744  C 16.280824720077874 27.416665228105778  16.747560122014576 27.935586929436532  17.323298951504484 27.935586929436532  L 25.871512010003116 27.935586929436532  C 28.17079034406983 27.935586929436532  29.999999966418386 25.908372071164266  30 23.382507681171774  L 30 4.596190607645777  Z " fill-rule="nonzero" fill="#ffffff" stroke="none" transform="matrix(1 0 0 1 14 7 )" />
  </g>
</svg>