<?xml version="1.0" encoding="utf-8"?>
<svg version="1.1" xmlns:xlink="http://www.w3.org/1999/xlink" width="21px" height="14px" xmlns="http://www.w3.org/2000/svg">
  <g transform="matrix(1 0 0 1 -19 -15 )">
    <path d="M 0.5940975536293962 3.4981569736378937  C 0.34232754247883435 5.345330110598436  0.31888869006829523 8.278728275434517  2.0400071300196565 10.614155389828941  C 3.6956247277665923 12.860815910505835  6.523410209324467 14  10.444732497079869 14  C 14.344308954941127 14  17.17653392838541 12.859574649475888  18.862625784364795 10.610431680251747  C 20.608988933096228 8.28094740168332  20.651201441558968 5.348263890036613  20.434871812039887 3.467728067805929  C 20.784799076668975 3.099459446547918  21 2.601915051164788  21 2.0538188025169575  C 21 0.91948676820547  20.0802417030024 0  18.94565870581455 0  C 17.811075708626717 0  16.891317411629117 0.9195243699239626  16.891317411629117 2.0538188025169575  C 16.891317411629117 2.9208730434317154  17.429018774533176 3.6618862504328007  18.189031762690263 3.963203780570556  C 18.331696437994978 5.45752959539713  18.25633849802989 7.621253479514345  17.029730761766317 9.250346573401103  C 15.796802454678087 10.887752146505605  13.581286181657717 11.717945676396646  10.444770108364246 11.717945676396646  C 7.2942584459957445 11.717945676396646  5.086868673700955 10.89399586959221  3.8839631423699212 9.269002612736585  C 2.662396825605498 7.618846234404102  2.658258334291123 5.415628747085613  2.83956137983823 3.9519574851583243  C 3.584450072732224 3.643606338551251  4.108682588370883 2.9100405139482355  4.108682588370883 2.0538564042354537  C 4.108682588370883 0.9195243699239662  3.188924291373283 3.7601718496205194E-05  2.0543412941854413 3.7601718496205194E-05  C 0.9197582969975997 3.7601718496205194E-05  0 0.9195619716424588  0 2.0538564042354537  C 0 2.6170354630282127  0.22690156227695013 3.127104979815705  0.5940975536293962 3.4981569736378937  Z " fill-rule="nonzero" fill="#ffffff" stroke="none" transform="matrix(1 0 0 1 19 15 )" />
  </g>
</svg>