<?xml version="1.0" encoding="utf-8"?>
<svg version="1.1" xmlns:xlink="http://www.w3.org/1999/xlink" width="31px" height="30px" xmlns="http://www.w3.org/2000/svg">
  <g transform="matrix(1 0 0 1 -342 -51 )">
    <path d="M 30.670625 11.2677  C 30.670497707431153 10.690901280683578  30.433624719887614 10.137771690702474  30.012107500000003 9.729975000000001  L 20.945692500000003 0.9560250000000006  C 20.524302586274114 0.5481051097861802  19.952735343293636 0.31887318635695133  19.35671 0.31875000000000053  L 2.5768750000000002 0.31875000000000053  C 1.3356150247552925 0.31875000000000053  0.32937500000000003 1.292530669118025  0.32937500000000003 2.4937500000000004  L 0.32937500000000003 27.50625  C 0.32937500000000003 28.707469330881977  1.3356150247552918 29.68125  2.5768750000000002 29.68125  L 28.423125 29.68125  C 29.664384975244708 29.68125  30.670625 28.707469330881977  30.670625 27.50625  L 30.670625 11.2677  Z M 7.63375 6.3  L 7.63375 2.4937500000000004  L 14.37625 2.4937500000000004  L 14.37625 6.3  L 7.63375 6.3  Z M 23.36625 22.6125  L 23.36625 27  L 7.63375 27  L 7.63375 22.6125  L 23.36625 22.6125  Z M 28 11.2677  L 28 27.50625  L 25.61375 27.50625  L 25.61375 21.525000000000002  C 25.61375 20.924390334559014  25.110629987622353 20.4375  24.490000000000002 20  L 6.51 20  C 5.889370012377646 20.4375  5.3862499999999995 20.924390334559014  5.3862499999999995 21.525000000000002  L 5.3862499999999995 27.50625  L 3 27.50625  L 3 2.4937500000000004  L 5.3862499999999995 2.4937500000000004  L 5.3862499999999995 7.3875  C 5.3862499999999995 7.988109665440987  5.889370012377646 8.475  6.51 8.475  L 15.5 8.475  C 16.120629987622355 8.475  16.62375 7.988109665440987  16.62375 7.3875  L 16.62375 2.4937500000000004  L 19.356709999999996 2.4937500000000004  L 28 11.2677  Z " fill-rule="nonzero" fill="#1e1b1b" stroke="none" transform="matrix(1 0 0 1 342 51 )" />
  </g>
</svg>