<?xml version="1.0" encoding="utf-8"?>
<svg version="1.1" xmlns:xlink="http://www.w3.org/1999/xlink" width="16px" height="16px" xmlns="http://www.w3.org/2000/svg">
  <g transform="matrix(1 0 0 1 -1031 -390 )">
    <path d="M 9.80769230769231 8.002564092548075  L 15.5 13.692307692307692  C 15.621354262747975 13.812670895658387  15.689614309633384 13.976514396389659  15.689614309633384 14.147435892427884  C 15.689614309633384 14.318357388466106  15.621354262747975 14.482200889197381  15.5 14.602564092548077  L 14.602564092548077 15.5  C 14.482200889197381 15.621354262747984  14.318357388466115 15.689614309633384  14.147435892427884 15.689614309633384  C 13.976514396389653 15.689614309633384  13.812670895658393 15.621354262747975  13.692307692307692 15.5  L 8.002564092548075 9.80769230769231  L 2.3102564002403843 15.500000000000004  C 2.18989319688969 15.621354262747984  2.0260496961584207 15.689614309633397  1.8551282001201912 15.689614309633397  C 1.6842067040819597 15.689614309633397  1.5203632033506955 15.621354262747987  1.399999999999999 15.500000000000004  L 0.5025640925480755 14.60256409254808  C 0.3812098298001001 14.48220088919739  0.3129497829146868 14.318357388466119  0.3129497829146868 14.147435892427893  C 0.3129497829146868 13.976514396389668  0.3812098298000979 13.812670895658393  0.5025640925480755 13.692307692307697  L 6.1923076923076925 8.002564092548084  L 0.4999999999999989 2.3076923076923075  C 0.3786457372520212 2.1873291043416137  0.3103856903666101 2.023485603610345  0.3103856903666101 1.8525641075721155  C 0.3103856903666101 1.6816426115338863  0.3786457372520212 1.517799110802619  0.4999999999999989 1.3974359074519225  L 1.3974359074519225 0.4999999999999989  C 1.517799110802619 0.3786457372520212  1.6816426115338863 0.3103856903666101  1.8525641075721155 0.3103856903666101  C 2.023485603610345 0.3103856903666101  2.1873291043416137 0.3786457372520212  2.3076923076923075 0.4999999999999989  L 8.002564092548075 6.1923076923076925  L 13.694871784855772 0.4999999999999989  C 13.815234989375798 0.3786457279948726  13.97907849656575 0.31038567521886545  14.150000000000004 0.31038567521886545  C 14.320921503434253 0.31038567521886545  14.4847650106242 0.3786457279948737  14.60512821514423 0.4999999999999989  L 15.502564092548075 1.3974359074519225  C 15.62391835529605 1.5177991108026168  15.692178402181469 1.6816426115338863  15.692178402181469 1.8525641075721155  C 15.692178402181469 2.023485603610347  15.623918355296059 2.1873291043416114  15.502564092548075 2.3076923076923075  L 9.80769230769231 8.002564092548075  Z " fill-rule="nonzero" fill="#000000" stroke="none" transform="matrix(1 0 0 1 1031 390 )" />
  </g>
</svg>