<?xml version="1.0" encoding="utf-8"?>
<svg version="1.1" xmlns:xlink="http://www.w3.org/1999/xlink" width="16px" height="17px" xmlns="http://www.w3.org/2000/svg">
  <g transform="matrix(1 0 0 1 -729 -357 )">
    <path d="M 9.80769230769231 8.50272434833233  L 15.5 14.548076923076922  C 15.621354262747975 14.675962826637036  15.689614309633384 14.850046546164013  15.689614309633384 15.031650635704628  C 15.689614309633384 15.213254725245237  15.621354262747975 15.387338444772217  15.5 15.515224348332332  L 14.602564092548077 16.46875  C 14.482200889197381 16.597688904169733  14.318357388466115 16.67021520398547  14.147435892427884 16.67021520398547  C 13.976514396389653 16.67021520398547  13.812670895658393 16.597688904169722  13.692307692307692 16.46875  L 8.002564092548075 10.42067307692308  L 2.3102564002403843 16.468750000000004  C 2.18989319688969 16.597688904169733  2.0260496961584207 16.670215203985485  1.8551282001201912 16.670215203985485  C 1.6842067040819597 16.670215203985485  1.5203632033506955 16.597688904169736  1.399999999999999 16.468750000000004  L 0.5025640925480755 15.515224348332335  C 0.3812098298001001 15.387338444772228  0.3129497829146868 15.213254725245251  0.3129497829146868 15.031650635704636  C 0.3129497829146868 14.850046546164021  0.3812098298000979 14.675962826637042  0.5025640925480755 14.548076923076929  L 6.1923076923076925 8.50272434833234  L 0.4999999999999989 2.4519230769230766  C 0.3786457372520212 2.3240371733629646  0.3103856903666101 2.1499534538359915  0.3103856903666101 1.9683493642953727  C 0.3103856903666101 1.786745274754754  0.3786457372520212 1.6126615552277828  0.4999999999999989 1.4847756516676676  L 1.3974359074519225 0.5312499999999988  C 1.517799110802619 0.4023110958302725  1.6816426115338863 0.32978479601452326  1.8525641075721155 0.32978479601452326  C 2.023485603610345 0.32978479601452326  2.1873291043416137 0.4023110958302725  2.3076923076923075 0.5312499999999988  L 8.002564092548075 6.579326923076923  L 13.694871784855772 0.5312499999999988  C 13.815234989375798 0.4023110859945522  13.97907849656575 0.32978477992004457  14.150000000000004 0.32978477992004457  C 14.320921503434253 0.32978477992004457  14.4847650106242 0.40231108599455334  14.60512821514423 0.5312499999999988  L 15.502564092548075 1.4847756516676676  C 15.62391835529605 1.6126615552277803  15.692178402181469 1.786745274754754  15.692178402181469 1.9683493642953727  C 15.692178402181469 2.1499534538359937  15.623918355296059 2.3240371733629623  15.502564092548075 2.4519230769230766  L 9.80769230769231 8.50272434833233  Z " fill-rule="nonzero" fill="#000000" stroke="none" transform="matrix(1 0 0 1 729 357 )" />
  </g>
</svg>