<?xml version="1.0" encoding="utf-8"?>
<svg version="1.1" xmlns:xlink="http://www.w3.org/1999/xlink" width="13px" height="13px" viewBox="42 99  13 13" xmlns="http://www.w3.org/2000/svg">
  <path d="M 42.5 101  A 1.5 1.5 0 0 1 44 99.5 L 53 99.5  A 1.5 1.5 0 0 1 54.5 101 L 54.5 110  A 1.5 1.5 0 0 1 53 111.5 L 44 111.5  A 1.5 1.5 0 0 1 42.5 110 L 42.5 101  Z " fill-rule="nonzero" fill="#f0f0f0" stroke="none" />
  <path d="M 42.5 101  A 1.5 1.5 0 0 1 44 99.5 L 53 99.5  A 1.5 1.5 0 0 1 54.5 101 L 54.5 110  A 1.5 1.5 0 0 1 53 111.5 L 44 111.5  A 1.5 1.5 0 0 1 42.5 110 L 42.5 101  Z " stroke-width="1" stroke="#797979" fill="none" />
</svg>