<?xml version="1.0" encoding="utf-8"?>
<svg version="1.1" xmlns:xlink="http://www.w3.org/1999/xlink" width="13px" height="13px" viewBox="42 51  13 13" xmlns="http://www.w3.org/2000/svg">
  <path d="M 42.5 53  A 1.5 1.5 0 0 1 44 51.5 L 53 51.5  A 1.5 1.5 0 0 1 54.5 53 L 54.5 62  A 1.5 1.5 0 0 1 53 63.5 L 44 63.5  A 1.5 1.5 0 0 1 42.5 62 L 42.5 53  Z " fill-rule="nonzero" fill="#f0f0f0" stroke="none" />
  <path d="M 42.5 53  A 1.5 1.5 0 0 1 44 51.5 L 53 51.5  A 1.5 1.5 0 0 1 54.5 53 L 54.5 62  A 1.5 1.5 0 0 1 53 63.5 L 44 63.5  A 1.5 1.5 0 0 1 42.5 62 L 42.5 53  Z " stroke-width="1" stroke="#797979" fill="none" />
</svg>