<?xml version="1.0" encoding="utf-8"?>
<svg version="1.1" xmlns:xlink="http://www.w3.org/1999/xlink" width="13px" height="13px" viewBox="42 123  13 13" xmlns="http://www.w3.org/2000/svg">
  <path d="M 42.5 125  A 1.5 1.5 0 0 1 44 123.5 L 53 123.5  A 1.5 1.5 0 0 1 54.5 125 L 54.5 134  A 1.5 1.5 0 0 1 53 135.5 L 44 135.5  A 1.5 1.5 0 0 1 42.5 134 L 42.5 125  Z " fill-rule="nonzero" fill="#ffffff" stroke="none" />
  <path d="M 42.5 125  A 1.5 1.5 0 0 1 44 123.5 L 53 123.5  A 1.5 1.5 0 0 1 54.5 125 L 54.5 134  A 1.5 1.5 0 0 1 53 135.5 L 44 135.5  A 1.5 1.5 0 0 1 42.5 134 L 42.5 125  Z " stroke-width="1" stroke="#797979" fill="none" />
</svg>