<?xml version="1.0" encoding="utf-8"?>
<svg version="1.1" xmlns:xlink="http://www.w3.org/1999/xlink" width="13px" height="13px" viewBox="42 75  13 13" xmlns="http://www.w3.org/2000/svg">
  <path d="M 42.5 77  A 1.5 1.5 0 0 1 44 75.5 L 53 75.5  A 1.5 1.5 0 0 1 54.5 77 L 54.5 86  A 1.5 1.5 0 0 1 53 87.5 L 44 87.5  A 1.5 1.5 0 0 1 42.5 86 L 42.5 77  Z " fill-rule="nonzero" fill="#f0f0f0" stroke="none" />
  <path d="M 42.5 77  A 1.5 1.5 0 0 1 44 75.5 L 53 75.5  A 1.5 1.5 0 0 1 54.5 77 L 54.5 86  A 1.5 1.5 0 0 1 53 87.5 L 44 87.5  A 1.5 1.5 0 0 1 42.5 86 L 42.5 77  Z " stroke-width="1" stroke="#797979" fill="none" />
  <path d="M 44.785714285714285 81.5  L 47.57142857142857 84.28571428571428  L 52.214285714285715 77.78571428571429  " stroke-width="2.7857142857142856" stroke="#797979" fill="none" />
</svg>