<?xml version="1.0" encoding="utf-8"?>
<svg version="1.1" xmlns:xlink="http://www.w3.org/1999/xlink" width="13px" height="13px" viewBox="42 208  13 13" xmlns="http://www.w3.org/2000/svg">
  <path d="M 42.5 210  A 1.5 1.5 0 0 1 44 208.5 L 53 208.5  A 1.5 1.5 0 0 1 54.5 210 L 54.5 219  A 1.5 1.5 0 0 1 53 220.5 L 44 220.5  A 1.5 1.5 0 0 1 42.5 219 L 42.5 210  Z " fill-rule="nonzero" fill="#ffffff" stroke="none" />
  <path d="M 42.5 210  A 1.5 1.5 0 0 1 44 208.5 L 53 208.5  A 1.5 1.5 0 0 1 54.5 210 L 54.5 219  A 1.5 1.5 0 0 1 53 220.5 L 44 220.5  A 1.5 1.5 0 0 1 42.5 219 L 42.5 210  Z " stroke-width="1" stroke="#797979" fill="none" />
</svg>