<?xml version="1.0" encoding="utf-8"?>
<svg version="1.1" xmlns:xlink="http://www.w3.org/1999/xlink" width="13px" height="13px" viewBox="42 280  13 13" xmlns="http://www.w3.org/2000/svg">
  <path d="M 42.5 282  A 1.5 1.5 0 0 1 44 280.5 L 53 280.5  A 1.5 1.5 0 0 1 54.5 282 L 54.5 291  A 1.5 1.5 0 0 1 53 292.5 L 44 292.5  A 1.5 1.5 0 0 1 42.5 291 L 42.5 282  Z " fill-rule="nonzero" fill="#f0f0f0" stroke="none" />
  <path d="M 42.5 282  A 1.5 1.5 0 0 1 44 280.5 L 53 280.5  A 1.5 1.5 0 0 1 54.5 282 L 54.5 291  A 1.5 1.5 0 0 1 53 292.5 L 44 292.5  A 1.5 1.5 0 0 1 42.5 291 L 42.5 282  Z " stroke-width="1" stroke="#797979" fill="none" />
  <path d="M 44.785714285714285 286.5  L 47.57142857142857 289.2857142857143  L 52.214285714285715 282.7857142857143  " stroke-width="2.7857142857142856" stroke="#797979" fill="none" />
</svg>