<?xml version="1.0" encoding="utf-8"?>
<svg version="1.1" xmlns:xlink="http://www.w3.org/1999/xlink" width="13px" height="13px" viewBox="214 256  13 13" xmlns="http://www.w3.org/2000/svg">
  <path d="M 214.5 258  A 1.5 1.5 0 0 1 216 256.5 L 225 256.5  A 1.5 1.5 0 0 1 226.5 258 L 226.5 267  A 1.5 1.5 0 0 1 225 268.5 L 216 268.5  A 1.5 1.5 0 0 1 214.5 267 L 214.5 258  Z " fill-rule="nonzero" fill="#f0f0f0" stroke="none" />
  <path d="M 214.5 258  A 1.5 1.5 0 0 1 216 256.5 L 225 256.5  A 1.5 1.5 0 0 1 226.5 258 L 226.5 267  A 1.5 1.5 0 0 1 225 268.5 L 216 268.5  A 1.5 1.5 0 0 1 214.5 267 L 214.5 258  Z " stroke-width="1" stroke="#797979" fill="none" />
</svg>