<?xml version="1.0" encoding="utf-8"?>
<svg version="1.1" xmlns:xlink="http://www.w3.org/1999/xlink" width="13px" height="13px" viewBox="214 319  13 13" xmlns="http://www.w3.org/2000/svg">
  <path d="M 214.5 325.5  A 6 6 0 0 1 220.5 319.5 A 6 6 0 0 1 226.5 325.5 A 6 6 0 0 1 220.5 331.5 A 6 6 0 0 1 214.5 325.5 Z " fill-rule="nonzero" fill="#f0f0f0" stroke="none" />
  <path d="M 214.5 325.5  A 6 6 0 0 1 220.5 319.5 A 6 6 0 0 1 226.5 325.5 A 6 6 0 0 1 220.5 331.5 A 6 6 0 0 1 214.5 325.5 Z " stroke-width="1" stroke="#797979" fill="none" />
  <path d="M 216.78571428571428 325.5  L 219.57142857142858 328.2857142857143  L 224.21428571428572 321.7857142857143  " stroke-width="2.7857142857142856" stroke="#797979" fill="none" />
</svg>