<?xml version="1.0" encoding="utf-8"?>
<svg version="1.1" xmlns:xlink="http://www.w3.org/1999/xlink" width="4px" height="4px" xmlns="http://www.w3.org/2000/svg">
  <g transform="matrix(1 0 0 1 -112 -31 )">
    <path d="M 114 31  C 115.12 31  116 31.88  116 33  C 116 34.12  115.12 35  114 35  C 112.88 35  112 34.12  112 33  C 112 31.88  112.88 31  114 31  Z " fill-rule="nonzero" fill="#797979" stroke="none" />
    <path d="M 114 31.5  C 114.84 31.5  115.5 32.16  115.5 33  C 115.5 33.84  114.84 34.5  114 34.5  C 113.16 34.5  112.5 33.84  112.5 33  C 112.5 32.16  113.16 31.5  114 31.5  Z " stroke-width="1" stroke="#797979" fill="none" />
  </g>
</svg>