<?xml version="1.0" encoding="utf-8"?>
<svg version="1.1" xmlns:xlink="http://www.w3.org/1999/xlink" width="13px" height="13px" viewBox="214 288  13 13" xmlns="http://www.w3.org/2000/svg">
  <path d="M 214.5 290  A 1.5 1.5 0 0 1 216 288.5 L 225 288.5  A 1.5 1.5 0 0 1 226.5 290 L 226.5 299  A 1.5 1.5 0 0 1 225 300.5 L 216 300.5  A 1.5 1.5 0 0 1 214.5 299 L 214.5 290  Z " fill-rule="nonzero" fill="#f0f0f0" stroke="none" />
  <path d="M 214.5 290  A 1.5 1.5 0 0 1 216 288.5 L 225 288.5  A 1.5 1.5 0 0 1 226.5 290 L 226.5 299  A 1.5 1.5 0 0 1 225 300.5 L 216 300.5  A 1.5 1.5 0 0 1 214.5 299 L 214.5 290  Z " stroke-width="1" stroke="#797979" fill="none" />
  <path d="M 216.78571428571428 294.5  L 219.57142857142858 297.2857142857143  L 224.21428571428572 290.7857142857143  " stroke-width="2.7857142857142856" stroke="#797979" fill="none" />
</svg>