<?xml version="1.0" encoding="utf-8"?>
<svg version="1.1" xmlns:xlink="http://www.w3.org/1999/xlink" width="13px" height="13px" viewBox="562 52  13 13" xmlns="http://www.w3.org/2000/svg">
  <path d="M 562.5 54  A 1.5 1.5 0 0 1 564 52.5 L 573 52.5  A 1.5 1.5 0 0 1 574.5 54 L 574.5 63  A 1.5 1.5 0 0 1 573 64.5 L 564 64.5  A 1.5 1.5 0 0 1 562.5 63 L 562.5 54  Z " fill-rule="nonzero" fill="#f0f0f0" stroke="none" />
  <path d="M 562.5 54  A 1.5 1.5 0 0 1 564 52.5 L 573 52.5  A 1.5 1.5 0 0 1 574.5 54 L 574.5 63  A 1.5 1.5 0 0 1 573 64.5 L 564 64.5  A 1.5 1.5 0 0 1 562.5 63 L 562.5 54  Z " stroke-width="1" stroke="#797979" fill="none" />
  <path d="M 564.7857142857143 58.5  L 567.5714285714286 61.285714285714285  L 572.2142857142857 54.785714285714285  " stroke-width="2.7857142857142856" stroke="#797979" fill="none" />
</svg>