<?xml version="1.0" encoding="utf-8"?>
<svg version="1.1" xmlns:xlink="http://www.w3.org/1999/xlink" width="13px" height="13px" viewBox="562 149  13 13" xmlns="http://www.w3.org/2000/svg">
  <path d="M 562.5 151  A 1.5 1.5 0 0 1 564 149.5 L 573 149.5  A 1.5 1.5 0 0 1 574.5 151 L 574.5 160  A 1.5 1.5 0 0 1 573 161.5 L 564 161.5  A 1.5 1.5 0 0 1 562.5 160 L 562.5 151  Z " fill-rule="nonzero" fill="#f0f0f0" stroke="none" />
  <path d="M 562.5 151  A 1.5 1.5 0 0 1 564 149.5 L 573 149.5  A 1.5 1.5 0 0 1 574.5 151 L 574.5 160  A 1.5 1.5 0 0 1 573 161.5 L 564 161.5  A 1.5 1.5 0 0 1 562.5 160 L 562.5 151  Z " stroke-width="1" stroke="#797979" fill="none" />
</svg>