<?xml version="1.0" encoding="utf-8"?>
<svg version="1.1" xmlns:xlink="http://www.w3.org/1999/xlink" width="13px" height="13px" viewBox="569 271  13 13" xmlns="http://www.w3.org/2000/svg">
  <path d="M 569.5 273  A 1.5 1.5 0 0 1 571 271.5 L 580 271.5  A 1.5 1.5 0 0 1 581.5 273 L 581.5 282  A 1.5 1.5 0 0 1 580 283.5 L 571 283.5  A 1.5 1.5 0 0 1 569.5 282 L 569.5 273  Z " fill-rule="nonzero" fill="#f0f0f0" stroke="none" />
  <path d="M 569.5 273  A 1.5 1.5 0 0 1 571 271.5 L 580 271.5  A 1.5 1.5 0 0 1 581.5 273 L 581.5 282  A 1.5 1.5 0 0 1 580 283.5 L 571 283.5  A 1.5 1.5 0 0 1 569.5 282 L 569.5 273  Z " stroke-width="1" stroke="#797979" fill="none" />
  <path d="M 571.7857142857143 277.5  L 574.5714285714286 280.2857142857143  L 579.2142857142857 273.7857142857143  " stroke-width="2.7857142857142856" stroke="#797979" fill="none" />
</svg>