<?xml version="1.0" encoding="utf-8"?>
<svg version="1.1" xmlns:xlink="http://www.w3.org/1999/xlink" width="13px" height="13px" viewBox="698 271  13 13" xmlns="http://www.w3.org/2000/svg">
  <path d="M 698.5 273  A 1.5 1.5 0 0 1 700 271.5 L 709 271.5  A 1.5 1.5 0 0 1 710.5 273 L 710.5 282  A 1.5 1.5 0 0 1 709 283.5 L 700 283.5  A 1.5 1.5 0 0 1 698.5 282 L 698.5 273  Z " fill-rule="nonzero" fill="#ffffff" stroke="none" />
  <path d="M 698.5 273  A 1.5 1.5 0 0 1 700 271.5 L 709 271.5  A 1.5 1.5 0 0 1 710.5 273 L 710.5 282  A 1.5 1.5 0 0 1 709 283.5 L 700 283.5  A 1.5 1.5 0 0 1 698.5 282 L 698.5 273  Z " stroke-width="1" stroke="#797979" fill="none" />
</svg>