<?xml version="1.0" encoding="utf-8"?>
<svg version="1.1" xmlns:xlink="http://www.w3.org/1999/xlink" width="13px" height="13px" viewBox="698 295  13 13" xmlns="http://www.w3.org/2000/svg">
  <path d="M 698.5 297  A 1.5 1.5 0 0 1 700 295.5 L 709 295.5  A 1.5 1.5 0 0 1 710.5 297 L 710.5 306  A 1.5 1.5 0 0 1 709 307.5 L 700 307.5  A 1.5 1.5 0 0 1 698.5 306 L 698.5 297  Z " fill-rule="nonzero" fill="#ffffff" stroke="none" />
  <path d="M 698.5 297  A 1.5 1.5 0 0 1 700 295.5 L 709 295.5  A 1.5 1.5 0 0 1 710.5 297 L 710.5 306  A 1.5 1.5 0 0 1 709 307.5 L 700 307.5  A 1.5 1.5 0 0 1 698.5 306 L 698.5 297  Z " stroke-width="1" stroke="#797979" fill="none" />
  <path d="M 700.7857142857143 301.5  L 703.5714285714286 304.2857142857143  L 708.2142857142857 297.7857142857143  " stroke-width="2.7857142857142856" stroke="#797979" fill="none" />
</svg>