<?xml version="1.0" encoding="utf-8"?>
<svg version="1.1" xmlns:xlink="http://www.w3.org/1999/xlink" width="30px" height="29px" xmlns="http://www.w3.org/2000/svg">
  <g transform="matrix(1 0 0 1 -42 -86 )">
    <path d="M 27.705605028810893 17.342329545454547  C 27.89418543740178 17.04024621212121  27.988475641697224 16.77249053030303  27.988475641697224 16.5390625  C 27.988475641697224 16.05847537878788  27.710843373493976 15.818181818181817  27.155578837087482 15.818181818181817  L 10.057621791513881 15.818181818181817  C 9.638554216867469 15.818181818181817  9.19067574646412 15.965790719696969  8.713986380303824 16.261008522727273  C 8.237297014143532 16.556226325757574  7.862755369303301 16.916666666666664  7.590361445783132 17.342329545454547  L 2.970141435306443 24.818892045454547  C 2.7815610267155577 25.1484375  2.6872708224201154 25.42305871212121  2.6872708224201154 25.642755681818183  C 2.6872708224201154 26.1233428030303  2.9649030906233635 26.363636363636363  3.520167627029859 26  L 20.618124672603457 26  C 21.03719224724987 26.363636363636363  21.487689889994762 26.2125946969697  21.969617600838134 25.910511363636363  C 22.45154531168151 25.60842803030303  22.823467784180203 25.244554924242426  23.085385018334208 24.818892045454547  L 27.705605028810893 17.342329545454547  Z M 7.857517024620221 13.892400568181817  C 8.61183865898376 13.418678977272728  9.345206914614984 13.181818181818183  10.057621791513881 13.181818181818183  L 22.12676794133054 13.181818181818183  L 22.12676794133054 9.886363636363637  C 22.12676794133054 9.337121212121211  21.980094290204296 8.870265151515149  21.686746987951807 8.485795454545455  C 21.393399685699322 8.101325757575756  21.03719224724987 7.909090909090908  20.618124672603457 7.909090909090908  L 11.566265060240964 7.909090909090908  C 11.147197485594551 7.909090909090908  10.790990047145105 7.716856060606058  10.497642744892614 7.332386363636362  C 10.204295442640126 6.947916666666664  10.057621791513881 6.481060606060604  10.057621791513881 5.931818181818183  L 10.057621791513881 4.613636363636362  C 10.057621791513881 4.0643939393939394  9.910948140387639 3.597537878787875  9.617600838135148 3.213068181818183  C 9.324253535882661 2.828598484848485  8.968046097433213 2.636363636363637  8.5489785227868 2.636363636363637  L 3.520167627029859 2.636363636363637  C 3.1011000523834467 2.636363636363637  2.744892613933997 2.828598484848485  2.451545311681509 3.213068181818183  C 2.1581980094290203 3.597537878787875  2.0115243583027764 4.0643939393939394  2 4.613636363636362  L 2 22.18252840909091  L 6.034573074908329 15.694602272727275  C 6.495547407019383 14.96685606060606  7.103195390256679 14.366122159090908  7.857517024620221 13.892400568181817  Z M 29.764274489261393 15.138494318181817  C 29.921424829753796 15.577888257575756  30 16.044744318181817  30 16.5390625  C 30 17.390388257575758  29.759036144578314 18.21425189393939  29.27710843373494 19.01065340909091  L 24.641173389209012 26.48721590909091  C 24.19067574646412 27.214962121212118  23.58302776322682 27.81569602272727  22.81822943949712 28.289417613636363  C 22.05343111576742 28.763139204545453  21.3200628601362 29  20.618124672603457 29  L 3.520167627029859 29  C 2.556312205343112 29  1.7286537454164488 28.546875  1.0371922472498691 27.640625  C 0.3457307490832897 26.734375  0 25.64962121212121  0 24.386363636363637  L 0 4.613636363636362  C 0 3.350378787878783  0.3457307490832897 2.265625  1.0371922472498691 1.359375  C 1.7286537454164488 0.453125  2.556312205343112 0  3.520167627029859 0  L 8.5489785227868 0  C 9.512833944473547 0  10.340492404400209 0.453125  11.031953902566789 1.359375  C 11.72341540073337 2.265625  12.069146149816659 3.350378787878783  12.069146149816659 4.613636363636362  L 12.069146149816659 5.272727272727272  L 20.618124672603457 5.272727272727272  C 21.58198009429021 5.272727272727272  22.409638554216865 5.725852272727272  23.101100052383444 6.632102272727272  C 23.792561550550026 7.538352272727272  24.138292299633317 8.623106060606057  24.138292299633317 9.886363636363637  L 24.138292299633317 13.181818181818183  L 27.155578837087482 13.181818181818183  C 27.72132006286014 13.181818181818183  28.239916186485075 13.350023674242427  28.711367207962283 13.686434659090908  C 29.1828182294395 14.022845643939393  29.533787323205868 14.506865530303031  29.764274489261393 15.138494318181817  Z " fill-rule="nonzero" fill="#000000" stroke="none" transform="matrix(1 0 0 1 42 86 )" />
  </g>
</svg>