<?xml version="1.0" encoding="utf-8"?>
<svg version="1.1" xmlns:xlink="http://www.w3.org/1999/xlink" width="13px" height="13px" viewBox="279 563  13 13" xmlns="http://www.w3.org/2000/svg">
  <path d="M 285.5 563  C 289.14 563  292 565.86  292 569.5  C 292 573.14  289.14 576  285.5 576  C 281.86 576  279 573.14  279 569.5  C 279 565.86  281.86 563  285.5 563  Z " fill-rule="nonzero" fill="#ffffff" stroke="none" />
  <path d="M 285.5 563.5  C 288.86 563.5  291.5 566.14  291.5 569.5  C 291.5 572.86  288.86 575.5  285.5 575.5  C 282.14 575.5  279.5 572.86  279.5 569.5  C 279.5 566.14  282.14 563.5  285.5 563.5  Z " stroke-width="1" stroke="#797979" fill="none" />
  <path d="M 285.5 572.75  C 283.68 572.75  282.25 571.32  282.25 569.5  C 282.25 567.68  283.68 566.25  285.5 566.25  C 287.32 566.25  288.75 567.68  288.75 569.5  C 288.75 571.32  287.32 572.75  285.5 572.75  " fill-rule="nonzero" fill="#797979" stroke="none" />
</svg>