<?xml version="1.0" encoding="utf-8"?>
<svg version="1.1" xmlns:xlink="http://www.w3.org/1999/xlink" width="75px" height="19px" xmlns="http://www.w3.org/2000/svg">
  <defs>
    <mask fill="white" id="clip131">
      <path d="M 0 19  L 0 0  L 22.85714285714234 0  L 26.30208333333286 0  L 44.28571428571376 0  L 75 0  L 75 19  L 0 19  Z " fill-rule="evenodd" />
    </mask>
  </defs>
  <g transform="matrix(1 0 0 1 -9 -25 )">
    <path d="M 0 19  L 0 0  L 22.85714285714234 0  L 26.30208333333286 0  L 44.28571428571376 0  L 75 0  L 75 19  L 0 19  Z " fill-rule="nonzero" fill="#fcfcfc" stroke="none" transform="matrix(1 0 0 1 9 25 )" />
    <path d="M 0 19  L 0 0  L 22.85714285714234 0  L 26.30208333333286 0  L 44.28571428571376 0  L 75 0  L 75 19  L 0 19  Z " stroke-width="2" stroke="#797979" fill="none" transform="matrix(1 0 0 1 9 25 )" mask="url(#clip131)" />
  </g>
</svg>