<?xml version="1.0" encoding="utf-8"?>
<svg version="1.1" xmlns:xlink="http://www.w3.org/1999/xlink" width="434px" height="45px" xmlns="http://www.w3.org/2000/svg">
  <g transform="matrix(1 0 0 1 -170 -102 )">
    <path d="M 171 107  A 4 4 0 0 1 175 103 L 599 103  A 4 4 0 0 1 603 107 L 603 142  A 4 4 0 0 1 599 146 L 175 146  A 4 4 0 0 1 171 142 L 171 107  Z " fill-rule="nonzero" fill="#e6e6e6" stroke="none" fill-opacity="0.3568627450980392" />
    <path d="M 170.5 107  A 4.5 4.5 0 0 1 175 102.5 L 599 102.5  A 4.5 4.5 0 0 1 603.5 107 L 603.5 142  A 4.5 4.5 0 0 1 599 146.5 L 175 146.5  A 4.5 4.5 0 0 1 170.5 142 L 170.5 107  Z " stroke-width="1" stroke="#000000" fill="none" stroke-opacity="0.34901960784313724" />
  </g>
</svg>