<?xml version="1.0" encoding="utf-8"?>
<svg version="1.1" xmlns:xlink="http://www.w3.org/1999/xlink" width="129px" height="101px" xmlns="http://www.w3.org/2000/svg">
  <g transform="matrix(1 0 0 1 -17 -62 )">
    <path d="M 18 67  A 4 4 0 0 1 22 63 L 141 63  A 4 4 0 0 1 145 67 L 145 158  A 4 4 0 0 1 141 162 L 22 162  A 4 4 0 0 1 18 158 L 18 67  Z " fill-rule="nonzero" fill="#e6e6e6" stroke="none" fill-opacity="0.3568627450980392" />
    <path d="M 17.5 67  A 4.5 4.5 0 0 1 22 62.5 L 141 62.5  A 4.5 4.5 0 0 1 145.5 67 L 145.5 158  A 4.5 4.5 0 0 1 141 162.5 L 22 162.5  A 4.5 4.5 0 0 1 17.5 158 L 17.5 67  Z " stroke-width="1" stroke="#000000" fill="none" stroke-opacity="0.34901960784313724" />
  </g>
</svg>