<?xml version="1.0" encoding="utf-8"?>
<svg version="1.1" xmlns:xlink="http://www.w3.org/1999/xlink" width="434px" height="50px" xmlns="http://www.w3.org/2000/svg">
  <g transform="matrix(1 0 0 1 -170 -147 )">
    <path d="M 171 152  A 4 4 0 0 1 175 148 L 599 148  A 4 4 0 0 1 603 152 L 603 192  A 4 4 0 0 1 599 196 L 175 196  A 4 4 0 0 1 171 192 L 171 152  Z " fill-rule="nonzero" fill="#fafdff" stroke="none" />
    <path d="M 170.5 152  A 4.5 4.5 0 0 1 175 147.5 L 599 147.5  A 4.5 4.5 0 0 1 603.5 152 L 603.5 192  A 4.5 4.5 0 0 1 599 196.5 L 175 196.5  A 4.5 4.5 0 0 1 170.5 192 L 170.5 152  Z " stroke-width="1" stroke="#000000" fill="none" stroke-opacity="0.34901960784313724" />
  </g>
</svg>