<?xml version="1.0" encoding="utf-8"?>
<svg version="1.1" xmlns:xlink="http://www.w3.org/1999/xlink" width="13px" height="13px" viewBox="608 130  13 13" xmlns="http://www.w3.org/2000/svg">
  <path d="M 614.5 130  C 618.14 130  621 132.86  621 136.5  C 621 140.14  618.14 143  614.5 143  C 610.86 143  608 140.14  608 136.5  C 608 132.86  610.86 130  614.5 130  Z " fill-rule="nonzero" fill="#f0f0f0" stroke="none" />
  <path d="M 614.5 130.5  C 617.86 130.5  620.5 133.14  620.5 136.5  C 620.5 139.86  617.86 142.5  614.5 142.5  C 611.14 142.5  608.5 139.86  608.5 136.5  C 608.5 133.14  611.14 130.5  614.5 130.5  Z " stroke-width="1" stroke="#797979" fill="none" />
  <path d="M 614.5 139.75  C 612.68 139.75  611.25 138.32  611.25 136.5  C 611.25 134.68  612.68 133.25  614.5 133.25  C 616.32 133.25  617.75 134.68  617.75 136.5  C 617.75 138.32  616.32 139.75  614.5 139.75  " fill-rule="nonzero" fill="#797979" stroke="none" />
</svg>