<?xml version="1.0" encoding="utf-8"?>
<svg version="1.1" xmlns:xlink="http://www.w3.org/1999/xlink" width="13px" height="13px" viewBox="337 130  13 13" xmlns="http://www.w3.org/2000/svg">
  <path d="M 343.5 130  C 347.14 130  350 132.86  350 136.5  C 350 140.14  347.14 143  343.5 143  C 339.86 143  337 140.14  337 136.5  C 337 132.86  339.86 130  343.5 130  Z " fill-rule="nonzero" fill="#ffffff" stroke="none" />
  <path d="M 343.5 130.5  C 346.86 130.5  349.5 133.14  349.5 136.5  C 349.5 139.86  346.86 142.5  343.5 142.5  C 340.14 142.5  337.5 139.86  337.5 136.5  C 337.5 133.14  340.14 130.5  343.5 130.5  Z " stroke-width="1" stroke="#797979" fill="none" />
  <path d="M 343.5 139.75  C 341.68 139.75  340.25 138.32  340.25 136.5  C 340.25 134.68  341.68 133.25  343.5 133.25  C 345.32 133.25  346.75 134.68  346.75 136.5  C 346.75 138.32  345.32 139.75  343.5 139.75  " fill-rule="nonzero" fill="#797979" stroke="none" />
</svg>