<?xml version="1.0" encoding="utf-8"?>
<svg version="1.1" xmlns:xlink="http://www.w3.org/1999/xlink" width="13px" height="13px" viewBox="524 131  13 13" xmlns="http://www.w3.org/2000/svg">
  <path d="M 530.5 131  C 534.14 131  537 133.86  537 137.5  C 537 141.14  534.14 144  530.5 144  C 526.86 144  524 141.14  524 137.5  C 524 133.86  526.86 131  530.5 131  Z " fill-rule="nonzero" fill="#f0f0f0" stroke="none" />
  <path d="M 530.5 131.5  C 533.86 131.5  536.5 134.14  536.5 137.5  C 536.5 140.86  533.86 143.5  530.5 143.5  C 527.14 143.5  524.5 140.86  524.5 137.5  C 524.5 134.14  527.14 131.5  530.5 131.5  Z " stroke-width="1" stroke="#797979" fill="none" />
  <path d="M 530.5 140.75  C 528.68 140.75  527.25 139.32  527.25 137.5  C 527.25 135.68  528.68 134.25  530.5 134.25  C 532.32 134.25  533.75 135.68  533.75 137.5  C 533.75 139.32  532.32 140.75  530.5 140.75  " fill-rule="nonzero" fill="#797979" stroke="none" />
</svg>