<?xml version="1.0" encoding="utf-8"?>
<svg version="1.1" xmlns:xlink="http://www.w3.org/1999/xlink" width="13px" height="13px" viewBox="626 180  13 13" xmlns="http://www.w3.org/2000/svg">
  <path d="M 632.5 180  C 636.14 180  639 182.86  639 186.5  C 639 190.14  636.14 193  632.5 193  C 628.86 193  626 190.14  626 186.5  C 626 182.86  628.86 180  632.5 180  Z " fill-rule="nonzero" fill="#ffffff" stroke="none" />
  <path d="M 632.5 180.5  C 635.86 180.5  638.5 183.14  638.5 186.5  C 638.5 189.86  635.86 192.5  632.5 192.5  C 629.14 192.5  626.5 189.86  626.5 186.5  C 626.5 183.14  629.14 180.5  632.5 180.5  Z " stroke-width="1" stroke="#797979" fill="none" />
  <path d="M 632.5 189.75  C 630.68 189.75  629.25 188.32  629.25 186.5  C 629.25 184.68  630.68 183.25  632.5 183.25  C 634.32 183.25  635.75 184.68  635.75 186.5  C 635.75 188.32  634.32 189.75  632.5 189.75  " fill-rule="nonzero" fill="#797979" stroke="none" />
</svg>