<?xml version="1.0" encoding="utf-8"?>
<svg version="1.1" xmlns:xlink="http://www.w3.org/1999/xlink" width="13px" height="13px" viewBox="263 132  13 13" xmlns="http://www.w3.org/2000/svg">
  <path d="M 269.5 132  C 273.14 132  276 134.86  276 138.5  C 276 142.14  273.14 145  269.5 145  C 265.86 145  263 142.14  263 138.5  C 263 134.86  265.86 132  269.5 132  Z " fill-rule="nonzero" fill="#f0f0f0" stroke="none" />
  <path d="M 269.5 132.5  C 272.86 132.5  275.5 135.14  275.5 138.5  C 275.5 141.86  272.86 144.5  269.5 144.5  C 266.14 144.5  263.5 141.86  263.5 138.5  C 263.5 135.14  266.14 132.5  269.5 132.5  Z " stroke-width="1" stroke="#797979" fill="none" />
  <path d="M 269.5 141.75  C 267.68 141.75  266.25 140.32  266.25 138.5  C 266.25 136.68  267.68 135.25  269.5 135.25  C 271.32 135.25  272.75 136.68  272.75 138.5  C 272.75 140.32  271.32 141.75  269.5 141.75  " fill-rule="nonzero" fill="#797979" stroke="none" />
</svg>