<?xml version="1.0" encoding="utf-8"?>
<svg version="1.1" xmlns:xlink="http://www.w3.org/1999/xlink" width="13px" height="13px" viewBox="524 132  13 13" xmlns="http://www.w3.org/2000/svg">
  <path d="M 530.5 132  C 534.14 132  537 134.86  537 138.5  C 537 142.14  534.14 145  530.5 145  C 526.86 145  524 142.14  524 138.5  C 524 134.86  526.86 132  530.5 132  Z " fill-rule="nonzero" fill="#ffffff" stroke="none" />
  <path d="M 530.5 132.5  C 533.86 132.5  536.5 135.14  536.5 138.5  C 536.5 141.86  533.86 144.5  530.5 144.5  C 527.14 144.5  524.5 141.86  524.5 138.5  C 524.5 135.14  527.14 132.5  530.5 132.5  Z " stroke-width="1" stroke="#797979" fill="none" />
  <path d="M 530.5 141.75  C 528.68 141.75  527.25 140.32  527.25 138.5  C 527.25 136.68  528.68 135.25  530.5 135.25  C 532.32 135.25  533.75 136.68  533.75 138.5  C 533.75 140.32  532.32 141.75  530.5 141.75  " fill-rule="nonzero" fill="#797979" stroke="none" />
</svg>