<?xml version="1.0" encoding="utf-8"?>
<svg version="1.1" xmlns:xlink="http://www.w3.org/1999/xlink" width="13px" height="13px" viewBox="813 182  13 13" xmlns="http://www.w3.org/2000/svg">
  <path d="M 819.5 182  C 823.14 182  826 184.86  826 188.5  C 826 192.14  823.14 195  819.5 195  C 815.86 195  813 192.14  813 188.5  C 813 184.86  815.86 182  819.5 182  Z " fill-rule="nonzero" fill="#f0f0f0" stroke="none" />
  <path d="M 819.5 182.5  C 822.86 182.5  825.5 185.14  825.5 188.5  C 825.5 191.86  822.86 194.5  819.5 194.5  C 816.14 194.5  813.5 191.86  813.5 188.5  C 813.5 185.14  816.14 182.5  819.5 182.5  Z " stroke-width="1" stroke="#797979" fill="none" />
  <path d="M 819.5 191.75  C 817.68 191.75  816.25 190.32  816.25 188.5  C 816.25 186.68  817.68 185.25  819.5 185.25  C 821.32 185.25  822.75 186.68  822.75 188.5  C 822.75 190.32  821.32 191.75  819.5 191.75  " fill-rule="nonzero" fill="#797979" stroke="none" />
</svg>