<?xml version="1.0" encoding="utf-8"?>
<svg version="1.1" xmlns:xlink="http://www.w3.org/1999/xlink" width="13px" height="13px" viewBox="26 137  13 13" xmlns="http://www.w3.org/2000/svg">
  <path d="M 32.5 137  C 36.14 137  39 139.86  39 143.5  C 39 147.14  36.14 150  32.5 150  C 28.86 150  26 147.14  26 143.5  C 26 139.86  28.86 137  32.5 137  Z " fill-rule="nonzero" fill="#ffffff" stroke="none" />
  <path d="M 32.5 137.5  C 35.86 137.5  38.5 140.14  38.5 143.5  C 38.5 146.86  35.86 149.5  32.5 149.5  C 29.14 149.5  26.5 146.86  26.5 143.5  C 26.5 140.14  29.14 137.5  32.5 137.5  Z " stroke-width="1" stroke="#797979" fill="none" />
  <path d="M 32.5 146.75  C 30.68 146.75  29.25 145.32  29.25 143.5  C 29.25 141.68  30.68 140.25  32.5 140.25  C 34.32 140.25  35.75 141.68  35.75 143.5  C 35.75 145.32  34.32 146.75  32.5 146.75  " fill-rule="nonzero" fill="#797979" stroke="none" />
</svg>