<?xml version="1.0" encoding="utf-8"?>
<svg version="1.1" xmlns:xlink="http://www.w3.org/1999/xlink" width="13px" height="13px" viewBox="613 180  13 13" xmlns="http://www.w3.org/2000/svg">
  <path d="M 619.5 180  C 623.14 180  626 182.86  626 186.5  C 626 190.14  623.14 193  619.5 193  C 615.86 193  613 190.14  613 186.5  C 613 182.86  615.86 180  619.5 180  Z " fill-rule="nonzero" fill="#ffffff" stroke="none" />
  <path d="M 619.5 180.5  C 622.86 180.5  625.5 183.14  625.5 186.5  C 625.5 189.86  622.86 192.5  619.5 192.5  C 616.14 192.5  613.5 189.86  613.5 186.5  C 613.5 183.14  616.14 180.5  619.5 180.5  Z " stroke-width="1" stroke="#797979" fill="none" />
  <path d="M 619.5 189.75  C 617.68 189.75  616.25 188.32  616.25 186.5  C 616.25 184.68  617.68 183.25  619.5 183.25  C 621.32 183.25  622.75 184.68  622.75 186.5  C 622.75 188.32  621.32 189.75  619.5 189.75  " fill-rule="nonzero" fill="#797979" stroke="none" />
</svg>