<?xml version="1.0" encoding="utf-8"?>
<svg version="1.1" xmlns:xlink="http://www.w3.org/1999/xlink" width="13px" height="13px" viewBox="886 180  13 13" xmlns="http://www.w3.org/2000/svg">
  <path d="M 892.5 180  C 896.14 180  899 182.86  899 186.5  C 899 190.14  896.14 193  892.5 193  C 888.86 193  886 190.14  886 186.5  C 886 182.86  888.86 180  892.5 180  Z " fill-rule="nonzero" fill="#f0f0f0" stroke="none" />
  <path d="M 892.5 180.5  C 895.86 180.5  898.5 183.14  898.5 186.5  C 898.5 189.86  895.86 192.5  892.5 192.5  C 889.14 192.5  886.5 189.86  886.5 186.5  C 886.5 183.14  889.14 180.5  892.5 180.5  Z " stroke-width="1" stroke="#797979" fill="none" />
  <path d="M 892.5 189.75  C 890.68 189.75  889.25 188.32  889.25 186.5  C 889.25 184.68  890.68 183.25  892.5 183.25  C 894.32 183.25  895.75 184.68  895.75 186.5  C 895.75 188.32  894.32 189.75  892.5 189.75  " fill-rule="nonzero" fill="#797979" stroke="none" />
</svg>