<?xml version="1.0" encoding="utf-8"?>
<svg version="1.1" xmlns:xlink="http://www.w3.org/1999/xlink" width="8px" height="8px" xmlns="http://www.w3.org/2000/svg">
  <g transform="matrix(1 0 0 1 -20 -3 )">
    <path d="M 7.81144781144782 5.979797979797979  C 7.937149270482607 6.105499438832766  8 6.258136924803594  8 6.437710437710436  C 8 6.617283950617292  7.937149270482607 6.769921436588106  7.81144781144782 6.895622895622893  L 6.895622895622893 7.811447811447806  C 6.769921436588106 7.937149270482607  6.617283950617292 8  6.437710437710436 8  C 6.258136924803594 8  6.105499438832766 7.937149270482607  5.979797979797979 7.811447811447806  L 4 5.831649831649827  L 2.0202020202020208 7.811447811447806  C 1.8945005611672343 7.937149270482607  1.741863075196406 8  1.562289562289564 8  C 1.3827160493827222 8  1.2300785634118938 7.937149270482607  1.1043771043771073 7.811447811447806  L 0.1885521885521939 6.895622895622893  C 0.06285072951739323 6.769921436588106  0 6.617283950617292  0 6.437710437710436  C 0 6.258136924803594  0.06285072951739323 6.105499438832766  0.1885521885521939 5.979797979797979  L 2.168350168350173 4  L 0.1885521885521939 2.0202020202020208  C 0.06285072951739323 1.8945005611672343  0 1.741863075196406  0 1.562289562289564  C 0 1.3827160493827222  0.06285072951739323 1.2300785634118938  0.1885521885521939 1.1043771043771073  L 1.1043771043771073 0.1885521885521939  C 1.2300785634118938 0.06285072951739323  1.3827160493827222 0  1.562289562289564 0  C 1.741863075196406 0  1.8945005611672343 0.06285072951739323  2.0202020202020208 0.1885521885521939  L 4 2.168350168350173  L 5.979797979797979 0.1885521885521939  C 6.105499438832766 0.06285072951739323  6.258136924803594 0  6.437710437710436 0  C 6.617283950617292 0  6.769921436588106 0.06285072951739323  6.895622895622893 0.1885521885521939  L 7.81144781144782 1.1043771043771073  C 7.937149270482607 1.2300785634118938  8 1.3827160493827222  8 1.562289562289564  C 8 1.741863075196406  7.937149270482607 1.8945005611672343  7.81144781144782 2.0202020202020208  L 5.831649831649827 4  L 7.81144781144782 5.979797979797979  Z " fill-rule="nonzero" fill="#ffffff" stroke="none" transform="matrix(1 0 0 1 20 3 )" />
  </g>
</svg>