<?xml version="1.0" encoding="utf-8"?>
<svg version="1.1" xmlns:xlink="http://www.w3.org/1999/xlink" width="13px" height="13px" viewBox="623 515  13 13" xmlns="http://www.w3.org/2000/svg">
  <path d="M 623.5 517  A 1.5 1.5 0 0 1 625 515.5 L 634 515.5  A 1.5 1.5 0 0 1 635.5 517 L 635.5 526  A 1.5 1.5 0 0 1 634 527.5 L 625 527.5  A 1.5 1.5 0 0 1 623.5 526 L 623.5 517  Z " fill-rule="nonzero" fill="#ffffff" stroke="none" />
  <path d="M 623.5 517  A 1.5 1.5 0 0 1 625 515.5 L 634 515.5  A 1.5 1.5 0 0 1 635.5 517 L 635.5 526  A 1.5 1.5 0 0 1 634 527.5 L 625 527.5  A 1.5 1.5 0 0 1 623.5 526 L 623.5 517  Z " stroke-width="1" stroke="#797979" fill="none" />
  <path d="M 625.7857142857143 521.5  L 628.5714285714286 524.2857142857142  L 633.2142857142857 517.7857142857143  " stroke-width="2.7857142857142856" stroke="#797979" fill="none" />
</svg>