<?xml version="1.0" encoding="utf-8"?>
<svg version="1.1" xmlns:xlink="http://www.w3.org/1999/xlink" width="10px" height="10px" xmlns="http://www.w3.org/2000/svg">
  <g transform="matrix(1 0 0 1 -479 -416 )">
    <path d="M 484 416  C 486.8 416  489 418.2  489 421  C 489 423.8  486.8 426  484 426  C 481.2 426  479 423.8  479 421  C 479 418.2  481.2 416  484 416  Z " fill-rule="nonzero" fill="#333333" stroke="none" />
    <path d="M 484 416.5  C 486.52 416.5  488.5 418.48  488.5 421  C 488.5 423.52  486.52 425.5  484 425.5  C 481.48 425.5  479.5 423.52  479.5 421  C 479.5 418.48  481.48 416.5  484 416.5  Z " stroke-width="1" stroke="#797979" fill="none" />
  </g>
</svg>