<?xml version="1.0" encoding="utf-8"?>
<svg version="1.1" xmlns:xlink="http://www.w3.org/1999/xlink" width="10px" height="10px" xmlns="http://www.w3.org/2000/svg">
  <g transform="matrix(1 0 0 1 -564 -424 )">
    <path d="M 569 424  C 571.8 424  574 426.2  574 429  C 574 431.8  571.8 434  569 434  C 566.2 434  564 431.8  564 429  C 564 426.2  566.2 424  569 424  Z " fill-rule="nonzero" fill="#ffffff" stroke="none" />
    <path d="M 569 424.5  C 571.52 424.5  573.5 426.48  573.5 429  C 573.5 431.52  571.52 433.5  569 433.5  C 566.48 433.5  564.5 431.52  564.5 429  C 564.5 426.48  566.48 424.5  569 424.5  Z " stroke-width="1" stroke="#797979" fill="none" />
  </g>
</svg>