<?xml version="1.0" encoding="utf-8"?>
<svg version="1.1" xmlns:xlink="http://www.w3.org/1999/xlink" width="13px" height="13px" viewBox="613 132  13 13" xmlns="http://www.w3.org/2000/svg">
  <path d="M 619.5 132  C 623.14 132  626 134.86  626 138.5  C 626 142.14  623.14 145  619.5 145  C 615.86 145  613 142.14  613 138.5  C 613 134.86  615.86 132  619.5 132  Z " fill-rule="nonzero" fill="#ffffff" stroke="none" />
  <path d="M 619.5 132.5  C 622.86 132.5  625.5 135.14  625.5 138.5  C 625.5 141.86  622.86 144.5  619.5 144.5  C 616.14 144.5  613.5 141.86  613.5 138.5  C 613.5 135.14  616.14 132.5  619.5 132.5  Z " stroke-width="1" stroke="#797979" fill="none" />
  <path d="M 619.5 141.75  C 617.68 141.75  616.25 140.32  616.25 138.5  C 616.25 136.68  617.68 135.25  619.5 135.25  C 621.32 135.25  622.75 136.68  622.75 138.5  C 622.75 140.32  621.32 141.75  619.5 141.75  " fill-rule="nonzero" fill="#797979" stroke="none" />
</svg>