<?xml version="1.0" encoding="utf-8"?>
<svg version="1.1" xmlns:xlink="http://www.w3.org/1999/xlink" width="13px" height="13px" viewBox="373 678  13 13" xmlns="http://www.w3.org/2000/svg">
  <path d="M 379.5 678  C 383.14 678  386 680.86  386 684.5  C 386 688.14  383.14 691  379.5 691  C 375.86 691  373 688.14  373 684.5  C 373 680.86  375.86 678  379.5 678  Z " fill-rule="nonzero" fill="#f0f0f0" stroke="none" />
  <path d="M 379.5 678.5  C 382.86 678.5  385.5 681.14  385.5 684.5  C 385.5 687.86  382.86 690.5  379.5 690.5  C 376.14 690.5  373.5 687.86  373.5 684.5  C 373.5 681.14  376.14 678.5  379.5 678.5  Z " stroke-width="1" stroke="#797979" fill="none" />
  <path d="M 379.5 687.75  C 377.68 687.75  376.25 686.32  376.25 684.5  C 376.25 682.68  377.68 681.25  379.5 681.25  C 381.32 681.25  382.75 682.68  382.75 684.5  C 382.75 686.32  381.32 687.75  379.5 687.75  " fill-rule="nonzero" fill="#797979" stroke="none" />
</svg>