<?xml version="1.0" encoding="utf-8"?>
<svg version="1.1" xmlns:xlink="http://www.w3.org/1999/xlink" width="13px" height="13px" viewBox="706 609  13 13" xmlns="http://www.w3.org/2000/svg">
  <path d="M 712.5 609  C 716.14 609  719 611.86  719 615.5  C 719 619.14  716.14 622  712.5 622  C 708.86 622  706 619.14  706 615.5  C 706 611.86  708.86 609  712.5 609  Z " fill-rule="nonzero" fill="#ffffff" stroke="none" />
  <path d="M 712.5 609.5  C 715.86 609.5  718.5 612.14  718.5 615.5  C 718.5 618.86  715.86 621.5  712.5 621.5  C 709.14 621.5  706.5 618.86  706.5 615.5  C 706.5 612.14  709.14 609.5  712.5 609.5  Z " stroke-width="1" stroke="#797979" fill="none" />
  <path d="M 712.5 618.75  C 710.68 618.75  709.25 617.32  709.25 615.5  C 709.25 613.68  710.68 612.25  712.5 612.25  C 714.32 612.25  715.75 613.68  715.75 615.5  C 715.75 617.32  714.32 618.75  712.5 618.75  " fill-rule="nonzero" fill="#797979" stroke="none" />
</svg>