<?xml version="1.0" encoding="utf-8"?>
<svg version="1.1" xmlns:xlink="http://www.w3.org/1999/xlink" width="13px" height="13px" viewBox="706 631  13 13" xmlns="http://www.w3.org/2000/svg">
  <path d="M 712.5 631  C 716.14 631  719 633.86  719 637.5  C 719 641.14  716.14 644  712.5 644  C 708.86 644  706 641.14  706 637.5  C 706 633.86  708.86 631  712.5 631  Z " fill-rule="nonzero" fill="#ffffff" stroke="none" />
  <path d="M 712.5 631.5  C 715.86 631.5  718.5 634.14  718.5 637.5  C 718.5 640.86  715.86 643.5  712.5 643.5  C 709.14 643.5  706.5 640.86  706.5 637.5  C 706.5 634.14  709.14 631.5  712.5 631.5  Z " stroke-width="1" stroke="#797979" fill="none" />
  <path d="M 712.5 640.75  C 710.68 640.75  709.25 639.32  709.25 637.5  C 709.25 635.68  710.68 634.25  712.5 634.25  C 714.32 634.25  715.75 635.68  715.75 637.5  C 715.75 639.32  714.32 640.75  712.5 640.75  " fill-rule="nonzero" fill="#797979" stroke="none" />
</svg>