<?xml version="1.0" encoding="utf-8"?>
<svg version="1.1" xmlns:xlink="http://www.w3.org/1999/xlink" width="22px" height="20px" xmlns="http://www.w3.org/2000/svg">
  <g transform="matrix(1 0 0 1 -648 -139 )">
    <path d="M 8.884451620526715 0.9392241379310349  L 10.54625 3.3620689581088357  L 18.80645160527974 3.3620689581088357  C 20.42322067131666 3.3620689581088357  21.73387096011845 4.635741652555717  21.73387096011845 6.206896544315734  L 21.73387096011845 16.637931041891164  C 21.73387096011845 18.209085933651178  20.42322067131666 19.48275862809806  18.80645160527974 19.48275862809806  L 3.193548394720262 19.48275862809806  C 1.5767793286833423 19.48275862809806  0.2661290398815522 18.209085933651178  0.2661290398815522 16.637931041891164  L 0.2661290398815522 3.3620689581088357  C 0.2661290398815522 1.7909140663488208  1.5767793286833423 0.5172413719019399  3.193548394720262 0.5172413719019399  L 8.07258064516129 0.5172413719019399  C 8.39877179909707 0.517193936562317  8.703415533131949 0.6755373303307753  8.884451620526715 0.9392241379310349  Z M 9.212322588268647 4.836637931034482  L 7.5505241859249 2.4137931108566817  L 3.193548394720262 2.4137931108566817  C 2.6546253774290913 2.413793110856681  2.2177419481148792 2.838350665443436  2.217741935483871 3.3620689581088357  L 2.217741935483871 16.63793104189117  C 2.21774194811488 17.161649334556568  2.6546253774290913 17.58620688914332  3.193548394720262 17.58620688914332  L 18.806451605279733 17.58620688914332  C 19.345374622570905 17.58620688914332  19.78225805188512 17.161649334556568  19.782258064516125 16.637931041891164  L 19.782258064516125 6.206896544315733  C 19.78225805188512 5.683178251650331  19.345374622570905 5.258620697063576  18.806451605279733 5.258620697063576  L 10.024193540763608 5.258620697063576  C 9.698002394929993 5.258668124973351  9.39335867116722 5.100324732083435  9.212322588268647 4.836637931034482  Z " fill-rule="nonzero" fill="#388bd6" stroke="none" transform="matrix(1 0 0 1 648 139 )" />
  </g>
</svg>