<?xml version="1.0" encoding="utf-8"?>
<svg version="1.1" xmlns:xlink="http://www.w3.org/1999/xlink" width="10px" height="10px" xmlns="http://www.w3.org/2000/svg">
  <g transform="matrix(1 0 0 1 -800 -717 )">
    <path d="M 805 717  C 807.8 717  810 719.2  810 722  C 810 724.8  807.8 727  805 727  C 802.2 727  800 724.8  800 722  C 800 719.2  802.2 717  805 717  Z " fill-rule="nonzero" fill="#333333" stroke="none" />
    <path d="M 805 717.5  C 807.52 717.5  809.5 719.48  809.5 722  C 809.5 724.52  807.52 726.5  805 726.5  C 802.48 726.5  800.5 724.52  800.5 722  C 800.5 719.48  802.48 717.5  805 717.5  Z " stroke-width="1" stroke="#d7d7d7" fill="none" />
  </g>
</svg>