<?xml version="1.0" encoding="utf-8"?>
<svg version="1.1" xmlns:xlink="http://www.w3.org/1999/xlink" width="13px" height="13px" xmlns="http://www.w3.org/2000/svg">
  <g transform="matrix(1 0 0 1 -606 -396 )">
    <path d="M 1.7323735993221505 0.9998163853975186  L 11.247039319738052 0.9998163853975186  C 11.650203118393842 0.9998163853975186  11.979596533662685 1.3274941919806984  11.979596516486675 1.7323735993221505  L 11.979596516486675 11.248754911247701  C 11.979596516486675 11.651918709903493  11.651918709903496 11.981312125172334  11.247039319738052 11.981312107996326  L 1.7323735993221512 11.981312107996326  C 1.3292098006663604 11.981312107996326  0.9998163853975186 11.653634301413144  0.9998163853975186 11.248754911247701  L 0.9998163853975186 1.7323735993221512  C 0.9998163853975186 1.3292098006663604  1.3274941919806984 0.9998163853975186  1.7323735993221505 0.9998163853975186  Z M 12.712153730411305 1.7323735993221512  C 12.712153730411305 0.9226148189912681  12.056798100068933 0.26725918864889736  11.24703931973805 0.26725918864889736  L 1.7323735993221512 0.26725918864889736  C 0.9243304105009191 0.26725918864889736  0.2689747801585474 0.9226148189912681  0.2689747801585474 1.7306580078125  L 0.2689747801585474 11.24703931973805  C 0.2689747801585474 12.05508250855928  0.9243304105009186 12.710438138901651  1.7323735993221505 12.710438138901651  L 11.248754911247701 12.710438138901651  C 12.056798100068933 12.710438138901651  12.712153730411305 12.05508250855928  12.712153730411305 11.24703931973805  L 12.712153730411305 1.7323735993221512  Z " fill-rule="nonzero" fill="#000000" stroke="none" transform="matrix(1 0 0 1 606 396 )" />
  </g>
</svg>