<?xml version="1.0" encoding="utf-8"?>
<svg version="1.1" xmlns:xlink="http://www.w3.org/1999/xlink" width="13px" height="13px" viewBox="588 223  13 13" xmlns="http://www.w3.org/2000/svg">
  <path d="M 594.5 223  C 598.14 223  601 225.86  601 229.5  C 601 233.14  598.14 236  594.5 236  C 590.86 236  588 233.14  588 229.5  C 588 225.86  590.86 223  594.5 223  Z " fill-rule="nonzero" fill="#f0f0f0" stroke="none" />
  <path d="M 594.5 223.5  C 597.86 223.5  600.5 226.14  600.5 229.5  C 600.5 232.86  597.86 235.5  594.5 235.5  C 591.14 235.5  588.5 232.86  588.5 229.5  C 588.5 226.14  591.14 223.5  594.5 223.5  Z " stroke-width="1" stroke="#797979" fill="none" />
  <path d="M 594.5 232.75  C 592.68 232.75  591.25 231.32  591.25 229.5  C 591.25 227.68  592.68 226.25  594.5 226.25  C 596.32 226.25  597.75 227.68  597.75 229.5  C 597.75 231.32  596.32 232.75  594.5 232.75  " fill-rule="nonzero" fill="#797979" stroke="none" />
</svg>