<?xml version="1.0" encoding="utf-8"?>
<svg version="1.1" xmlns:xlink="http://www.w3.org/1999/xlink" width="13px" height="13px" viewBox="588 245  13 13" xmlns="http://www.w3.org/2000/svg">
  <path d="M 594.5 245  C 598.14 245  601 247.86  601 251.5  C 601 255.14  598.14 258  594.5 258  C 590.86 258  588 255.14  588 251.5  C 588 247.86  590.86 245  594.5 245  Z " fill-rule="nonzero" fill="#f0f0f0" stroke="none" />
  <path d="M 594.5 245.5  C 597.86 245.5  600.5 248.14  600.5 251.5  C 600.5 254.86  597.86 257.5  594.5 257.5  C 591.14 257.5  588.5 254.86  588.5 251.5  C 588.5 248.14  591.14 245.5  594.5 245.5  Z " stroke-width="1" stroke="#797979" fill="none" />
  <path d="M 594.5 254.75  C 592.68 254.75  591.25 253.32  591.25 251.5  C 591.25 249.68  592.68 248.25  594.5 248.25  C 596.32 248.25  597.75 249.68  597.75 251.5  C 597.75 253.32  596.32 254.75  594.5 254.75  " fill-rule="nonzero" fill="#797979" stroke="none" />
</svg>