<?xml version="1.0" encoding="utf-8"?>
<svg version="1.1" xmlns:xlink="http://www.w3.org/1999/xlink" width="7px" height="8px" xmlns="http://www.w3.org/2000/svg">
  <g transform="matrix(1 0 0 1 -609 -399 )">
    <path d="M 3.861197822374134 0.8912212179687501  C 3.861197822374134 0.7081544968750002  3.7181146277126746 0.5609832109374999  3.5401330933159727 0.5609832289062495  L 3.440672827690973 0.5609832289062495  C 3.2626912932942718 0.5609832289062495  3.117863180772571 0.7099492874999995  3.117863180772571 0.8930159906249997  L 3.117863180772571 3.624658607812499  L 0.4620995426432293 3.624658607812499  C 0.284118008246528 3.624658607812499  0.13928989572482664 3.773624666406249  0.13928989572482664 3.9566913695312493  L 0.13928989572482664 4.058993374999998  C 0.13928989572482664 4.242060096093749  0.284118008246528 4.391026154687499  0.4620995426432293 4.391026136718748  L 3.117863180772569 4.391026136718748  L 3.117863180772569 7.12087398125  C 3.117863180772569 7.303940702343749  3.262691293294271 7.452906760937499  3.440672827690971 7.45290674296875  L 3.5401330933159714 7.45290674296875  C 3.7181146277126724 7.45290674296875  3.8629427402343737 7.303940684374998  3.8629427402343737 7.12087398125  L 3.8629427402343737 4.389231364062501  L 6.518706378363714 4.389231364062501  C 6.696687912760414 4.389231364062501  6.841516025282116 4.240265305468751  6.841516025282116 4.0571986023437505  L 6.841516025282116 3.954896596875001  C 6.841516025282116 3.7718298757812505  6.696687912760414 3.6228638171875005  6.518706378363714 3.622863835156251  L 3.861197822374134 3.622863835156251  L 3.861197822374134 0.8912212179687501  Z " fill-rule="nonzero" fill="#000000" stroke="none" transform="matrix(1 0 0 1 609 399 )" />
  </g>
</svg>