<?xml version="1.0" encoding="utf-8"?>
<svg version="1.1" xmlns:xlink="http://www.w3.org/1999/xlink" width="13px" height="13px" viewBox="588 268  13 13" xmlns="http://www.w3.org/2000/svg">
  <path d="M 594.5 268  C 598.14 268  601 270.86  601 274.5  C 601 278.14  598.14 281  594.5 281  C 590.86 281  588 278.14  588 274.5  C 588 270.86  590.86 268  594.5 268  Z " fill-rule="nonzero" fill="#f0f0f0" stroke="none" />
  <path d="M 594.5 268.5  C 597.86 268.5  600.5 271.14  600.5 274.5  C 600.5 277.86  597.86 280.5  594.5 280.5  C 591.14 280.5  588.5 277.86  588.5 274.5  C 588.5 271.14  591.14 268.5  594.5 268.5  Z " stroke-width="1" stroke="#797979" fill="none" />
  <path d="M 594.5 277.75  C 592.68 277.75  591.25 276.32  591.25 274.5  C 591.25 272.68  592.68 271.25  594.5 271.25  C 596.32 271.25  597.75 272.68  597.75 274.5  C 597.75 276.32  596.32 277.75  594.5 277.75  " fill-rule="nonzero" fill="#797979" stroke="none" />
</svg>