<svg t="1720948614253" class="icon" viewBox="0 0 1024 1024" version="1.1" xmlns="http://www.w3.org/2000/svg" p-id="12763" width="45" height="45"><path d="M704 64a42.666667 42.666667 0 0 1 42.666667 42.666667v42.666666h106.666666a42.666667 42.666667 0 0 1 42.666667 42.666667v725.333333a42.666667 42.666667 0 0 1-42.666667 42.666667H170.666667a42.666667 42.666667 0 0 1-42.666667-42.666667V192a42.666667 42.666667 0 0 1 42.666667-42.666667h106.666666V106.666667a42.666667 42.666667 0 0 1 42.666667-42.666667h384z m42.666667 213.333333a42.666667 42.666667 0 0 1-42.666667 42.666667H320a42.666667 42.666667 0 0 1-42.666667-42.666667v-42.666666h-64v640h597.333334V234.666667h-64v42.666666z m-85.333334-128H362.666667v85.333334h298.666666V149.333333z" fill="#515151" p-id="12764"></path></svg>