<svg t="1720948748068" class="icon" viewBox="0 0 1024 1024" version="1.1" xmlns="http://www.w3.org/2000/svg" p-id="28199" width="45" height="45"><path d="M747.806 441.47L862 373.145 512 176.424 162 373.145l114.194 68.325L162 505.655l114.194 68.325L162 638.164l350 209.412 350-209.412-114.194-64.184L862 505.655 747.806 441.47z m-472.633-66.79L512 241.569l236.827 133.11-58.054 34.736-56.143 33.59-58.054 34.734-56.143 33.591-8.433 5.047-8.434-5.047-56.143-33.591-58.054-34.734-56.143-33.59-58.053-34.735z m473.654 265.018L512 781.395 275.173 639.698l57.162-32.129L512 715.067 691.665 607.57l57.162 32.128z m-58.054-97.773l-56.143 33.589L512 648.886l-122.631-73.372-56.143-33.589-58.054-34.736 57.162-32.129 58.054 34.736 56.143 33.59L512 582.557l65.469-39.172 56.143-33.59 58.054-34.736 57.162 32.129-58.055 34.737z" fill="#515151" p-id="28200"></path></svg>