<svg t="1720948810723" class="icon" viewBox="0 0 1025 1024" version="1.1" xmlns="http://www.w3.org/2000/svg" p-id="30449" width="45" height="45"><path d="M1001.841447 419.308868H951.241112c-12.564417 0-22.844395 10.279978-22.844395 22.844395s10.279978 22.844395 22.844395 22.844395h27.75594v347.463246h-78.69894v-124.501953c0-12.564417-10.279978-22.844395-22.844395-22.844394h-735.589515c-12.564417 0-22.844395 10.279978-22.844395 22.844394v124.501953H45.6893V464.997658h831.764417c11.193753 0 20.445733-7.995538 22.387507-18.618182 0.342666-1.71333 0.57111-3.426659 0.57111-5.139989V190.065365C900.412334 85.209593 815.088519 0 710.346968 0H143.46331c-13.478193 0-24.329281 10.96531-24.329281 24.329281V419.308868H22.844905c-12.564417 0-22.844395 10.279978-22.844395 22.844395v393.152035c0 12.564417 10.279978 22.844395 22.844395 22.844395h96.174902v143.005912c0 12.564417 10.279978 22.844395 22.844395 22.844395h735.589515c12.564417 0 22.844395-10.279978 22.844395-22.844395V858.149693h101.543335c12.564417 0 22.844395-10.279978 22.844395-22.844395V442.153263c0-12.564417-10.165756-22.844395-22.844395-22.844395zM854.837766 190.065365v8.795092H708.976305V45.68879h1.370663c79.726938 0 144.490798 64.763859 144.490798 144.376575zM164.708597 45.68879h498.578918v174.988064c0 13.135527 10.736866 23.872393 23.872393 23.872393h167.677858v174.759621H164.708597V45.68879z m689.900725 932.736642h-689.900725v-138.208589c0.342666-1.599108 0.57111-3.198215 0.57111-4.911545s-0.228444-3.312437-0.57111-4.911545V710.803346h689.900725v267.622086z" p-id="30450" fill="#515151"></path></svg>