<svg t="1720948842220" class="icon" viewBox="0 0 1024 1024" version="1.1" xmlns="http://www.w3.org/2000/svg" p-id="31496" width="45" height="45"><path d="M386.983914 0c212.793806 0 385.354323 172.571527 385.354323 385.354323 0 212.804817-172.560516 385.365333-385.354323 385.365333C174.201118 770.719656 1.629591 598.148129 1.629591 385.354323 1.629591 172.571527 174.201118 0 386.983914 0z m0 116.658925c-148.358882 0-268.684387 120.325505-268.684387 268.695398 0 148.369892 120.325505 268.695398 268.684387 268.695397 148.369892 0 268.684387-120.325505 268.684387-268.695397 0-148.369892-120.314495-268.695398-268.684387-268.695398zM653.961634 722.558624c-9.204989 6.705548-11.396129 8.91871-4.426322 18.024602 54.150882 70.832172 112.64 146.046624 166.559656 216.636559 113.498839 148.568086 287.898151-23.783226 140.651355-139.021763-69.940301-54.745462-144.472086-114.115441-214.643613-169.09213-9.017806-7.068903-11.252989-4.910796-18.079656 4.217119a318.76129 318.76129 0 0 1-70.06142 69.235613z" fill="#515151" p-id="31497"></path><path d="M205.284473 334.275441h126.788817a4.888774 4.888774 0 0 0 4.877764-4.877764V202.597849c0-5.362237 4.38228-9.744516 9.755527-9.744516h84.793806c5.373247 0 9.755527 4.38228 9.755527 9.744516v126.799828c0 2.675613 2.19114 4.877763 4.877763 4.877764h126.788818c5.373247 0 9.755527 4.38228 9.755527 9.755527v84.782795a9.777548 9.777548 0 0 1-9.755527 9.755527H446.133677a4.877763 4.877763 0 0 0-4.877763 4.877764v126.766795a9.777548 9.777548 0 0 1-9.755527 9.755527h-84.793806a9.777548 9.777548 0 0 1-9.755527-9.755527V443.447054a4.877763 4.877763 0 0 0-4.877764-4.877764H205.284473a9.777548 9.777548 0 0 1-9.755527-9.755527v-84.782795c0-5.373247 4.38228-9.755527 9.755527-9.755527z" fill="#515151" p-id="31498"></path></svg>