<?xml version="1.0" encoding="utf-8"?>
<svg version="1.1" xmlns:xlink="http://www.w3.org/1999/xlink" width="25px" height="14px" xmlns="http://www.w3.org/2000/svg">
  <g transform="matrix(1 0 0 1 -244 -108 )">
    <path d="M 0.7072589924159479 3.4981569736378937  C 0.407532788665279 5.345330110598436  0.3796293929384467 8.278728275434517  2.4285799166900675 10.614155389828941  C 4.399553247341181 12.860815910505835  7.76596453491008 14  12.434205353666512 14  C 17.076558279691817 14  20.448254676649295 12.859574649475888  22.455506886148566 10.610431680251747  C 24.53451063463837 8.28094740168332  24.584763620903534 5.348263890036613  24.327228347666534 3.467728067805929  C 24.743808424605923 3.099459446547918  25 2.601915051164788  25 2.0538188025169575  C 25 0.91948676820547  23.90504964643143 0  22.554355602160182 0  C 21.203661557888946 0  20.10871120432038 0.9195243699239626  20.10871120432038 2.0538188025169575  C 20.10871120432038 2.9208730434317154  20.748831874444257 3.6618862504328007  21.653609241297932 3.963203780570556  C 21.823448140470212 5.45752959539713  21.733736307178443 7.621253479514345  20.273489002102757 9.250346573401103  C 18.805717207950103 10.887752146505605  16.168197835306806 11.717945676396646  12.434250129005054 11.717945676396646  C 8.68364100713779 11.717945676396646  6.055796040120185 10.89399586959221  4.6237656456784775 9.269002612736585  C 3.169520030482736 7.618846234404102  3.1645932551084797 5.415628747085613  3.380430214093131 3.9519574851583243  C 4.267202467538362 3.643606338551251  4.891288795679622 2.9100405139482355  4.891288795679622 2.0538564042354537  C 4.891288795679622 0.9195243699239662  3.796338442111051 3.7601718496205194E-05  2.445644397839811 3.7601718496205194E-05  C 1.094950353568571 3.7601718496205194E-05  0 0.9195619716424588  0 2.0538564042354537  C 0 2.6170354630282127  0.2701209074725597 3.127104979815705  0.7072589924159479 3.4981569736378937  Z " fill-rule="nonzero" fill="#ffffff" stroke="none" transform="matrix(1 0 0 1 244 108 )" />
  </g>
</svg>