<?xml version="1.0" encoding="utf-8"?>
<svg version="1.1" xmlns:xlink="http://www.w3.org/1999/xlink" width="31px" height="31px" xmlns="http://www.w3.org/2000/svg">
  <g transform="matrix(1 0 0 1 -71 -6 )">
    <path d="M 89.5 6.5  L 83.5 6.5  L 83.5 18.5  L 71.5 18.5  L 71.5 24.5  L 83.5 24.5  L 83.5 36.5  L 89.5 36.5  L 89.5 24.499999999999996  L 101.5 24.5  L 101.5 18.5  L 89.5 18.5  L 89.5 6.5  Z " fill-rule="nonzero" fill="#ffff80" stroke="none" />
    <path d="M 89.5 6.5  L 83.5 6.5  L 83.5 18.5  L 71.5 18.5  L 71.5 24.5  L 83.5 24.5  L 83.5 36.5  L 89.5 36.5  L 89.5 24.499999999999996  L 101.5 24.5  L 101.5 18.5  L 89.5 18.5  L 89.5 6.5  Z " stroke-width="1" stroke="#999999" fill="none" />
  </g>
</svg>