<?xml version="1.0" encoding="utf-8"?>
<svg version="1.1" xmlns:xlink="http://www.w3.org/1999/xlink" width="45px" height="53px" xmlns="http://www.w3.org/2000/svg">
  <g transform="matrix(1 0 0 1 -6 -12 )">
    <path d="M 6.5 17  A 4.5 4.5 0 0 1 11 12.5 L 46 12.5  A 4.5 4.5 0 0 1 50.5 17 L 50.5 60  A 4.5 4.5 0 0 1 46 64.5 L 11 64.5  A 4.5 4.5 0 0 1 6.5 60 L 6.5 17  Z " fill-rule="nonzero" fill="#d7d7d7" stroke="none" />
    <path d="M 6.5 17  A 4.5 4.5 0 0 1 11 12.5 L 46 12.5  A 4.5 4.5 0 0 1 50.5 17 L 50.5 60  A 4.5 4.5 0 0 1 46 64.5 L 11 64.5  A 4.5 4.5 0 0 1 6.5 60 L 6.5 17  Z " stroke-width="1" stroke="#adadad" fill="none" />
  </g>
</svg>