<?xml version="1.0" encoding="utf-8"?>
<svg version="1.1" xmlns:xlink="http://www.w3.org/1999/xlink" width="13px" height="13px" viewBox="123 131  13 13" xmlns="http://www.w3.org/2000/svg">
  <path d="M 129.5 131  C 133.14 131  136 133.86  136 137.5  C 136 141.14  133.14 144  129.5 144  C 125.86 144  123 141.14  123 137.5  C 123 133.86  125.86 131  129.5 131  Z " fill-rule="nonzero" fill="#f2f2f2" stroke="none" />
  <path d="M 129.5 131.5  C 132.86 131.5  135.5 134.14  135.5 137.5  C 135.5 140.86  132.86 143.5  129.5 143.5  C 126.14 143.5  123.5 140.86  123.5 137.5  C 123.5 134.14  126.14 131.5  129.5 131.5  Z " stroke-width="1" stroke="#7f7f7f" fill="none" />
  <path d="M 129.5 140.75  C 127.68 140.75  126.25 139.32  126.25 137.5  C 126.25 135.68  127.68 134.25  129.5 134.25  C 131.32 134.25  132.75 135.68  132.75 137.5  C 132.75 139.32  131.32 140.75  129.5 140.75  " fill-rule="nonzero" fill="#7f7f7f" stroke="none" />
</svg>