<?xml version="1.0" encoding="utf-8"?>
<svg version="1.1" xmlns:xlink="http://www.w3.org/1999/xlink" width="16px" height="8px" xmlns="http://www.w3.org/2000/svg">
  <defs>
    <mask fill="white" id="clip144">
      <path d="M 15.5 8  C 15.5 8  15.5 0  15.5 0  C 15.5 0  0.5 0  0.5 0  C 0.5 0  0.5 8  0.5 8  C 0.5 8  15.5 8  15.5 8  Z " fill-rule="evenodd" />
    </mask>
  </defs>
  <g transform="matrix(1 0 0 1 -485 -365 )">
    <path d="M 15.5 8  C 15.5 8  15.5 0  15.5 0  C 15.5 0  0.5 0  0.5 0  C 0.5 0  0.5 8  0.5 8  C 0.5 8  15.5 8  15.5 8  Z " fill-rule="nonzero" fill="#81d3f8" stroke="none" transform="matrix(1 0 0 1 485 365 )" />
    <path d="M 15.5 8  C 15.5 8  15.5 0  15.5 0  C 15.5 0  0.5 0  0.5 0  C 0.5 0  0.5 8  0.5 8  C 0.5 8  15.5 8  15.5 8  Z " stroke-width="4" stroke="#333333" fill="none" transform="matrix(1 0 0 1 485 365 )" mask="url(#clip144)" />
  </g>
</svg>