<?xml version="1.0" encoding="utf-8"?>
<svg version="1.1" xmlns:xlink="http://www.w3.org/1999/xlink" width="16px" height="10px" xmlns="http://www.w3.org/2000/svg">
  <defs>
    <mask fill="white" id="clip147">
      <path d="M 16 10  C 16 10  16 0  16 0  C 16 0  0 0  0 0  C 0 0  0 10  0 10  C 0 10  16 10  16 10  Z " fill-rule="evenodd" />
    </mask>
  </defs>
  <g transform="matrix(1 0 0 1 -485 -351 )">
    <path d="M 16 10  C 16 10  16 0  16 0  C 16 0  0 0  0 0  C 0 0  0 10  0 10  C 0 10  16 10  16 10  Z " fill-rule="nonzero" fill="#ffffff" stroke="none" fill-opacity="0" transform="matrix(1 0 0 1 485 351 )" />
    <path d="M 16 10  C 16 10  16 0  16 0  C 16 0  0 0  0 0  C 0 0  0 10  0 10  C 0 10  16 10  16 10  Z " stroke-width="4" stroke="#333333" fill="none" transform="matrix(1 0 0 1 485 351 )" mask="url(#clip147)" />
  </g>
</svg>