<?xml version="1.0" encoding="utf-8"?>
<svg version="1.1" xmlns:xlink="http://www.w3.org/1999/xlink" width="20px" height="20px" xmlns="http://www.w3.org/2000/svg">
  <defs>
    <mask fill="white" id="clip48">
      <path d="M 0 18.5  C 0 18.5  0 1.5  0 1.5  C 0 0.6715749999999998  0.6715749999999998 0  1.5 0  C 1.5 0  16.1407 0  16.1407 0  C 16.1407 0  20 3.60325  20 3.60325  C 20 3.60325  20 18.5  20 18.5  C 20 19.32845  19.32845 20  18.5 20  C 18.5 20  1.5 20  1.5 20  C 0.6715749999999998 20  0 19.32845  0 18.5  Z " fill-rule="evenodd" />
    </mask>
  </defs>
  <g transform="matrix(1 0 0 1 -518 -353 )">
    <path d="M 0 18.5  C 0 18.5  0 1.5  0 1.5  C 0 0.6715749999999998  0.6715749999999998 0  1.5 0  C 1.5 0  16.1407 0  16.1407 0  C 16.1407 0  20 3.60325  20 3.60325  C 20 3.60325  20 18.5  20 18.5  C 20 19.32845  19.32845 20  18.5 20  C 18.5 20  1.5 20  1.5 20  C 0.6715749999999998 20  0 19.32845  0 18.5  Z " fill-rule="nonzero" fill="#81d3f8" stroke="none" transform="matrix(1 0 0 1 518 353 )" />
    <path d="M 0 18.5  C 0 18.5  0 1.5  0 1.5  C 0 0.6715749999999998  0.6715749999999998 0  1.5 0  C 1.5 0  16.1407 0  16.1407 0  C 16.1407 0  20 3.60325  20 3.60325  C 20 3.60325  20 18.5  20 18.5  C 20 19.32845  19.32845 20  18.5 20  C 18.5 20  1.5 20  1.5 20  C 0.6715749999999998 20  0 19.32845  0 18.5  Z " stroke-width="4" stroke="#333333" fill="none" transform="matrix(1 0 0 1 518 353 )" mask="url(#clip48)" />
  </g>
</svg>