<?xml version="1.0" encoding="utf-8"?>
<svg version="1.1" xmlns:xlink="http://www.w3.org/1999/xlink" width="19px" height="19px" xmlns="http://www.w3.org/2000/svg">
  <defs>
    <mask fill="white" id="clip153">
      <path d="M 0 10.500000000000002  C 0 15.194400000000002  5.805599999999999 19  10.500000000000002 19  C 15.194400000000002 19  19 15.194400000000002  19 10.500000000000002  C 19 5.805599999999999  15.194400000000002 0  10.500000000000002 0  C 5.805599999999999 0  0 5.805599999999999  0 10.500000000000002  Z " fill-rule="evenodd" />
    </mask>
  </defs>
  <g transform="matrix(1 0 0 1 -552 -353 )">
    <path d="M 0 10.500000000000002  C 0 15.194400000000002  5.805599999999999 19  10.500000000000002 19  C 15.194400000000002 19  19 15.194400000000002  19 10.500000000000002  C 19 5.805599999999999  15.194400000000002 0  10.500000000000002 0  C 5.805599999999999 0  0 5.805599999999999  0 10.500000000000002  Z " fill-rule="nonzero" fill="#ffffff" stroke="none" fill-opacity="0" transform="matrix(1 0 0 1 552 353 )" />
    <path d="M 0 10.500000000000002  C 0 15.194400000000002  5.805599999999999 19  10.500000000000002 19  C 15.194400000000002 19  19 15.194400000000002  19 10.500000000000002  C 19 5.805599999999999  15.194400000000002 0  10.500000000000002 0  C 5.805599999999999 0  0 5.805599999999999  0 10.500000000000002  Z " stroke-width="4" stroke="#333333" fill="none" transform="matrix(1 0 0 1 552 353 )" mask="url(#clip153)" />
  </g>
</svg>