<?xml version="1.0" encoding="utf-8"?>
<svg version="1.1" xmlns:xlink="http://www.w3.org/1999/xlink" width="117px" height="17px" xmlns="http://www.w3.org/2000/svg">
  <defs>
    <mask fill="white" id="clip155">
      <path d="M 0 9.608695652173912  L 0 7.391304347826087  C 0 3.2521739130434826  7.2507042253520755 0  16.47887323943662 0  L 87.33802816901408 0  L 100.52112676056338 0  C 109.74929577464792 0  117 3.2521739130434826  117 7.391304347826087  L 117 9.608695652173912  C 117 13.747826086956518  109.74929577464792 17  100.52112676056338 17  L 16.47887323943662 17  C 7.2507042253520755 17  0 13.747826086956518  0 9.608695652173912  Z " fill-rule="evenodd" />
    </mask>
  </defs>
  <g transform="matrix(1 0 0 1 -690 -169 )">
    <path d="M 0 9.608695652173912  L 0 7.391304347826087  C 0 3.2521739130434826  7.2507042253520755 0  16.47887323943662 0  L 87.33802816901408 0  L 100.52112676056338 0  C 109.74929577464792 0  117 3.2521739130434826  117 7.391304347826087  L 117 9.608695652173912  C 117 13.747826086956518  109.74929577464792 17  100.52112676056338 17  L 16.47887323943662 17  C 7.2507042253520755 17  0 13.747826086956518  0 9.608695652173912  Z " fill-rule="nonzero" fill="#ffffff" stroke="none" transform="matrix(1 0 0 1 690 169 )" />
    <path d="M 0 9.608695652173912  L 0 7.391304347826087  C 0 3.2521739130434826  7.2507042253520755 0  16.47887323943662 0  L 87.33802816901408 0  L 100.52112676056338 0  C 109.74929577464792 0  117 3.2521739130434826  117 7.391304347826087  L 117 9.608695652173912  C 117 13.747826086956518  109.74929577464792 17  100.52112676056338 17  L 16.47887323943662 17  C 7.2507042253520755 17  0 13.747826086956518  0 9.608695652173912  Z " stroke-width="2" stroke="#797979" fill="none" transform="matrix(1 0 0 1 690 169 )" mask="url(#clip155)" />
  </g>
</svg>