<?xml version="1.0" encoding="utf-8"?>
<svg version="1.1" xmlns:xlink="http://www.w3.org/1999/xlink" width="38px" height="38px" xmlns="http://www.w3.org/2000/svg">
  <defs>
    <filter x="143px" y="68px" width="38px" height="38px" filterUnits="userSpaceOnUse" id="filter279">
      <feOffset dx="0" dy="0" in="SourceAlpha" result="shadowOffsetInner" />
      <feGaussianBlur stdDeviation="5" in="shadowOffsetInner" result="shadowGaussian" />
      <feComposite in2="shadowGaussian" operator="atop" in="SourceAlpha" result="shadowComposite" />
      <feColorMatrix type="matrix" values="0 0 0 0 0  0 0 0 0 0  0 0 0 0 0  0 0 0 0.3137254901960784 0  " in="shadowComposite" />
    </filter>
    <g id="widget280">
      <path d="M 14.612215909090908 8.296875  C 14.688920454545455 8.373579545454545  14.727272727272728 8.471590909090908  14.727272727272728 8.590909090909092  L 14.727272727272728 9.409090909090908  C 14.727272727272728 9.52840909090909  14.688920454545455 9.626420454545455  14.612215909090908 9.703125  C 14.535511363636363 9.779829545454545  14.437500000000004 9.818181818181817  14.318181818181817 9.818181818181817  L 9.818181818181817 9.818181818181817  L 9.818181818181817 14.318181818181817  C 9.818181818181817 14.437499999999998  9.779829545454545 14.535511363636363  9.703125 14.612215909090908  C 9.626420454545455 14.688920454545455  9.528409090909092 14.727272727272727  9.409090909090908 14.727272727272727  L 8.590909090909092 14.727272727272727  C 8.47159090909091 14.727272727272727  8.373579545454545 14.688920454545455  8.296875 14.612215909090908  C 8.220170454545455 14.535511363636363  8.181818181818182 14.437499999999998  8.181818181818182 14.318181818181817  L 8.181818181818182 9.818181818181817  L 3.681818181818182 9.818181818181817  C 3.5625000000000004 9.818181818181817  3.4644886363636362 9.779829545454545  3.387784090909091 9.703125  C 3.311079545454546 9.626420454545455  3.272727272727273 9.52840909090909  3.272727272727273 9.409090909090908  L 3.272727272727273 8.590909090909092  C 3.272727272727273 8.471590909090908  3.311079545454546 8.373579545454545  3.387784090909091 8.296875  C 3.4644886363636362 8.220170454545455  3.5625000000000004 8.181818181818183  3.681818181818182 8.181818181818183  L 8.181818181818182 8.181818181818183  L 8.181818181818182 3.6818181818181825  C 8.181818181818182 3.5624999999999973  8.220170454545455 3.4644886363636367  8.296875 3.3877840909090913  C 8.373579545454545 3.311079545454546  8.47159090909091 3.2727272727272716  8.590909090909092 3.2727272727272716  L 9.409090909090908 3.2727272727272716  C 9.528409090909092 3.2727272727272716  9.626420454545455 3.311079545454546  9.703125 3.3877840909090913  C 9.779829545454545 3.4644886363636367  9.818181818181817 3.5624999999999973  9.818181818181817 3.6818181818181825  L 9.818181818181817 8.181818181818183  L 14.318181818181817 8.181818181818183  C 14.437500000000004 8.181818181818183  14.535511363636363 8.220170454545455  14.612215909090908 8.296875  Z M 15.762784090909092 15.762784090909092  C 16.163352272727273 15.362215909090907  16.363636363636363 14.880681818181817  16.363636363636363 14.318181818181817  L 16.363636363636363 3.6818181818181825  C 16.363636363636363 3.1193181818181825  16.163352272727273 2.63778409090909  15.762784090909092 2.2372159090909087  C 15.36221590909091 1.8366477272727255  14.880681818181817 1.636363636363637  14.318181818181817 1.636363636363637  L 3.681818181818182 1.636363636363637  C 3.119318181818182 1.636363636363637  2.6377840909090913 1.8366477272727255  2.237215909090909 2.2372159090909087  C 1.8366477272727275 2.63778409090909  1.6363636363636365 3.1193181818181825  1.6363636363636365 3.6818181818181825  L 1.6363636363636365 14.318181818181817  C 1.6363636363636365 14.880681818181817  1.8366477272727275 15.362215909090907  2.237215909090909 15.762784090909092  C 2.6377840909090913 16.163352272727273  3.119318181818182 16.363636363636363  3.681818181818182 16.363636363636363  L 14.318181818181817 16.363636363636363  C 14.880681818181817 16.363636363636363  15.36221590909091 16.163352272727273  15.762784090909092 15.762784090909092  Z M 16.919744318181817 1.0802556818181825  C 17.639914772727273 1.8004261363636356  18 2.667613636363634  18 3.6818181818181825  L 18 14.318181818181817  C 18 15.332386363636363  17.639914772727273 16.199573863636363  16.919744318181817 16.919744318181817  C 16.199573863636363 17.639914772727273  15.332386363636365 18  14.318181818181817 18  L 3.681818181818182 18  C 2.6676136363636367 18  1.8004261363636367 17.639914772727273  1.0802556818181819 16.919744318181817  C 0.3600852272727273 16.199573863636363  0 15.332386363636363  0 14.318181818181817  L 0 3.6818181818181825  C 0 2.667613636363634  0.3600852272727273 1.8004261363636356  1.0802556818181819 1.0802556818181825  C 1.8004261363636367 0.3600852272727255  2.6676136363636367 0  3.681818181818182 0  L 14.318181818181817 0  C 15.332386363636365 0  16.199573863636363 0.3600852272727255  16.919744318181817 1.0802556818181825  Z " fill-rule="nonzero" fill="#555555" stroke="none" transform="matrix(1 0 0 1 153 78 )" />
    </g>
  </defs>
  <g transform="matrix(1 0 0 1 -143 -68 )">
    <use xlink:href="#widget280" filter="url(#filter279)" />
    <use xlink:href="#widget280" />
  </g>
</svg>