<?xml version="1.0" encoding="utf-8"?>
<svg version="1.1" xmlns:xlink="http://www.w3.org/1999/xlink" width="18px" height="14px" xmlns="http://www.w3.org/2000/svg">
  <g transform="matrix(1 0 0 1 -441 -118 )">
    <path d="M 18 3.1043478260869573  C 18 3.343317230273752  17.929280397022332 3.5484702093397735  17.787841191067 3.719806763285024  L 9.502481389578163 13.742995169082125  C 9.36104218362283 13.914331723027376  9.193548387096774 14  9 14  C 8.806451612903228 14  8.638957816377172 13.914331723027376  8.497518610421835 13.742995169082125  L 0.21215880893300249 3.719806763285024  C 0.0707196029776676 3.5484702093397735  0 3.343317230273752  0 3.1043478260869573  C 0 2.8653784219001595  0.0707196029776676 2.660225442834138  0.21215880893300249 2.4888888888888894  L 2.06575682382134 0.2570048309178743  C 2.207196029776675 0.08566827697262425  2.37468982630273 0  2.5682382133995034 0  C 2.7617866004962783 0  2.929280397022333 0.08566827697262425  3.0707196029776673 0.2570048309178743  L 9 7.439613526570048  L 14.929280397022332 0.2570048309178743  C 15.07071960297767 0.08566827697262425  15.238213399503723 0  15.431761786600497 0  C 15.625310173697272 0  15.792803970223327 0.08566827697262425  15.93424317617866 0.2570048309178743  L 17.787841191067 2.4888888888888894  C 17.929280397022332 2.660225442834138  18 2.8653784219001595  18 3.1043478260869573  Z " fill-rule="nonzero" fill="#555555" stroke="none" transform="matrix(1 0 0 1 441 118 )" />
  </g>
</svg>