<?xml version="1.0" encoding="utf-8"?>
<svg version="1.1" xmlns:xlink="http://www.w3.org/1999/xlink" width="123px" height="35px" xmlns="http://www.w3.org/2000/svg">
  <defs>
    <mask fill="white" id="clip276">
      <path d="M 0 35  L 0 0  L 123 0  L 123 20.182795698925716  L 123 35  L 59.47204301075309 35  L 0 35  Z " fill-rule="evenodd" />
    </mask>
  </defs>
  <g transform="matrix(1 0 0 1 -6 0 )">
    <path d="M 0 35  L 0 0  L 123 0  L 123 20.182795698925716  L 123 35  L 59.47204301075309 35  L 0 35  Z " fill-rule="nonzero" fill="#ffffff" stroke="none" fill-opacity="0" transform="matrix(1 0 0 1 6 0 )" />
    <path d="M 0 35  L 0 0  L 123 0  L 123 20.182795698925716  L 123 35  L 59.47204301075309 35  L 0 35  Z " stroke-width="2" stroke="#797979" fill="none" transform="matrix(1 0 0 1 6 0 )" mask="url(#clip276)" />
  </g>
</svg>