<?xml version="1.0" encoding="utf-8"?>
<svg version="1.1" xmlns:xlink="http://www.w3.org/1999/xlink" width="13px" height="13px" viewBox="104 228  13 13" xmlns="http://www.w3.org/2000/svg">
  <path d="M 110.5 228  C 114.14 228  117 230.86  117 234.5  C 117 238.14  114.14 241  110.5 241  C 106.86 241  104 238.14  104 234.5  C 104 230.86  106.86 228  110.5 228  Z " fill-rule="nonzero" fill="#ffffff" stroke="none" />
  <path d="M 110.5 228.5  C 113.86 228.5  116.5 231.14  116.5 234.5  C 116.5 237.86  113.86 240.5  110.5 240.5  C 107.14 240.5  104.5 237.86  104.5 234.5  C 104.5 231.14  107.14 228.5  110.5 228.5  Z " stroke-width="1" stroke="#797979" fill="none" />
  <path d="M 110.5 237.75  C 108.68 237.75  107.25 236.32  107.25 234.5  C 107.25 232.68  108.68 231.25  110.5 231.25  C 112.32 231.25  113.75 232.68  113.75 234.5  C 113.75 236.32  112.32 237.75  110.5 237.75  " fill-rule="nonzero" fill="#797979" stroke="none" />
</svg>