<?xml version="1.0" encoding="utf-8"?>
<svg version="1.1" xmlns:xlink="http://www.w3.org/1999/xlink" width="19px" height="19px" xmlns="http://www.w3.org/2000/svg">
  <g transform="matrix(1 0 0 1 -7 -7 )">
    <path d="M 19 2.646291561977872  C 19 1.1920060041034137  17.841500572512572 0  16.38529093966864 0  L 2.652534944365448 0  C 1.1963253327898655 0  0 1.1920060041034137  0 2.646291561977872  L 0 13.462655937644353  C 0 14.916941495518818  1.1963470690412372 16.0841258078574  2.652534944365448 16.0841258078574  L 6.333072179291643 16.0841258078574  L 9.054250864809072 18.803447900129438  C 9.183137456104483 18.93183818022154  9.35185224003028 19  9.520567023956097 19  C 9.689760600925831 19  9.858997714203356 18.937424131377053  9.987971378114333 18.808360068189245  C 10.24550516418318 18.55053622958327  10.245026371139256 18.134066611849686  9.986883183103123 17.876851348783024  L 7.072418093779511 14.961890062429884  C 6.948646050939314 14.838564115522658  6.780954168197197 14.758274008859399  6.606101934632485 14.758274008859399  L 2.652534944365448 14.758273987619145  C 1.9244410067033428 14.758273987619145  1.3276059743782749 14.189787841575438  1.3276059743782749 13.462655937644353  L 1.3276059531099282 2.646291561977872  C 1.3276059531099282 1.9191596368065436  1.9244410067033428 1.3041165486750486  2.6525349230971016 1.3041165486750486  L 16.385290918400294 1.3041165486750486  C 17.1133848560624 1.3041165486750486  17.67239400435337 1.9191379080344977  17.67239400435337 2.646291561977872  L 17.67239400435337 13.462655937644353  C 17.67239400435337 14.189787862815692  17.113384834794054 14.758273987619145  16.385290918400294 14.758273987619145  L 10.971422669286172 14.758273987619145  C 10.6067880772759 14.758273987619145  10.311188989382652 15.057047088385351  10.311188989382652 15.421199897738276  C 10.311188989382652 15.785352707091205  10.6067880772759 16.084125807857397  10.971422669286172 16.084125807857397  L 16.38529093966864 16.084125807857397  C 17.841500551244224 16.084125807857397  18.999999978731644 14.916941495518818  19 13.462655937644353  L 19 2.646291561977872  Z " fill-rule="nonzero" fill="#ffffff" stroke="none" transform="matrix(1 0 0 1 7 7 )" />
  </g>
</svg>