<?xml version="1.0" encoding="utf-8"?>
<svg version="1.1" xmlns:xlink="http://www.w3.org/1999/xlink" width="14px" height="13px" xmlns="http://www.w3.org/2000/svg">
  <g transform="matrix(1 0 0 1 -20 -43 )">
    <path d="M 13.832665854629923 9.918360964296307  C 13.538696228295684 9.437277856749002  12.960971023423703 9.32116616924047  12.542646165883493 9.657987448701606  C 11.522254340087763 10.47721287473038  10.328352202183348 10.88791189669121  9.10783735483466 10.86899592804208  C 8.946459335699785 10.867072233204267  8.786186883338832 10.857479961442115  8.627890173345055 10.841516132884609  C 8.563184610818634 10.83451790138043  8.498440459574203 10.822377443607259  8.433437763918404 10.813097417431681  C 8.308788486680386 10.79418144878255  8.183861370671945 10.775042759505203  8.06257124134535 10.74814378480954  C 7.9873753358008335 10.731821856418446  7.913915922571293 10.709752862405201  7.840439144418619 10.690232054402975  C 7.721439255511817 10.658212688793931  7.602973820350881 10.62592693184533  7.4868410731997095 10.586282660023338  C 7.4308681375815295 10.56644960643448  7.376338420020693 10.543732102356744  7.320938526866495 10.522311618407993  C 7.186964285897199 10.470817299043738  7.053541863597003 10.417737732855153  6.923538401721226 10.355354121599758  C 6.894158881188366 10.341870789450585  6.865886856865353 10.325974650495763  6.836488041973432 10.310882052630912  C 6.684988734674658 10.234412453408806  6.534614288508757 10.154165337649323  6.389891160110103 10.063967850294096  C 6.382837142439661 10.05978637967617  6.376890620978965 10.056275254478468  6.3698366033085225 10.052161473463226  C 5.8788646250548515 9.743132234746193  5.429443049025968 9.357386657287547  5.035440660510236 8.906667795386593  C 5.029494139049538 8.899669563882416  5.022993869484021 8.891306622646566  5.016512894277458 8.88332361660003  C 4.8941152687411185 8.74254889482028  4.7773882553310845 8.595424451600843  4.666293265329132 8.441904432694766  C 4.643116881232408 8.409260575912516  4.62049617467643 8.374088184939415  4.597043881245313 8.340505407861768  C 3.795168389489453 7.190919784125562  3.3115475620357073 5.736104273565431  3.3115475620357073 4.153327027954441  L 4.671767152170351 4.153327027954441  C 4.706896391701574 4.153327027954441  4.740898840663995 4.132017904319772  4.7587191106870295 4.094565902210832  C 4.77656060450505 4.05711390010189  4.773575767159246 4.013266322306308  4.75425439600169 3.980041645062249  L 2.4678033111307998 0.05030865954928925  C 2.4501393254160564 0.01996624925860739  2.4197738631354806 0  2.385296772940403 0  C 2.35081968274522 0  2.320432996669764 0.019990268149895858  2.3027902347500064 0.05030865954928925  L 0.0163006383383563 3.9799499365682753  C -0.0030226622550216073 4.013176797347895  -0.005986275805841183 4.057022191607918  0.01183592365312079 4.0944741937168585  C 0.02967741747114155 4.131926195825859  0.06366057207450371 4.153235319460469  0.09880717652875298 4.153235319460469  L 1.4593033705948462 4.153235319460469  C 1.4593033705948462 6.0139635420104645  1.965527539681333 7.738698985680551  2.8256276187570504 9.164715845598497  C 2.836098667416087 9.18459256989875  2.8437257275505106 9.20570080826087  2.8553023429834687 9.225555697205396  C 2.9443284450984413 9.371383120295844  3.0432737772035585 9.506054860155478  3.1388020783200794 9.643923296090623  C 3.174425253443123 9.696066125519373  3.207775553069399 9.749772366416723  3.244801428095743 9.800930421303116  C 3.3855730717599357 9.996708404109265  3.5350773423324737 10.18063852290871  3.6888495251279116 10.360406822910397  C 3.7035498972917296 10.378316181661443  3.717121549450924 10.39589145947013  3.7315460122803494 10.411901142274651  C 4.247670116997817 11.003977729952727  4.831343772766423 11.50301823403371  5.466168703825386 11.90188686027238  C 5.482566979586062 11.913110233105881  5.4989652553467385 11.924648035061514  5.51704406978114 11.935179227119125  C 5.699917934339013 12.0477361187185  5.887872003636076 12.149471408029418  6.078392222687431 12.24577406084038  C 6.125889146372707 12.269094220735596  6.1722399851302265 12.295344685366823  6.2205665662549245 12.318398453922422  C 6.38338780344704 12.395806973439985  6.550693049683555 12.463601385839667  6.719441513977414 12.528240589339614  C 6.799142652361209 12.559275180406244  6.878291972076008 12.59093644618164  6.959117971592785 12.619376996990239  C 7.1063898848226 12.6692838859946  7.257040240322999 12.711183750061084  7.409093295726591 12.752437287598692  C 7.509717237069507 12.779312243403066  7.609748841589383 12.808425323167445  7.712389043453522 12.83080656276732  C 7.755064306811079 12.840735099007393  7.7951927147734015 12.855781842625229  7.837057615050595 12.863116338607268  C 7.980061616057512 12.892227234836087  8.124211701992287 12.908527327871456  8.26751283612869 12.928360381460314  C 8.319237153882924 12.935426302567176  8.370112519838782 12.94535265527163  8.421858061388003 12.951704560246876  C 8.679356718462335 12.980839475366924  8.935985199943307 13  9.192378290243823 13  C 10.76137434479004 13  12.292219663177145 12.450159540866327  13.605376375527769 11.39616037027391  C 14.023739821786098 11.05936092616844  14.1257876868273 10.39850515154827  13.832665854629923 9.918360964296307  Z " fill-rule="nonzero" fill="#999999" stroke="none" transform="matrix(1 0 0 1 20 43 )" />
  </g>
</svg>