<?xml version="1.0" encoding="utf-8"?>
<svg version="1.1" xmlns:xlink="http://www.w3.org/1999/xlink" width="14px" height="14px" xmlns="http://www.w3.org/2000/svg">
  <g transform="matrix(1 0 0 1 -23 -38 )">
    <path d="M 12.54128548499728 9.525519649598376  C 12.54043642338894 7.526969854063732  12.037247779925941 5.672431579504587  11.181285616295202 4.139141993165738  C 11.168837215305077 4.112955299925967  11.160340810164879 4.086408660224537  11.1462502468368 4.061932300825846  C 11.039961241266191 3.8744590090381807  10.923732425821314 3.699706178156683  10.808157773751882 3.524640452638569  C 10.794879608008157 3.503271866285484  10.782450503872772 3.4808681397809025  10.768302049980473 3.459835973976987  C 9.984936583551324 2.2866739989093943  9.001503256906503 1.3806064140040066  7.886862896170692 0.7881957053446781  C 7.8560168738754745 0.7716452258781509  7.8258037884154685 0.7533844125706082  7.794722344492488 0.7368339331040809  C 7.616882531246913 0.6465414808049922  7.434536902420546 0.5665863144725888  7.2514020322354495 0.49111048188633066  C 7.185244695459092 0.4642250690443608  7.1205114665621725 0.4345941822098787  7.052953178132002 0.4101178228112513  C 6.893233111483393 0.350493750089257  6.731241805032397 0.3019033303449688  6.567826390701857 0.2553596649909928  C 6.477661836948564 0.22950939230045614  6.387497283195376 0.20125241875788333  6.296165269730538 0.17920863871508902  C 6.250954668769998 0.1685114062866162  6.208271955779737 0.15198680532394943  6.163615174550061 0.14198829249767655  C 6.04177483374795 0.1161380198071399  5.919361376360131 0.10476794628026413  5.797245090535284 0.08513557227205495  C 5.712435413971226 0.07202928640023971  5.6298776803548165 0.055841105986742634  5.544514184059897 0.04514622614957613  C 5.339286344887671 0.021705006902318337  5.1357199649083505 0.01173237257990602  4.932211475493144 0.007250686242454418  C 4.894885569377509 0.007250686242454418  4.8590011383107665 0  4.821970474072713 0  C 4.8151934186894305 0  4.808987550206361 0.0024325793558331115  4.802191197968441 0.0031077730455423857  C 3.234946968774255 0.004484038928694312  1.7073037448690802 0.58865597301918  0.39563477853837653 1.722861389524421  C -0.023869194991640266 2.084725213140554  -0.12593025968947946 2.797442733307731  0.16750543216565714 3.3151022074867984  C 0.4603680074351908 3.832759329074623  1.0390189310281084 3.958199494697015  1.4576738429496803 3.595274652425652  C 2.470828185258749 2.719560199869437  3.652750889401992 2.2763414181251944  4.864927202400111 2.2897841245461796  C 5.039347612986492 2.2911580378380885  5.210944893725014 2.3018293917627646  5.380564246853128 2.3214876442747707  C 5.432849074759923 2.328738330517225  5.484601309475984 2.3383745442904678  5.536588965819806 2.3463004242226315  C 5.6759759366332805 2.3673325900265465  5.8141973774207045 2.391783070921377  5.950421593742982 2.4248840298543684  C 6.010650936744501 2.4393618764267866  6.070029288452185 2.458297883424102  6.128774703324446 2.47487188880312  C 6.262509625385818 2.512068709107978  6.3959493055696095 2.552058055230457  6.52654269968002 2.6006720008872994  C 6.567801304790738 2.6168601813007966  6.6084867933157465 2.6351209946084024  6.6497666249666985 2.6516714740748664  C 6.798757640382097 2.7119707404865063  6.945454259769483 2.776772866556846  7.08966351458146 2.8508771384424376  C 7.104325264809753 2.858440719321571  7.119342077165237 2.8677640384581347  7.133471234202796 2.8749911987880985  C 7.996785499487916 3.333360668203162  8.754125297934854 4.038853380631618  9.344948677495054 4.921818519430351  C 9.348644025176986 4.926973046866142  9.3522795526092 4.933887312559427  9.355698955268394 4.939044192586524  C 10.187356730359436 6.188717140391745  10.68801555616645 7.786112485789976  10.68856937589742 9.525519649598376  L 9.327600805087574 9.525519649598376  C 9.292467021669978 9.525519649598376  9.258460174569057 9.548478587638654  9.240637599534958 9.588830232814162  C 9.222815024500962 9.629181877989607  9.225779021388382 9.676424262945783  9.24512218857562 9.712221291455  L 11.532418903810589 13.945796297525558  C 11.55008517432117 13.978462027076677  11.580454564304485 14  11.614955410886658 14  C 11.649436960614198 13.999976474087509  11.679808280282902 13.978438501164122  11.697453324253352 13.945772771613004  L 13.983682923421467 9.712197765542445  C 14.003028020294092 9.676398384441987  14.005992017181512 9.629181877989607  13.988148215607282 9.588806706901607  C 13.970325640573288 9.548455061726163  13.936316863786873 9.525496123685821  13.901185010054771 9.525496123685821  L 12.541284635935698 9.525496123685821  Z " fill-rule="nonzero" fill="#999999" stroke="none" transform="matrix(1 0 0 1 23 38 )" />
  </g>
</svg>