<?xml version="1.0" encoding="utf-8"?>
<svg version="1.1" xmlns:xlink="http://www.w3.org/1999/xlink" width="228px" height="45px" xmlns="http://www.w3.org/2000/svg">
  <defs>
    <filter x="273px" y="433px" width="228px" height="45px" filterUnits="userSpaceOnUse" id="filter166">
      <feOffset dx="1" dy="1" in="SourceAlpha" result="shadowOffsetInner" />
      <feGaussianBlur stdDeviation="0" in="shadowOffsetInner" result="shadowGaussian" />
      <feComposite in2="shadowGaussian" operator="atop" in="SourceAlpha" result="shadowComposite" />
      <feColorMatrix type="matrix" values="0 0 0 0 0  0 0 0 0 0  0 0 0 0 0  0 0 0 0.34901960784313724 0  " in="shadowComposite" />
    </filter>
    <g id="widget167">
      <path d="M 273.5 438  A 4.5 4.5 0 0 1 278 433.5 L 495 433.5  A 4.5 4.5 0 0 1 499.5 438 L 499.5 472  A 4.5 4.5 0 0 1 495 476.5 L 278 476.5  A 4.5 4.5 0 0 1 273.5 472 L 273.5 438  Z " fill-rule="nonzero" fill="#1abc9c" stroke="none" fill-opacity="0.8" />
      <path d="M 273.5 438  A 4.5 4.5 0 0 1 278 433.5 L 495 433.5  A 4.5 4.5 0 0 1 499.5 438 L 499.5 472  A 4.5 4.5 0 0 1 495 476.5 L 278 476.5  A 4.5 4.5 0 0 1 273.5 472 L 273.5 438  Z " stroke-width="1" stroke="#797979" fill="none" />
    </g>
  </defs>
  <g transform="matrix(1 0 0 1 -273 -433 )">
    <use xlink:href="#widget167" filter="url(#filter166)" />
    <use xlink:href="#widget167" />
  </g>
</svg>