<?xml version="1.0" encoding="utf-8"?>
<svg version="1.1" xmlns:xlink="http://www.w3.org/1999/xlink" width="20px" height="20px" xmlns="http://www.w3.org/2000/svg">
  <g transform="matrix(1 0 0 1 -76 -149 )">
    <path d="M 13.0859375 5.247395833333332  C 13.250868055555555 5.412326388888886  13.333333333333332 5.607638888888886  13.333333333333332 5.833333333333332  L 13.333333333333332 14.166666666666664  C 13.333333333333332 14.39236111111111  13.250868055555555 14.58767361111111  13.0859375 14.752604166666664  C 12.921006944444445 14.917534722222218  12.725694444444445 15  12.5 15  C 12.326388888888891 15  12.16579861111111 14.947916666666664  12.018229166666668 14.84375  L 6.184895833333334 10.677083333333336  C 5.950520833333334 10.512152777777777  5.833333333333334 10.286458333333336  5.833333333333334 10  C 5.833333333333334 9.713541666666668  5.950520833333334 9.487847222222221  6.184895833333334 9.322916666666668  L 12.018229166666668 5.15625  C 12.16579861111111 5.052083333333332  12.326388888888891 5  12.5 5  C 12.725694444444445 5  12.921006944444445 5.082465277777777  13.0859375 5.247395833333332  Z M 16.54296875 16.54296875  C 16.62543402777778 16.46050347222222  16.666666666666668 16.36284722222222  16.666666666666668 16.25  L 16.666666666666668 3.75  C 16.666666666666668 3.637152777777777  16.62543402777778 3.539496527777777  16.54296875 3.45703125  C 16.46050347222222 3.374565972222221  16.36284722222222 3.3333333333333326  16.25 3.3333333333333326  L 3.75 3.3333333333333326  C 3.6371527777777786 3.3333333333333326  3.5394965277777786 3.374565972222221  3.45703125 3.45703125  C 3.3745659722222228 3.539496527777777  3.333333333333333 3.637152777777777  3.333333333333333 3.75  L 3.333333333333333 16.25  C 3.333333333333333 16.36284722222222  3.3745659722222228 16.46050347222222  3.45703125 16.54296875  C 3.5394965277777786 16.62543402777778  3.6371527777777786 16.666666666666668  3.75 16.666666666666668  L 16.25 16.666666666666668  C 16.36284722222222 16.666666666666668  16.46050347222222 16.62543402777778  16.54296875 16.54296875  Z M 18.899739583333332 1.1002604166666674  C 19.63324652777778 1.8337673611111094  20 2.717013888888886  20 3.75  L 20 16.25  C 20 17.28298611111111  19.63324652777778 18.16623263888889  18.899739583333332 18.899739583333332  C 18.16623263888889 19.63324652777778  17.282986111111114 20  16.25 20  L 3.75 20  C 2.717013888888889 20  1.8337673611111114 19.63324652777778  1.1002604166666667 18.899739583333332  C 0.36675347222222215 18.16623263888889  0 17.28298611111111  0 16.25  L 0 3.75  C 0 2.717013888888886  0.36675347222222215 1.8337673611111094  1.1002604166666667 1.1002604166666674  C 1.8337673611111114 0.366753472222221  2.717013888888889 0  3.75 0  L 16.25 0  C 17.282986111111114 0  18.16623263888889 0.366753472222221  18.899739583333332 1.1002604166666674  Z " fill-rule="nonzero" fill="#000000" stroke="none" transform="matrix(1 0 0 1 76 149 )" />
  </g>
</svg>