<?xml version="1.0" encoding="utf-8"?>
<svg version="1.1" xmlns:xlink="http://www.w3.org/1999/xlink" width="32px" height="32px" xmlns="http://www.w3.org/2000/svg">
  <g transform="matrix(1 0 0 1 -364 -266 )">
    <path d="M 380 266  C 388.96 266  396 273.04  396 282  C 396 290.96  388.96 298  380 298  C 371.04 298  364 290.96  364 282  C 364 273.04  371.04 266  380 266  Z " fill-rule="nonzero" fill="#eae6e0" stroke="none" />
    <path d="M 380 266.5  C 388.68 266.5  395.5 273.32  395.5 282  C 395.5 290.68  388.68 297.5  380 297.5  C 371.32 297.5  364.5 290.68  364.5 282  C 364.5 273.32  371.32 266.5  380 266.5  Z " stroke-width="1" stroke="#c2c2c2" fill="none" />
  </g>
</svg>