<?xml version="1.0" encoding="utf-8"?>
<svg version="1.1" xmlns:xlink="http://www.w3.org/1999/xlink" width="32px" height="32px" xmlns="http://www.w3.org/2000/svg">
  <g transform="matrix(1 0 0 1 -490 -266 )">
    <path d="M 506 266  C 514.96 266  522 273.04  522 282  C 522 290.96  514.96 298  506 298  C 497.04 298  490 290.96  490 282  C 490 273.04  497.04 266  506 266  Z " fill-rule="nonzero" fill="#232325" stroke="none" />
    <path d="M 506 266.5  C 514.68 266.5  521.5 273.32  521.5 282  C 521.5 290.68  514.68 297.5  506 297.5  C 497.32 297.5  490.5 290.68  490.5 282  C 490.5 273.32  497.32 266.5  506 266.5  Z " stroke-width="1" stroke="#c2c2c2" fill="none" />
  </g>
</svg>