<?xml version="1.0" encoding="utf-8"?>
<svg version="1.1" xmlns:xlink="http://www.w3.org/1999/xlink" width="13px" height="13px" viewBox="550 204  13 13" xmlns="http://www.w3.org/2000/svg">
  <path d="M 556.5 204  C 560.14 204  563 206.86  563 210.5  C 563 214.14  560.14 217  556.5 217  C 552.86 217  550 214.14  550 210.5  C 550 206.86  552.86 204  556.5 204  Z " fill-rule="nonzero" fill="#ffffff" stroke="none" />
  <path d="M 556.5 204.5  C 559.86 204.5  562.5 207.14  562.5 210.5  C 562.5 213.86  559.86 216.5  556.5 216.5  C 553.14 216.5  550.5 213.86  550.5 210.5  C 550.5 207.14  553.14 204.5  556.5 204.5  Z " stroke-width="1" stroke="#797979" fill="none" />
  <path d="M 556.5 213.75  C 554.68 213.75  553.25 212.32  553.25 210.5  C 553.25 208.68  554.68 207.25  556.5 207.25  C 558.32 207.25  559.75 208.68  559.75 210.5  C 559.75 212.32  558.32 213.75  556.5 213.75  " fill-rule="nonzero" fill="#797979" stroke="none" />
</svg>