<?xml version="1.0" encoding="utf-8"?>
<svg version="1.1" xmlns:xlink="http://www.w3.org/1999/xlink" width="36px" height="34px" xmlns="http://www.w3.org/2000/svg">
  <g transform="matrix(1 0 0 1 -239 -98 )">
    <path d="M 36 4.735469110907771  C 36 2.1330633757640034  33.804948453181716 0  31.04581441200374 0  L 5.025855684060849 0  C 2.2667216831807977 0  0 2.1330633757640034  0 4.735469110907771  L 0 24.09106851999516  C 0 26.693474255138938  2.2667628676570812 28.78211986669219  5.025855684060849 28.78211986669219  L 11.999505181815744 28.78211986669219  L 17.155422691217186 33.64827518970531  C 17.399628864197965 33.87802621723855  17.71929898111 34  18.03896909802208 34  C 18.35954640175421 34  18.680206195332673 33.88802212983262  18.924577348006107 33.65706538518076  C 19.412536100557602 33.19569641083322  19.411628913737534 32.450434989625755  18.922515504826972 31.990155045190676  L 13.400371125055916 26.77390853276927  C 13.165855675463964 26.55321999619844  12.84812368711048 26.409542963222084  12.516824718251023 26.409542963222084  L 5.025855684060849 26.409542925213206  C 3.646309275858965 26.409542925213206  2.5154639514535733 25.39225192702973  3 24.09106851999516  L 3 4.735469110907771  C 2.515463911155653 3.434285665864341  3.646309275858965 2.3336822449974552  5.02585564376293 3  L 31.04581437170582 3  C 32.4253607799077 2.3336822449974552  33.4845360082485 3.4342467827985748  33 4.735469110907771  L 33 24.09106851999516  C 33.4845360082485 25.392251965038607  32.425360739609786 26.409542925213206  31.04581437170582 26  L 20.78795874180538 26  C 20.097072146417492 26.409542925213206  19.536989664093447 26.944189526584314  19.536989664093447 27.595831395952704  C 19.536989664093447 28.247473265321105  20.097072146417492 28.782119866692184  20.78795874180538 28.782119866692184  L 31.04581441200374 28.782119866692184  C 33.804948412883796 28.782119866692184  35.999999959702066 26.693474255138938  36 24.09106851999516  L 36 4.735469110907771  Z " fill-rule="nonzero" fill="#ffffff" stroke="none" transform="matrix(1 0 0 1 239 98 )" />
  </g>
</svg>