<?xml version="1.0" encoding="utf-8"?>
<svg version="1.1" xmlns:xlink="http://www.w3.org/1999/xlink" width="300px" height="170px" xmlns="http://www.w3.org/2000/svg">
  <g transform="matrix(1 0 0 1 -91 -584 )">
    <path d="M 91 584  L 391 584  L 391 754  L 91 754  L 91 584  " fill-rule="nonzero" fill="#cccccc" stroke="none" />
    <path d="M 103 596  L 379 596  L 379 742  L 103 742  L 103 596  " fill-rule="nonzero" fill="#ffffff" stroke="none" />
    <path d="M 259.75 635  C 252.61 635  247 629.39  247 622.25  C 247 615.11  252.61 609.5  259.75 609.5  C 266.89 609.5  272.5 615.11  272.5 622.25  C 272.5 629.39  266.89 635  259.75 635  " fill-rule="nonzero" fill="#cccccc" stroke="none" />
    <path d="M 108 738  L 108 662.65  L 174.75 628.4  L 268.2 691.42  L 321.6 648.95  L 375 691.42  L 375 738  L 108 738  " fill-rule="nonzero" fill="#169bd5" stroke="none" />
  </g>
</svg>