<?xml version="1.0" encoding="utf-8"?>
<svg version="1.1" xmlns:xlink="http://www.w3.org/1999/xlink" width="10px" height="10px" xmlns="http://www.w3.org/2000/svg">
  <g transform="matrix(1 0 0 1 -863 -621 )">
    <path d="M 868 621  C 870.8 621  873 623.2  873 626  C 873 628.8  870.8 631  868 631  C 865.2 631  863 628.8  863 626  C 863 623.2  865.2 621  868 621  Z " fill-rule="nonzero" fill="#333333" stroke="none" />
    <path d="M 868 621.5  C 870.52 621.5  872.5 623.48  872.5 626  C 872.5 628.52  870.52 630.5  868 630.5  C 865.48 630.5  863.5 628.52  863.5 626  C 863.5 623.48  865.48 621.5  868 621.5  Z " stroke-width="1" stroke="#797979" fill="none" />
  </g>
</svg>