<?xml version="1.0" encoding="utf-8"?>
<svg version="1.1" xmlns:xlink="http://www.w3.org/1999/xlink" width="13px" height="13px" viewBox="65 638  13 13" xmlns="http://www.w3.org/2000/svg">
  <path d="M 71.5 638  C 75.14 638  78 640.86  78 644.5  C 78 648.14  75.14 651  71.5 651  C 67.86 651  65 648.14  65 644.5  C 65 640.86  67.86 638  71.5 638  Z " fill-rule="nonzero" fill="#ffffff" stroke="none" />
  <path d="M 71.5 638.5  C 74.86 638.5  77.5 641.14  77.5 644.5  C 77.5 647.86  74.86 650.5  71.5 650.5  C 68.14 650.5  65.5 647.86  65.5 644.5  C 65.5 641.14  68.14 638.5  71.5 638.5  Z " stroke-width="1" stroke="#797979" fill="none" />
  <path d="M 71.5 647.75  C 69.68 647.75  68.25 646.32  68.25 644.5  C 68.25 642.68  69.68 641.25  71.5 641.25  C 73.32 641.25  74.75 642.68  74.75 644.5  C 74.75 646.32  73.32 647.75  71.5 647.75  " fill-rule="nonzero" fill="#797979" stroke="none" />
</svg>