<?xml version="1.0" encoding="utf-8"?>
<svg version="1.1" xmlns:xlink="http://www.w3.org/1999/xlink" width="13px" height="13px" viewBox="41 340  13 13" xmlns="http://www.w3.org/2000/svg">
  <path d="M 41.5 342  A 1.5 1.5 0 0 1 43 340.5 L 52 340.5  A 1.5 1.5 0 0 1 53.5 342 L 53.5 351  A 1.5 1.5 0 0 1 52 352.5 L 43 352.5  A 1.5 1.5 0 0 1 41.5 351 L 41.5 342  Z " fill-rule="nonzero" fill="#f0f0f0" stroke="none" />
  <path d="M 41.5 342  A 1.5 1.5 0 0 1 43 340.5 L 52 340.5  A 1.5 1.5 0 0 1 53.5 342 L 53.5 351  A 1.5 1.5 0 0 1 52 352.5 L 43 352.5  A 1.5 1.5 0 0 1 41.5 351 L 41.5 342  Z " stroke-width="1" stroke="#797979" fill="none" />
  <path d="M 43.785714285714285 346.5  L 46.57142857142857 349.2857142857143  L 51.214285714285715 342.7857142857143  " stroke-width="2.7857142857142856" stroke="#797979" fill="none" />
</svg>