<?xml version="1.0" encoding="utf-8"?>
<svg version="1.1" xmlns:xlink="http://www.w3.org/1999/xlink" width="13px" height="13px" viewBox="611 346  13 13" xmlns="http://www.w3.org/2000/svg">
  <path d="M 617.5 346  C 621.14 346  624 348.86  624 352.5  C 624 356.14  621.14 359  617.5 359  C 613.86 359  611 356.14  611 352.5  C 611 348.86  613.86 346  617.5 346  Z " fill-rule="nonzero" fill="#f0f0f0" stroke="none" />
  <path d="M 617.5 346.5  C 620.86 346.5  623.5 349.14  623.5 352.5  C 623.5 355.86  620.86 358.5  617.5 358.5  C 614.14 358.5  611.5 355.86  611.5 352.5  C 611.5 349.14  614.14 346.5  617.5 346.5  Z " stroke-width="1" stroke="#797979" fill="none" />
  <path d="M 617.5 355.75  C 615.68 355.75  614.25 354.32  614.25 352.5  C 614.25 350.68  615.68 349.25  617.5 349.25  C 619.32 349.25  620.75 350.68  620.75 352.5  C 620.75 354.32  619.32 355.75  617.5 355.75  " fill-rule="nonzero" fill="#797979" stroke="none" />
</svg>