<?xml version="1.0" encoding="utf-8"?>
<svg version="1.1" xmlns:xlink="http://www.w3.org/1999/xlink" width="13px" height="13px" viewBox="41 223  13 13" xmlns="http://www.w3.org/2000/svg">
  <path d="M 41.5 225  A 1.5 1.5 0 0 1 43 223.5 L 52 223.5  A 1.5 1.5 0 0 1 53.5 225 L 53.5 234  A 1.5 1.5 0 0 1 52 235.5 L 43 235.5  A 1.5 1.5 0 0 1 41.5 234 L 41.5 225  Z " fill-rule="nonzero" fill="#ffffff" stroke="none" />
  <path d="M 41.5 225  A 1.5 1.5 0 0 1 43 223.5 L 52 223.5  A 1.5 1.5 0 0 1 53.5 225 L 53.5 234  A 1.5 1.5 0 0 1 52 235.5 L 43 235.5  A 1.5 1.5 0 0 1 41.5 234 L 41.5 225  Z " stroke-width="1" stroke="#797979" fill="none" />
</svg>