<?xml version="1.0" encoding="utf-8"?>
<svg version="1.1" xmlns:xlink="http://www.w3.org/1999/xlink" width="131px" height="31px" xmlns="http://www.w3.org/2000/svg">
  <g transform="matrix(1 0 0 1 -694 -670 )">
    <path d="M 695 675  A 4 4 0 0 1 699 671 L 820 671  A 4 4 0 0 1 824 675 L 824 696  A 4 4 0 0 1 820 700 L 699 700  A 4 4 0 0 1 695 696 L 695 675  Z " fill-rule="nonzero" fill="#d7d7d7" stroke="none" />
    <path d="M 694.5 675  A 4.5 4.5 0 0 1 699 670.5 L 820 670.5  A 4.5 4.5 0 0 1 824.5 675 L 824.5 696  A 4.5 4.5 0 0 1 820 700.5 L 699 700.5  A 4.5 4.5 0 0 1 694.5 696 L 694.5 675  Z " stroke-width="1" stroke="#1abc9c" fill="none" stroke-opacity="0.8980392156862745" />
  </g>
</svg>