<?xml version="1.0" encoding="utf-8"?>
<svg version="1.1" xmlns:xlink="http://www.w3.org/1999/xlink" width="13px" height="13px" viewBox="337 132  13 13" xmlns="http://www.w3.org/2000/svg">
  <path d="M 343.5 132  C 347.14 132  350 134.86  350 138.5  C 350 142.14  347.14 145  343.5 145  C 339.86 145  337 142.14  337 138.5  C 337 134.86  339.86 132  343.5 132  Z " fill-rule="nonzero" fill="#f0f0f0" stroke="none" />
  <path d="M 343.5 132.5  C 346.86 132.5  349.5 135.14  349.5 138.5  C 349.5 141.86  346.86 144.5  343.5 144.5  C 340.14 144.5  337.5 141.86  337.5 138.5  C 337.5 135.14  340.14 132.5  343.5 132.5  Z " stroke-width="1" stroke="#797979" fill="none" />
  <path d="M 343.5 141.75  C 341.68 141.75  340.25 140.32  340.25 138.5  C 340.25 136.68  341.68 135.25  343.5 135.25  C 345.32 135.25  346.75 136.68  346.75 138.5  C 346.75 140.32  345.32 141.75  343.5 141.75  " fill-rule="nonzero" fill="#797979" stroke="none" />
</svg>