<?xml version="1.0" encoding="utf-8"?>
<svg version="1.1" xmlns:xlink="http://www.w3.org/1999/xlink" width="13px" height="13px" viewBox="608 132  13 13" xmlns="http://www.w3.org/2000/svg">
  <path d="M 614.5 132  C 618.14 132  621 134.86  621 138.5  C 621 142.14  618.14 145  614.5 145  C 610.86 145  608 142.14  608 138.5  C 608 134.86  610.86 132  614.5 132  Z " fill-rule="nonzero" fill="#ffffff" stroke="none" />
  <path d="M 614.5 132.5  C 617.86 132.5  620.5 135.14  620.5 138.5  C 620.5 141.86  617.86 144.5  614.5 144.5  C 611.14 144.5  608.5 141.86  608.5 138.5  C 608.5 135.14  611.14 132.5  614.5 132.5  Z " stroke-width="1" stroke="#797979" fill="none" />
  <path d="M 614.5 141.75  C 612.68 141.75  611.25 140.32  611.25 138.5  C 611.25 136.68  612.68 135.25  614.5 135.25  C 616.32 135.25  617.75 136.68  617.75 138.5  C 617.75 140.32  616.32 141.75  614.5 141.75  " fill-rule="nonzero" fill="#797979" stroke="none" />
</svg>