<?xml version="1.0" encoding="utf-8"?>
<svg version="1.1" xmlns:xlink="http://www.w3.org/1999/xlink" width="11px" height="8px" xmlns="http://www.w3.org/2000/svg">
  <g transform="matrix(1 0 0 1 -6 -3 )">
    <path d="M 10.801290322580652 1.1043771043771073  C 10.933763440860208 1.2300785634118938  11 1.382716049382708  11 1.5622895622895498  C 11 1.7418630751964201  10.933763440860208 1.8945005611672343  10.801290322580652 2.0202020202020208  L 5.6632258064516074 6.895622895622893  L 4.698064516129026 7.811447811447806  C 4.565591397849471 7.937149270482621  4.404731182795699 8  4.215483870967743 8  C 4.026236559139785 8  3.865376344086014 7.937149270482621  3.732903225806444 7.811447811447806  L 2.767741935483863 6.895622895622893  L 0.19870967741934756 4.457912457912471  C 0.06623655913977754 4.332210998877656  0 4.179573512906842  0 4  C 0 3.820426487093158  0.06623655913977754 3.667789001122344  0.19870967741934756 3.542087542087529  L 1.1638709677419292 2.626262626262644  C 1.2963440860214992 2.500561167227829  1.4572043010752704 2.43771043771045  1.6464516129032274 2.43771043771045  C 1.8356989247311848 2.43771043771045  1.996559139784941 2.500561167227829  2.1290322580645107 2.626262626262644  L 4.215483870967743 4.61279461279463  L 8.87096774193549 0.1885521885521939  C 9.00344086021506 0.06285072951737902  9.164301075268815 0  9.353548387096772 0  C 9.54279569892473 0  9.703655913978501 0.06285072951737902  9.83612903225807 0.1885521885521939  L 10.801290322580652 1.1043771043771073  Z " fill-rule="nonzero" fill="#ffffff" stroke="none" transform="matrix(1 0 0 1 6 3 )" />
  </g>
</svg>