<?xml version="1.0" encoding="utf-8"?>
<svg version="1.1" xmlns:xlink="http://www.w3.org/1999/xlink" width="17px" height="13px" xmlns="http://www.w3.org/2000/svg">
  <defs>
    <mask fill="white" id="clip162">
      <path d="M 0 8  L 0 5  C 0 2.200000000000003  2.1999999999999886 0  5 0  L 9 0  L 11 0  L 12 0  C 14.800000000000011 0  17 2.200000000000003  17 5  L 17 8  C 17 10.799999999999997  14.800000000000011 13  12 13  L 9 13  L 5 13  C 2.1999999999999886 13  0 10.799999999999997  0 8  Z " fill-rule="evenodd" />
    </mask>
  </defs>
  <g transform="matrix(1 0 0 1 -252 -9 )">
    <path d="M 0 8  L 0 5  C 0 2.200000000000003  2.1999999999999886 0  5 0  L 9 0  L 11 0  L 12 0  C 14.800000000000011 0  17 2.200000000000003  17 5  L 17 8  C 17 10.799999999999997  14.800000000000011 13  12 13  L 9 13  L 5 13  C 2.1999999999999886 13  0 10.799999999999997  0 8  Z " fill-rule="nonzero" fill="#ffffff" stroke="none" transform="matrix(1 0 0 1 252 9 )" />
    <path d="M 0 8  L 0 5  C 0 2.200000000000003  2.1999999999999886 0  5 0  L 9 0  L 11 0  L 12 0  C 14.800000000000011 0  17 2.200000000000003  17 5  L 17 8  C 17 10.799999999999997  14.800000000000011 13  12 13  L 9 13  L 5 13  C 2.1999999999999886 13  0 10.799999999999997  0 8  Z " stroke-width="2" stroke="#797979" fill="none" transform="matrix(1 0 0 1 252 9 )" mask="url(#clip162)" />
  </g>
</svg>