<?xml version="1.0" encoding="utf-8"?>
<svg version="1.1" xmlns:xlink="http://www.w3.org/1999/xlink" width="14px" height="9px" xmlns="http://www.w3.org/2000/svg">
  <g transform="matrix(1 0 0 1 -5 -7 )">
    <path d="M 13.127364864864864 0.203329918032787  C 13.216419246240326 0.1142166368736381  13.33862817124113 0.0639552893680572  13.46625 0.0639552893680572  C 13.727541012006549 0.0639552893680572  13.9393592286843 0.2704408460240621  13.9393592286843 0.5251536885245901  C 13.9393592286843 0.6453823811623439  13.891197263199059 0.7608584102187768  13.805135135135137 0.8469774590163937  L 5.853040540540541 8.80035860655738  C 5.678681126530931 8.974655097246522  5.395357304192291 8.986768735958924  5.206013513513513 8.828022540983607  L 0.18729729729729727 4.628637295081968  C 0.07944154985830174 4.541037867741729  0.01707838285515606 4.41125866917657  0.01707838285515606 4.274407781756929  C 0.01707838285515606 4.0197682966915025  0.22883559577302393 3.813342207986437  0.49005135582812914 3.813342207986437  C 0.6055683743586473 3.813342207986437  0.7170916936607497 3.8545534103197974  0.803581081081081 3.9292008196721313  L 5.48554054054054 7.847336065573771  L 13.127364864864864 0.2028688524590164  Z " fill-rule="nonzero" fill="#000000" stroke="none" transform="matrix(1 0 0 1 5 7 )" />
  </g>
</svg>