<?xml version="1.0" encoding="utf-8"?>
<svg version="1.1" xmlns:xlink="http://www.w3.org/1999/xlink" width="6px" height="7px" xmlns="http://www.w3.org/2000/svg">
  <defs>
    <mask fill="white" id="clip325">
      <path d="M 5.866071428571429 6.869158878504673  C 5.866071428571429 6.869158878504673  5.732142857142858 6.950934579439252  5.665178571428571 6.950934579439252  C 5.598214285714286 6.950934579439252  5.53125 6.950934579439252  5.464285714285714 6.869158878504673  L 0.10714285714285714 0.7359813084112149  C -0.026785714285714284 0.572429906542056  -0.026785714285714284 0.32710280373831774  0.10714285714285714 0.16355140186915887  C 0.24107142857142896 0  0.4419642857142857 0  0.5758928571428575 0.16355140186915887  L 5.866071428571429 6.296728971962617  C 6 6.460280373831775  6 6.705607476635513  5.866071428571429 6.869158878504673  Z " fill-rule="evenodd" />
    </mask>
  </defs>
  <g transform="matrix(1 0 0 1 -157 -116 )">
    <path d="M 5.866071428571429 6.869158878504673  C 5.866071428571429 6.869158878504673  5.732142857142858 6.950934579439252  5.665178571428571 6.950934579439252  C 5.598214285714286 6.950934579439252  5.53125 6.950934579439252  5.464285714285714 6.869158878504673  L 0.10714285714285714 0.7359813084112149  C -0.026785714285714284 0.572429906542056  -0.026785714285714284 0.32710280373831774  0.10714285714285714 0.16355140186915887  C 0.24107142857142896 0  0.4419642857142857 0  0.5758928571428575 0.16355140186915887  L 5.866071428571429 6.296728971962617  C 6 6.460280373831775  6 6.705607476635513  5.866071428571429 6.869158878504673  Z " fill-rule="nonzero" fill="#3d3d3d" stroke="none" transform="matrix(1 0 0 1 157 116 )" />
    <path d="M 5.866071428571429 6.869158878504673  C 5.866071428571429 6.869158878504673  5.732142857142858 6.950934579439252  5.665178571428571 6.950934579439252  C 5.598214285714286 6.950934579439252  5.53125 6.950934579439252  5.464285714285714 6.869158878504673  L 0.10714285714285714 0.7359813084112149  C -0.026785714285714284 0.572429906542056  -0.026785714285714284 0.32710280373831774  0.10714285714285714 0.16355140186915887  C 0.24107142857142896 0  0.4419642857142857 0  0.5758928571428575 0.16355140186915887  L 5.866071428571429 6.296728971962617  C 6 6.460280373831775  6 6.705607476635513  5.866071428571429 6.869158878504673  Z " stroke-width="2" stroke="#ffffff" fill="none" transform="matrix(1 0 0 1 157 116 )" mask="url(#clip325)" />
  </g>
</svg>