<?xml version="1.0" encoding="utf-8"?>
<svg version="1.1" xmlns:xlink="http://www.w3.org/1999/xlink" width="13px" height="13px" viewBox="639 477  13 13" xmlns="http://www.w3.org/2000/svg">
  <path d="M 645.5 477  C 649.14 477  652 479.86  652 483.5  C 652 487.14  649.14 490  645.5 490  C 641.86 490  639 487.14  639 483.5  C 639 479.86  641.86 477  645.5 477  Z " fill-rule="nonzero" fill="#f0f0f0" stroke="none" />
  <path d="M 645.5 477.5  C 648.86 477.5  651.5 480.14  651.5 483.5  C 651.5 486.86  648.86 489.5  645.5 489.5  C 642.14 489.5  639.5 486.86  639.5 483.5  C 639.5 480.14  642.14 477.5  645.5 477.5  Z " stroke-width="1" stroke="#797979" fill="none" />
  <path d="M 645.5 486.75  C 643.68 486.75  642.25 485.32  642.25 483.5  C 642.25 481.68  643.68 480.25  645.5 480.25  C 647.32 480.25  648.75 481.68  648.75 483.5  C 648.75 485.32  647.32 486.75  645.5 486.75  " fill-rule="nonzero" fill="#797979" stroke="none" />
</svg>