<?xml version="1.0" encoding="utf-8"?>
<svg version="1.1" xmlns:xlink="http://www.w3.org/1999/xlink" width="13px" height="13px" viewBox="639 507  13 13" xmlns="http://www.w3.org/2000/svg">
  <path d="M 645.5 507  C 649.14 507  652 509.86  652 513.5  C 652 517.14  649.14 520  645.5 520  C 641.86 520  639 517.14  639 513.5  C 639 509.86  641.86 507  645.5 507  Z " fill-rule="nonzero" fill="#f0f0f0" stroke="none" />
  <path d="M 645.5 507.5  C 648.86 507.5  651.5 510.14  651.5 513.5  C 651.5 516.86  648.86 519.5  645.5 519.5  C 642.14 519.5  639.5 516.86  639.5 513.5  C 639.5 510.14  642.14 507.5  645.5 507.5  Z " stroke-width="1" stroke="#797979" fill="none" />
  <path d="M 645.5 516.75  C 643.68 516.75  642.25 515.32  642.25 513.5  C 642.25 511.68  643.68 510.25  645.5 510.25  C 647.32 510.25  648.75 511.68  648.75 513.5  C 648.75 515.32  647.32 516.75  645.5 516.75  " fill-rule="nonzero" fill="#797979" stroke="none" />
</svg>