<?xml version="1.0" encoding="utf-8"?>
<svg version="1.1" xmlns:xlink="http://www.w3.org/1999/xlink" width="867px" height="658px" xmlns="http://www.w3.org/2000/svg">
  <g transform="matrix(1 0 0 1 0 -92 )">
    <path d="M 1 97  A 4 4 0 0 1 4.999999999999999 93 L 862 93  A 4 4 0 0 1 866 97 L 866 745  A 4 4 0 0 1 862 749 L 5 749  A 4 4 0 0 1 1 745 L 1 97  Z " fill-rule="nonzero" fill="#fafdff" stroke="none" />
    <path d="M 0.5 97  A 4.5 4.5 0 0 1 4.999999999999999 92.5 L 862 92.5  A 4.5 4.5 0 0 1 866.5 97 L 866.5 745  A 4.5 4.5 0 0 1 862 749.5 L 5 749.5  A 4.5 4.5 0 0 1 0.5 745 L 0.5 97  Z " stroke-width="1" stroke="#000000" fill="none" stroke-opacity="0.34901960784313724" />
  </g>
</svg>