<?xml version="1.0" encoding="utf-8"?>
<svg version="1.1" xmlns:xlink="http://www.w3.org/1999/xlink" width="45px" height="62px" xmlns="http://www.w3.org/2000/svg">
  <g transform="matrix(1 0 0 1 -74 -2 )">
    <path d="M 74.5 5  A 2.5 2.5 0 0 1 77 2.5 L 116 2.5  A 2.5 2.5 0 0 1 118.5 5 L 118.5 61  A 2.5 2.5 0 0 1 116 63.5 L 77 63.5  A 2.5 2.5 0 0 1 74.5 61 L 74.5 5  Z " fill-rule="nonzero" fill="#ffffff" stroke="none" />
    <path d="M 74.5 5  A 2.5 2.5 0 0 1 77 2.5 L 116 2.5  A 2.5 2.5 0 0 1 118.5 5 L 118.5 61  A 2.5 2.5 0 0 1 116 63.5 L 77 63.5  A 2.5 2.5 0 0 1 74.5 61 L 74.5 5  Z " stroke-width="1" stroke="#adadad" fill="none" />
  </g>
</svg>