<?xml version="1.0" encoding="utf-8"?>
<svg version="1.1" xmlns:xlink="http://www.w3.org/1999/xlink" width="13px" height="13px" viewBox="539 279  13 13" xmlns="http://www.w3.org/2000/svg">
  <path d="M 545.5 279  C 549.14 279  552 281.86  552 285.5  C 552 289.14  549.14 292  545.5 292  C 541.86 292  539 289.14  539 285.5  C 539 281.86  541.86 279  545.5 279  Z " fill-rule="nonzero" fill="#f0f0f0" stroke="none" />
  <path d="M 545.5 279.5  C 548.86 279.5  551.5 282.14  551.5 285.5  C 551.5 288.86  548.86 291.5  545.5 291.5  C 542.14 291.5  539.5 288.86  539.5 285.5  C 539.5 282.14  542.14 279.5  545.5 279.5  Z " stroke-width="1" stroke="#797979" fill="none" />
  <path d="M 545.5 288.75  C 543.68 288.75  542.25 287.32  542.25 285.5  C 542.25 283.68  543.68 282.25  545.5 282.25  C 547.32 282.25  548.75 283.68  548.75 285.5  C 548.75 287.32  547.32 288.75  545.5 288.75  " fill-rule="nonzero" fill="#797979" stroke="none" />
</svg>