<?xml version="1.0" encoding="utf-8"?>
<svg version="1.1" xmlns:xlink="http://www.w3.org/1999/xlink" width="13px" height="13px" viewBox="539 359  13 13" xmlns="http://www.w3.org/2000/svg">
  <path d="M 545.5 359  C 549.14 359  552 361.86  552 365.5  C 552 369.14  549.14 372  545.5 372  C 541.86 372  539 369.14  539 365.5  C 539 361.86  541.86 359  545.5 359  Z " fill-rule="nonzero" fill="#ffffff" stroke="none" />
  <path d="M 545.5 359.5  C 548.86 359.5  551.5 362.14  551.5 365.5  C 551.5 368.86  548.86 371.5  545.5 371.5  C 542.14 371.5  539.5 368.86  539.5 365.5  C 539.5 362.14  542.14 359.5  545.5 359.5  Z " stroke-width="1" stroke="#797979" fill="none" />
  <path d="M 545.5 368.75  C 543.68 368.75  542.25 367.32  542.25 365.5  C 542.25 363.68  543.68 362.25  545.5 362.25  C 547.32 362.25  548.75 363.68  548.75 365.5  C 548.75 367.32  547.32 368.75  545.5 368.75  " fill-rule="nonzero" fill="#797979" stroke="none" />
</svg>