<?xml version="1.0" encoding="utf-8"?>
<svg version="1.1" xmlns:xlink="http://www.w3.org/1999/xlink" width="13px" height="13px" viewBox="147 483  13 13" xmlns="http://www.w3.org/2000/svg">
  <path d="M 153.5 483  C 157.14 483  160 485.86  160 489.5  C 160 493.14  157.14 496  153.5 496  C 149.86 496  147 493.14  147 489.5  C 147 485.86  149.86 483  153.5 483  Z " fill-rule="nonzero" fill="#ffffff" stroke="none" />
  <path d="M 153.5 483.5  C 156.86 483.5  159.5 486.14  159.5 489.5  C 159.5 492.86  156.86 495.5  153.5 495.5  C 150.14 495.5  147.5 492.86  147.5 489.5  C 147.5 486.14  150.14 483.5  153.5 483.5  Z " stroke-width="1" stroke="#797979" fill="none" />
  <path d="M 153.5 492.75  C 151.68 492.75  150.25 491.32  150.25 489.5  C 150.25 487.68  151.68 486.25  153.5 486.25  C 155.32 486.25  156.75 487.68  156.75 489.5  C 156.75 491.32  155.32 492.75  153.5 492.75  " fill-rule="nonzero" fill="#797979" stroke="none" />
</svg>