<?xml version="1.0" encoding="utf-8"?>
<svg version="1.1" xmlns:xlink="http://www.w3.org/1999/xlink" width="13px" height="13px" viewBox="542 273  13 13" xmlns="http://www.w3.org/2000/svg">
  <path d="M 548.5 273  C 552.14 273  555 275.86  555 279.5  C 555 283.14  552.14 286  548.5 286  C 544.86 286  542 283.14  542 279.5  C 542 275.86  544.86 273  548.5 273  Z " fill-rule="nonzero" fill="#ffffff" stroke="none" />
  <path d="M 548.5 273.5  C 551.86 273.5  554.5 276.14  554.5 279.5  C 554.5 282.86  551.86 285.5  548.5 285.5  C 545.14 285.5  542.5 282.86  542.5 279.5  C 542.5 276.14  545.14 273.5  548.5 273.5  Z " stroke-width="1" stroke="#797979" fill="none" />
  <path d="M 548.5 282.75  C 546.68 282.75  545.25 281.32  545.25 279.5  C 545.25 277.68  546.68 276.25  548.5 276.25  C 550.32 276.25  551.75 277.68  551.75 279.5  C 551.75 281.32  550.32 282.75  548.5 282.75  " fill-rule="nonzero" fill="#797979" stroke="none" />
</svg>