<?xml version="1.0" encoding="utf-8"?>
<svg version="1.1" xmlns:xlink="http://www.w3.org/1999/xlink" width="31px" height="31px" xmlns="http://www.w3.org/2000/svg">
  <g transform="matrix(1 0 0 1 -631 -102 )">
    <path d="M 30.670625 11.643289999999999  C 30.670497707431153 11.047264656706364  30.433624719887614 10.47569741372589  30.012107500000003 10.0543075  L 20.945692500000003 0.9878925000000006  C 20.524302586274114 0.5663752801123862  19.952735343293636 0.3295022925688497  19.35671 0.3293750000000006  L 2.5768750000000002 0.3293750000000006  C 1.3356150247552925 0.3293750000000006  0.32937500000000003 1.3356150247552925  0.32937500000000003 2.5768750000000002  L 0.32937500000000003 28.423125  C 0.32937500000000003 29.664384975244708  1.3356150247552918 30.670625  2.5768750000000002 30.670625  L 28.423125 30.670625  C 29.664384975244708 30.670625  30.670625 29.664384975244708  30.670625 28.423125  L 30.670625 11.643289999999999  Z M 7.63375 6.51  L 7.63375 2.5768750000000002  L 14.37625 2.5768750000000002  L 14.37625 6.51  L 7.63375 6.51  Z M 23.36625 23  L 23.36625 28  L 7.63375 28  L 7.63375 23  L 23.36625 23  Z M 28 11.643289999999999  L 28 28.423125  L 25.61375 28.423125  L 25.61375 22.2425  C 25.61375 21.62187001237765  25.110629987622353 21.118750000000002  24.490000000000002 21  L 6.51 21  C 5.889370012377646 21.118750000000002  5.3862499999999995 21.62187001237765  5.3862499999999995 22.2425  L 5.3862499999999995 28.423125  L 3 28.423125  L 3 2.5768750000000002  L 5.3862499999999995 2.5768750000000002  L 5.3862499999999995 7.63375  C 5.3862499999999995 8.254379987622354  5.889370012377646 8.757499999999999  6.51 8.757499999999999  L 15.5 8.757499999999999  C 16.120629987622355 8.757499999999999  16.62375 8.254379987622354  16.62375 7.63375  L 16.62375 2.5768750000000002  L 19.356709999999996 2.5768750000000002  L 28 11.643289999999999  Z " fill-rule="nonzero" fill="#1e1b1b" stroke="none" transform="matrix(1 0 0 1 631 102 )" />
  </g>
</svg>