<?xml version="1.0" encoding="utf-8"?>
<svg version="1.1" xmlns:xlink="http://www.w3.org/1999/xlink" width="13px" height="13px" viewBox="897 180  13 13" xmlns="http://www.w3.org/2000/svg">
  <path d="M 903.5 180  C 907.14 180  910 182.86  910 186.5  C 910 190.14  907.14 193  903.5 193  C 899.86 193  897 190.14  897 186.5  C 897 182.86  899.86 180  903.5 180  Z " fill-rule="nonzero" fill="#ffffff" stroke="none" />
  <path d="M 903.5 180.5  C 906.86 180.5  909.5 183.14  909.5 186.5  C 909.5 189.86  906.86 192.5  903.5 192.5  C 900.14 192.5  897.5 189.86  897.5 186.5  C 897.5 183.14  900.14 180.5  903.5 180.5  Z " stroke-width="1" stroke="#797979" fill="none" />
  <path d="M 903.5 189.75  C 901.68 189.75  900.25 188.32  900.25 186.5  C 900.25 184.68  901.68 183.25  903.5 183.25  C 905.32 183.25  906.75 184.68  906.75 186.5  C 906.75 188.32  905.32 189.75  903.5 189.75  " fill-rule="nonzero" fill="#797979" stroke="none" />
</svg>