<?xml version="1.0" encoding="utf-8"?>
<svg version="1.1" xmlns:xlink="http://www.w3.org/1999/xlink" width="13px" height="13px" viewBox="813 181  13 13" xmlns="http://www.w3.org/2000/svg">
  <path d="M 819.5 181  C 823.14 181  826 183.86  826 187.5  C 826 191.14  823.14 194  819.5 194  C 815.86 194  813 191.14  813 187.5  C 813 183.86  815.86 181  819.5 181  Z " fill-rule="nonzero" fill="#f0f0f0" stroke="none" />
  <path d="M 819.5 181.5  C 822.86 181.5  825.5 184.14  825.5 187.5  C 825.5 190.86  822.86 193.5  819.5 193.5  C 816.14 193.5  813.5 190.86  813.5 187.5  C 813.5 184.14  816.14 181.5  819.5 181.5  Z " stroke-width="1" stroke="#797979" fill="none" />
  <path d="M 819.5 190.75  C 817.68 190.75  816.25 189.32  816.25 187.5  C 816.25 185.68  817.68 184.25  819.5 184.25  C 821.32 184.25  822.75 185.68  822.75 187.5  C 822.75 189.32  821.32 190.75  819.5 190.75  " fill-rule="nonzero" fill="#797979" stroke="none" />
</svg>