<?xml version="1.0" encoding="utf-8"?>
<svg version="1.1" xmlns:xlink="http://www.w3.org/1999/xlink" width="13px" height="13px" viewBox="550 181  13 13" xmlns="http://www.w3.org/2000/svg">
  <path d="M 556.5 181  C 560.14 181  563 183.86  563 187.5  C 563 191.14  560.14 194  556.5 194  C 552.86 194  550 191.14  550 187.5  C 550 183.86  552.86 181  556.5 181  Z " fill-rule="nonzero" fill="#ffffff" stroke="none" />
  <path d="M 556.5 181.5  C 559.86 181.5  562.5 184.14  562.5 187.5  C 562.5 190.86  559.86 193.5  556.5 193.5  C 553.14 193.5  550.5 190.86  550.5 187.5  C 550.5 184.14  553.14 181.5  556.5 181.5  Z " stroke-width="1" stroke="#797979" fill="none" />
  <path d="M 556.5 190.75  C 554.68 190.75  553.25 189.32  553.25 187.5  C 553.25 185.68  554.68 184.25  556.5 184.25  C 558.32 184.25  559.75 185.68  559.75 187.5  C 559.75 189.32  558.32 190.75  556.5 190.75  " fill-rule="nonzero" fill="#797979" stroke="none" />
</svg>