<?xml version="1.0" encoding="utf-8"?>
<svg version="1.1" xmlns:xlink="http://www.w3.org/1999/xlink" width="867px" height="664px" xmlns="http://www.w3.org/2000/svg">
  <g transform="matrix(1 0 0 1 0 -87 )">
    <path d="M 1 92  A 4 4 0 0 1 4.999999999999999 88 L 862 88  A 4 4 0 0 1 866 92 L 866 746  A 4 4 0 0 1 862 750 L 5 750  A 4 4 0 0 1 1 746 L 1 92  Z " fill-rule="nonzero" fill="#fafdff" stroke="none" />
    <path d="M 0.5 92  A 4.5 4.5 0 0 1 4.999999999999999 87.5 L 862 87.5  A 4.5 4.5 0 0 1 866.5 92 L 866.5 746  A 4.5 4.5 0 0 1 862 750.5 L 5 750.5  A 4.5 4.5 0 0 1 0.5 746 L 0.5 92  Z " stroke-width="1" stroke="#000000" fill="none" stroke-opacity="0.34901960784313724" />
  </g>
</svg>