<?xml version="1.0" encoding="utf-8"?>
<svg version="1.1" xmlns:xlink="http://www.w3.org/1999/xlink" width="867px" height="45px" xmlns="http://www.w3.org/2000/svg">
  <g transform="matrix(1 0 0 1 0 -47 )">
    <path d="M 1 52  A 4 4 0 0 1 4.999999999999999 48 L 862 48  A 4 4 0 0 1 866 52 L 866 87  A 4 4 0 0 1 862 91 L 5 91  A 4 4 0 0 1 1 87 L 1 52  Z " fill-rule="nonzero" fill="#e6e6e6" stroke="none" fill-opacity="0.3568627450980392" />
    <path d="M 0.5 52  A 4.5 4.5 0 0 1 4.999999999999999 47.5 L 862 47.5  A 4.5 4.5 0 0 1 866.5 52 L 866.5 87  A 4.5 4.5 0 0 1 862 91.5 L 5 91.5  A 4.5 4.5 0 0 1 0.5 87 L 0.5 52  Z " stroke-width="1" stroke="#000000" fill="none" stroke-opacity="0.34901960784313724" />
  </g>
</svg>