<?xml version="1.0" encoding="utf-8"?>
<svg version="1.1" xmlns:xlink="http://www.w3.org/1999/xlink" width="13px" height="13px" viewBox="420 530  13 13" xmlns="http://www.w3.org/2000/svg">
  <path d="M 426.5 530  C 430.14 530  433 532.86  433 536.5  C 433 540.14  430.14 543  426.5 543  C 422.86 543  420 540.14  420 536.5  C 420 532.86  422.86 530  426.5 530  Z " fill-rule="nonzero" fill="#ffffff" stroke="none" />
  <path d="M 426.5 530.5  C 429.86 530.5  432.5 533.14  432.5 536.5  C 432.5 539.86  429.86 542.5  426.5 542.5  C 423.14 542.5  420.5 539.86  420.5 536.5  C 420.5 533.14  423.14 530.5  426.5 530.5  Z " stroke-width="1" stroke="#797979" fill="none" />
  <path d="M 426.5 539.75  C 424.68 539.75  423.25 538.32  423.25 536.5  C 423.25 534.68  424.68 533.25  426.5 533.25  C 428.32 533.25  429.75 534.68  429.75 536.5  C 429.75 538.32  428.32 539.75  426.5 539.75  " fill-rule="nonzero" fill="#797979" stroke="none" />
</svg>