<?xml version="1.0" encoding="utf-8"?>
<svg version="1.1" xmlns:xlink="http://www.w3.org/1999/xlink" width="13px" height="13px" viewBox="438 466  13 13" xmlns="http://www.w3.org/2000/svg">
  <path d="M 444.5 466  C 448.14 466  451 468.86  451 472.5  C 451 476.14  448.14 479  444.5 479  C 440.86 479  438 476.14  438 472.5  C 438 468.86  440.86 466  444.5 466  Z " fill-rule="nonzero" fill="#f0f0f0" stroke="none" />
  <path d="M 444.5 466.5  C 447.86 466.5  450.5 469.14  450.5 472.5  C 450.5 475.86  447.86 478.5  444.5 478.5  C 441.14 478.5  438.5 475.86  438.5 472.5  C 438.5 469.14  441.14 466.5  444.5 466.5  Z " stroke-width="1" stroke="#797979" fill="none" />
  <path d="M 444.5 475.75  C 442.68 475.75  441.25 474.32  441.25 472.5  C 441.25 470.68  442.68 469.25  444.5 469.25  C 446.32 469.25  447.75 470.68  447.75 472.5  C 447.75 474.32  446.32 475.75  444.5 475.75  " fill-rule="nonzero" fill="#797979" stroke="none" />
</svg>