<?xml version="1.0" encoding="utf-8"?>
<svg version="1.1" xmlns:xlink="http://www.w3.org/1999/xlink" width="31px" height="30px" xmlns="http://www.w3.org/2000/svg">
  <defs>
    <linearGradient gradientUnits="userSpaceOnUse" x1="15.5" y1="0" x2="15.5" y2="30" id="LinearGradient38">
      <stop id="Stop39" stop-color="#1e1b1b" offset="0" />
      <stop id="Stop40" stop-color="#1a2338" offset="1" />
    </linearGradient>
  </defs>
  <g transform="matrix(1 0 0 1 -26 -54 )">
    <path d="M 30.616536458333336 24.4453125  C 30.872178819444443 24.742187500000004  31 25.093750000000004  31 25.5  L 31 28.5  C 31 28.90625  30.872178819444443 29.2578125  30.616536458333336 29.5546875  C 30.360894097222225 29.8515625  30.058159722222225 30  29.708333333333336 30  L 1.2916666666666665 30  C 0.9418402777777779 30  0.6391059027777778 29.8515625  0.38346354166666663 29.5546875  C 0.12782118055555555 29.2578125  0 28.90625  0 28.5  L 0 25.5  C 0 25.093750000000004  0.12782118055555555 24.742187500000004  0.38346354166666663 24.4453125  C 0.6391059027777778 24.1484375  0.9418402777777779 24  1.2916666666666665 24  L 29.708333333333336 24  C 30.058159722222225 24  30.360894097222225 24.1484375  30.616536458333336 24.4453125  Z M 30.616536458333336 12.445312499999998  C 30.872178819444443 12.742187499999998  31 13.093749999999998  31 13.499999999999998  L 31 16.5  C 31 16.90625  30.872178819444443 17.2578125  30.616536458333336 17.5546875  C 30.360894097222225 17.851562499999996  30.058159722222225 18  29.708333333333336 18  L 1.2916666666666665 18  C 0.9418402777777779 18  0.6391059027777778 17.851562499999996  0.38346354166666663 17.5546875  C 0.12782118055555555 17.2578125  0 16.90625  0 16.5  L 0 13.499999999999998  C 0 13.093749999999998  0.12782118055555555 12.742187499999998  0.38346354166666663 12.445312499999998  C 0.6391059027777778 12.148437500000002  0.9418402777777779 12  1.2916666666666665 12  L 29.708333333333336 12  C 30.058159722222225 12  30.360894097222225 12.148437500000002  30.616536458333336 12.445312499999998  Z M 30.616536458333336 0.44531250000000133  C 30.872178819444443 0.7421874999999978  31 1.0937499999999978  31 1.5000000000000013  L 31 4.500000000000001  C 31 4.906249999999997  30.872178819444443 5.257812499999997  30.616536458333336 5.554687500000001  C 30.360894097222225 5.851562499999997  30.058159722222225 5.999999999999998  29.708333333333336 6  L 1.2916666666666665 6  C 0.9418402777777779 5.999999999999998  0.6391059027777778 5.851562499999997  0.38346354166666663 5.554687500000001  C 0.12782118055555555 5.257812499999997  0 4.906249999999997  0 4.500000000000001  L 0 1.5000000000000013  C 0 1.0937499999999978  0.12782118055555555 0.7421874999999978  0.38346354166666663 0.44531250000000133  C 0.6391059027777778 0.14843749999999822  0.9418402777777779 0  1.2916666666666665 0  L 29.708333333333336 0  C 30.058159722222225 0  30.360894097222225 0.14843749999999822  30.616536458333336 0.44531250000000133  Z " fill-rule="nonzero" fill="url(#LinearGradient38)" stroke="none" transform="matrix(1 0 0 1 26 54 )" />
  </g>
</svg>