<?xml version="1.0" encoding="utf-8"?>
<svg version="1.1" xmlns:xlink="http://www.w3.org/1999/xlink" width="177px" height="179px" xmlns="http://www.w3.org/2000/svg">
  <defs>
    <linearGradient gradientUnits="userSpaceOnUse" x1="281.5" y1="156" x2="281.5" y2="335" id="LinearGradient46">
      <stop id="Stop47" stop-color="#f6f6f6" offset="0" />
      <stop id="Stop48" stop-color="#e3e804" offset="1" />
    </linearGradient>
  </defs>
  <g transform="matrix(1 0 0 1 -193 -156 )">
    <path d="M 281.5 156  C 331.06 156  370 195.38  370 245.5  C 370 295.62  331.06 335  281.5 335  C 231.94 335  193 295.62  193 245.5  C 193 195.38  231.94 156  281.5 156  Z " fill-rule="nonzero" fill="url(#LinearGradient46)" stroke="none" />
    <path d="M 281.5 156.5  C 330.78 156.5  369.5 195.66  369.5 245.5  C 369.5 295.34000000000003  330.78 334.5  281.5 334.5  C 232.22 334.5  193.5 295.34000000000003  193.5 245.5  C 193.5 195.66  232.22 156.5  281.5 156.5  Z " stroke-width="1" stroke="#797979" fill="none" />
  </g>
</svg>