<?xml version="1.0" encoding="utf-8"?>
<svg version="1.1" xmlns:xlink="http://www.w3.org/1999/xlink" width="31px" height="31px" xmlns="http://www.w3.org/2000/svg">
  <g transform="matrix(1 0 0 1 -610 0 )">
    <path d="M 19.152994791666664 19.152994791666668  C 20.162109375 18.143880208333332  20.666666666666664 16.92621527777778  20.666666666666664 15.5  C 20.666666666666664 14.07378472222222  20.162109375 12.856119791666666  19.152994791666664 11.847005208333334  C 18.143880208333336 10.837890625  16.926215277777782 10.333333333333334  15.5 10.333333333333334  C 14.073784722222223 10.333333333333334  12.856119791666668 10.837890625  11.847005208333332 11.847005208333334  C 10.837890625 12.856119791666666  10.333333333333332 14.07378472222222  10.333333333333332 15.5  C 10.333333333333332 16.92621527777778  10.837890625 18.143880208333332  11.847005208333332 19.152994791666668  C 12.856119791666668 20.162109375  14.073784722222223 20.666666666666668  15.5 20.666666666666668  C 16.926215277777782 20.666666666666668  18.143880208333336 20.162109375  19.152994791666664 19.152994791666668  Z M 30.838541666666664 12.825846354166666  C 30.946180555555554 12.967122395833334  31 13.12521701388889  31 13.300130208333334  L 31 17.780598958333332  C 31 17.942057291666668  30.946180555555554 18.096788194444446  30.838541666666664 18.244791666666668  C 30.730902777777782 18.392795138888886  30.596354166666664 18.480251736111107  30.434895833333336 18.507161458333332  L 26.701171875 19.072265625  C 26.445529513888893 19.798828125  26.183159722222225 20.411024305555554  25.9140625 20.908854166666668  C 26.384982638888893 21.58159722222222  27.104817708333336 22.509982638888886  28.073567708333336 23.694010416666664  C 28.208116319444446 23.85546875  28.275390625 24.02365451388889  28.275390625 24.198567708333336  C 28.275390625 24.373480902777782  28.21484375 24.528211805555554  28.09375 24.662760416666664  C 27.73046875 25.160590277777782  27.064453125 25.887152777777782  26.095703125 26.842447916666664  C 25.126953125 27.797743055555554  24.494574652777782 28.275390625  24.198567708333336 28.275390625  C 24.037109375 28.275390625  23.862196180555557 28.21484375  23.673828125 28.09375  L 20.888671875 25.9140625  C 20.29665798611111 26.223524305555554  19.684461805555557 26.479166666666664  19.052083333333336 26.680989583333336  C 18.836805555555557 28.510850694444446  18.641710069444446 29.762152777777782  18.466796875 30.434895833333336  C 18.37261284722222 30.811631944444446  18.13042534722222 31  17.740234375 31  L 13.259765625 31  C 13.071397569444446 31  12.906575520833332 30.942816840277782  12.765299479166668 30.828450520833336  C 12.6240234375 30.71408420138889  12.546657986111112 30.569444444444446  12.533203125 30.39453125  L 11.968098958333332 26.680989583333336  C 11.308810763888891 26.465711805555554  10.703342013888891 26.216796875  10.151692708333332 25.934244791666664  L 7.305989583333334 28.09375  C 7.171440972222223 28.21484375  7.003255208333334 28.275390625  6.801432291666666 28.275390625  C 6.613064236111112 28.275390625  6.444878472222223 28.20138888888889  6.296875 28.053385416666664  C 4.6015625 26.51953125  3.491536458333333 25.389322916666664  2.966796875 24.662760416666664  C 2.8726128472222228 24.528211805555554  2.825520833333333 24.373480902777782  2.825520833333333 24.198567708333336  C 2.825520833333333 24.037109375  2.879340277777778 23.882378472222218  2.986979166666667 23.734375  C 3.188802083333333 23.451822916666664  3.531901041666667 23.00444878472222  4.016276041666666 22.392252604166668  C 4.500651041666666 21.780056423611107  4.863932291666666 21.30577256944444  5.106119791666666 20.969401041666668  C 4.742838541666666 20.296657986111107  4.467013888888889 19.630642361111107  4.278645833333334 18.971354166666668  L 0.5852864583333333 18.426432291666668  C 0.41037326388888895 18.399522569444446  0.2690972222222222 18.3154296875  0.16145833333333331 18.174153645833332  C 0.05381944444444444 18.032877604166668  0 17.874782986111107  0 17.699869791666668  L 0 13.219401041666666  C 0 13.057942708333334  0.05381944444444444 12.903211805555554  0.16145833333333331 12.755208333333334  C 0.2690972222222222 12.60720486111111  0.39691840277777785 12.51974826388889  0.544921875 12.492838541666666  L 4.298828125 11.927734375  C 4.487196180555555 11.30881076388889  4.749565972222222 10.689887152777777  5.0859375 10.070963541666666  C 4.547743055555555 9.304036458333334  3.8279079861111116 8.375651041666666  2.926432291666667 7.285807291666665  C 2.791883680555556 7.124348958333335  2.724609375 6.962890625  2.724609375 6.801432291666665  C 2.724609375 6.666883680555554  2.78515625 6.512152777777773  2.90625 6.337239583333335  C 3.256076388888889 5.852864583333335  3.9187282986111116 5.129665798611108  4.894205729166666 4.167643229166665  C 5.869683159722223 3.2056206597222197  6.505425347222223 2.724609375  6.801432291666666 2.724609375  C 6.976345486111112 2.724609375  7.151258680555556 2.791883680555554  7.326171875 2.9264322916666656  L 10.111328125 5.0859375  C 10.703342013888891 4.776475694444443  11.315538194444446 4.520833333333335  11.947916666666668 4.319010416666665  C 12.163194444444446 2.489149305555554  12.358289930555555 1.2378472222222197  12.533203125 0.5651041666666655  C 12.627387152777779 0.18836805555555403  12.869574652777779 0  13.259765625 0  L 17.740234375 0  C 17.928602430555557 0  18.093424479166664 0.057183159722219545  18.234700520833336 0.17154947916666552  C 18.3759765625 0.28591579861110805  18.45334201388889 0.430555555555554  18.466796875 0.60546875  L 19.031901041666664 4.319010416666665  C 19.69118923611111 4.534288194444443  20.29665798611111 4.783203125  20.848307291666664 5.065755208333335  L 23.714192708333336 2.90625  C 23.835286458333336 2.78515625  23.996744791666664 2.724609375  24.198567708333336 2.724609375  C 24.373480902777782 2.724609375  24.541666666666664 2.791883680555554  24.703125 2.9264322916666656  C 26.438802083333336 4.527560763888888  27.548828125 5.671223958333335  28.033203125 6.357421875  C 28.127387152777782 6.465060763888888  28.174479166666664 6.613064236111108  28.174479166666664 6.801432291666665  C 28.174479166666664 6.962890625  28.120659722222225 7.117621527777773  28.013020833333336 7.265625  C 27.811197916666664 7.548177083333335  27.468098958333336 7.995551215277773  26.983723958333336 8.607747395833334  C 26.499348958333336 9.21994357638889  26.136067708333336 9.694227430555554  25.893880208333336 10.030598958333334  C 26.243706597222225 10.70334201388889  26.51953125 11.36263020833333  26.721354166666664 12.008463541666666  L 30.414713541666664 12.573567708333334  C 30.58962673611111 12.600477430555554  30.730902777777782 12.684570312499996  30.838541666666664 12.825846354166666  Z " fill-rule="nonzero" fill="#1e1b1b" stroke="none" transform="matrix(1 0 0 1 610 0 )" />
  </g>
</svg>