<?xml version="1.0" encoding="utf-8"?>
<svg version="1.1" xmlns:xlink="http://www.w3.org/1999/xlink" width="33px" height="31px" xmlns="http://www.w3.org/2000/svg">
  <g transform="matrix(1 0 0 1 -562 0 )">
    <path d="M 4.548549107142857 26.014973958333336  C 4.659040178571429 26.136067708333336  4.714285714285714 26.29079861111111  4.714285714285714 26.479166666666664  L 4.714285714285714 30.354166666666664  C 4.714285714285714 30.542534722222218  4.659040178571429 30.697265625  4.548549107142857 30.818359375  C 4.438058035714286 30.939453125  4.296875 31  4.125 31  L 0.5892857142857143 31  C 0.4174107142857143 31  0.2762276785714286 30.939453125  0.16573660714285715 30.818359375  C 0.05524553571428571 30.697265625  0 30.542534722222218  0 30.354166666666664  L 0 26.479166666666664  C 0 26.29079861111111  0.05524553571428571 26.136067708333336  0.16573660714285715 26.014973958333336  C 0.2762276785714286 25.893880208333336  0.4174107142857143 25.833333333333336  0.5892857142857143 25.833333333333336  L 4.125 25.833333333333336  C 4.296875 25.833333333333336  4.438058035714286 25.893880208333336  4.548549107142857 26.014973958333336  Z M 11.619977678571429 23.431640625  C 11.73046875 23.552734375  11.785714285714286 23.707465277777782  11.785714285714286 23.895833333333336  L 11.785714285714286 30.354166666666664  C 11.785714285714286 30.542534722222218  11.73046875 30.697265625  11.619977678571429 30.818359375  C 11.509486607142858 30.939453125  11.368303571428571 31  11.196428571428571 31  L 7.660714285714286 31  C 7.488839285714287 31  7.347656250000001 30.939453125  7.237165178571429 30.818359375  C 7.126674107142857 30.697265625  7.071428571428571 30.542534722222218  7.071428571428571 30.354166666666664  L 7.071428571428571 23.895833333333336  C 7.071428571428571 23.707465277777782  7.126674107142857 23.552734375  7.237165178571429 23.431640625  C 7.347656250000001 23.310546875  7.488839285714287 23.25  7.660714285714286 23.25  L 11.196428571428571 23.25  C 11.368303571428571 23.25  11.509486607142858 23.310546875  11.619977678571429 23.431640625  Z M 18.69140625 18.264973958333332  C 18.801897321428573 18.386067708333332  18.857142857142858 18.540798611111107  18.857142857142858 18.729166666666668  L 18.857142857142858 30.354166666666664  C 18.857142857142858 30.542534722222218  18.801897321428573 30.697265625  18.69140625 30.818359375  C 18.580915178571427 30.939453125  18.439732142857146 31  18.267857142857142 31  L 14.732142857142858 31  C 14.560267857142858 31  14.419084821428573 30.939453125  14.30859375 30.818359375  C 14.198102678571429 30.697265625  14.142857142857142 30.542534722222218  14.142857142857142 30.354166666666664  L 14.142857142857142 18.729166666666668  C 14.142857142857142 18.540798611111107  14.198102678571429 18.386067708333332  14.30859375 18.264973958333332  C 14.419084821428573 18.143880208333332  14.560267857142858 18.083333333333332  14.732142857142858 18.083333333333332  L 18.267857142857142 18.083333333333332  C 18.439732142857146 18.083333333333332  18.580915178571427 18.143880208333332  18.69140625 18.264973958333332  Z M 25.762834821428573 10.514973958333334  C 25.873325892857142 10.636067708333334  25.928571428571427 10.79079861111111  26 10.979166666666666  L 26 30.354166666666664  C 25.928571428571427 30.542534722222218  25.873325892857142 30.697265625  25.762834821428573 30.818359375  C 25.65234375 30.939453125  25.511160714285715 31  25.339285714285715 31  L 21.803571428571427 31  C 21.63169642857143 31  21.490513392857142 30.939453125  21.380022321428573 30.818359375  C 21.26953125 30.697265625  21.214285714285715 30.542534722222218  21 30.354166666666664  L 21 10.979166666666666  C 21.214285714285715 10.79079861111111  21.26953125 10.636067708333334  21.380022321428573 10.514973958333334  C 21.490513392857142 10.393880208333334  21.63169642857143 10.333333333333334  21.803571428571427 10.333333333333334  L 25.339285714285715 10.333333333333334  C 25.511160714285715 10.333333333333334  25.65234375 10.393880208333334  25.762834821428573 10.514973958333334  Z M 32.834263392857146 0.181640625  C 32.944754464285715 0.302734375  33 0.45746527777777357  33 0.6458333333333345  L 33 30.354166666666664  C 33 30.542534722222218  32.944754464285715 30.697265625  32.834263392857146 30.818359375  C 32.72377232142857 30.939453125  32.58258928571429 31  32.410714285714285 31  L 28.875 31  C 28.703125000000007 31  28.56194196428572 30.939453125  28.451450892857142 30.818359375  C 28.340959821428573 30.697265625  28.285714285714285 30.542534722222218  28 30.354166666666664  L 28 0.6458333333333345  C 28.285714285714285 0.45746527777777357  28.340959821428573 0.302734375  28.451450892857142 0.181640625  C 28.56194196428572 0.060546875  28.703125000000007 0  28.875 0  L 32.410714285714285 0  C 32.58258928571429 0  32.72377232142857 0.060546875  32.834263392857146 0.181640625  Z " fill-rule="nonzero" fill="#eafeff" stroke="none" transform="matrix(1 0 0 1 562 0 )" />
  </g>
</svg>