<?xml version="1.0" encoding="utf-8"?>
<svg version="1.1" xmlns:xlink="http://www.w3.org/1999/xlink" width="31px" height="31px" xmlns="http://www.w3.org/2000/svg">
  <g transform="matrix(1 0 0 1 -656 0 )">
    <path d="M 21.658482142857142 27.27204241071429  C 23.56138392857143 26.262927827380956  25.124069940476193 24.893415178571427  26.34654017857143 23.16350446428571  C 26.092819940476193 21.37593005952381  25.588262648809526 19.891090029761905  24.83286830357143 18.708984375  C 24.077473958333336 17.526878720238095  23.01357886904762 16.843563988095234  21.64118303571429 16.659040178571427  C 20.868489583333336 17.512462797619044  19.948753720238095 18.178478422619044  18.88197544642857 18.657087053571427  C 17.81519717261905 19.13569568452381  16.687872023809526 19.375  15.5 19.375  C 14.312127976190476 19.375  13.184802827380954 19.13569568452381  12.118024553571429 18.657087053571427  C 11.051246279761907 18.178478422619044  10.131510416666668 17.512462797619044  9.358816964285715 16.659040178571427  C 7.9864211309523805 16.843563988095234  6.922526041666667 17.526878720238095  6.167131696428572 18.708984375  C 5.411737351190477 19.891090029761905  4.907180059523809 21.37593005952381  4.653459821428572 23.16350446428571  C 5.875930059523809 24.893415178571427  7.438616071428572 26.262927827380956  9.341517857142856 27.27204241071429  C 11.244419642857144 28.281156994047617  13.297247023809526 28.78571428571429  15.5 28.78571428571429  C 17.702752976190478 28.78571428571429  19.755580357142858 28.281156994047617  21.658482142857142 27.27204241071429  Z M 20.19670758928571 15.768136160714286  C 21.494140625 14.470703125  22.142857142857142 12.90513392857143  22.142857142857142 11.07142857142857  C 22.142857142857142 9.237723214285714  21.494140625 7.672154017857143  20.19670758928571 6.374720982142857  C 18.89927455357143 5.07728794642857  17.333705357142858 4.42857142857143  15.5 4.42857142857143  C 13.666294642857144 4.42857142857143  12.100725446428571 5.07728794642857  10.803292410714285 6.374720982142857  C 9.505859375 7.672154017857143  8.857142857142856 9.237723214285714  8.857142857142856 11.07142857142857  C 8.857142857142856 12.90513392857143  9.505859375 14.470703125  10.803292410714285 15.768136160714286  C 12.100725446428571 17.065569196428573  13.666294642857144 17.71428571428571  15.5 17.71428571428571  C 17.333705357142858 17.71428571428571  18.89927455357143 17.065569196428573  20.19670758928571 15.768136160714286  Z M 29.771763392857142 9.479910714285714  C 30.59058779761905 11.394345238095235  31 13.401041666666666  31 15.5  C 31 17.598958333333332  30.59058779761905 19.60277157738095  29.771763392857142 21.511439732142858  C 28.95293898809524 23.420107886904763  27.854445684523817 25.06928943452381  26.476283482142858 26.458984375  C 25.09812127976191 27.848679315476186  23.451822916666668 28.952938988095237  21.537388392857142 29.771763392857142  C 19.62295386904762 30.590587797619047  17.61049107142857 31  15.5 31  C 13.401041666666668 31  11.394345238095239 30.590587797619047  9.479910714285715 29.771763392857142  C 7.565476190476192 28.952938988095237  5.916294642857142 27.8515625  4.532366071428572 26.467633928571427  C 3.1484375 25.083705357142858  2.047061011904762 23.43452380952381  1.228236607142857 21.52008928571429  C 0.40941220238095233 19.605654761904763  0 17.598958333333332  0 15.5  C 0 13.401041666666666  0.40941220238095233 11.394345238095235  1.228236607142857 9.479910714285714  C 2.047061011904762 7.565476190476188  3.1484375 5.916294642857143  4.532366071428572 4.53236607142857  C 5.916294642857142 3.1484375  7.565476190476192 2.047061011904761  9.479910714285715 1.2282366071428568  C 11.394345238095239 0.4094122023809522  13.401041666666668 0  15.5 0  C 17.598958333333336 0  19.605654761904766 0.4094122023809522  21.52008928571429 1.2282366071428568  C 23.434523809523814 2.047061011904761  25.083705357142858 3.1484375  26.46763392857143 4.53236607142857  C 27.851562500000004 5.916294642857143  28.95293898809524 7.565476190476188  29.771763392857142 9.479910714285714  Z " fill-rule="nonzero" fill="#eafeff" stroke="none" transform="matrix(1 0 0 1 656 0 )" />
  </g>
</svg>