<?xml version="1.0" encoding="utf-8"?>
<svg version="1.1" xmlns:xlink="http://www.w3.org/1999/xlink" width="36px" height="31px" xmlns="http://www.w3.org/2000/svg">
  <g transform="matrix(1 0 0 1 -461 0 )">
    <path d="M 14.64795918367347 28.348046874999998  C 14.63265306122449 28.436848958333336  14.64795918367347 28.545833333333334  14.693877551020408 28.675  C 14.693877551020408 28.739583333333336  14.701530612244898 28.901041666666664  14.716836734693876 29.159375  C 14.73214285714286 29.417708333333334  14.735969387755103 29.631640625  14.728316326530614 29.801171874999998  C 14.720663265306126 29.970703125  14.697704081632654 30.160416666666666  14.659438775510203 30.3703125  C 14.621173469387756 30.580208333333335  14.544642857142858 30.737630208333336  14.42984693877551 30.842578125  C 14.315051020408164 30.947526041666666  14.158163265306126 31  13.959183673469386 31  L 6.612244897959184 31  C 4.790816326530613 31  3.233418367346939 30.317838541666664  1.9400510204081634 28.953515624999998  C 0.6466836734693877 27.589192708333336  0 25.946354166666666  0 24.025000000000002  L 0 6.975  C 0 5.053645833333328  0.6466836734693877 3.4108072916666656  1.9400510204081634 2.046484375000001  C 3.233418367346939 0.682161458333329  4.790816326530613 0  6.612244897959184 0  L 13.959183673469386 0  C 14.158163265306126 0  14.330357142857144 0.07669270833332897  14.47576530612245 0.2300781250000007  C 14.621173469387756 0.3834635416666655  14.693877551020408 0.5651041666666655  14.693877551020408 0.7750000000000007  C 14.693877551020408 0.8395833333333304  14.701530612244898 1.0010416666666648  14.716836734693876 1.2593750000000008  C 14.73214285714286 1.5177083333333297  14.735969387755103 1.7316406250000014  14.728316326530614 1.9011718749999986  C 14.720663265306126 2.070703124999999  14.697704081632654 2.2604166666666656  14.659438775510203 2.470312500000001  C 14.621173469387756 2.680208333333329  14.544642857142858 2.8376302083333305  14.42984693877551 2.9425781250000016  C 14.315051020408164 3.0475260416666656  14.158163265306126 3.099999999999999  13.959183673469386 3.099999999999999  L 6.612244897959184 3.099999999999999  C 5.6020408163265305 3.099999999999999  4.737244897959185 3.479427083333328  4.017857142857143 4.23828125  C 3.2984693877551026 4.997135416666665  2.9387755102040813 5.909375000000002  3 6.975  L 3 24.025000000000002  C 2.9387755102040813 25.090625  3.2984693877551026 26.002864583333327  4.017857142857143 26.76171875  C 4.737244897959185 27.520572916666666  5.6020408163265305 27.900000000000002  6.612244897959184 27.900000000000002  L 13.224489795918368 27.900000000000002  L 13.47704081632653 27.900000000000002  L 13.775510204081632 27.900000000000002  C 13.775510204081632 27.900000000000002  13.863520408163266 27.908072916666665  14.03954081632653 27.924218749999998  C 14.215561224489797 27.940364583333334  14.303571428571427 27.964583333333334  14.303571428571427 27.996875  C 14.303571428571427 28.029166666666665  14.364795918367347 28.073567708333336  14.487244897959183 28.130078125  C 14.609693877551022 28.186588541666666  14.663265306122451 28.259244791666664  14.64795918367347 28.348046874999998  Z M 35.56377551020408 14.41015625  C 35.8545918367347 14.716927083333333  36 15.080208333333333  36 15.5  C 36 15.919791666666663  35.8545918367347 16.283072916666665  35.56377551020408 16.58984375  L 23.073979591836736 29.76484375  C 22.783163265306122 30.071614583333336  22.438775510204085 30.224999999999998  22.040816326530614 30.224999999999998  C 21.642857142857146 30.224999999999998  21.298469387755105 30.071614583333336  21.007653061224488 29.76484375  C 20.716836734693878 29.458072916666666  20.57142857142857 29.094791666666666  20.57142857142857 28.675  L 20.57142857142857 21.7  L 10.285714285714285 21.7  C 9.887755102040817 21.7  9.543367346938776 21.546614583333334  9.252551020408164 21.239843750000002  C 8.96173469387755 20.933072916666664  8.816326530612244 20.569791666666664  8.816326530612244 20.150000000000002  L 8.816326530612244 10.85  C 8.816326530612244 10.43020833333333  8.96173469387755 10.06692708333333  9.252551020408164 9.76015625  C 9.543367346938776 9.453385416666666  9.887755102040817 9.3  10.285714285714285 9.3  L 20.57142857142857 9.3  L 20.57142857142857 2.3249999999999984  C 20.57142857142857 1.9052083333333283  20.716836734693878 1.5419270833333283  21.007653061224488 1.2351562499999986  C 21.298469387755105 0.9283854166666655  21.642857142857146 0.7750000000000007  22.040816326530614 0.7750000000000007  C 22.438775510204085 0.7750000000000007  22.783163265306122 0.9283854166666655  23.073979591836736 1.2351562499999986  L 35.56377551020408 14.41015625  Z " fill-rule="nonzero" fill="#1e1b1b" stroke="none" transform="matrix(1 0 0 1 461 0 )" />
  </g>
</svg>