<?xml version="1.0" encoding="utf-8"?>
<svg version="1.1" xmlns:xlink="http://www.w3.org/1999/xlink" width="31px" height="32px" xmlns="http://www.w3.org/2000/svg">
  <g transform="matrix(1 0 0 1 -26 -125 )">
    <path d="M 19.576712328767123 10.979166666666668  L 30.256849315068493 27.5  C 31.049543378995434 28.73611111111111  31.20171232876712 29.79513888888889  30.713356164383562 30.677083333333332  C 30.224999999999998 31.559027777777775  29.230593607305938 32  27.73013698630137 32  L 3.26986301369863 32  C 1.769406392694064 32  0.775 31.559027777777775  0.28664383561643836 30.677083333333332  C -0.2017123287671233 29.79513888888889  -0.04954337899543369 28.73611111111111  0.7431506849315068 27.5  L 11.423287671232876 10.979166666666668  L 11.423287671232876 2.666666666666668  L 10.064383561643835 2.666666666666668  C 9.696347031963473 2.666666666666668  9.37785388127854 2.534722222222218  9.10890410958904 2.270833333333332  C 8.839954337899544 2.006944444444443  8.705479452054796 1.6944444444444429  8.705479452054796 1.3333333333333321  C 8.705479452054796 0.9722222222222179  8.839954337899544 0.6597222222222179  9.10890410958904 0.39583333333333215  C 9.37785388127854 0.13194444444444287  9.696347031963473 0  10.064383561643835 0  L 20.935616438356163 0  C 21.303652968036534 0  21.622146118721464 0.13194444444444287  21.89109589041096 0.39583333333333215  C 22.16004566210046 0.6597222222222179  22.294520547945204 0.9722222222222179  22.294520547945204 1.3333333333333321  C 22.294520547945204 1.6944444444444429  22.16004566210046 2.006944444444443  21.89109589041096 2.270833333333332  C 21.622146118721464 2.534722222222218  21.303652968036534 2.666666666666668  20.935616438356163 2.666666666666668  L 19.576712328767123 2.666666666666668  L 19.576712328767123 10.979166666666668  Z M 14.14109589041096 11.75  L 13.716438356164383 12.395833333333332  L 7.941095890410959 21  L 23.05890410958904 21  L 17.283561643835615 12.395833333333332  L 16.85890410958904 11.75  L 16.85890410958904 10.979166666666668  L 16.85890410958904 2.666666666666668  L 14.14109589041096 2.666666666666668  L 14.14109589041096 10.979166666666668  L 14.14109589041096 11.75  Z " fill-rule="nonzero" fill="#ffffff" stroke="none" transform="matrix(1 0 0 1 26 125 )" />
  </g>
</svg>