<?xml version="1.0" encoding="utf-8"?>
<svg version="1.1" xmlns:xlink="http://www.w3.org/1999/xlink" width="31px" height="30px" xmlns="http://www.w3.org/2000/svg">
  <g transform="matrix(1 0 0 1 -26 -342 )">
    <path d="M 25.06640625 24.2578125  C 25.577690972222225 23.76302083333333  25.833333333333336 23.17708333333333  25.833333333333336 22.5  C 25.833333333333336 21.822916666666668  25.577690972222225 21.236979166666668  25.06640625 20.7421875  C 24.555121527777782 20.247395833333332  23.949652777777782 20.000000000000004  23.25 20.000000000000004  C 22.550347222222225 20.000000000000004  21.944878472222225 20.247395833333332  21.43359375 20.7421875  C 20.922309027777782 21.236979166666668  20.666666666666664 21.822916666666668  20.666666666666664 22.5  C 20.666666666666664 23.17708333333333  20.922309027777782 23.76302083333333  21.43359375 24.2578125  C 21.944878472222225 24.752604166666664  22.550347222222225 25  23.25 25  C 23.949652777777782 25  24.555121527777782 24.752604166666664  25.06640625 24.2578125  Z M 9.56640625 9.2578125  C 10.077690972222223 8.763020833333329  10.333333333333332 8.177083333333329  10.333333333333332 7.5  C 10.333333333333332 6.822916666666664  10.077690972222223 6.236979166666664  9.56640625 5.7421875  C 9.055121527777779 5.2473958333333295  8.449652777777779 4.999999999999999  7.75 4.999999999999999  C 7.050347222222223 4.999999999999999  6.444878472222223 5.2473958333333295  5.93359375 5.7421875  C 5.422309027777778 6.236979166666664  5.166666666666666 6.822916666666664  5.166666666666666 7.5  C 5.166666666666666 8.177083333333329  5.422309027777778 8.763020833333329  5.93359375 9.2578125  C 6.444878472222223 9.752604166666664  7.050347222222223 10.000000000000002  7.75 10.000000000000002  C 8.449652777777779 10.000000000000002  9.055121527777779 9.752604166666664  9.56640625 9.2578125  Z M 28.7294921875 17.197265625  C 30.2431640625 18.662109375  31 20.429687499999996  31 22.5  C 31 24.5703125  30.2431640625 26.337890625  28.7294921875 27.802734375  C 27.2158203125 29.267578125  25.389322916666664 30  23.25 30  C 21.110677083333336 30  19.284179687500004 29.267578125  17.7705078125 27.802734375  C 16.2568359375 26.337890625  15.5 24.5703125  15.5 22.5  C 15.5 20.429687499999996  16.2568359375 18.662109375  17.7705078125 17.197265625  C 19.284179687500004 15.732421875  21.110677083333336 15  23.25 15  C 25.389322916666664 15  27.2158203125 15.732421875  28.7294921875 17.197265625  Z M 28.679036458333336 0.3710937499999989  C 28.934678819444446 0.6184895833333293  29.0625 0.9114583333333293  29.0625 1.249999999999999  C 29.0625 1.5104166666666663  28.975043402777782 1.7578125  28.800130208333336 1.9921875  L 7.487630208333334 29.4921875  C 7.231987847222223 29.830729166666664  6.888888888888889 30  6.458333333333334 30  L 3.229166666666667 30  C 2.879340277777778 30  2.5766059027777777 29.876302083333336  2.320963541666667 29.62890625  C 2.0653211805555554 29.381510416666664  1.9375 29.088541666666664  1.9375 28.75  C 1.9375 28.489583333333332  2.0249565972222223 28.2421875  2.199869791666667 28.0078125  L 23.512369791666664 0.5078125000000011  C 23.768012152777782 0.16927083333333148  24.11111111111111 0  24.541666666666664 0  L 27.770833333333336 0  C 28.120659722222225 0  28.423394097222225 0.12369791666666519  28.679036458333336 0.3710937499999989  Z M 13.2294921875 2.197265625  C 14.7431640625 3.662109375  15.5 5.429687500000001  15.5 7.5  C 15.5 9.570312499999998  14.7431640625 11.337890625  13.2294921875 12.802734375  C 11.7158203125 14.267578125  9.889322916666668 15  7.75 15  C 5.610677083333334 15  3.7841796875000004 14.267578125  2.2705078125 12.802734375  C 0.7568359375 11.337890625  0 9.570312499999998  0 7.5  C 0 5.429687500000001  0.7568359375 3.662109375  2.2705078125 2.197265625  C 3.7841796875000004 0.732421875  5.610677083333334 0  7.75 0  C 9.889322916666668 0  11.7158203125 0.732421875  13.2294921875 2.197265625  Z " fill-rule="nonzero" fill="#ffffff" stroke="none" transform="matrix(1 0 0 1 26 342 )" />
  </g>
</svg>