<?xml version="1.0" encoding="utf-8"?>
<svg version="1.1" xmlns:xlink="http://www.w3.org/1999/xlink" width="31px" height="34px" xmlns="http://www.w3.org/2000/svg">
  <defs>
    <linearGradient gradientUnits="userSpaceOnUse" x1="15.5" y1="0" x2="15.5" y2="34" id="LinearGradient170">
      <stop id="Stop171" stop-color="#1e1b1b" offset="0" />
      <stop id="Stop172" stop-color="#1a2338" offset="1" />
    </linearGradient>
  </defs>
  <g transform="matrix(1 0 0 1 -26 -268 )">
    <path d="M 6.559244791666666 13.75558035714286  C 9.330946180555555 14.29947916666667  12.311197916666668 14.571428571428573  15.5 14.571428571428573  C 18.688802083333336 14.571428571428573  21.669053819444446 14.29947916666667  24.440755208333336 13.75558035714286  C 27.212456597222225 13.211681547619044  29.398871527777782 12.40848214285714  31 11.34598214285714  L 31 14.571428571428573  C 31 15.444196428571427  30.307074652777775 16.253720238095237  28.921223958333336 17  C 27.535373263888893 17.74627976190476  25.651692708333336 18.337611607142854  23.270182291666664 18.773995535714285  C 20.888671875 19.210379464285715  18.29861111111111 19.428571428571427  15.5 19.428571428571427  C 12.701388888888891 19.428571428571427  10.111328125 19.210379464285715  7.729817708333334 18.773995535714285  C 5.348307291666666 18.337611607142854  3.4646267361111116 17.74627976190476  2.078776041666667 17  C 0.6929253472222221 16.253720238095237  0 15.444196428571427  0 14.571428571428573  L 0 11.34598214285714  C 1.6011284722222223 12.40848214285714  3.787543402777778 13.211681547619044  6.559244791666666 13.75558035714286  Z M 6.559244791666666 28.327008928571427  C 9.330946180555555 28.87090773809524  12.311197916666668 29.142857142857146  15.5 29.142857142857146  C 18.688802083333336 29.142857142857146  21.669053819444446 28.87090773809524  24.440755208333336 28.327008928571427  C 27.212456597222225 27.783110119047617  29.398871527777782 26.979910714285715  31 25.917410714285715  L 31 29.142857142857146  C 31 30.015625  30.307074652777775 30.82514880952381  28.921223958333336 31.571428571428573  C 27.535373263888893 32.31770833333333  25.651692708333336 32.90904017857143  23.270182291666664 33.34542410714286  C 20.888671875 33.781808035714285  18.29861111111111 34  15.5 34  C 12.701388888888891 34  10.111328125 33.781808035714285  7.729817708333334 33.34542410714286  C 5.348307291666666 32.90904017857143  3.4646267361111116 32.31770833333333  2.078776041666667 31.571428571428573  C 0.6929253472222221 30.82514880952381  0 30.015625  0 29.142857142857146  L 0 25.917410714285715  C 1.6011284722222223 26.979910714285715  3.787543402777778 27.783110119047617  6.559244791666666 28.327008928571427  Z M 6.559244791666666 21.041294642857146  C 9.330946180555555 21.585193452380953  12.311197916666668 21.857142857142854  15.5 21.857142857142854  C 18.688802083333336 21.857142857142854  21.669053819444446 21.585193452380953  24.440755208333336 21.041294642857146  C 27.212456597222225 20.497395833333332  29.398871527777782 19.694196428571427  31 18.631696428571427  L 31 21.857142857142854  C 31 22.729910714285715  30.307074652777775 23.539434523809522  28.921223958333336 24.285714285714285  C 27.535373263888893 25.031994047619047  25.651692708333336 25.623325892857146  23.270182291666664 26.059709821428573  C 20.888671875 26.49609375  18.29861111111111 26.714285714285715  15.5 26.714285714285715  C 12.701388888888891 26.714285714285715  10.111328125 26.49609375  7.729817708333334 26.059709821428573  C 5.348307291666666 25.623325892857146  3.4646267361111116 25.031994047619047  2.078776041666667 24.285714285714285  C 0.6929253472222221 23.539434523809522  0 22.729910714285715  0 21.857142857142854  L 0 18.631696428571427  C 1.6011284722222223 19.694196428571427  3.787543402777778 20.497395833333332  6.559244791666666 21.041294642857146  Z M 7.729817708333334 0.6545758928571412  C 10.111328125 0.21819196428571375  12.701388888888891 0  15.5 0  C 18.29861111111111 0  20.888671875 0.21819196428571375  23.270182291666664 0.6545758928571412  C 25.651692708333336 1.0909598214285725  27.535373263888893 1.6822916666666654  28.921223958333336 2.4285714285714275  C 30.307074652777775 3.17485119047619  31 3.984375  31 4.8571428571428585  L 31 7.2857142857142865  C 31 8.15848214285714  30.307074652777775 8.968005952380947  28.921223958333336 9.714285714285714  C 27.535373263888893 10.460565476190476  25.651692708333336 11.051897321428573  23.270182291666664 11.48828125  C 20.888671875 11.924665178571427  18.29861111111111 12.14285714285714  15.5 12.14285714285714  C 12.701388888888891 12.14285714285714  10.111328125 11.924665178571427  7.729817708333334 11.48828125  C 5.348307291666666 11.051897321428573  3.4646267361111116 10.460565476190476  2.078776041666667 9.714285714285714  C 0.6929253472222221 8.968005952380947  0 8.15848214285714  0 7.2857142857142865  L 0 4.8571428571428585  C 0 3.984375  0.6929253472222221 3.17485119047619  2.078776041666667 2.4285714285714275  C 3.4646267361111116 1.6822916666666654  5.348307291666666 1.0909598214285725  7.729817708333334 0.6545758928571412  Z " fill-rule="nonzero" fill="url(#LinearGradient170)" stroke="none" transform="matrix(1 0 0 1 26 268 )" />
  </g>
</svg>