<?xml version="1.0" encoding="utf-8"?>
<svg version="1.1" xmlns:xlink="http://www.w3.org/1999/xlink" width="31px" height="28px" xmlns="http://www.w3.org/2000/svg">
  <g transform="matrix(1 0 0 1 -26 -199 )">
    <path d="M 26 199  L 57 199  L 57 227  L 26 227  L 26 199  " fill-rule="nonzero" fill="#cccccc" stroke="none" />
    <path d="M 28 201  L 55 201  L 55 225  L 28 225  L 28 201  " fill-rule="nonzero" fill="#ffffff" stroke="none" />
    <path d="M 44.220000000000006 207.39999999999998  C 43.044000000000004 207.39999999999998  42.120000000000005 206.47599999999997  42.120000000000005 205.29999999999998  C 42.120000000000005 204.124  43.044000000000004 203.2  44.220000000000006 203.2  C 45.39600000000001 203.2  46.32000000000001 204.124  46.32000000000001 205.29999999999998  C 46.32000000000001 206.47599999999997  45.39600000000001 207.39999999999998  44.220000000000006 207.39999999999998  " fill-rule="nonzero" fill="#cccccc" stroke="none" />
    <path d="M 29 225  L 29 212.35  L 35.5 206.6  L 44.6 212.53548387096774  L 49.8 210.05  L 55 212.53548387096774  L 55 225  L 29 225  " fill-rule="nonzero" fill="#169bd5" stroke="none" />
  </g>
</svg>