<?xml version="1.0" encoding="utf-8"?>
<svg version="1.1" xmlns:xlink="http://www.w3.org/1999/xlink" width="29px" height="31px" xmlns="http://www.w3.org/2000/svg">
  <g transform="matrix(1 0 0 1 -702 0 )">
    <path d="M 27.480143229166668 10.302283653846153  C 28.493381076388886 12.301883012820513  29 14.431891025641022  29 16.69230769230769  C 29 18.62980769230769  28.616102430555554 20.480368589743588  27.848307291666668 22.243990384615383  C 27.08051215277778 24.007612179487182  26.048394097222225 25.529046474358974  24.751953125 26.80829326923077  C 23.45551215277778 28.087540064102566  21.913628472222225 29.105969551282048  20.126302083333332 29.86358173076923  C 18.338975694444446 30.621193910256412  16.463541666666668 31  14.5 31  C 12.536458333333334 31  10.661024305555557 30.621193910256412  8.873697916666666 29.86358173076923  C 7.086371527777779 29.105969551282048  5.544487847222223 28.087540064102566  4.248046875 26.80829326923077  C 2.951605902777778 25.529046474358974  1.9194878472222225 24.007612179487182  1.1516927083333335 22.243990384615383  C 0.38389756944444453 20.480368589743588  0 18.62980769230769  0 16.69230769230769  C 0 14.431891025641022  0.5066189236111113 12.301883012820513  1.5198567708333333 10.302283653846153  C 2.533094618055556 8.302684294871792  3.9585503472222228 6.6260016025641  5.796223958333333 5.272235576923078  C 6.337456597222223 4.874799679487175  6.9384765625 4.719551282051279  7.599283854166666 4.806490384615383  C 8.260091145833334 4.893429487179484  8.785590277777779 5.203926282051279  9.17578125 5.737980769230769  C 9.578559027777779 6.259615384615383  9.732747395833334 6.846454326923078  9.638346354166666 7.498497596153848  C 9.5439453125 8.150540865384617  9.232421875 8.675280448717945  8.703776041666666 9.072716346153847  C 7.470269097222222 9.991786858974358  6.516818576388889 11.115785256410254  5.843424479166667 12.444711538461538  C 5.170030381944445 13.773637820512818  4.833333333333333 15.189503205128204  4.833333333333333 16.69230769230769  C 4.833333333333333 17.983974358974358  5.088216145833333 19.216646634615383  5.597981770833333 20.39032451923077  C 6.107747395833333 21.564002403846157  6.796875 22.579326923076923  7.665364583333334 23.436298076923077  C 8.533854166666666 24.29326923076923  9.562825520833334 24.97325721153846  10.752278645833334 25.47626201923077  C 11.941731770833334 25.979266826923077  13.190972222222223 26.23076923076923  14.5 26.23076923076923  C 15.80902777777778 26.23076923076923  17.058268229166668 25.979266826923077  18.247721354166668 25.47626201923077  C 19.437174479166668 24.97325721153846  20.466145833333332 24.29326923076923  21.334635416666668 23.436298076923077  C 22.203125 22.579326923076923  22.892252604166668 21.564002403846157  23.402018229166668 20.39032451923077  C 23.911783854166668 19.216646634615383  24.166666666666668 17.983974358974358  24.166666666666668 16.69230769230769  C 24.166666666666668 15.189503205128204  23.829969618055557 13.773637820512818  23.156575520833332 12.444711538461538  C 22.483181423611114 11.115785256410254  21.52973090277778 9.991786858974358  20.296223958333332 9.072716346153847  C 19.767578125 8.675280448717945  19.4560546875 8.150540865384617  19.361653645833332 7.498497596153848  C 19.267252604166668 6.846454326923078  19.421440972222225 6.259615384615383  19.82421875 5.737980769230769  C 20.214409722222225 5.203926282051279  20.743055555555557 4.893429487179484  21.41015625 4.806490384615383  C 22.077256944444446 4.719551282051279  22.675130208333332 4.874799679487175  23.203776041666668 5.272235576923078  C 25.04144965277778 6.6260016025641  26.466905381944446 8.302684294871792  27.480143229166668 10.302283653846153  Z M 16.19921875 0.7079326923076915  C 16.67751736111111 1.179887820512818  16.916666666666668 1.7387820512820484  17 2.3846153846153832  L 17 14.307692307692308  C 16.916666666666668 14.953525641025639  16.67751736111111 15.51241987179487  16.19921875 15.984375  C 15.720920138888891 16.456330128205128  15.154513888888891 16.69230769230769  14.5 16.69230769230769  C 13.845486111111112 16.69230769230769  13.279079861111112 16.456330128205128  12.80078125 15.984375  C 12.32248263888889 15.51241987179487  12.083333333333334 14.953525641025639  12 14.307692307692308  L 12 2.3846153846153832  C 12.083333333333334 1.7387820512820484  12.32248263888889 1.179887820512818  12.80078125 0.7079326923076915  C 13.279079861111112 0.23597756410256499  13.845486111111112 0  14.5 0  C 15.154513888888891 0  15.720920138888891 0.23597756410256499  16.19921875 0.7079326923076915  Z " fill-rule="nonzero" fill="#ff0000" stroke="none" transform="matrix(1 0 0 1 702 0 )" />
  </g>
</svg>