<?xml version="1.0" encoding="utf-8"?>
<svg version="1.1" xmlns:xlink="http://www.w3.org/1999/xlink" width="9px" height="7px" xmlns="http://www.w3.org/2000/svg">
  <g transform="matrix(1 0 0 1 -633 -71 )">
    <path d="M 8.89242804940495 5.340655903851857  C 8.70344757533294 5.0816111536340784  8.33205280077238 5.0190894757448685  8.063129678067959 5.200454780070096  C 7.407163504342133 5.641576163316358  6.639654987117866 5.862721790526035  5.8550382995365675 5.852536268945736  C 5.7512952872355765 5.851500433263836  5.648262996432106 5.846335363853447  5.546500825721822 5.837739456168635  C 5.504904392669122 5.833971177666386  5.463283152583416 5.827434008096216  5.421495705376116 5.822437070924751  C 5.341364027151678 5.812251549344451  5.2610537382891085 5.801946101272033  5.183081512293439 5.787462037974367  C 5.134741287300535 5.778673307302239  5.087517378795831 5.766790002833569  5.0402823071262555 5.756278798524679  C 4.963782378543311 5.7390376016582705  4.887626027368424 5.721652963301331  4.812969261342671 5.700306047704875  C 4.77698665987384 5.689626711157028  4.7419318414418745 5.677394208961324  4.706317624414176 5.665860102219689  C 4.620191326648199 5.638132391792782  4.534419769455217 5.609551086922005  4.450846115392217 5.575959911630639  C 4.431959280763949 5.568699655858007  4.41378440798487 5.560140196420795  4.394885169840063 5.552013412955106  C 4.297492758005137 5.510837474912434  4.200823471184201 5.467627489503481  4.107787174356495 5.419059611696821  C 4.103252448711211 5.416808050594861  4.099429684915049 5.414917444719174  4.094894959269765 5.412702331864814  C 3.7792701161066904 5.246301972555642  3.490356245802408 5.038592815462525  3.2370689960422947 4.7958980436697045  C 3.233246232246132 4.792129765167454  3.2290674875254424 4.787626642963535  3.2249011463212227 4.783328101246171  C 3.1462169584764337 4.707526327980151  3.0711781641414113 4.628305473938916  2.9997599562830133 4.545640848374105  C 2.9848608522208333 4.528063387029816  2.970318969434848 4.5091244072750705  2.955242495086273 4.491041373464029  C 2.439751107528934 3.872033729913764  2.128852004165812 3.0886715319198474  2.128852004165812 2.2364068612062376  L 3.003278883538083 2.2364068612062376  C 3.0258619660938693 2.2364068612062376  3.0477206832839965 2.2249327177106464  3.0591765711559478 2.2047662550366014  C 3.070646102896104 2.1845997923625564  3.068727278888086 2.1609895581649345  3.0563063974296574 2.1430993473412108  L 1.5864449857269427 0.027089278218848056  C 1.5750895663388935 0.010751057293096286  1.5555689120156662 0  1.5334050683188305 0  C 1.5112412246219273 0  1.4917069264305622 0.010763990542251614  1.4803651509107183 0.027089278218848056  L 0.010478981788943336 2.143049965844456  C -0.001943140021085319 2.1609413524180976  -0.003848320160897903 2.1845504108658016  0.007608808062720508 2.204716873539847  C 0.01907833980287671 2.2248833362139235  0.04092465347646668 2.236357479709483  0.06351889919705549 2.236357479709483  L 0.9381235953824012 2.236357479709483  C 0.9381235953824012 3.238288061082558  1.263553418366571 4.166991761520297  1.8164748977723895 4.934846993783806  C 1.8232062861960558 4.945549845330097  1.8281093962824713 4.956915819832775  1.8355515062036585 4.967606913879829  C 1.892782571848998 5.046129372466994  1.9563902853451447 5.118644924699104  2.017801336062908 5.192881774818028  C 2.040701948642008 5.220958682971969  2.0621414269731853 5.249877428070543  2.0859437752044063 5.277424073009371  C 2.176439831845673 5.3828429868280665  2.272549720070876 5.481882281566229  2.3714032661536573 5.5786805969517514  C 2.3808535054018263 5.5883240978177  2.3895781389327366 5.597787708945455  2.3988510078945104 5.606408307378659  C 2.730645075212882 5.925218777666853  3.105863853921272 6.193932895248921  3.51396559531632 6.408708309377436  C 3.5245073440196117 6.4147516639800894  3.5350490927229035 6.420964326571585  3.546671187716447 6.426634968448759  C 3.6642329577893658 6.487242525463808  3.7850605737660485 6.5420230658619944  3.90753785744192 6.593878340452513  C 3.9380715940967406 6.606435349626859  3.9678685618694316 6.62057021519752  3.998935649735309 6.632983782881304  C 4.103606445073098 6.674665293390761  4.211159817653714 6.71116997699059  4.319640973271195 6.7459757019521  C 4.370877419375063 6.7626866356033615  4.421759124906005 6.779735009482422  4.4737186960239335 6.795049152225513  C 4.568393497385957 6.821922092458632  4.665240154493357 6.844483557725199  4.762988547252808 6.86669700101468  C 4.827675366687541 6.8811681310631885  4.891981398164603 6.89684440478247  4.957964385077264 6.908895841490096  C 4.985398482949979 6.914241976388596  5.011195316640044 6.922344069105892  5.038108466818239 6.9262934130962215  C 5.130039610322687 6.9419685110655855  5.222707522709328 6.950745484238476  5.314829680368443 6.961424820786323  C 5.348081027496166 6.965229547536172  5.38078661989636 6.9705745066847244  5.414051610892288 6.973994763209856  C 5.579586461868645 6.989682794428344  5.744561914249269 7  5.909386043728173 7  C 6.918026364507884 7  7.902141212042451 6.703932060466484  8.746313384267852 6.136394045532105  C 9.015261314005349 5.955040498706083  9.080863512960407 5.599195081602915  8.89242804940495 5.340655903851857  Z " fill-rule="nonzero" fill="#1abc9c" stroke="none" transform="matrix(1 0 0 1 633 71 )" />
  </g>
</svg>