<?xml version="1.0" encoding="utf-8"?>
<svg version="1.1" xmlns:xlink="http://www.w3.org/1999/xlink" width="13px" height="13px" viewBox="582 177  13 13" xmlns="http://www.w3.org/2000/svg">
  <path d="M 588.5 177  C 592.14 177  595 179.86  595 183.5  C 595 187.14  592.14 190  588.5 190  C 584.86 190  582 187.14  582 183.5  C 582 179.86  584.86 177  588.5 177  Z " fill-rule="nonzero" fill="#f0f0f0" stroke="none" />
  <path d="M 588.5 177.5  C 591.86 177.5  594.5 180.14  594.5 183.5  C 594.5 186.86  591.86 189.5  588.5 189.5  C 585.14 189.5  582.5 186.86  582.5 183.5  C 582.5 180.14  585.14 177.5  588.5 177.5  Z " stroke-width="1" stroke="#797979" fill="none" />
  <path d="M 588.5 186.75  C 586.68 186.75  585.25 185.32  585.25 183.5  C 585.25 181.68  586.68 180.25  588.5 180.25  C 590.32 180.25  591.75 181.68  591.75 183.5  C 591.75 185.32  590.32 186.75  588.5 186.75  " fill-rule="nonzero" fill="#797979" stroke="none" />
</svg>