<?xml version="1.0" encoding="utf-8"?>
<svg version="1.1" xmlns:xlink="http://www.w3.org/1999/xlink" width="13px" height="13px" viewBox="28 151  13 13" xmlns="http://www.w3.org/2000/svg">
  <path d="M 28.5 153  A 1.5 1.5 0 0 1 30 151.5 L 39 151.5  A 1.5 1.5 0 0 1 40.5 153 L 40.5 162  A 1.5 1.5 0 0 1 39 163.5 L 30 163.5  A 1.5 1.5 0 0 1 28.5 162 L 28.5 153  Z " fill-rule="nonzero" fill="#f0f0f0" stroke="none" />
  <path d="M 28.5 153  A 1.5 1.5 0 0 1 30 151.5 L 39 151.5  A 1.5 1.5 0 0 1 40.5 153 L 40.5 162  A 1.5 1.5 0 0 1 39 163.5 L 30 163.5  A 1.5 1.5 0 0 1 28.5 162 L 28.5 153  Z " stroke-width="1" stroke="#797979" fill="none" />
  <path d="M 30.785714285714285 157.5  L 33.57142857142857 160.2857142857143  L 38.214285714285715 153.78571428571428  " stroke-width="2.7857142857142856" stroke="#797979" fill="none" />
</svg>