<?xml version="1.0" encoding="utf-8"?>
<svg version="1.1" xmlns:xlink="http://www.w3.org/1999/xlink" width="13px" height="13px" viewBox="19 56  13 13" xmlns="http://www.w3.org/2000/svg">
  <path d="M 19.5 58  A 1.5 1.5 0 0 1 21 56.5 L 30 56.5  A 1.5 1.5 0 0 1 31.5 58 L 31.5 67  A 1.5 1.5 0 0 1 30 68.5 L 21 68.5  A 1.5 1.5 0 0 1 19.5 67 L 19.5 58  Z " fill-rule="nonzero" fill="#ffffff" stroke="none" />
  <path d="M 19.5 58  A 1.5 1.5 0 0 1 21 56.5 L 30 56.5  A 1.5 1.5 0 0 1 31.5 58 L 31.5 67  A 1.5 1.5 0 0 1 30 68.5 L 21 68.5  A 1.5 1.5 0 0 1 19.5 67 L 19.5 58  Z " stroke-width="1" stroke="#797979" fill="none" />
  <path d="M 21.785714285714285 62.5  L 24.571428571428573 65.28571428571428  L 29.214285714285715 58.785714285714285  " stroke-width="2.7857142857142856" stroke="#797979" fill="none" />
</svg>