<?xml version="1.0" encoding="utf-8"?>
<svg version="1.1" xmlns:xlink="http://www.w3.org/1999/xlink" width="13px" height="13px" viewBox="136 56  13 13" xmlns="http://www.w3.org/2000/svg">
  <path d="M 136.5 58  A 1.5 1.5 0 0 1 138 56.5 L 147 56.5  A 1.5 1.5 0 0 1 148.5 58 L 148.5 67  A 1.5 1.5 0 0 1 147 68.5 L 138 68.5  A 1.5 1.5 0 0 1 136.5 67 L 136.5 58  Z " fill-rule="nonzero" fill="#ffffff" stroke="none" />
  <path d="M 136.5 58  A 1.5 1.5 0 0 1 138 56.5 L 147 56.5  A 1.5 1.5 0 0 1 148.5 58 L 148.5 67  A 1.5 1.5 0 0 1 147 68.5 L 138 68.5  A 1.5 1.5 0 0 1 136.5 67 L 136.5 58  Z " stroke-width="1" stroke="#797979" fill="none" />
</svg>