<?xml version="1.0" encoding="utf-8"?>
<svg version="1.1" xmlns:xlink="http://www.w3.org/1999/xlink" width="13px" height="13px" viewBox="19 80  13 13" xmlns="http://www.w3.org/2000/svg">
  <path d="M 19.5 82  A 1.5 1.5 0 0 1 21 80.5 L 30 80.5  A 1.5 1.5 0 0 1 31.5 82 L 31.5 91  A 1.5 1.5 0 0 1 30 92.5 L 21 92.5  A 1.5 1.5 0 0 1 19.5 91 L 19.5 82  Z " fill-rule="nonzero" fill="#f0f0f0" stroke="none" />
  <path d="M 19.5 82  A 1.5 1.5 0 0 1 21 80.5 L 30 80.5  A 1.5 1.5 0 0 1 31.5 82 L 31.5 91  A 1.5 1.5 0 0 1 30 92.5 L 21 92.5  A 1.5 1.5 0 0 1 19.5 91 L 19.5 82  Z " stroke-width="1" stroke="#797979" fill="none" />
</svg>