<?xml version="1.0" encoding="utf-8"?>
<svg version="1.1" xmlns:xlink="http://www.w3.org/1999/xlink" width="13px" height="13px" viewBox="19 32  13 13" xmlns="http://www.w3.org/2000/svg">
  <path d="M 19.5 34  A 1.5 1.5 0 0 1 21 32.5 L 30 32.5  A 1.5 1.5 0 0 1 31.5 34 L 31.5 43  A 1.5 1.5 0 0 1 30 44.5 L 21 44.5  A 1.5 1.5 0 0 1 19.5 43 L 19.5 34  Z " fill-rule="nonzero" fill="#f0f0f0" stroke="none" />
  <path d="M 19.5 34  A 1.5 1.5 0 0 1 21 32.5 L 30 32.5  A 1.5 1.5 0 0 1 31.5 34 L 31.5 43  A 1.5 1.5 0 0 1 30 44.5 L 21 44.5  A 1.5 1.5 0 0 1 19.5 43 L 19.5 34  Z " stroke-width="1" stroke="#797979" fill="none" />
  <path d="M 21.785714285714285 38.5  L 24.571428571428573 41.285714285714285  L 29.214285714285715 34.785714285714285  " stroke-width="2.7857142857142856" stroke="#797979" fill="none" />
</svg>