<?xml version="1.0" encoding="utf-8"?>
<svg version="1.1" xmlns:xlink="http://www.w3.org/1999/xlink" width="13px" height="13px" viewBox="19 104  13 13" xmlns="http://www.w3.org/2000/svg">
  <path d="M 19.5 106  A 1.5 1.5 0 0 1 21 104.5 L 30 104.5  A 1.5 1.5 0 0 1 31.5 106 L 31.5 115  A 1.5 1.5 0 0 1 30 116.5 L 21 116.5  A 1.5 1.5 0 0 1 19.5 115 L 19.5 106  Z " fill-rule="nonzero" fill="#ffffff" stroke="none" />
  <path d="M 19.5 106  A 1.5 1.5 0 0 1 21 104.5 L 30 104.5  A 1.5 1.5 0 0 1 31.5 106 L 31.5 115  A 1.5 1.5 0 0 1 30 116.5 L 21 116.5  A 1.5 1.5 0 0 1 19.5 115 L 19.5 106  Z " stroke-width="1" stroke="#797979" fill="none" />
</svg>