<?xml version="1.0" encoding="utf-8"?>
<svg version="1.1" xmlns:xlink="http://www.w3.org/1999/xlink" width="13px" height="13px" viewBox="136 80  13 13" xmlns="http://www.w3.org/2000/svg">
  <path d="M 136.5 82  A 1.5 1.5 0 0 1 138 80.5 L 147 80.5  A 1.5 1.5 0 0 1 148.5 82 L 148.5 91  A 1.5 1.5 0 0 1 147 92.5 L 138 92.5  A 1.5 1.5 0 0 1 136.5 91 L 136.5 82  Z " fill-rule="nonzero" fill="#ffffff" stroke="none" />
  <path d="M 136.5 82  A 1.5 1.5 0 0 1 138 80.5 L 147 80.5  A 1.5 1.5 0 0 1 148.5 82 L 148.5 91  A 1.5 1.5 0 0 1 147 92.5 L 138 92.5  A 1.5 1.5 0 0 1 136.5 91 L 136.5 82  Z " stroke-width="1" stroke="#797979" fill="none" />
  <path d="M 138.78571428571428 86.5  L 141.57142857142858 89.28571428571428  L 146.21428571428572 82.78571428571429  " stroke-width="2.7857142857142856" stroke="#797979" fill="none" />
</svg>