<?xml version="1.0" encoding="utf-8"?>
<svg version="1.1" xmlns:xlink="http://www.w3.org/1999/xlink" width="13px" height="13px" viewBox="21 150  13 13" xmlns="http://www.w3.org/2000/svg">
  <path d="M 21.5 152  A 1.5 1.5 0 0 1 23 150.5 L 32 150.5  A 1.5 1.5 0 0 1 33.5 152 L 33.5 161  A 1.5 1.5 0 0 1 32 162.5 L 23 162.5  A 1.5 1.5 0 0 1 21.5 161 L 21.5 152  Z " fill-rule="nonzero" fill="#f0f0f0" stroke="none" />
  <path d="M 21.5 152  A 1.5 1.5 0 0 1 23 150.5 L 32 150.5  A 1.5 1.5 0 0 1 33.5 152 L 33.5 161  A 1.5 1.5 0 0 1 32 162.5 L 23 162.5  A 1.5 1.5 0 0 1 21.5 161 L 21.5 152  Z " stroke-width="1" stroke="#797979" fill="none" />
</svg>