<?xml version="1.0" encoding="utf-8"?>
<svg version="1.1" xmlns:xlink="http://www.w3.org/1999/xlink" width="13px" height="13px" viewBox="21 300  13 13" xmlns="http://www.w3.org/2000/svg">
  <path d="M 21.5 302  A 1.5 1.5 0 0 1 23 300.5 L 32 300.5  A 1.5 1.5 0 0 1 33.5 302 L 33.5 311  A 1.5 1.5 0 0 1 32 312.5 L 23 312.5  A 1.5 1.5 0 0 1 21.5 311 L 21.5 302  Z " fill-rule="nonzero" fill="#ffffff" stroke="none" />
  <path d="M 21.5 302  A 1.5 1.5 0 0 1 23 300.5 L 32 300.5  A 1.5 1.5 0 0 1 33.5 302 L 33.5 311  A 1.5 1.5 0 0 1 32 312.5 L 23 312.5  A 1.5 1.5 0 0 1 21.5 311 L 21.5 302  Z " stroke-width="1" stroke="#797979" fill="none" />
</svg>