<?xml version="1.0" encoding="utf-8"?>
<svg version="1.1" xmlns:xlink="http://www.w3.org/1999/xlink" width="13px" height="13px" viewBox="21 324  13 13" xmlns="http://www.w3.org/2000/svg">
  <path d="M 21.5 326  A 1.5 1.5 0 0 1 23 324.5 L 32 324.5  A 1.5 1.5 0 0 1 33.5 326 L 33.5 335  A 1.5 1.5 0 0 1 32 336.5 L 23 336.5  A 1.5 1.5 0 0 1 21.5 335 L 21.5 326  Z " fill-rule="nonzero" fill="#ffffff" stroke="none" />
  <path d="M 21.5 326  A 1.5 1.5 0 0 1 23 324.5 L 32 324.5  A 1.5 1.5 0 0 1 33.5 326 L 33.5 335  A 1.5 1.5 0 0 1 32 336.5 L 23 336.5  A 1.5 1.5 0 0 1 21.5 335 L 21.5 326  Z " stroke-width="1" stroke="#797979" fill="none" />
</svg>