<?xml version="1.0" encoding="utf-8"?>
<svg version="1.1" xmlns:xlink="http://www.w3.org/1999/xlink" width="11px" height="11px" xmlns="http://www.w3.org/2000/svg">
  <g transform="matrix(1 0 0 1 -356 -374 )">
    <path d="M 10.672974759615382 2.2644399038461525  C 11.10858533653846 1.8290540865384604  11.108704326923078 1.12024158653846  10.673106971153846 0.68440625  L 10.31604326923077 0.3274615384615384  C 10.105046875 0.1162403846153846  9.824507211538462 0  9.525973557692309 0  C 9.226977163461537 0.00011899038461538461  8.946212740384615 0.11658413461538461  8.735110576923075 0.3280300480769231  L 1.6225264423076915 7.453637019230772  C 1.5791486912765988 7.497014863894645  1.5451381192374583 7.548836211817737  1.52260096153846 7.605891826923077  L 0.678628605769229 9.736877403846155  C 0.6126814903846136 9.903530048076922  0.6517367788461522 10.093372596153845  0.77821033653846 10.220189903846153  C 0.8626572608468945 10.305096026040982  0.9774856670699379 10.352807157445552  1.0972367788461521 10.352745192307692  C 1.1523822115384597 10.352745192307692  1.2079639423076907 10.342617788461538  1.2612980769230753 10.321688701923076  L 3.399158653846152 9.484697115384614  C 3.45693421803264 9.462052789059946  3.509414947696013 9.427728771528825  3.553317307692306 9.383872596153845  L 10.672974759615382 2.2644399038461525  Z M 2.9416141826923075 8.696980769230768  L 1.8966538461538465 9.106135817307692  L 2.3091935096153846 8.064560096153846  L 2.9416141826923075 8.696980769230768  Z M 10.036402644230773 1.3208858173076925  C 10.121031250000001 1.405501201923077  10.121031250000001 1.5432391826923078  10.036402644230769 1.6278545673076925  L 3.8209134615384612 7.84310576923077  L 3.1627247596153842 7.184917067307692  L 9.372251201923078 0.964046875  C 9.42762139423077 0.908451923076923  9.492206730769231 0.9002415865384616  9.525854567307693 0.9002415865384616  C 9.55938341346154 0.9002415865384616  9.623981971153848 0.908451923076923  9.67945793269231 0.9639411057692309  L 10.036402644230773 1.3208858173076925  Z " fill-rule="nonzero" fill="#999999" stroke="none" transform="matrix(1 0 0 1 356 374 )" />
  </g>
</svg>