<?xml version="1.0" encoding="utf-8"?>
<svg version="1.1" xmlns:xlink="http://www.w3.org/1999/xlink" width="13px" height="13px" xmlns="http://www.w3.org/2000/svg">
  <g transform="matrix(1 0 0 1 -353 -374 )">
    <path d="M 12.235069335937501 7.264562499999999  C 12.235069335937501 6.9478271484375  11.978293945312501 6.6910517578125  11.6615458984375 6.6910517578125  C 11.3447978515625 6.6910517578125  11.0880224609375 6.9478271484375  11.0880224609375 7.2645751953125  L 11.0880224609375 11.852724609375  L 1.1470341796875 11.852724609375  L 1.1470341796875 1.9117236328125  L 5.7351835937499995 1.9117236328125  C 6.051931640625 1.9117236328125  6.308707031249999 1.6549482421875001  6.308707031249999 1.3382001953125  C 6.308707031249999 1.0214521484375  6.051931640625 0.7646767578125  5.7351835937499995 0.7646767578125  L 0.7197099609375001 0.7646767578125  C 0.3222451171875 0.764689453125  0 1.0137080078125  0 1.3208330078125  L 0 12.443615234374999  C 0 12.750740234375  0.3222451171875 12.9997587890625  0.7197099609375001 13  L 11.515359375000001 13  C 11.91282421875 12.9997587890625  12.235069335937501 12.750740234375  12.235069335937501 12.443615234374999  L 12.235069335937501 7.264562499999999  Z " fill-rule="nonzero" fill="#999999" stroke="none" transform="matrix(1 0 0 1 353 374 )" />
  </g>
</svg>