<?xml version="1.0" encoding="utf-8"?>
<svg version="1.1" xmlns:xlink="http://www.w3.org/1999/xlink" width="13px" height="13px" xmlns="http://www.w3.org/2000/svg">
  <g transform="matrix(1 0 0 1 -658 -399 )">
    <path d="M 12.458339350943218 7.398978286901701  C 12.159199635152003 7.398978286901701  11.916665578375506 7.641485864886962  11.916665578375506 7.9406384024889975  L 11.916665578375506 11.364702701927415  C 11.916665578375506 11.67161589992831  11.675167177870023 11.916640449545904  11.379789799823849 11.916640449545904  L 1.6202102129795803 11.916640449545904  C 1.3232859378892354 11.916640449545904  1.0833344216244933 11.676833380109796  1.0833344216244933 11.379765199638028  L 1.0833344216244933 1.620208578973327  C 1.0833344216244933 1.3281219117922585  1.3308237496937223 1.0833333290655434  1.6258996198769324 1.0833333290655434  L 5.89948541044171 1.0833333290655434  C 6.198638249743853 1.0833333290655434  6.441146072301876 0.8408126403859136  6.441146072301876 0.5416732134781547  C 6.441146072301876 0.2425337865703957  6.198638249743853 1.3097890859195485E-05  5.89948541044171 1.3097890859195485E-05  L 1.6258996198769324 1.3097890859195485E-05  C 0.7351661395319153 1.3097890859195485E-05  0 0.7271425366241714  0 1.6202216768642792  L 0 11.379791421026674  C 0 12.275321979427455  0.7251375749718255 13  1.6202102129795803 13  L 11.379789799823849 13  C 12.277012350601655 13  13.000000012803431 12.266460148740695  13 11.364728923315967  L 13 7.9406384024889975  C 13 7.641485864886962  12.757479066734433 7.398978286901701  12.458339350943218 7.398978286901701  Z M 4.715616226969863 6.11218975943045  L 5.418520538636414 6.8150933494041315  C 5.4982116057322665 2.9177466594537407  8.149266844152853 0  11.896044752848605 0  C 12.195197592150794 0  12.437705414708818 0.2425206886795365  12.437705401905387 0.5416601027838787  C 12.437705389101957 0.840799516888221  12.19518446863982 1.083320218371174  11.896044752848605 1.083320218371174  C 8.840018887100877 1.083320218371174  6.6691550783651925 3.3950929042786857  6.5094452148954804 6.612922871006651  L 7.010191929373037 6.112176648736174  C 7.219769341998707 5.902599447472455  7.567347706269521 5.910360107871409  7.772690834089243 6.11570302859952  C 7.984221524478884 6.3272335056573  7.990435295660371 6.663996412909317  7.7762172175090445 6.878201164324188  L 6.3108140139297175 8.34362911141109  C 6.292892311276515 8.368611291510307  6.272956566021224 8.392085205079383  6.251206310172517 8.413815907446484  C 6.146397944200102 8.51862416771814  6.004542867053769 8.571965616471402  5.862897522817677 8.57120528582536  C 5.721252191385015 8.571965616471402  5.579397114238728 8.518624180521558  5.474588748266314 8.413815907446484  C 5.452831133423928 8.392091992826343  5.43289485729894 8.368617454169492  5.414981044509114 8.34362911141109  L 3.949577840929786 6.878214275018465  C 3.735372873486005 6.664009523603593  3.7415735467633757 6.327246616351576  3.953117335057086 6.115716139293795  C 4.158460462876856 5.910373218565685  4.506038827147622 5.902599447472455  4.715616226969863 6.11218975943045  Z " fill-rule="nonzero" fill="#999999" stroke="none" transform="matrix(1 0 0 1 658 399 )" />
  </g>
</svg>