<?xml version="1.0" encoding="utf-8"?>
<svg version="1.1" xmlns:xlink="http://www.w3.org/1999/xlink" width="13px" height="13px" viewBox="543 122  13 13" xmlns="http://www.w3.org/2000/svg">
  <path d="M 549.5 122  C 553.14 122  556 124.86  556 128.5  C 556 132.14  553.14 135  549.5 135  C 545.86 135  543 132.14  543 128.5  C 543 124.86  545.86 122  549.5 122  Z " fill-rule="nonzero" fill="#f0f0f0" stroke="none" />
  <path d="M 549.5 122.5  C 552.86 122.5  555.5 125.14  555.5 128.5  C 555.5 131.86  552.86 134.5  549.5 134.5  C 546.14 134.5  543.5 131.86  543.5 128.5  C 543.5 125.14  546.14 122.5  549.5 122.5  Z " stroke-width="1" stroke="#797979" fill="none" />
  <path d="M 549.5 131.75  C 547.68 131.75  546.25 130.32  546.25 128.5  C 546.25 126.68  547.68 125.25  549.5 125.25  C 551.32 125.25  552.75 126.68  552.75 128.5  C 552.75 130.32  551.32 131.75  549.5 131.75  " fill-rule="nonzero" fill="#797979" stroke="none" />
</svg>