<?xml version="1.0" encoding="utf-8"?>
<svg version="1.1" xmlns:xlink="http://www.w3.org/1999/xlink" width="13px" height="13px" viewBox="303 122  13 13" xmlns="http://www.w3.org/2000/svg">
  <path d="M 309.5 122  C 313.14 122  316 124.86  316 128.5  C 316 132.14  313.14 135  309.5 135  C 305.86 135  303 132.14  303 128.5  C 303 124.86  305.86 122  309.5 122  Z " fill-rule="nonzero" fill="#ffffff" stroke="none" />
  <path d="M 309.5 122.5  C 312.86 122.5  315.5 125.14  315.5 128.5  C 315.5 131.86  312.86 134.5  309.5 134.5  C 306.14 134.5  303.5 131.86  303.5 128.5  C 303.5 125.14  306.14 122.5  309.5 122.5  Z " stroke-width="1" stroke="#797979" fill="none" />
  <path d="M 309.5 131.75  C 307.68 131.75  306.25 130.32  306.25 128.5  C 306.25 126.68  307.68 125.25  309.5 125.25  C 311.32 125.25  312.75 126.68  312.75 128.5  C 312.75 130.32  311.32 131.75  309.5 131.75  " fill-rule="nonzero" fill="#797979" stroke="none" />
</svg>