<?xml version="1.0" encoding="utf-8"?>
<svg version="1.1" xmlns:xlink="http://www.w3.org/1999/xlink" width="13px" height="13px" viewBox="303 299  13 13" xmlns="http://www.w3.org/2000/svg">
  <path d="M 309.5 299  C 313.14 299  316 301.86  316 305.5  C 316 309.14  313.14 312  309.5 312  C 305.86 312  303 309.14  303 305.5  C 303 301.86  305.86 299  309.5 299  Z " fill-rule="nonzero" fill="#f0f0f0" stroke="none" />
  <path d="M 309.5 299.5  C 312.86 299.5  315.5 302.14  315.5 305.5  C 315.5 308.86  312.86 311.5  309.5 311.5  C 306.14 311.5  303.5 308.86  303.5 305.5  C 303.5 302.14  306.14 299.5  309.5 299.5  Z " stroke-width="1" stroke="#797979" fill="none" />
  <path d="M 309.5 308.75  C 307.68 308.75  306.25 307.32  306.25 305.5  C 306.25 303.68  307.68 302.25  309.5 302.25  C 311.32 302.25  312.75 303.68  312.75 305.5  C 312.75 307.32  311.32 308.75  309.5 308.75  " fill-rule="nonzero" fill="#797979" stroke="none" />
</svg>