<?xml version="1.0" encoding="utf-8"?>
<svg version="1.1" xmlns:xlink="http://www.w3.org/1999/xlink" width="13px" height="13px" viewBox="303 146.5  13 13" xmlns="http://www.w3.org/2000/svg">
  <path d="M 309.5 146.5  C 313.14 146.5  316 149.36  316 153  C 316 156.64  313.14 159.5  309.5 159.5  C 305.86 159.5  303 156.64  303 153  C 303 149.36  305.86 146.5  309.5 146.5  Z " fill-rule="nonzero" fill="#ffffff" stroke="none" />
  <path d="M 309.5 147  C 312.86 147  315.5 149.64  315.5 153  C 315.5 156.36  312.86 159  309.5 159  C 306.14 159  303.5 156.36  303.5 153  C 303.5 149.64  306.14 147  309.5 147  Z " stroke-width="1" stroke="#797979" fill="none" />
  <path d="M 309.5 156.25  C 307.68 156.25  306.25 154.82  306.25 153  C 306.25 151.18  307.68 149.75  309.5 149.75  C 311.32 149.75  312.75 151.18  312.75 153  C 312.75 154.82  311.32 156.25  309.5 156.25  " fill-rule="nonzero" fill="#797979" stroke="none" />
</svg>