<?xml version="1.0" encoding="utf-8"?>
<svg version="1.1" xmlns:xlink="http://www.w3.org/1999/xlink" width="13px" height="13px" viewBox="543 194.5  13 13" xmlns="http://www.w3.org/2000/svg">
  <path d="M 549.5 194.5  C 553.14 194.5  556 197.36  556 201  C 556 204.64  553.14 207.5  549.5 207.5  C 545.86 207.5  543 204.64  543 201  C 543 197.36  545.86 194.5  549.5 194.5  Z " fill-rule="nonzero" fill="#f0f0f0" stroke="none" />
  <path d="M 549.5 195  C 552.86 195  555.5 197.64  555.5 201  C 555.5 204.36  552.86 207  549.5 207  C 546.14 207  543.5 204.36  543.5 201  C 543.5 197.64  546.14 195  549.5 195  Z " stroke-width="1" stroke="#797979" fill="none" />
  <path d="M 549.5 204.25  C 547.68 204.25  546.25 202.82  546.25 201  C 546.25 199.18  547.68 197.75  549.5 197.75  C 551.32 197.75  552.75 199.18  552.75 201  C 552.75 202.82  551.32 204.25  549.5 204.25  " fill-rule="nonzero" fill="#797979" stroke="none" />
</svg>