<?xml version="1.0" encoding="utf-8"?>
<svg version="1.1" xmlns:xlink="http://www.w3.org/1999/xlink" width="13px" height="8px" xmlns="http://www.w3.org/2000/svg">
  <g transform="matrix(1 0 0 1 -12 -9 )">
    <path d="M 0.3677746760562929 1.9989468420787964  C 0.21191705010594505 3.054474348913392  0.1974072843279923 4.7307018716768665  1.262861556678835 6.065231651330824  C 2.2877676886174143 7.349037663146191  4.0383015581532415 8  6.4657867839065855 8  C 8.879810305439745 8  10.633092431857634 7.348328371129079  11.676863580797255 6.063103817286712  C 12.757945530011952 4.73196994381904  12.784077082869837 3.0561507943066357  12.650158740786598 1.9815588958891024  C 12.86678038079508 1.7711196837416676  13 1.4868086006655932  13 1.1736107442954042  C 13 0.5254210104031257  12.430625816144342 0  11.728264913123294 0  C 11.025904010102252 0  10.456529826246596 0.5254424970994072  10.456529826246596 1.1736107442954042  C 10.456529826246596 1.6690703105324087  10.789392574711014 2.0925064288187434  11.259876805474924 2.264687874611746  C 11.34819303304451 3.1185883402269314  11.30154287973279 4.355001988293911  10.542214281093434 5.2859123276577735  C 9.778972948134054 6.22157265514606  8.407462874359538 6.6959689579409405  6.465810067082629 6.6959689579409405  C 4.5154933237116515 6.6959689579409405  3.1490139408624964 6.225140496909835  2.4043581357528083 5.296572921563763  C 1.6481504158510225 4.353626419659487  1.6455884926564095 3.094644998334636  1.757823711328428 2.258261420090471  C 2.218945283119948 2.082060764886429  2.5434701737534033 1.662880293684706  2.5434701737534033 1.1736322309916878  C 2.5434701737534033 0.5254424970994093  1.9740959898977466 2.1486696283545825E-05  1.2717350868767017 2.1486696283545825E-05  C 0.569374183855657 2.1486696283545825E-05  0 0.5254639837956907  0 1.1736322309916878  C 0 1.4954488360161216  0.14046287188573103 1.7869171313232601  0.3677746760562929 1.9989468420787964  Z " fill-rule="nonzero" fill="#ffffff" stroke="none" transform="matrix(1 0 0 1 12 9 )" />
  </g>
</svg>