<?xml version="1.0" encoding="utf-8"?>
<svg version="1.1" xmlns:xlink="http://www.w3.org/1999/xlink" width="112px" height="28px" xmlns="http://www.w3.org/2000/svg">
  <g transform="matrix(1 0 0 1 -157 -25 )">
    <path d="M 157.5 28  A 2.5 2.5 0 0 1 160 25.5 L 266 25.5  A 2.5 2.5 0 0 1 268.5 28 L 268.5 50  A 2.5 2.5 0 0 1 266 52.5 L 160 52.5  A 2.5 2.5 0 0 1 157.5 50 L 157.5 28  Z " fill-rule="nonzero" fill="#ffffff" stroke="none" />
    <path d="M 157.5 28  A 2.5 2.5 0 0 1 160 25.5 L 266 25.5  A 2.5 2.5 0 0 1 268.5 28 L 268.5 50  A 2.5 2.5 0 0 1 266 52.5 L 160 52.5  A 2.5 2.5 0 0 1 157.5 50 L 157.5 28  Z " stroke-width="1" stroke="#adadad" fill="none" />
  </g>
</svg>