<?xml version="1.0" encoding="utf-8"?>
<svg version="1.1" xmlns:xlink="http://www.w3.org/1999/xlink" width="40px" height="28px" xmlns="http://www.w3.org/2000/svg">
  <g transform="matrix(1 0 0 1 -269 -25 )">
    <path d="M 269.5 28  A 2.5 2.5 0 0 1 272 25.5 L 306 25.5  A 2.5 2.5 0 0 1 308.5 28 L 308.5 50  A 2.5 2.5 0 0 1 306 52.5 L 272 52.5  A 2.5 2.5 0 0 1 269.5 50 L 269.5 28  Z " fill-rule="nonzero" fill="#ffffff" stroke="none" />
    <path d="M 269.5 28  A 2.5 2.5 0 0 1 272 25.5 L 306 25.5  A 2.5 2.5 0 0 1 308.5 28 L 308.5 50  A 2.5 2.5 0 0 1 306 52.5 L 272 52.5  A 2.5 2.5 0 0 1 269.5 50 L 269.5 28  Z " stroke-width="1" stroke="#adadad" fill="none" />
  </g>
</svg>