<?xml version="1.0" encoding="utf-8"?>
<svg version="1.1" xmlns:xlink="http://www.w3.org/1999/xlink" width="13px" height="13px" viewBox="603 130  13 13" xmlns="http://www.w3.org/2000/svg">
  <path d="M 609.5 130  C 613.14 130  616 132.86  616 136.5  C 616 140.14  613.14 143  609.5 143  C 605.86 143  603 140.14  603 136.5  C 603 132.86  605.86 130  609.5 130  Z " fill-rule="nonzero" fill="#f0f0f0" stroke="none" />
  <path d="M 609.5 130.5  C 612.86 130.5  615.5 133.14  615.5 136.5  C 615.5 139.86  612.86 142.5  609.5 142.5  C 606.14 142.5  603.5 139.86  603.5 136.5  C 603.5 133.14  606.14 130.5  609.5 130.5  Z " stroke-width="1" stroke="#797979" fill="none" />
  <path d="M 609.5 139.75  C 607.68 139.75  606.25 138.32  606.25 136.5  C 606.25 134.68  607.68 133.25  609.5 133.25  C 611.32 133.25  612.75 134.68  612.75 136.5  C 612.75 138.32  611.32 139.75  609.5 139.75  " fill-rule="nonzero" fill="#797979" stroke="none" />
</svg>