<?xml version="1.0" encoding="utf-8"?>
<svg version="1.1" xmlns:xlink="http://www.w3.org/1999/xlink" width="187px" height="20px" xmlns="http://www.w3.org/2000/svg">
  <defs>
    <mask fill="white" id="clip398">
      <path d="M 0 15  L 0 5  C 0 2.1999999999999886  2.2000000000000455 0  5 0  L 48.76811594203024 0  L 182 0  C 184.79999999999995 0  187 2.1999999999999886  187 5  L 187 15  C 187 17.80000000000001  184.79999999999995 20  182 20  L 5 20  C 2.2000000000000455 20  0 17.80000000000001  0 15  Z " fill-rule="evenodd" />
    </mask>
  </defs>
  <g transform="matrix(1 0 0 1 -1496 -379 )">
    <path d="M 0 15  L 0 5  C 0 2.1999999999999886  2.2000000000000455 0  5 0  L 48.76811594203024 0  L 182 0  C 184.79999999999995 0  187 2.1999999999999886  187 5  L 187 15  C 187 17.80000000000001  184.79999999999995 20  182 20  L 5 20  C 2.2000000000000455 20  0 17.80000000000001  0 15  Z " fill-rule="nonzero" fill="#ffffff" stroke="none" transform="matrix(1 0 0 1 1496 379 )" />
    <path d="M 0 15  L 0 5  C 0 2.1999999999999886  2.2000000000000455 0  5 0  L 48.76811594203024 0  L 182 0  C 184.79999999999995 0  187 2.1999999999999886  187 5  L 187 15  C 187 17.80000000000001  184.79999999999995 20  182 20  L 5 20  C 2.2000000000000455 20  0 17.80000000000001  0 15  Z " stroke-width="2" stroke="#797979" fill="none" transform="matrix(1 0 0 1 1496 379 )" mask="url(#clip398)" />
  </g>
</svg>