<?xml version="1.0" encoding="utf-8"?>
<svg version="1.1" xmlns:xlink="http://www.w3.org/1999/xlink" width="13px" height="13px" viewBox="846 607  13 13" xmlns="http://www.w3.org/2000/svg">
  <path d="M 852.5 607  C 856.14 607  859 609.86  859 613.5  C 859 617.14  856.14 620  852.5 620  C 848.86 620  846 617.14  846 613.5  C 846 609.86  848.86 607  852.5 607  Z " fill-rule="nonzero" fill="#ffffff" stroke="none" />
  <path d="M 852.5 607.5  C 855.86 607.5  858.5 610.14  858.5 613.5  C 858.5 616.86  855.86 619.5  852.5 619.5  C 849.14 619.5  846.5 616.86  846.5 613.5  C 846.5 610.14  849.14 607.5  852.5 607.5  Z " stroke-width="1" stroke="#797979" fill="none" />
  <path d="M 852.5 616.75  C 850.68 616.75  849.25 615.32  849.25 613.5  C 849.25 611.68  850.68 610.25  852.5 610.25  C 854.32 610.25  855.75 611.68  855.75 613.5  C 855.75 615.32  854.32 616.75  852.5 616.75  " fill-rule="nonzero" fill="#797979" stroke="none" />
</svg>