<?xml version="1.0" encoding="utf-8"?>
<svg version="1.1" xmlns:xlink="http://www.w3.org/1999/xlink" width="13px" height="13px" viewBox="613 130  13 13" xmlns="http://www.w3.org/2000/svg">
  <path d="M 619.5 130  C 623.14 130  626 132.86  626 136.5  C 626 140.14  623.14 143  619.5 143  C 615.86 143  613 140.14  613 136.5  C 613 132.86  615.86 130  619.5 130  Z " fill-rule="nonzero" fill="#ffffff" stroke="none" />
  <path d="M 619.5 130.5  C 622.86 130.5  625.5 133.14  625.5 136.5  C 625.5 139.86  622.86 142.5  619.5 142.5  C 616.14 142.5  613.5 139.86  613.5 136.5  C 613.5 133.14  616.14 130.5  619.5 130.5  Z " stroke-width="1" stroke="#797979" fill="none" />
  <path d="M 619.5 139.75  C 617.68 139.75  616.25 138.32  616.25 136.5  C 616.25 134.68  617.68 133.25  619.5 133.25  C 621.32 133.25  622.75 134.68  622.75 136.5  C 622.75 138.32  621.32 139.75  619.5 139.75  " fill-rule="nonzero" fill="#797979" stroke="none" />
</svg>