<?xml version="1.0" encoding="utf-8"?>
<svg version="1.1" xmlns:xlink="http://www.w3.org/1999/xlink" width="13px" height="13px" viewBox="340 130  13 13" xmlns="http://www.w3.org/2000/svg">
  <path d="M 346.5 130  C 350.14 130  353 132.86  353 136.5  C 353 140.14  350.14 143  346.5 143  C 342.86 143  340 140.14  340 136.5  C 340 132.86  342.86 130  346.5 130  Z " fill-rule="nonzero" fill="#ffffff" stroke="none" />
  <path d="M 346.5 130.5  C 349.86 130.5  352.5 133.14  352.5 136.5  C 352.5 139.86  349.86 142.5  346.5 142.5  C 343.14 142.5  340.5 139.86  340.5 136.5  C 340.5 133.14  343.14 130.5  346.5 130.5  Z " stroke-width="1" stroke="#797979" fill="none" />
  <path d="M 346.5 139.75  C 344.68 139.75  343.25 138.32  343.25 136.5  C 343.25 134.68  344.68 133.25  346.5 133.25  C 348.32 133.25  349.75 134.68  349.75 136.5  C 349.75 138.32  348.32 139.75  346.5 139.75  " fill-rule="nonzero" fill="#797979" stroke="none" />
</svg>