<?xml version="1.0" encoding="utf-8"?>
<svg version="1.1" xmlns:xlink="http://www.w3.org/1999/xlink" width="13px" height="13px" viewBox="846 590  13 13" xmlns="http://www.w3.org/2000/svg">
  <path d="M 852.5 590  C 856.14 590  859 592.86  859 596.5  C 859 600.14  856.14 603  852.5 603  C 848.86 603  846 600.14  846 596.5  C 846 592.86  848.86 590  852.5 590  Z " fill-rule="nonzero" fill="#ffffff" stroke="none" />
  <path d="M 852.5 590.5  C 855.86 590.5  858.5 593.14  858.5 596.5  C 858.5 599.86  855.86 602.5  852.5 602.5  C 849.14 602.5  846.5 599.86  846.5 596.5  C 846.5 593.14  849.14 590.5  852.5 590.5  Z " stroke-width="1" stroke="#797979" fill="none" />
  <path d="M 852.5 599.75  C 850.68 599.75  849.25 598.32  849.25 596.5  C 849.25 594.68  850.68 593.25  852.5 593.25  C 854.32 593.25  855.75 594.68  855.75 596.5  C 855.75 598.32  854.32 599.75  852.5 599.75  " fill-rule="nonzero" fill="#797979" stroke="none" />
</svg>