<?xml version="1.0" encoding="utf-8"?>
<svg version="1.1" xmlns:xlink="http://www.w3.org/1999/xlink" width="13px" height="13px" viewBox="422 561  13 13" xmlns="http://www.w3.org/2000/svg">
  <path d="M 428.5 561  C 432.14 561  435 563.86  435 567.5  C 435 571.14  432.14 574  428.5 574  C 424.86 574  422 571.14  422 567.5  C 422 563.86  424.86 561  428.5 561  Z " fill-rule="nonzero" fill="#ffffff" stroke="none" />
  <path d="M 428.5 561.5  C 431.86 561.5  434.5 564.14  434.5 567.5  C 434.5 570.86  431.86 573.5  428.5 573.5  C 425.14 573.5  422.5 570.86  422.5 567.5  C 422.5 564.14  425.14 561.5  428.5 561.5  Z " stroke-width="1" stroke="#797979" fill="none" />
  <path d="M 428.5 570.75  C 426.68 570.75  425.25 569.32  425.25 567.5  C 425.25 565.68  426.68 564.25  428.5 564.25  C 430.32 564.25  431.75 565.68  431.75 567.5  C 431.75 569.32  430.32 570.75  428.5 570.75  " fill-rule="nonzero" fill="#797979" stroke="none" />
</svg>