<?xml version="1.0" encoding="utf-8"?>
<svg version="1.1" xmlns:xlink="http://www.w3.org/1999/xlink" width="13px" height="13px" viewBox="422 540  13 13" xmlns="http://www.w3.org/2000/svg">
  <path d="M 428.5 540  C 432.14 540  435 542.86  435 546.5  C 435 550.14  432.14 553  428.5 553  C 424.86 553  422 550.14  422 546.5  C 422 542.86  424.86 540  428.5 540  Z " fill-rule="nonzero" fill="#f0f0f0" stroke="none" />
  <path d="M 428.5 540.5  C 431.86 540.5  434.5 543.14  434.5 546.5  C 434.5 549.86  431.86 552.5  428.5 552.5  C 425.14 552.5  422.5 549.86  422.5 546.5  C 422.5 543.14  425.14 540.5  428.5 540.5  Z " stroke-width="1" stroke="#797979" fill="none" />
  <path d="M 428.5 549.75  C 426.68 549.75  425.25 548.32  425.25 546.5  C 425.25 544.68  426.68 543.25  428.5 543.25  C 430.32 543.25  431.75 544.68  431.75 546.5  C 431.75 548.32  430.32 549.75  428.5 549.75  " fill-rule="nonzero" fill="#797979" stroke="none" />
</svg>