<?xml version="1.0" encoding="utf-8"?>
<svg version="1.1" xmlns:xlink="http://www.w3.org/1999/xlink" width="13px" height="13px" viewBox="564 540  13 13" xmlns="http://www.w3.org/2000/svg">
  <path d="M 570.5 540  C 574.14 540  577 542.86  577 546.5  C 577 550.14  574.14 553  570.5 553  C 566.86 553  564 550.14  564 546.5  C 564 542.86  566.86 540  570.5 540  Z " fill-rule="nonzero" fill="#f0f0f0" stroke="none" />
  <path d="M 570.5 540.5  C 573.86 540.5  576.5 543.14  576.5 546.5  C 576.5 549.86  573.86 552.5  570.5 552.5  C 567.14 552.5  564.5 549.86  564.5 546.5  C 564.5 543.14  567.14 540.5  570.5 540.5  Z " stroke-width="1" stroke="#797979" fill="none" />
  <path d="M 570.5 549.75  C 568.68 549.75  567.25 548.32  567.25 546.5  C 567.25 544.68  568.68 543.25  570.5 543.25  C 572.32 543.25  573.75 544.68  573.75 546.5  C 573.75 548.32  572.32 549.75  570.5 549.75  " fill-rule="nonzero" fill="#797979" stroke="none" />
</svg>