<?xml version="1.0" encoding="utf-8"?>
<svg version="1.1" xmlns:xlink="http://www.w3.org/1999/xlink" width="13px" height="13px" viewBox="537 162  13 13" xmlns="http://www.w3.org/2000/svg">
  <path d="M 543.5 162  C 547.14 162  550 164.86  550 168.5  C 550 172.14  547.14 175  543.5 175  C 539.86 175  537 172.14  537 168.5  C 537 164.86  539.86 162  543.5 162  Z " fill-rule="nonzero" fill="#f0f0f0" stroke="none" />
  <path d="M 543.5 162.5  C 546.86 162.5  549.5 165.14  549.5 168.5  C 549.5 171.86  546.86 174.5  543.5 174.5  C 540.14 174.5  537.5 171.86  537.5 168.5  C 537.5 165.14  540.14 162.5  543.5 162.5  Z " stroke-width="1" stroke="#797979" fill="none" />
  <path d="M 543.5 171.75  C 541.68 171.75  540.25 170.32  540.25 168.5  C 540.25 166.68  541.68 165.25  543.5 165.25  C 545.32 165.25  546.75 166.68  546.75 168.5  C 546.75 170.32  545.32 171.75  543.5 171.75  " fill-rule="nonzero" fill="#797979" stroke="none" />
</svg>