<?xml version="1.0" encoding="utf-8"?>
<svg version="1.1" xmlns:xlink="http://www.w3.org/1999/xlink" width="13px" height="13px" viewBox="619 472  13 13" xmlns="http://www.w3.org/2000/svg">
  <path d="M 619.5 474  A 1.5 1.5 0 0 1 621 472.5 L 630 472.5  A 1.5 1.5 0 0 1 631.5 474 L 631.5 483  A 1.5 1.5 0 0 1 630 484.5 L 621 484.5  A 1.5 1.5 0 0 1 619.5 483 L 619.5 474  Z " fill-rule="nonzero" fill="#f0f0f0" stroke="none" />
  <path d="M 619.5 474  A 1.5 1.5 0 0 1 621 472.5 L 630 472.5  A 1.5 1.5 0 0 1 631.5 474 L 631.5 483  A 1.5 1.5 0 0 1 630 484.5 L 621 484.5  A 1.5 1.5 0 0 1 619.5 483 L 619.5 474  Z " stroke-width="1" stroke="#797979" fill="none" />
  <path d="M 621.7857142857143 478.5  L 624.5714285714286 481.2857142857143  L 629.2142857142857 474.7857142857143  " stroke-width="2.7857142857142856" stroke="#797979" fill="none" />
</svg>