<?xml version="1.0" encoding="utf-8"?>
<svg version="1.1" xmlns:xlink="http://www.w3.org/1999/xlink" width="13px" height="13px" viewBox="294 361  13 13" xmlns="http://www.w3.org/2000/svg">
  <path d="M 294.5 363  A 1.5 1.5 0 0 1 296 361.5 L 305 361.5  A 1.5 1.5 0 0 1 306.5 363 L 306.5 372  A 1.5 1.5 0 0 1 305 373.5 L 296 373.5  A 1.5 1.5 0 0 1 294.5 372 L 294.5 363  Z " fill-rule="nonzero" fill="#ffffff" stroke="none" />
  <path d="M 294.5 363  A 1.5 1.5 0 0 1 296 361.5 L 305 361.5  A 1.5 1.5 0 0 1 306.5 363 L 306.5 372  A 1.5 1.5 0 0 1 305 373.5 L 296 373.5  A 1.5 1.5 0 0 1 294.5 372 L 294.5 363  Z " stroke-width="1" stroke="#797979" fill="none" />
  <path d="M 296.7857142857143 367.5  L 299.57142857142856 370.2857142857143  L 304.2142857142857 363.7857142857143  " stroke-width="2.7857142857142856" stroke="#797979" fill="none" />
</svg>