<?xml version="1.0" encoding="utf-8"?>
<svg version="1.1" xmlns:xlink="http://www.w3.org/1999/xlink" width="31px" height="31px" xmlns="http://www.w3.org/2000/svg">
  <g transform="matrix(1 0 0 1 -18 -6 )">
    <path d="M 36.5 6.5  L 30.5 6.5  L 30.5 18.5  L 18.5 18.5  L 18.5 24.5  L 30.5 24.5  L 30.5 36.5  L 36.5 36.5  L 36.5 24.499999999999996  L 48.5 24.5  L 48.5 18.5  L 36.5 18.5  L 36.5 6.5  Z " fill-rule="nonzero" fill="#aaaaaa" stroke="none" />
    <path d="M 36.5 6.5  L 30.5 6.5  L 30.5 18.5  L 18.5 18.5  L 18.5 24.5  L 30.5 24.5  L 30.5 36.5  L 36.5 36.5  L 36.5 24.499999999999996  L 48.5 24.5  L 48.5 18.5  L 36.5 18.5  L 36.5 6.5  Z " stroke-width="1" stroke="#999999" fill="none" />
  </g>
</svg>