<?xml version="1.0" encoding="utf-8"?>
<svg version="1.1" xmlns:xlink="http://www.w3.org/1999/xlink" width="13px" height="13px" viewBox="155 690  13 13" xmlns="http://www.w3.org/2000/svg">
  <path d="M 155.5 692  A 1.5 1.5 0 0 1 157 690.5 L 166 690.5  A 1.5 1.5 0 0 1 167.5 692 L 167.5 701  A 1.5 1.5 0 0 1 166 702.5 L 157 702.5  A 1.5 1.5 0 0 1 155.5 701 L 155.5 692  Z " fill-rule="nonzero" fill="#ffffff" stroke="none" />
  <path d="M 155.5 692  A 1.5 1.5 0 0 1 157 690.5 L 166 690.5  A 1.5 1.5 0 0 1 167.5 692 L 167.5 701  A 1.5 1.5 0 0 1 166 702.5 L 157 702.5  A 1.5 1.5 0 0 1 155.5 701 L 155.5 692  Z " stroke-width="1" stroke="#797979" fill="none" />
</svg>