<?xml version="1.0" encoding="utf-8"?>
<svg version="1.1" xmlns:xlink="http://www.w3.org/1999/xlink" width="13px" height="13px" viewBox="654 633  13 13" xmlns="http://www.w3.org/2000/svg">
  <path d="M 660.5 633  C 664.14 633  667 635.86  667 639.5  C 667 643.14  664.14 646  660.5 646  C 656.86 646  654 643.14  654 639.5  C 654 635.86  656.86 633  660.5 633  Z " fill-rule="nonzero" fill="#f0f0f0" stroke="none" />
  <path d="M 660.5 633.5  C 663.86 633.5  666.5 636.14  666.5 639.5  C 666.5 642.86  663.86 645.5  660.5 645.5  C 657.14 645.5  654.5 642.86  654.5 639.5  C 654.5 636.14  657.14 633.5  660.5 633.5  Z " stroke-width="1" stroke="#797979" fill="none" />
  <path d="M 660.5 642.75  C 658.68 642.75  657.25 641.32  657.25 639.5  C 657.25 637.68  658.68 636.25  660.5 636.25  C 662.32 636.25  663.75 637.68  663.75 639.5  C 663.75 641.32  662.32 642.75  660.5 642.75  " fill-rule="nonzero" fill="#797979" stroke="none" />
</svg>