<?xml version="1.0" encoding="utf-8"?>
<svg version="1.1" xmlns:xlink="http://www.w3.org/1999/xlink" width="13px" height="13px" viewBox="511 687  13 13" xmlns="http://www.w3.org/2000/svg">
  <path d="M 517.5 687  C 521.14 687  524 689.86  524 693.5  C 524 697.14  521.14 700  517.5 700  C 513.86 700  511 697.14  511 693.5  C 511 689.86  513.86 687  517.5 687  Z " fill-rule="nonzero" fill="#f0f0f0" stroke="none" />
  <path d="M 517.5 687.5  C 520.86 687.5  523.5 690.14  523.5 693.5  C 523.5 696.86  520.86 699.5  517.5 699.5  C 514.14 699.5  511.5 696.86  511.5 693.5  C 511.5 690.14  514.14 687.5  517.5 687.5  Z " stroke-width="1" stroke="#797979" fill="none" />
  <path d="M 517.5 696.75  C 515.68 696.75  514.25 695.32  514.25 693.5  C 514.25 691.68  515.68 690.25  517.5 690.25  C 519.32 690.25  520.75 691.68  520.75 693.5  C 520.75 695.32  519.32 696.75  517.5 696.75  " fill-rule="nonzero" fill="#797979" stroke="none" />
</svg>