<?xml version="1.0" encoding="utf-8"?>
<svg version="1.1" xmlns:xlink="http://www.w3.org/1999/xlink" width="13px" height="13px" viewBox="511 661  13 13" xmlns="http://www.w3.org/2000/svg">
  <path d="M 517.5 661  C 521.14 661  524 663.86  524 667.5  C 524 671.14  521.14 674  517.5 674  C 513.86 674  511 671.14  511 667.5  C 511 663.86  513.86 661  517.5 661  Z " fill-rule="nonzero" fill="#ffffff" stroke="none" />
  <path d="M 517.5 661.5  C 520.86 661.5  523.5 664.14  523.5 667.5  C 523.5 670.86  520.86 673.5  517.5 673.5  C 514.14 673.5  511.5 670.86  511.5 667.5  C 511.5 664.14  514.14 661.5  517.5 661.5  Z " stroke-width="1" stroke="#797979" fill="none" />
  <path d="M 517.5 670.75  C 515.68 670.75  514.25 669.32  514.25 667.5  C 514.25 665.68  515.68 664.25  517.5 664.25  C 519.32 664.25  520.75 665.68  520.75 667.5  C 520.75 669.32  519.32 670.75  517.5 670.75  " fill-rule="nonzero" fill="#797979" stroke="none" />
</svg>