<?xml version="1.0" encoding="utf-8"?>
<svg version="1.1" xmlns:xlink="http://www.w3.org/1999/xlink" width="13px" height="13px" viewBox="511 633  13 13" xmlns="http://www.w3.org/2000/svg">
  <path d="M 517.5 633  C 521.14 633  524 635.86  524 639.5  C 524 643.14  521.14 646  517.5 646  C 513.86 646  511 643.14  511 639.5  C 511 635.86  513.86 633  517.5 633  Z " fill-rule="nonzero" fill="#ffffff" stroke="none" />
  <path d="M 517.5 633.5  C 520.86 633.5  523.5 636.14  523.5 639.5  C 523.5 642.86  520.86 645.5  517.5 645.5  C 514.14 645.5  511.5 642.86  511.5 639.5  C 511.5 636.14  514.14 633.5  517.5 633.5  Z " stroke-width="1" stroke="#797979" fill="none" />
  <path d="M 517.5 642.75  C 515.68 642.75  514.25 641.32  514.25 639.5  C 514.25 637.68  515.68 636.25  517.5 636.25  C 519.32 636.25  520.75 637.68  520.75 639.5  C 520.75 641.32  519.32 642.75  517.5 642.75  " fill-rule="nonzero" fill="#797979" stroke="none" />
</svg>