<?xml version="1.0" encoding="utf-8"?>
<svg version="1.1" xmlns:xlink="http://www.w3.org/1999/xlink" width="13px" height="13px" viewBox="69 306  13 13" xmlns="http://www.w3.org/2000/svg">
  <path d="M 69.5 308  A 1.5 1.5 0 0 1 71 306.5 L 80 306.5  A 1.5 1.5 0 0 1 81.5 308 L 81.5 317  A 1.5 1.5 0 0 1 80 318.5 L 71 318.5  A 1.5 1.5 0 0 1 69.5 317 L 69.5 308  Z " fill-rule="nonzero" fill="#ffffff" stroke="none" />
  <path d="M 69.5 308  A 1.5 1.5 0 0 1 71 306.5 L 80 306.5  A 1.5 1.5 0 0 1 81.5 308 L 81.5 317  A 1.5 1.5 0 0 1 80 318.5 L 71 318.5  A 1.5 1.5 0 0 1 69.5 317 L 69.5 308  Z " stroke-width="1" stroke="#797979" fill="none" />
</svg>