<?xml version="1.0" encoding="utf-8"?>
<svg version="1.1" xmlns:xlink="http://www.w3.org/1999/xlink" width="15px" height="15px" xmlns="http://www.w3.org/2000/svg">
  <g transform="matrix(1 0 0 1 -12 -4 )">
    <path d="M 19.5 4  C 23.700000000000003 4  27 7.3  27 11.5  C 27 15.700000000000001  23.700000000000003 19  19.5 19  C 15.3 19  12 15.700000000000001  12 11.5  C 12 7.3  15.3 4  19.5 4  Z " fill-rule="nonzero" fill="#58ceb7" stroke="none" />
    <path d="M 19.5 4.5  C 23.42 4.5  26.5 7.58  26.5 11.5  C 26.5 15.42  23.42 18.5  19.5 18.5  C 15.58 18.5  12.5 15.42  12.5 11.5  C 12.5 7.58  15.58 4.5  19.5 4.5  Z " stroke-width="1" stroke="#7f7f7f" fill="none" />
  </g>
</svg>