<?xml version="1.0" encoding="utf-8"?>
<svg version="1.1" xmlns:xlink="http://www.w3.org/1999/xlink" width="13px" height="13px" viewBox="69 352  13 13" xmlns="http://www.w3.org/2000/svg">
  <path d="M 69.5 354  A 1.5 1.5 0 0 1 71 352.5 L 80 352.5  A 1.5 1.5 0 0 1 81.5 354 L 81.5 363  A 1.5 1.5 0 0 1 80 364.5 L 71 364.5  A 1.5 1.5 0 0 1 69.5 363 L 69.5 354  Z " fill-rule="nonzero" fill="#ffffff" stroke="none" />
  <path d="M 69.5 354  A 1.5 1.5 0 0 1 71 352.5 L 80 352.5  A 1.5 1.5 0 0 1 81.5 354 L 81.5 363  A 1.5 1.5 0 0 1 80 364.5 L 71 364.5  A 1.5 1.5 0 0 1 69.5 363 L 69.5 354  Z " stroke-width="1" stroke="#797979" fill="none" />
  <path d="M 71.78571428571429 358.5  L 74.57142857142857 361.2857142857143  L 79.21428571428571 354.7857142857143  " stroke-width="2.7857142857142856" stroke="#797979" fill="none" />
</svg>