<?xml version="1.0" encoding="utf-8"?>
<svg version="1.1" xmlns:xlink="http://www.w3.org/1999/xlink" width="13px" height="13px" viewBox="69 329  13 13" xmlns="http://www.w3.org/2000/svg">
  <path d="M 69.5 331  A 1.5 1.5 0 0 1 71 329.5 L 80 329.5  A 1.5 1.5 0 0 1 81.5 331 L 81.5 340  A 1.5 1.5 0 0 1 80 341.5 L 71 341.5  A 1.5 1.5 0 0 1 69.5 340 L 69.5 331  Z " fill-rule="nonzero" fill="#f0f0f0" stroke="none" />
  <path d="M 69.5 331  A 1.5 1.5 0 0 1 71 329.5 L 80 329.5  A 1.5 1.5 0 0 1 81.5 331 L 81.5 340  A 1.5 1.5 0 0 1 80 341.5 L 71 341.5  A 1.5 1.5 0 0 1 69.5 340 L 69.5 331  Z " stroke-width="1" stroke="#797979" fill="none" />
</svg>