<?xml version="1.0" encoding="utf-8"?>
<svg version="1.1" xmlns:xlink="http://www.w3.org/1999/xlink" width="13px" height="13px" viewBox="277 423  13 13" xmlns="http://www.w3.org/2000/svg">
  <path d="M 283.5 423  C 287.14 423  290 425.86  290 429.5  C 290 433.14  287.14 436  283.5 436  C 279.86 436  277 433.14  277 429.5  C 277 425.86  279.86 423  283.5 423  Z " fill-rule="nonzero" fill="#f0f0f0" stroke="none" />
  <path d="M 283.5 423.5  C 286.86 423.5  289.5 426.14  289.5 429.5  C 289.5 432.86  286.86 435.5  283.5 435.5  C 280.14 435.5  277.5 432.86  277.5 429.5  C 277.5 426.14  280.14 423.5  283.5 423.5  Z " stroke-width="1" stroke="#797979" fill="none" />
  <path d="M 283.5 432.75  C 281.68 432.75  280.25 431.32  280.25 429.5  C 280.25 427.68  281.68 426.25  283.5 426.25  C 285.32 426.25  286.75 427.68  286.75 429.5  C 286.75 431.32  285.32 432.75  283.5 432.75  " fill-rule="nonzero" fill="#797979" stroke="none" />
</svg>