<?xml version="1.0" encoding="utf-8"?>
<svg version="1.1" xmlns:xlink="http://www.w3.org/1999/xlink" width="13px" height="13px" viewBox="277 483  13 13" xmlns="http://www.w3.org/2000/svg">
  <path d="M 283.5 483  C 287.14 483  290 485.86  290 489.5  C 290 493.14  287.14 496  283.5 496  C 279.86 496  277 493.14  277 489.5  C 277 485.86  279.86 483  283.5 483  Z " fill-rule="nonzero" fill="#f0f0f0" stroke="none" />
  <path d="M 283.5 483.5  C 286.86 483.5  289.5 486.14  289.5 489.5  C 289.5 492.86  286.86 495.5  283.5 495.5  C 280.14 495.5  277.5 492.86  277.5 489.5  C 277.5 486.14  280.14 483.5  283.5 483.5  Z " stroke-width="1" stroke="#797979" fill="none" />
  <path d="M 283.5 492.75  C 281.68 492.75  280.25 491.32  280.25 489.5  C 280.25 487.68  281.68 486.25  283.5 486.25  C 285.32 486.25  286.75 487.68  286.75 489.5  C 286.75 491.32  285.32 492.75  283.5 492.75  " fill-rule="nonzero" fill="#797979" stroke="none" />
</svg>