<?xml version="1.0" encoding="utf-8"?>
<svg version="1.1" xmlns:xlink="http://www.w3.org/1999/xlink" width="13px" height="13px" viewBox="147 423  13 13" xmlns="http://www.w3.org/2000/svg">
  <path d="M 153.5 423  C 157.14 423  160 425.86  160 429.5  C 160 433.14  157.14 436  153.5 436  C 149.86 436  147 433.14  147 429.5  C 147 425.86  149.86 423  153.5 423  Z " fill-rule="nonzero" fill="#f0f0f0" stroke="none" />
  <path d="M 153.5 423.5  C 156.86 423.5  159.5 426.14  159.5 429.5  C 159.5 432.86  156.86 435.5  153.5 435.5  C 150.14 435.5  147.5 432.86  147.5 429.5  C 147.5 426.14  150.14 423.5  153.5 423.5  Z " stroke-width="1" stroke="#797979" fill="none" />
  <path d="M 153.5 432.75  C 151.68 432.75  150.25 431.32  150.25 429.5  C 150.25 427.68  151.68 426.25  153.5 426.25  C 155.32 426.25  156.75 427.68  156.75 429.5  C 156.75 431.32  155.32 432.75  153.5 432.75  " fill-rule="nonzero" fill="#797979" stroke="none" />
</svg>