<?xml version="1.0" encoding="utf-8"?>
<svg version="1.1" xmlns:xlink="http://www.w3.org/1999/xlink" width="12px" height="16px" xmlns="http://www.w3.org/2000/svg">
  <g transform="matrix(1 0 0 1 -275 -307 )">
    <path d="M 11.604166666666666 7.296875  C 11.868055555555557 7.494791666666666  12 7.729166666666666  12 8  C 12 8.270833333333332  11.868055555555557 8.505208333333332  11.604166666666666 8.703125  L 2.270833333333333 15.703125  C 2.0069444444444446 15.901041666666668  1.6944444444444446 16  1.3333333333333333 16  C 0.9722222222222223 16  0.6597222222222222 15.901041666666668  0.39583333333333337 15.703125  C 0.13194444444444445 15.505208333333332  0 15.270833333333332  0 15  L 0 1  C 0 0.7291666666666643  0.13194444444444445 0.4947916666666643  0.39583333333333337 0.296875  C 0.6597222222222222 0.09895833333333215  0.9722222222222223 0  1.3333333333333333 0  C 1.6944444444444446 0  2.0069444444444446 0.09895833333333215  2.270833333333333 0.296875  L 11.604166666666666 7.296875  Z " fill-rule="nonzero" fill="#000000" stroke="none" transform="matrix(1 0 0 1 275 307 )" />
  </g>
</svg>