<?xml version="1.0" encoding="utf-8"?>
<svg version="1.1" xmlns:xlink="http://www.w3.org/1999/xlink" width="15px" height="14px" xmlns="http://www.w3.org/2000/svg">
  <g transform="matrix(1 0 0 1 -12 -38 )">
    <path d="M 13.437091591068514 9.525519649598376  C 13.436181882202435 7.526969854063732  12.897051192777793 5.672431579504587  11.979948874602004 4.139141993165738  C 11.966611302112582 4.112955299925967  11.957508010890942 4.086408660224537  11.942410978753713 4.061932300825846  C 11.828529901356633 3.8744590090381807  11.703999027665693 3.699706178156683  11.580169043305586 3.524640452638569  C 11.565942437151598 3.503271866285484  11.552625539863685 3.4808681397809025  11.537466482121935 3.459835973976987  C 10.698146339519274 2.2866739989093943  9.644467775256967 1.3806064140040066  8.450210245897171 0.7881957053446781  C 8.41716093629515 0.7716452258781509  8.384789773302288 0.7533844125706082  8.351488226241951 0.7368339331040809  C 8.160945569193121 0.6465414808049922  7.9655752525934425 0.5665863144725888  7.769359320252268 0.49111048188633066  C 7.698476459420456 0.4642250690443608  7.629119428459471 0.4345941822098787  7.556735547998573 0.4101178228112513  C 7.3856069051607784 0.350493750089257  7.212044791106139 0.3019033303449688  7.03695684718056 0.2553596649909928  C 6.940351968159176 0.22950939230045614  6.843747089137904 0.20125241875788333  6.745891360425576 0.17920863871508902  C 6.697451430824997 0.1685114062866162  6.651719952621146 0.15198680532394943  6.603873401303637 0.14198829249767655  C 6.473330179015661 0.1161380198071399  6.342172903242997 0.10476794628026413  6.211334025573518 0.08513557227205495  C 6.120466514969172 0.07202928640023971  6.032011800380161 0.055841105986742634  5.940550911492746 0.04514622614957613  C 5.720663940951075 0.021705006902318337  5.502557105258947 0.01173237257990602  5.2845122951712264 0.007250686242454418  C 5.244520252904474 0.007250686242454418  5.206072648190108 0  5.166396936506478 0  C 5.159135805738675 0  5.152486660935386 0.0024325793558331115  5.145204854966187 0.0031077730455423857  C 3.4660146094009874 0.004484038928694312  1.829254012359729 0.58865597301918  0.423894405576832 1.722861389524421  C -0.02557413749104314 2.084725213140554  -0.134925278238728 2.797442733307731  0.1794701058917755 3.3151022074867984  C 0.4932514365377044 3.832759329074623  1.1132345689586876 3.958199494697015  1.5617934031603717 3.595274652425652  C 2.6473159127772306 2.719560199869437  3.91366166721642 2.2763414181251944  5.212422002571547 2.2897841245461796  C 5.399301013914099 2.2911580378380885  5.5831552432768 2.3018293917627646  5.764890264485494 2.3214876442747707  C 5.82090972295706 2.328738330517225  5.8763585458671255 2.3383745442904678  5.932059606235507 2.3463004242226315  C 6.081402789249943 2.3673325900265465  6.229497190093611 2.391783070921377  6.3754517075817665 2.4248840298543684  C 6.439983146511965 2.4393618764267866  6.503602809055912 2.458297883424102  6.566544324990478 2.47487188880312  C 6.709831741484805 2.512068709107978  6.85280282739601 2.552058055230457  6.992724321085736 2.6006720008872994  C 7.036929969418647 2.6168601813007966  7.0805215642668715 2.6351209946084024  7.124749955321463 2.6516714740748664  C 7.284383186123675 2.7119707404865063  7.441558135467304 2.776772866556846  7.596068051337278 2.8508771384424376  C 7.611777069439022 2.858440719321571  7.6278665112484685 2.8677640384581347  7.64300489378871 2.8749911987880985  C 8.567984463737053 3.333360668203162  9.379419962073058 4.038853380631618  10.012445011601844 4.921818519430351  C 10.016404312689627 4.926973046866142  10.020299520652715 4.933887312559427  10.023963166358994 4.939044192586524  C 10.915025068242254 6.188717140391745  11.451445238749768 7.786112485789976  11.45203861703295 9.525519649598376  L 9.993858005450972 9.525519649598376  C 9.956214666074978 9.525519649598376  9.919778758466848 9.548478587638654  9.900683142358883 9.588830232814162  C 9.881587526251032 9.629181877989607  9.884763237201838 9.676424262945783  9.905488059188164 9.712221291455  L 12.35616311122563 13.945796297525558  C 12.375091258201254 13.978462027076677  12.407629890326234 14  12.444595083092848 14  C 12.481539600658069 13.999976474087509  12.514080300303108 13.978438501164122  12.532985704557165 13.945772771613004  L 14.982517417951572 9.712197765542445  C 15.003244307457956 9.676398384441987  15.006420018408763 9.629181877989607  14.98730165957923 9.588806706901607  C 14.96820604347138 9.548455061726163  14.931768068343077 9.525496123685821  14.894126796487255 9.525496123685821  L 13.437090681359678 9.525496123685821  Z " fill-rule="nonzero" fill="#999999" stroke="none" transform="matrix(1 0 0 1 12 38 )" />
  </g>
</svg>