<?xml version="1.0" encoding="utf-8"?>
<svg version="1.1" xmlns:xlink="http://www.w3.org/1999/xlink" width="13px" height="13px" viewBox="21 198  13 13" xmlns="http://www.w3.org/2000/svg">
  <path d="M 21.5 200  A 1.5 1.5 0 0 1 23 198.5 L 32 198.5  A 1.5 1.5 0 0 1 33.5 200 L 33.5 209  A 1.5 1.5 0 0 1 32 210.5 L 23 210.5  A 1.5 1.5 0 0 1 21.5 209 L 21.5 200  Z " fill-rule="nonzero" fill="#ffffff" stroke="none" />
  <path d="M 21.5 200  A 1.5 1.5 0 0 1 23 198.5 L 32 198.5  A 1.5 1.5 0 0 1 33.5 200 L 33.5 209  A 1.5 1.5 0 0 1 32 210.5 L 23 210.5  A 1.5 1.5 0 0 1 21.5 209 L 21.5 200  Z " stroke-width="1" stroke="#797979" fill="none" />
</svg>