<?xml version="1.0" encoding="utf-8"?>
<svg version="1.1" xmlns:xlink="http://www.w3.org/1999/xlink" width="19px" height="20px" xmlns="http://www.w3.org/2000/svg">
  <g transform="matrix(1 0 0 1 -9 -4 )">
    <path d="M 19 2.785570065239865  C 19 1.2547431622141199  17.841500572512572 0  16.38529093966864 0  L 2.652534944365448 0  C 1.1963253327898655 0  0 1.2547431622141199  0 2.785570065239865  L 0 14.171216776467741  C 0 15.702043679493494  1.1963470690412372 16.930658745113053  2.652534944365448 16.930658745113053  L 6.333072179291643 16.930658745113053  L 9.054250864809072 19.79310305276783  C 9.183137456104483 19.928250716022674  9.35185224003028 20  9.520567023956097 20  C 9.689760600925831 20  9.858997714203356 19.934130664607423  9.987971378114333 19.79827375598868  C 10.24550516418318 19.5268802416666  10.245026371139256 19.08849117036809  9.986883183103123 18.81773826187687  L 7.072418093779511 15.74935796045251  C 6.948646050939314 15.619541174234378  6.780954168197197 15.535025272483578  6.606101934632485 15.535025272483578  L 2.652534944365448 15.535025250125416  C 1.9244410067033428 15.535025250125416  1.3276059743782749 14.936618780605723  1.3276059743782749 14.171216776467741  L 1.3276059531099282 2.785570065239865  C 1.3276059531099282 2.02016803874373  1.9244410067033428 1.3727542617632091  2.6525349230971016 1.3727542617632091  L 16.385290918400294 1.3727542617632091  C 17.1133848560624 1.3727542617632091  17.67239400435337 2.0201451663521026  17.67239400435337 2.785570065239865  L 17.67239400435337 14.171216776467741  C 17.67239400435337 14.936618802963885  17.113384834794054 15.535025250125416  16.385290918400294 15.535025250125416  L 10.971422669286172 15.535025250125416  C 10.6067880772759 15.535025250125416  10.311188989382652 15.849523250931949  10.311188989382652 16.23284199761924  C 10.311188989382652 16.616160744306534  10.6067880772759 16.93065874511305  10.971422669286172 16.93065874511305  L 16.38529093966864 16.93065874511305  C 17.841500551244224 16.93065874511305  18.999999978731644 15.702043679493494  19 14.171216776467741  L 19 2.785570065239865  Z " fill-rule="nonzero" fill="#ffffff" stroke="none" transform="matrix(1 0 0 1 9 4 )" />
  </g>
</svg>