<?xml version="1.0" encoding="utf-8"?>
<svg version="1.1" xmlns:xlink="http://www.w3.org/1999/xlink" width="45px" height="62px" xmlns="http://www.w3.org/2000/svg">
  <g transform="matrix(1 0 0 1 -11 -5 )">
    <path d="M 11.5 10  A 4.5 4.5 0 0 1 16 5.5 L 51 5.5  A 4.5 4.5 0 0 1 55.5 10 L 55.5 62  A 4.5 4.5 0 0 1 51 66.5 L 16 66.5  A 4.5 4.5 0 0 1 11.5 62 L 11.5 10  Z " fill-rule="nonzero" fill="#ffffff" stroke="none" />
    <path d="M 11.5 10  A 4.5 4.5 0 0 1 16 5.5 L 51 5.5  A 4.5 4.5 0 0 1 55.5 10 L 55.5 62  A 4.5 4.5 0 0 1 51 66.5 L 16 66.5  A 4.5 4.5 0 0 1 11.5 62 L 11.5 10  Z " stroke-width="1" stroke="#adadad" fill="none" />
  </g>
</svg>