<?xml version="1.0" encoding="utf-8"?>
<svg version="1.1" xmlns:xlink="http://www.w3.org/1999/xlink" width="9px" height="7px" xmlns="http://www.w3.org/2000/svg">
  <g transform="matrix(1 0 0 1 -636 -68 )">
    <path d="M 8.062254954641109 4.762759824799188  C 8.06170912932146 3.763484927031866  7.738230715666676 2.8362157897522935  7.187969324761202 2.069570996582869  C 7.17996678126755 2.0564776499629835  7.174504806534566 2.0432043301122684  7.165446587252228 2.030966150412923  C 7.09711794081398 1.9372295045190904  7.022399416599416 1.8498530890783416  6.948101425983352 1.7623202263192845  C 6.939565462290958 1.751635933142742  6.931575323918211 1.7404340698904512  6.922479889273161 1.7299179869884935  C 6.418887803711565 1.1433369994546971  5.786680665154179 0.6903032070020033  5.070126147538303 0.39409785267233904  C 5.050296561777091 0.38582261293907544  5.030873863981372 0.3766922062853041  5.01089293574517 0.3684169665520404  C 4.896567341515873 0.3232707404024961  4.779345151556065 0.2832931572362944  4.66161559215136 0.24555524094316533  C 4.6190858756522735 0.2321125345221804  4.577471657075683 0.21729709110493936  4.534041328799144 0.20505891140562565  C 4.4313641430964665 0.1752468750446285  4.327226874663683 0.1509516651724844  4.222174108308336 0.1276798324954964  C 4.164211180895506 0.11475469615022807  4.106248253482742 0.10062620937894166  4.047534816255346 0.08960431935754451  C 4.018470858494998 0.0842557031433081  3.991031971572688 0.07599340266197471  3.9623240407821823 0.07099414624883828  C 3.8839981074093965 0.05806900990356995  3.8053037419457985 0.052383973140132066  3.726800415344111 0.04256778613602748  C 3.672279908981503 0.03601464320011986  3.6192070802280965 0.027920552993371317  3.5643305468956474 0.022573113074788063  C 3.4323983645706453 0.010852503451159169  3.301534263155368 0.00586618628995301  3.170707377102736 0.003625343121227209  C 3.146712151742684 0.003625343121227209  3.1236435889140646 0  3.0998381619038873 0  C 3.095481483443205 0  3.0914919965612313 0.0012162896779165557  3.0871229129797126 0.0015538865227711929  C 2.0796087656405926 0.002242019464347156  1.0975524074158374 0.29432798650959  0.2543366433460992 0.8614306947622105  C -0.015344482494625885 1.042362606570277  -0.08095516694323679 1.3987213666538656  0.1076820635350653 1.6575511037433992  C 0.29595086192262265 1.9163796645373115  0.6679407413752125 1.9790997473485075  0.9370760418962231 1.797637326212826  C 1.5883895476663383 1.3597800999347185  2.348197000329852 1.1381707090625972  3.127453201542928 1.1448920622730898  C 3.2395806083484593 1.1455790189190442  3.34989314596608 1.1509146958813823  3.4589341586912967 1.1607438221373854  C 3.4925458337742357 1.1643691652586126  3.525815127520275 1.1691872721452339  3.559235763741304 1.1731502121113158  C 3.648841673549966 1.1836662950132733  3.737698314056167 1.1958915354606885  3.8252710245490595 1.2124420149271842  C 3.863989887907179 1.2196809382133933  3.902161685433547 1.229148941712051  3.9399265949942865 1.23743594440156  C 4.025899044890883 1.256034354553989  4.111681696437606 1.2760290276152284  4.195634592651442 1.3003360004436497  C 4.222157981651188 1.3084300906503983  4.248312938560123 1.3175604973042012  4.274849973192878 1.3258357370374332  C 4.370629911674206 1.3559853702432532  4.4649348812803815 1.388386433278423  4.557640830802367 1.4254385692212188  C 4.5670662416634125 1.4292203596607855  4.576719906749081 1.4338820192290673  4.585802936273226 1.4374955993940493  C 5.140790678242231 1.666680334101581  5.627651977243835 2.019426690315809  6.007467006961107 2.4609092597151756  C 6.009842587613776 2.463486523433071  6.01217971239163 2.4669436562797133  6.014377899815397 2.469522096293262  C 6.549015040945353 3.0943585701958725  6.870867143249861 3.893056242894988  6.8712231702197695 4.762759824799188  L 5.996314803270584 4.762759824799188  C 5.973728799644986 4.762759824799188  5.951867255080109 4.774239293819327  5.94040988541533 4.794415116407081  C 5.928952515750619 4.814590938994804  5.930857942321103 4.838212131472892  5.943292835512898 4.8561106457275  L 7.413697866735379 6.972898148762779  C 7.425054754920752 6.989231013538339  7.44457793419574 7  7.466757049855708 7  C 7.488923760394841 6.9999882370437545  7.508448180181865 6.989219250582061  7.519791422734299 6.972886385806502  L 8.989510450770943 4.856098882771223  C 9.001946584474775 4.838199192220993  9.003852011045257 4.814590938994804  8.992380995747538 4.794403353450804  C 8.980923626082827 4.774227530863081  8.959060841005847 4.7627480618429106  8.936476077892353 4.7627480618429106  L 8.062254408815805 4.7627480618429106  Z " fill-rule="nonzero" fill="#1abc9c" stroke="none" transform="matrix(1 0 0 1 636 68 )" />
  </g>
</svg>