<?xml version="1.0" encoding="utf-8"?>
<svg version="1.1" xmlns:xlink="http://www.w3.org/1999/xlink" width="14px" height="14px" xmlns="http://www.w3.org/2000/svg">
  <g transform="matrix(1 0 0 1 -757 -67 )">
    <path d="M 6.220374999999998 11.904375  C 6.221250000000001 11.9035  7.851375000000001 12.047875  9.28725 10.998750000000001  L 11.563125 13.274624999999999  C 11.563125 13.274624999999999  12.515125000000001 13.919499999999998  13.176625000000001 13.128499999999999  C 13.176625000000001 13.128499999999999  13.919499999999998 12.467875  13.273749999999998 11.596375  L 10.997874999999999 9.256625  C 10.997874999999999 9.256625  13.175749999999999 6.464500000000001  10.788749999999999 2.7527500000000007  L 9.174374999999998 3.398500000000001  C 9.174374999999998 3.398500000000001  10.352999999999998 4.608625000000001  10.254999999999997 6.271125  C 10.254999999999997 6.271125  10.335499999999998 9.91725  6.204624999999997 10.30575  C 6.204624999999997 10.30575  2.267124999999998 10.241  2.1209999999999978 6.110125000000001  C 2.1209999999999978 6.110125000000001  2.185749999999998 2.3187500000000005  6.154749999999997 2.1402500000000004  L 6.381374999999998 0.49437500000000056  C 6.381374999999998 0.49437500000000056  0.8618749999999987 0.23625000000000054  0.4917499999999987 6.239625  C 0.4917499999999987 6.239625  0.4112499999999987 11.452  6.220374999999998 11.904375  Z " fill-rule="nonzero" fill="#1abc9c" stroke="none" transform="matrix(1 0 0 1 757 67 )" />
  </g>
</svg>