<?xml version="1.0" encoding="utf-8"?>
<svg version="1.1" xmlns:xlink="http://www.w3.org/1999/xlink" width="13px" height="13px" viewBox="632 177  13 13" xmlns="http://www.w3.org/2000/svg">
  <path d="M 638.5 177  C 642.14 177  645 179.86  645 183.5  C 645 187.14  642.14 190  638.5 190  C 634.86 190  632 187.14  632 183.5  C 632 179.86  634.86 177  638.5 177  Z " fill-rule="nonzero" fill="#ffffff" stroke="none" />
  <path d="M 638.5 177.5  C 641.86 177.5  644.5 180.14  644.5 183.5  C 644.5 186.86  641.86 189.5  638.5 189.5  C 635.14 189.5  632.5 186.86  632.5 183.5  C 632.5 180.14  635.14 177.5  638.5 177.5  Z " stroke-width="1" stroke="#797979" fill="none" />
  <path d="M 638.5 186.75  C 636.68 186.75  635.25 185.32  635.25 183.5  C 635.25 181.68  636.68 180.25  638.5 180.25  C 640.32 180.25  641.75 181.68  641.75 183.5  C 641.75 185.32  640.32 186.75  638.5 186.75  " fill-rule="nonzero" fill="#797979" stroke="none" />
</svg>