<?xml version="1.0" encoding="utf-8"?>
<svg version="1.1" xmlns:xlink="http://www.w3.org/1999/xlink" width="13px" height="13px" viewBox="28 176  13 13" xmlns="http://www.w3.org/2000/svg">
  <path d="M 28.5 178  A 1.5 1.5 0 0 1 30 176.5 L 39 176.5  A 1.5 1.5 0 0 1 40.5 178 L 40.5 187  A 1.5 1.5 0 0 1 39 188.5 L 30 188.5  A 1.5 1.5 0 0 1 28.5 187 L 28.5 178  Z " fill-rule="nonzero" fill="#f0f0f0" stroke="none" />
  <path d="M 28.5 178  A 1.5 1.5 0 0 1 30 176.5 L 39 176.5  A 1.5 1.5 0 0 1 40.5 178 L 40.5 187  A 1.5 1.5 0 0 1 39 188.5 L 30 188.5  A 1.5 1.5 0 0 1 28.5 187 L 28.5 178  Z " stroke-width="1" stroke="#797979" fill="none" />
</svg>