<?xml version="1.0" encoding="utf-8"?>
<svg version="1.1" xmlns:xlink="http://www.w3.org/1999/xlink" width="13px" height="13px" viewBox="21 174  13 13" xmlns="http://www.w3.org/2000/svg">
  <path d="M 21.5 176  A 1.5 1.5 0 0 1 23 174.5 L 32 174.5  A 1.5 1.5 0 0 1 33.5 176 L 33.5 185  A 1.5 1.5 0 0 1 32 186.5 L 23 186.5  A 1.5 1.5 0 0 1 21.5 185 L 21.5 176  Z " fill-rule="nonzero" fill="#ffffff" stroke="none" />
  <path d="M 21.5 176  A 1.5 1.5 0 0 1 23 174.5 L 32 174.5  A 1.5 1.5 0 0 1 33.5 176 L 33.5 185  A 1.5 1.5 0 0 1 32 186.5 L 23 186.5  A 1.5 1.5 0 0 1 21.5 185 L 21.5 176  Z " stroke-width="1" stroke="#797979" fill="none" />
  <path d="M 23.785714285714285 180.5  L 26.571428571428573 183.2857142857143  L 31.214285714285715 176.78571428571428  " stroke-width="2.7857142857142856" stroke="#797979" fill="none" />
</svg>