<?xml version="1.0" encoding="utf-8"?>
<svg version="1.1" xmlns:xlink="http://www.w3.org/1999/xlink" width="13px" height="11px" xmlns="http://www.w3.org/2000/svg">
  <g transform="matrix(1 0 0 1 -355 -407 )">
    <path d="M 11.373596744791667 7.342533052884614  C 11.372851953125 5.938595252403845  10.931457942708334 4.635822415865385  10.180613151041667 3.5587198016826926  C 10.169693489583334 3.540324218750001  10.162240494791664 3.52167578125  10.149880338541665 3.504481670673077  C 10.056644270833331 3.3727857572115387  9.954689062499998 3.25002569110577  9.853307682291668 3.1270458233173075  C 9.841660156250002 3.11203485576923  9.830757421875001 3.0962967247596147  9.818346484375 3.0815220853365375  C 9.131183072916668 2.257401292067308  8.268521354166667 1.6209085036057693  7.290765625000003 1.2047528545673072  C 7.26370768229167 1.1931265024038453  7.237204947916668 1.1802986778846152  7.2099404947916685 1.1686723257211535  C 7.053940494791668 1.1052438401442302  6.893988020833334 1.0490770733173074  6.733343229166669 0.9960569411057688  C 6.675310416666669 0.9771705228365382  6.618526822916668 0.9563554687499995  6.55926510416667 0.9391613581730766  C 6.419159635416668 0.897276742788461  6.277061848958336 0.8631430288461533  6.133714843750001 0.830447115384615  C 6.054623046875002 0.8122878605769228  5.975531250000001 0.7924379507211536  5.895415364583337 0.7769526742788456  C 5.855756901041669 0.7694381009615379  5.818315885416669 0.7578299278846148  5.779143229166668 0.7508061899038457  C 5.672265625000003 0.7326469350961534  5.564885286458336 0.7246597055288458  5.457765625000001 0.7108683894230763  C 5.383371093750003 0.7016615084134609  5.310951953125001 0.6902896634615381  5.236071614583335 0.682776742788461  C 5.0560470052083355 0.6663097956730765  4.877479817708337 0.6593042367788456  4.698963411458336 0.6561559495192304  C 4.6662213541666695 0.6561559495192304  4.634743750000004 0.6510624999999995  4.602260677083336 0.6510624999999995  C 4.596315885416671 0.6510624999999995  4.590872135416669 0.6527713341346149  4.584910416666669 0.6532456430288456  C 3.2101333333333324 0.6542124399038461  1.8700940104166663 1.0645805288461536  0.7195059895833332 1.8613351862980771  C 0.3515196614583324 2.1155366586538458  0.26199231770833264 2.6162052283653843  0.5193923177083332 2.9798497596153846  C 0.7762895833333329 3.3434926382211536  1.2838786458333336 3.4316116286057685  1.651120182291666 3.176664813701923  C 2.539852994791666 2.561494441105769  3.576628385416666 2.2501428786057684  4.639942057291665 2.259586087740384  C 4.792942578124999 2.2605512319711534  4.943466666666664 2.268047626201923  5.092255729166666 2.2818571213942307  C 5.138119661458334 2.286950570913461  5.183516406249999 2.293719801682692  5.229119661458332 2.2992875600961535  C 5.3513890625 2.3140621995192303  5.472636067708334 2.3312381310096146  5.592131119791666 2.3544908353365384  C 5.6449639322916685 2.3646612079326923  5.697050260416666 2.3779633413461534  5.748581380208335 2.3896062199519226  C 5.865892838541667 2.415736177884615  5.982945312500001 2.4438278245192304  6.097501041666667 2.4779780649038456  C 6.133692838541668 2.4893499098557683  6.1693819010416675 2.5021777343749996  6.205592317708335 2.513804086538461  C 6.336286328125002 2.556163010817307  6.464967708333335 2.601685096153845  6.591467187500001 2.6537417367788456  C 6.604328385416671 2.659054987980768  6.617501041666669 2.665604417067308  6.629895052083336 2.67068134014423  C 7.387189062500003 2.9926759314903837  8.05152291666667 3.4882692307692302  8.569789583333336 4.108533052884615  C 8.573031119791668 4.11215399639423  8.576220182291669 4.1170111177884605  8.579219661458335 4.120633713942307  C 9.308744791666669 4.998501802884613  9.747919661458335 6.120637319711538  9.748405468750002 7.342533052884613  L 8.554572135416668 7.342533052884613  C 8.523752994791668 7.342533052884613  8.493922395833335 7.358661207932692  8.478288541666668 7.387007361778845  C 8.462654687499999 7.4153535156249974  8.465254687500002 7.448540264423076  8.482222395833334 7.4736868990384595  L 10.488625130208334 10.447681340144229  C 10.504121875000001 10.470628305288459  10.53076171875 10.48575826322115  10.561025651041668 10.48575826322115  C 10.59127265625 10.485741736778843  10.617914192708335 10.47061177884615  10.633392317708335 10.44766481370192  L 12.638858984375002 7.473670372596151  C 12.655828385416667 7.448522085336536  12.658428385416668 7.415353515624997  12.642775911458335 7.386990835336536  C 12.627142057291667 7.358644681490382  12.597309765625 7.342516526442306  12.566492317708335 7.342516526442306  L 11.373596000000001 7.342516526442306  Z " fill-rule="nonzero" fill="#999999" stroke="none" transform="matrix(1 0 0 1 355 407 )" />
  </g>
</svg>