<?xml version="1.0" encoding="utf-8"?>
<svg version="1.1" xmlns:xlink="http://www.w3.org/1999/xlink" width="15px" height="17px" xmlns="http://www.w3.org/2000/svg">
  <g transform="matrix(1 0 0 1 -267 -372 )">
    <path d="M 12.656615778331528 4.511414587813912  L 12.679705447533044 14.978663578125524  C 12.679705447533044 15.527564854184341  12.43717792865596 15.821343908956674  11.847663091914923 15.821343908956674  L 3.295502360332538 15.799829355322718  C 2.706383432730596 15.799829355322718  2.4472255275369794 15.549148906370299  2.4472255275369794 15.00034012567652  L 2.4472255275369794 4.511414587813912  L 1.1220605853137045 4.511414587813912  L 1.1220605853137045 15.0043191577195  C 1.1220605853137045 16.10499032702503  2.0801676923924526 17  3.2578116264316366 17  L 11.797103587317812 17  C 12.974648429160489 17  13.933250537574839 16.10499032702503  14 15.0043191577195  L 14 4.511414587813912  L 12.656615778331528 4.511414587813912  Z M 4.233885542994783 6.7572205304769035  L 4.233885542994783 14.187595265770277  C 4.233885542994783 14.235945331224208  4.241235602290742 14.282652987627063  4.254574610849493 14.327301601228022  C 4.645711983803018 14.326931488034976  5.036824574131306 14.326121781916026  5.427961927932845 14.324849467238998  C 5.440830736933124 14.281033556570115  5.447982822507549 14.23502000119419  5.447982822507549 14.187502657491287  L 5.447982822507549 6.760389894038889  C 5.043308467273833 6.758839905076897  4.6385598982284995 6.7578682803169094  4.233885542994783 6.7572205304769035  Z M 9.594088269107019 6.784056004658876  L 9.594088269107019 14.187595265770277  C 9.594088269107019 14.226275321897212  9.598815085621416 14.263868166991138  9.607526274102435 14.300281098678074  C 10.00299447782341 14.298638557894044  10.398586441454112 14.297481867128084  10.79425261889662 14.296741640742091  C 10.802369867061238 14.261415920088115  10.806824457738603 14.224910398941194  10.806824457738603 14.187502657491287  L 10.806824457738603 6.787132835217827  C 10.402546011643983 6.78660074692684  9.998267661309011 6.785605974801868  9.594088269107019 6.784056004658876  Z M 15 2.5001183825544278  L 11.409851570742445 2.5001183825544278  L 11.409851570742445 1.2497006235382089  C 11.431604759320134 0.2428148425934381  10.544350334706193 0  9.658655032150739 0  L 5.397126309448359 0  C 4.297214898459291 0  3.669910273924916 0.3867779408361287  3.669910273924916 1.2150920948192918  L 3.6652577095261107 2.500025849551392  L 0 2.500025849551392  L 0 4  L 15 4  L 15 2.5001183825544278  Z M 10.196620457383112 2.5001183825544278  L 4.858665902032275 2.5001183825544278  L 4.858665902032275 1.6257212311003344  C 4.858665902032275 1.3486448820729917  5.067660211767875 1.1071024106135354  5.364731568905097 1.1071024106135354  L 9.635169453810128 1.1286864816184958  C 9.931745867067711 1.1286864816184958  10.192858803459004 1.3277779841840411  10.192858803459004 1.6049237376684347  L 10.196620457383112 2.5001183825544278  Z M 6.9567014266243525 6.784888820504857  L 6.9567014266243525 14.188312363610333  C 6.9567014266243525 14.22699253265122  6.961452987459728 14.264677873110088  6.970065198656164 14.300998309432035  C 7.362043974289966 14.299378878375087  7.754047494244937 14.298291573247035  8.146150010636767 14.297574475407071  C 8.154168262364717 14.262225626207162  8.158622853041988 14.22572010506024  8.158622853041988 14.188219868245298  L 8.158622853041988 6.787942522517824  C 7.75800712189058 6.787317901223801  7.357317157775665 6.7864156809208165  6.9567014266243525 6.784888820504857  Z " fill-rule="nonzero" fill="#1abc9c" stroke="none" transform="matrix(1 0 0 1 267 372 )" />
  </g>
</svg>