<?xml version="1.0" encoding="utf-8"?>
<svg version="1.1" xmlns:xlink="http://www.w3.org/1999/xlink" width="17px" height="17px" xmlns="http://www.w3.org/2000/svg">
  <g transform="matrix(1 0 0 1 -266 -406 )">
    <path d="M 17 2.2222222222222143  C 17 0.9949227781537957  16.005077221846204 0  14.777777777777736 0  L 2.2222222222222623 0  C 0.9949227781537957 0  0 0.9949227781537957  0 2.2222222222222143  L 0 14.777777777777786  C 0 16.005077221846204  0.9949227781537957 17  2.2222222222222623 17  L 14.777777777777736 17  C 16.005077221846204 17  17 16.005077221846204  17 14.777777777777786  L 17 2.2222222222222143  Z M 16 2.388888888888874  L 16 14.611111111111125  C 16.277777777777725 15.529999999999983  15.529999999999983 16.277777777777775  14.611111111111125 16  L 2.388888888888874 16  C 1.4700000000000157 16.277777777777775  0.7222222222222741 15.529999999999983  1 14.611111111111125  L 1 2.388888888888874  C 0.7222222222222741 1.4700000000000157  1.4700000000000157 0.7222222222222257  2.388888888888874 1  L 14.611111111111125 1  C 15.529999999999983 0.7222222222222257  16.277777777777725 1.4700000000000157  16 2.388888888888874  Z " fill-rule="nonzero" fill="#1abc9c" stroke="none" transform="matrix(1 0 0 1 266 406 )" />
  </g>
</svg>