<?xml version="1.0" encoding="utf-8"?>
<svg version="1.1" xmlns:xlink="http://www.w3.org/1999/xlink" width="13px" height="13px" viewBox="68 146.5  13 13" xmlns="http://www.w3.org/2000/svg">
  <path d="M 74.5 146.5  C 78.14 146.5  81 149.36  81 153  C 81 156.64  78.14 159.5  74.5 159.5  C 70.86 159.5  68 156.64  68 153  C 68 149.36  70.86 146.5  74.5 146.5  Z " fill-rule="nonzero" fill="#f0f0f0" stroke="none" />
  <path d="M 74.5 147  C 77.86 147  80.5 149.64  80.5 153  C 80.5 156.36  77.86 159  74.5 159  C 71.14 159  68.5 156.36  68.5 153  C 68.5 149.64  71.14 147  74.5 147  Z " stroke-width="1" stroke="#797979" fill="none" />
  <path d="M 74.5 156.25  C 72.68 156.25  71.25 154.82  71.25 153  C 71.25 151.18  72.68 149.75  74.5 149.75  C 76.32 149.75  77.75 151.18  77.75 153  C 77.75 154.82  76.32 156.25  74.5 156.25  " fill-rule="nonzero" fill="#797979" stroke="none" />
</svg>