<?xml version="1.0" encoding="utf-8"?>
<svg version="1.1" xmlns:xlink="http://www.w3.org/1999/xlink" width="13px" height="13px" viewBox="68 324  13 13" xmlns="http://www.w3.org/2000/svg">
  <path d="M 74.5 324  C 78.14 324  81 326.86  81 330.5  C 81 334.14  78.14 337  74.5 337  C 70.86 337  68 334.14  68 330.5  C 68 326.86  70.86 324  74.5 324  Z " fill-rule="nonzero" fill="#ffffff" stroke="none" />
  <path d="M 74.5 324.5  C 77.86 324.5  80.5 327.14  80.5 330.5  C 80.5 333.86  77.86 336.5  74.5 336.5  C 71.14 336.5  68.5 333.86  68.5 330.5  C 68.5 327.14  71.14 324.5  74.5 324.5  Z " stroke-width="1" stroke="#797979" fill="none" />
  <path d="M 74.5 333.75  C 72.68 333.75  71.25 332.32  71.25 330.5  C 71.25 328.68  72.68 327.25  74.5 327.25  C 76.32 327.25  77.75 328.68  77.75 330.5  C 77.75 332.32  76.32 333.75  74.5 333.75  " fill-rule="nonzero" fill="#797979" stroke="none" />
</svg>