<?xml version="1.0" encoding="utf-8"?>
<svg version="1.1" xmlns:xlink="http://www.w3.org/1999/xlink" width="13px" height="13px" viewBox="68 300  13 13" xmlns="http://www.w3.org/2000/svg">
  <path d="M 74.5 300  C 78.14 300  81 302.86  81 306.5  C 81 310.14  78.14 313  74.5 313  C 70.86 313  68 310.14  68 306.5  C 68 302.86  70.86 300  74.5 300  Z " fill-rule="nonzero" fill="#f0f0f0" stroke="none" />
  <path d="M 74.5 300.5  C 77.86 300.5  80.5 303.14  80.5 306.5  C 80.5 309.86  77.86 312.5  74.5 312.5  C 71.14 312.5  68.5 309.86  68.5 306.5  C 68.5 303.14  71.14 300.5  74.5 300.5  Z " stroke-width="1" stroke="#797979" fill="none" />
  <path d="M 74.5 309.75  C 72.68 309.75  71.25 308.32  71.25 306.5  C 71.25 304.68  72.68 303.25  74.5 303.25  C 76.32 303.25  77.75 304.68  77.75 306.5  C 77.75 308.32  76.32 309.75  74.5 309.75  " fill-rule="nonzero" fill="#797979" stroke="none" />
</svg>