<?xml version="1.0" encoding="utf-8"?>
<svg version="1.1" xmlns:xlink="http://www.w3.org/1999/xlink" width="13px" height="13px" viewBox="397 122.5  13 13" xmlns="http://www.w3.org/2000/svg">
  <path d="M 403.5 122.5  C 407.14 122.5  410 125.36  410 129  C 410 132.64  407.14 135.5  403.5 135.5  C 399.86 135.5  397 132.64  397 129  C 397 125.36  399.86 122.5  403.5 122.5  Z " fill-rule="nonzero" fill="#ffffff" stroke="none" />
  <path d="M 403.5 123  C 406.86 123  409.5 125.64  409.5 129  C 409.5 132.36  406.86 135  403.5 135  C 400.14 135  397.5 132.36  397.5 129  C 397.5 125.64  400.14 123  403.5 123  Z " stroke-width="1" stroke="#797979" fill="none" />
  <path d="M 403.5 132.25  C 401.68 132.25  400.25 130.82  400.25 129  C 400.25 127.18  401.68 125.75  403.5 125.75  C 405.32 125.75  406.75 127.18  406.75 129  C 406.75 130.82  405.32 132.25  403.5 132.25  " fill-rule="nonzero" fill="#797979" stroke="none" />
</svg>