<?xml version="1.0" encoding="utf-8"?>
<svg version="1.1" xmlns:xlink="http://www.w3.org/1999/xlink" width="13px" height="13px" viewBox="68 170.5  13 13" xmlns="http://www.w3.org/2000/svg">
  <path d="M 74.5 170.5  C 78.14 170.5  81 173.36  81 177  C 81 180.64  78.14 183.5  74.5 183.5  C 70.86 183.5  68 180.64  68 177  C 68 173.36  70.86 170.5  74.5 170.5  Z " fill-rule="nonzero" fill="#ffffff" stroke="none" />
  <path d="M 74.5 171  C 77.86 171  80.5 173.64  80.5 177  C 80.5 180.36  77.86 183  74.5 183  C 71.14 183  68.5 180.36  68.5 177  C 68.5 173.64  71.14 171  74.5 171  Z " stroke-width="1" stroke="#797979" fill="none" />
  <path d="M 74.5 180.25  C 72.68 180.25  71.25 178.82  71.25 177  C 71.25 175.18  72.68 173.75  74.5 173.75  C 76.32 173.75  77.75 175.18  77.75 177  C 77.75 178.82  76.32 180.25  74.5 180.25  " fill-rule="nonzero" fill="#797979" stroke="none" />
</svg>