<?xml version="1.0" encoding="utf-8"?>
<svg version="1.1" xmlns:xlink="http://www.w3.org/1999/xlink" width="31px" height="31px" xmlns="http://www.w3.org/2000/svg">
  <g transform="matrix(1 0 0 1 -18 -9 )">
    <path d="M 36.5 9.5  L 30.5 9.5  L 30.5 21.5  L 18.5 21.5  L 18.5 27.5  L 30.5 27.5  L 30.5 39.5  L 36.5 39.5  L 36.5 27.499999999999996  L 48.5 27.5  L 48.5 21.5  L 36.5 21.5  L 36.5 9.5  Z " fill-rule="nonzero" fill="#aaaaaa" stroke="none" />
    <path d="M 36.5 9.5  L 30.5 9.5  L 30.5 21.5  L 18.5 21.5  L 18.5 27.5  L 30.5 27.5  L 30.5 39.5  L 36.5 39.5  L 36.5 27.499999999999996  L 48.5 27.5  L 48.5 21.5  L 36.5 21.5  L 36.5 9.5  Z " stroke-width="1" stroke="#8f8f8f" fill="none" />
  </g>
</svg>