<?xml version="1.0" encoding="utf-8"?>
<svg version="1.1" xmlns:xlink="http://www.w3.org/1999/xlink" width="13px" height="13px" viewBox="136 32  13 13" xmlns="http://www.w3.org/2000/svg">
  <path d="M 136.5 34  A 1.5 1.5 0 0 1 138 32.5 L 147 32.5  A 1.5 1.5 0 0 1 148.5 34 L 148.5 43  A 1.5 1.5 0 0 1 147 44.5 L 138 44.5  A 1.5 1.5 0 0 1 136.5 43 L 136.5 34  Z " fill-rule="nonzero" fill="#ffffff" stroke="none" />
  <path d="M 136.5 34  A 1.5 1.5 0 0 1 138 32.5 L 147 32.5  A 1.5 1.5 0 0 1 148.5 34 L 148.5 43  A 1.5 1.5 0 0 1 147 44.5 L 138 44.5  A 1.5 1.5 0 0 1 136.5 43 L 136.5 34  Z " stroke-width="1" stroke="#797979" fill="none" />
</svg>