<?xml version="1.0" encoding="utf-8"?>
<svg version="1.1" xmlns:xlink="http://www.w3.org/1999/xlink" width="13px" height="13px" viewBox="21 222  13 13" xmlns="http://www.w3.org/2000/svg">
  <path d="M 21.5 224  A 1.5 1.5 0 0 1 23 222.5 L 32 222.5  A 1.5 1.5 0 0 1 33.5 224 L 33.5 233  A 1.5 1.5 0 0 1 32 234.5 L 23 234.5  A 1.5 1.5 0 0 1 21.5 233 L 21.5 224  Z " fill-rule="nonzero" fill="#ffffff" stroke="none" />
  <path d="M 21.5 224  A 1.5 1.5 0 0 1 23 222.5 L 32 222.5  A 1.5 1.5 0 0 1 33.5 224 L 33.5 233  A 1.5 1.5 0 0 1 32 234.5 L 23 234.5  A 1.5 1.5 0 0 1 21.5 233 L 21.5 224  Z " stroke-width="1" stroke="#797979" fill="none" />
</svg>