<?xml version="1.0" encoding="utf-8"?>
<svg version="1.1" xmlns:xlink="http://www.w3.org/1999/xlink" width="13px" height="11px" xmlns="http://www.w3.org/2000/svg">
  <g transform="matrix(1 0 0 1 -351 -410 )">
    <path d="M 12.152502239583333 8.32134630408654  C 11.894600520833334 7.95723076923077  11.387757942708333 7.8693497596153845  11.020758463541666 8.124278395432693  C 10.125561197916669 8.744322415865383  9.07814205729167 9.055166616586538  8.007375390625 9.040849759615385  C 7.865797265625 9.039393780048078  7.7251890625 9.032133713942311  7.586314192708334 9.020051231971156  C 7.529547526041667 9.014754507211538  7.472747005208334 9.005565805288462  7.4157196614583345 8.99854206730769  C 7.306363932291668 8.984225210336538  7.196764453125 8.969739783653845  7.090355729166669 8.949380859375  C 7.024385807291669 8.937027343750001  6.959939322916668 8.920324068509617  6.8954776041666666 8.90554942908654  C 6.791078125000001 8.881315054086539  6.6871475260416675 8.856879056490383  6.585263411458335 8.826873647836539  C 6.536157942708334 8.811862680288462  6.488318619791668 8.794668569711538  6.439715885416668 8.778456129807694  C 6.322179296875 8.739481820913463  6.205126822916668 8.699307692307693  6.091073828125001 8.652091646634616  C 6.065298958333335 8.641886568509616  6.040495703125001 8.629855318509614  6.014703906250001 8.61843224158654  C 5.881792447916668 8.560554987980769  5.749867838541668 8.499818659855771  5.622901171875001 8.431551231971156  C 5.616712630208334 8.428386418269232  5.6114957031250015 8.425728966346155  5.605307161458334 8.422615384615385  C 5.174573828125 8.188721604567307  4.78029296875 7.896763822115385  4.4346317708333345 7.555629957932693  C 4.429414843750001 7.550333233173077  4.423712109375 7.544003605769232  4.418026302083335 7.537961538461538  C 4.310645963541667 7.431413912259615  4.208240494791667 7.320060396634615  4.110776041666667 7.203866286057694  C 4.0904432291666675 7.179159254807692  4.070597916666667 7.152538461538461  4.050023046875001 7.12712079326923  C 3.3465317708333338 6.257038311298075  2.922247656250001 5.155937650240384  2.922247656250001 3.9579870793269234  L 4.115578322916668 3.9579870793269234  C 4.146397463541668 3.9579870793269234  4.176228062500002 3.9418589242788444  4.191861916666668 3.9135127704326926  C 4.2075143906250005 3.8851666165865386  4.2048957708333345 3.8519798677884616  4.187944989583334 3.826833233173078  L 2.1820246093750004 0.8525512319711539  C 2.1665278645833337 0.8295860877403851  2.139888020833333 0.8144743088942318  2.1096410156250003 0.8144743088942318  C 2.0793940104166677 0.8144743088942318  2.052735546875 0.8296042668269245  2.0372574218750006 0.8525512319711539  L 0.03130325520833342 3.8267638221153844  C 0.01435078125000011 3.8519121093749993  0.011750781250000012 3.885097205528845  0.027386328124999956 3.913443359374999  C 0.04303880208333341 3.941789513221153  0.07285247395833332 3.95791766826923  0.10368684895833352 3.95791766826923  L 1.297260182291667 3.95791766826923  C 1.297260182291667 5.366239933894229  1.741374375 6.671633864182692  2.4959465104166667 7.750937800480767  C 2.5051328385416674 7.76598182091346  2.5118241145833338 7.781957932692305  2.521980364583334 7.7969854266826895  C 2.600083619791667 7.907357271634612  2.6868890885416676 8.009285757211536  2.770696770833334 8.113633713942306  C 2.801949244791668 8.153098858173076  2.8312077083333342 8.193747295673075  2.8636907812500003 8.23246709735577  C 2.9871907812500003 8.380644831730768  3.1183519791666674 8.519855318509613  3.253257447916667 8.655915865384614  C 3.266154192708333 8.669470853365384  3.2780607031250004 8.682772986778845  3.2907153906250004 8.694890174278845  C 3.7435148697916674 9.143012920673076  4.255576067708334 9.52071980168269  4.81251265625 9.822609975961539  C 4.826898984375 9.831104567307692  4.8412853125 9.839837139423077  4.8571459895833335 9.847807842548075  C 5.017582578125 9.93299834735577  5.1824760677083335 10.009998347355767  5.349620859375 10.082886568509613  C 5.3912902604166675 10.100536808894228  5.431954192708333 10.120404897836538  5.4743514583333335 10.137853515625  C 5.617195729166667 10.196441406249999  5.763973854166667 10.247752704326924  5.9120181249999995 10.296675931490382  C 5.981940520833334 10.320164963942306  6.051378802083334 10.34412830528846  6.122288046875 10.36565399639423  C 6.25149078125 10.403426832932693  6.383657447916667 10.435139423076924  6.5170547135416665 10.466362830528844  C 6.605332838541666 10.486703575721153  6.693091302083333 10.50873828125  6.783138307291667 10.525677884615385  C 6.820577630208332 10.53319245793269  6.855782578125 10.544580829326923  6.8925109635416675 10.550132061298074  C 7.017969427083332 10.572165114182692  7.144433359375 10.584502103365384  7.270152500000001 10.599513070913462  C 7.315530624999999 10.604861027644231  7.3601639583333345 10.612373948317305  7.405560703125002 10.617181490384615  C 7.631466171875 10.63923272235577  7.856608229166666 10.65373467548077  8.081543776041666 10.65373467548077  C 9.458035572916668 10.65373467548077  10.801057447916666 10.23757902644231  11.953099505208334 9.439842698317308  C 12.320132838541667 9.18493058894231  12.409660182291667 8.684751201923078  12.152502239583333 8.32134630408654  Z " fill-rule="nonzero" fill="#999999" stroke="none" transform="matrix(1 0 0 1 351 410 )" />
  </g>
</svg>