<?xml version="1.0" encoding="utf-8"?>
<svg version="1.1" xmlns:xlink="http://www.w3.org/1999/xlink" width="13px" height="13px" viewBox="68 351  13 13" xmlns="http://www.w3.org/2000/svg">
  <path d="M 74.5 351  C 78.14 351  81 353.86  81 357.5  C 81 361.14  78.14 364  74.5 364  C 70.86 364  68 361.14  68 357.5  C 68 353.86  70.86 351  74.5 351  Z " fill-rule="nonzero" fill="#f0f0f0" stroke="none" />
  <path d="M 74.5 351.5  C 77.86 351.5  80.5 354.14  80.5 357.5  C 80.5 360.86  77.86 363.5  74.5 363.5  C 71.14 363.5  68.5 360.86  68.5 357.5  C 68.5 354.14  71.14 351.5  74.5 351.5  Z " stroke-width="1" stroke="#797979" fill="none" />
  <path d="M 74.5 360.75  C 72.68 360.75  71.25 359.32  71.25 357.5  C 71.25 355.68  72.68 354.25  74.5 354.25  C 76.32 354.25  77.75 355.68  77.75 357.5  C 77.75 359.32  76.32 360.75  74.5 360.75  " fill-rule="nonzero" fill="#797979" stroke="none" />
</svg>