<?xml version="1.0" encoding="utf-8"?>
<svg version="1.1" xmlns:xlink="http://www.w3.org/1999/xlink" width="13px" height="13px" viewBox="303 170.5  13 13" xmlns="http://www.w3.org/2000/svg">
  <path d="M 309.5 170.5  C 313.14 170.5  316 173.36  316 177  C 316 180.64  313.14 183.5  309.5 183.5  C 305.86 183.5  303 180.64  303 177  C 303 173.36  305.86 170.5  309.5 170.5  Z " fill-rule="nonzero" fill="#f0f0f0" stroke="none" />
  <path d="M 309.5 171  C 312.86 171  315.5 173.64  315.5 177  C 315.5 180.36  312.86 183  309.5 183  C 306.14 183  303.5 180.36  303.5 177  C 303.5 173.64  306.14 171  309.5 171  Z " stroke-width="1" stroke="#797979" fill="none" />
  <path d="M 309.5 180.25  C 307.68 180.25  306.25 178.82  306.25 177  C 306.25 175.18  307.68 173.75  309.5 173.75  C 311.32 173.75  312.75 175.18  312.75 177  C 312.75 178.82  311.32 180.25  309.5 180.25  " fill-rule="nonzero" fill="#797979" stroke="none" />
</svg>