<?xml version="1.0" encoding="utf-8"?>
<svg version="1.1" xmlns:xlink="http://www.w3.org/1999/xlink" width="18px" height="12px" xmlns="http://www.w3.org/2000/svg">
  <g transform="matrix(1 0 0 1 -13 -10 )">
    <path d="M 0.5092264745394824 2.9984202631181947  C 0.29342360783900084 4.581711523370088  0.2733331629156816 7.096052807515299  1.7485775400168486 9.097847476996236  C 3.1676783380856506 11.023556494719287  5.591494465135257 12  8.952627854639887 12  C 12.295121961378108 12  14.722743367187494 11.022492556693619  16.167964958026968 9.094655725930068  C 17.664847656939624 7.09795491572856  17.701029807050542 4.584226191459954  17.515604410319902 2.9723383438336537  C 17.815542065716265 2.6566795256125015  18 2.2302129009983895  18 1.7604161164431065  C 18 0.7881315156046886  17.211635745430627 0  16.23913603355533 0  C 15.266636321680043 0  14.478272067110673 0.7881637456491107  14.478272067110673 1.7604161164431065  C 14.478272067110673 2.5036054657986133  14.939158949599864 3.138759643228115  15.590598653734512 3.397031811917619  C 15.712882661138552 4.677882510340397  15.648290141168477 6.532502982440867  14.596912081513985 7.928868491486661  C 13.540116389724075 9.33235898271909  11.6411024414209 10.04395343691141  8.95266009288364 10.04395343691141  C 6.252221525139209 10.04395343691141  4.360173148886533 9.337710745364753  3.329111264888504 7.944859382345645  C 2.28205442194757 6.53043962948923  2.2785071436781053 4.641967497501954  2.4339097541470545 3.3873921301357064  C 3.0723857766276206 3.1230911473296437  3.521727932889328 2.494320440527059  3.521727932889328 1.7604483464875318  C 3.521727932889328 0.788163745649114  2.733363678319957 3.223004442531874E-05  1.760863966444664 3.223004442531874E-05  C 0.7883642545693712 3.223004442531874E-05  0 0.788195975693536  0 1.7604483464875318  C 0 2.243173254024182  0.19448705338024297 2.68037569698489  0.5092264745394824 2.9984202631181947  Z " fill-rule="nonzero" fill="#ffffff" stroke="none" transform="matrix(1 0 0 1 13 10 )" />
  </g>
</svg>