<?xml version="1.0" encoding="utf-8"?>
<svg version="1.1" xmlns:xlink="http://www.w3.org/1999/xlink" width="13px" height="13px" viewBox="8 37  13 13" xmlns="http://www.w3.org/2000/svg">
  <path d="M 14.5 37  C 18.14 37  21 39.86  21 43.5  C 21 47.14  18.14 50  14.5 50  C 10.86 50  8 47.14  8 43.5  C 8 39.86  10.86 37  14.5 37  Z " fill-rule="nonzero" fill="#ffffff" stroke="none" />
  <path d="M 14.5 37.5  C 17.86 37.5  20.5 40.14  20.5 43.5  C 20.5 46.86  17.86 49.5  14.5 49.5  C 11.14 49.5  8.5 46.86  8.5 43.5  C 8.5 40.14  11.14 37.5  14.5 37.5  Z " stroke-width="1" stroke="#797979" fill="none" />
  <path d="M 14.5 46.75  C 12.68 46.75  11.25 45.32  11.25 43.5  C 11.25 41.68  12.68 40.25  14.5 40.25  C 16.32 40.25  17.75 41.68  17.75 43.5  C 17.75 45.32  16.32 46.75  14.5 46.75  " fill-rule="nonzero" fill="#797979" stroke="none" />
</svg>