<?xml version="1.0" encoding="utf-8"?>
<svg version="1.1" xmlns:xlink="http://www.w3.org/1999/xlink" width="13px" height="13px" viewBox="8 296  13 13" xmlns="http://www.w3.org/2000/svg">
  <path d="M 14.5 296  C 18.14 296  21 298.86  21 302.5  C 21 306.14  18.14 309  14.5 309  C 10.86 309  8 306.14  8 302.5  C 8 298.86  10.86 296  14.5 296  Z " fill-rule="nonzero" fill="#ffffff" stroke="none" />
  <path d="M 14.5 296.5  C 17.86 296.5  20.5 299.14  20.5 302.5  C 20.5 305.86  17.86 308.5  14.5 308.5  C 11.14 308.5  8.5 305.86  8.5 302.5  C 8.5 299.14  11.14 296.5  14.5 296.5  Z " stroke-width="1" stroke="#797979" fill="none" />
  <path d="M 14.5 305.75  C 12.68 305.75  11.25 304.32  11.25 302.5  C 11.25 300.68  12.68 299.25  14.5 299.25  C 16.32 299.25  17.75 300.68  17.75 302.5  C 17.75 304.32  16.32 305.75  14.5 305.75  " fill-rule="nonzero" fill="#797979" stroke="none" />
</svg>