<?xml version="1.0" encoding="utf-8"?>
<svg version="1.1" xmlns:xlink="http://www.w3.org/1999/xlink" width="20px" height="20px" xmlns="http://www.w3.org/2000/svg">
  <g transform="matrix(1 0 0 1 -231 -129 )">
    <path d="M 8.886249999999997 17.00625  C 8.887500000000001 17.005  11.21625 17.21125  13.267500000000002 15.7125  L 16.51875 18.963749999999997  C 16.51875 18.963749999999997  17.87875 19.884999999999998  18.82375 18.755  C 18.82375 18.755  19.884999999999998 17.811249999999998  18.9625 16.56625  L 15.71125 13.22375  C 15.71125 13.22375  18.822499999999998 9.235000000000001  15.412499999999998 3.932500000000001  L 13.106249999999998 4.855000000000001  C 13.106249999999998 4.855000000000001  14.789999999999996 6.583750000000002  14.649999999999997 8.95875  C 14.649999999999997 8.95875  14.764999999999997 14.1675  8.863749999999996 14.7225  C 8.863749999999996 14.7225  3.238749999999997 14.63  3.029999999999997 8.728750000000002  C 3.029999999999997 8.728750000000002  3.122499999999997 3.3125000000000004  8.792499999999997 3.057500000000001  L 9.116249999999997 0.7062500000000007  C 9.116249999999997 0.7062500000000007  1.2312499999999982 0.3375000000000008  0.7024999999999981 8.91375  C 0.7024999999999981 8.91375  0.5874999999999981 16.36  8.886249999999997 17.00625  Z " fill-rule="nonzero" fill="#7f7f7f" stroke="none" transform="matrix(1 0 0 1 231 129 )" />
  </g>
</svg>