<?xml version="1.0" encoding="utf-8"?>
<svg version="1.1" xmlns:xlink="http://www.w3.org/1999/xlink" width="12px" height="10px" xmlns="http://www.w3.org/2000/svg">
  <g transform="matrix(1 0 0 1 -245 -18 )">
    <path d="M 11.77734375 0.3298611111111116  C 11.92578125 0.5497685185185164  12 0.8101851851851827  12 1.1111111111111116  C 12 1.412037037037036  11.92578125 1.6724537037037024  11.77734375 1.8923611111111116  L 6.52734375 9.67013888888889  C 6.37890625 9.890046296296294  6.203125 10  6 10  C 5.796875000000001 10  5.621093750000001 9.890046296296294  5.47265625 9.67013888888889  L 0.22265625 1.8923611111111116  C 0.07421875 1.6724537037037024  0 1.412037037037036  0 1.1111111111111116  C 0 0.8101851851851827  0.07421875 0.5497685185185164  0.22265625 0.3298611111111116  C 0.37109375 0.10995370370370239  0.546875 0  0.75 0  L 11.25 0  C 11.453125 0  11.62890625 0.10995370370370239  11.77734375 0.3298611111111116  Z " fill-rule="nonzero" fill="#797979" stroke="none" transform="matrix(1 0 0 1 245 18 )" />
  </g>
</svg>