<?xml version="1.0" encoding="utf-8"?>
<svg version="1.1" xmlns:xlink="http://www.w3.org/1999/xlink" width="51px" height="45px" xmlns="http://www.w3.org/2000/svg">
  <g transform="matrix(1 0 0 1 -1023 123 )">
    <path d="M 29.882706266601566 3.66153409090909  L 49.88745626660156 36.52005681818182  C 52.322706266601564 40.70357956187855  50.26995626660157 44.256420438121445  45.526956266601566 44  L 5.517456266601563 44  C 0.6448312500000004 44.256420438121445  -1.4079187499999999 40.831818165394175  1.029456266601563 36.52005681818182  L 21.03420626660156 3.66153409090909  C 23.469456266601565 -0.6523295454545464  27.445331250000002 -0.6523295454545464  29.882706266601566 3.66153409090909  Z M 23.864706266601555 11.883522710848723  C 23.864706266601555 11.883522710848723  23.864706266601555 11.883522710848723  24 11.883522710848723  L 24 28.70170456187855  C 23.864706266601562 28.70170456187855  23.864706266601555 28.70170462833168  23.864706266601555 28.70170462833168  C 23.864706266601555 29.572494503775115  24.578252446558736 30.278409173786223  25.458456266601555 30.278409173786223  C 26.338660086644385 30.278409173786223  27.05220626660156 29.572494503775115  27.05220626660156 28.70170462833168  C 27.05220626660156 28.70170462833168  27.05220626660156 28.70170456187855  27 28.70170456187855  L 27 11.883522710848723  C 27.05220626660156 11.883522710848723  27.05220626660156 11.883522710848723  27.05220626660156 11.883522710848723  C 27.05220626660156 11.012732835405284  26.338660086644385 10.306818165394178  25.458456266601555 10.306818165394178  C 24.578252446558736 10.306818165394178  23.864706266601555 11.012732835405284  23.864706266601555 11.883522710848723  Z M 23.864706266601562 35.00852274369673  L 23.864706266601562 37.11079543812145  C 23.864706266601555 37.98158538001801  24.578252446558736 38.687500050029115  25.458456266601555 38.687500050029115  C 26.338660086644385 38.687500050029115  27.05220626660156 37.98158538001801  27.05220626660156 37.110795504574575  L 27.05220626660156 35.00852274369673  C 27.05220626660156 34.137732868253295  26.338660086644385 33.43181819824218  25.458456266601555 33.43181819824218  C 24.578252446558736 33.43181819824218  23.864706266601555 34.137732868253295  23.864706266601555 35.00852274369673  Z " fill-rule="nonzero" fill="#faad14" stroke="none" transform="matrix(1 0 0 1 1023 -123 )" />
  </g>
</svg>