<?xml version="1.0" encoding="utf-8"?>
<svg version="1.1" xmlns:xlink="http://www.w3.org/1999/xlink" width="45px" height="62px" xmlns="http://www.w3.org/2000/svg">
  <g transform="matrix(1 0 0 1 -400 -95 )">
    <path d="M 400.5 98  A 2.5 2.5 0 0 1 403 95.5 L 442 95.5  A 2.5 2.5 0 0 1 444.5 98 L 444.5 154  A 2.5 2.5 0 0 1 442 156.5 L 403 156.5  A 2.5 2.5 0 0 1 400.5 154 L 400.5 98  Z " fill-rule="nonzero" fill="#ffffff" stroke="none" />
    <path d="M 400.5 98  A 2.5 2.5 0 0 1 403 95.5 L 442 95.5  A 2.5 2.5 0 0 1 444.5 98 L 444.5 154  A 2.5 2.5 0 0 1 442 156.5 L 403 156.5  A 2.5 2.5 0 0 1 400.5 154 L 400.5 98  Z " stroke-width="1" stroke="#adadad" fill="none" />
  </g>
</svg>