<?xml version="1.0" encoding="utf-8"?>
<svg version="1.1" xmlns:xlink="http://www.w3.org/1999/xlink" width="13px" height="13px" viewBox="777 550  13 13" xmlns="http://www.w3.org/2000/svg">
  <path d="M 783.5 550  C 787.14 550  790 552.86  790 556.5  C 790 560.14  787.14 563  783.5 563  C 779.86 563  777 560.14  777 556.5  C 777 552.86  779.86 550  783.5 550  Z " fill-rule="nonzero" fill="#ffffff" stroke="none" />
  <path d="M 783.5 550.5  C 786.86 550.5  789.5 553.14  789.5 556.5  C 789.5 559.86  786.86 562.5  783.5 562.5  C 780.14 562.5  777.5 559.86  777.5 556.5  C 777.5 553.14  780.14 550.5  783.5 550.5  Z " stroke-width="1" stroke="#797979" fill="none" />
  <path d="M 783.5 559.75  C 781.68 559.75  780.25 558.32  780.25 556.5  C 780.25 554.68  781.68 553.25  783.5 553.25  C 785.32 553.25  786.75 554.68  786.75 556.5  C 786.75 558.32  785.32 559.75  783.5 559.75  " fill-rule="nonzero" fill="#797979" stroke="none" />
</svg>