<?xml version="1.0" encoding="utf-8"?>
<svg version="1.1" xmlns:xlink="http://www.w3.org/1999/xlink" width="13px" height="13px" viewBox="781 658  13 13" xmlns="http://www.w3.org/2000/svg">
  <path d="M 787.5 658  C 791.14 658  794 660.86  794 664.5  C 794 668.14  791.14 671  787.5 671  C 783.86 671  781 668.14  781 664.5  C 781 660.86  783.86 658  787.5 658  Z " fill-rule="nonzero" fill="#f0f0f0" stroke="none" />
  <path d="M 787.5 658.5  C 790.86 658.5  793.5 661.14  793.5 664.5  C 793.5 667.86  790.86 670.5  787.5 670.5  C 784.14 670.5  781.5 667.86  781.5 664.5  C 781.5 661.14  784.14 658.5  787.5 658.5  Z " stroke-width="1" stroke="#797979" fill="none" />
  <path d="M 787.5 667.75  C 785.68 667.75  784.25 666.32  784.25 664.5  C 784.25 662.68  785.68 661.25  787.5 661.25  C 789.32 661.25  790.75 662.68  790.75 664.5  C 790.75 666.32  789.32 667.75  787.5 667.75  " fill-rule="nonzero" fill="#797979" stroke="none" />
</svg>