<?xml version="1.0" encoding="utf-8"?>
<svg version="1.1" xmlns:xlink="http://www.w3.org/1999/xlink" width="13px" height="13px" viewBox="777 569  13 13" xmlns="http://www.w3.org/2000/svg">
  <path d="M 783.5 569  C 787.14 569  790 571.86  790 575.5  C 790 579.14  787.14 582  783.5 582  C 779.86 582  777 579.14  777 575.5  C 777 571.86  779.86 569  783.5 569  Z " fill-rule="nonzero" fill="#f0f0f0" stroke="none" />
  <path d="M 783.5 569.5  C 786.86 569.5  789.5 572.14  789.5 575.5  C 789.5 578.86  786.86 581.5  783.5 581.5  C 780.14 581.5  777.5 578.86  777.5 575.5  C 777.5 572.14  780.14 569.5  783.5 569.5  Z " stroke-width="1" stroke="#797979" fill="none" />
  <path d="M 783.5 578.75  C 781.68 578.75  780.25 577.32  780.25 575.5  C 780.25 573.68  781.68 572.25  783.5 572.25  C 785.32 572.25  786.75 573.68  786.75 575.5  C 786.75 577.32  785.32 578.75  783.5 578.75  " fill-rule="nonzero" fill="#797979" stroke="none" />
</svg>