<?xml version="1.0" encoding="utf-8"?>
<svg version="1.1" xmlns:xlink="http://www.w3.org/1999/xlink" width="183px" height="33px" xmlns="http://www.w3.org/2000/svg">
  <defs>
    <filter x="286px" y="304px" width="183px" height="33px" filterUnits="userSpaceOnUse" id="filter238">
      <feOffset dx="1" dy="1" in="SourceAlpha" result="shadowOffsetInner" />
      <feGaussianBlur stdDeviation="0.5" in="shadowOffsetInner" result="shadowGaussian" />
      <feComposite in2="shadowGaussian" operator="atop" in="SourceAlpha" result="shadowComposite" />
      <feColorMatrix type="matrix" values="0 0 0 0 0  0 0 0 0 0  0 0 0 0 0  0 0 0 0.34901960784313724 0  " in="shadowComposite" />
    </filter>
    <g id="widget239">
      <path d="M 286.5 309  A 4.5 4.5 0 0 1 291 304.5 L 462 304.5  A 4.5 4.5 0 0 1 466.5 309 L 466.5 330  A 4.5 4.5 0 0 1 462 334.5 L 291 334.5  A 4.5 4.5 0 0 1 286.5 330 L 286.5 309  Z " fill-rule="nonzero" fill="#1abc9c" stroke="none" fill-opacity="0.8" />
      <path d="M 286.5 309  A 4.5 4.5 0 0 1 291 304.5 L 462 304.5  A 4.5 4.5 0 0 1 466.5 309 L 466.5 330  A 4.5 4.5 0 0 1 462 334.5 L 291 334.5  A 4.5 4.5 0 0 1 286.5 330 L 286.5 309  Z " stroke-width="1" stroke="#797979" fill="none" />
    </g>
  </defs>
  <g transform="matrix(1 0 0 1 -286 -304 )">
    <use xlink:href="#widget239" filter="url(#filter238)" />
    <use xlink:href="#widget239" />
  </g>
</svg>