<?xml version="1.0" encoding="utf-8"?>
<svg version="1.1" xmlns:xlink="http://www.w3.org/1999/xlink" width="25px" height="25px" xmlns="http://www.w3.org/2000/svg">
  <g transform="matrix(1 0 0 1 752 -70 )">
    <path d="M 24.50284090909091 9.588068181818182  C 24.834280303030305 9.919507575757573  25 10.321969696969695  25 10.795454545454545  L 25 14.204545454545453  C 25 14.678030303030305  24.834280303030305 15.080492424242422  24.50284090909091 15.411931818181818  C 24.171401515151516 15.74337121212121  23.768939393939394 15.909090909090908  23.295454545454543 15.909090909090908  L 15.909090909090908 15.909090909090908  L 15.909090909090908 23.295454545454547  C 15.909090909090908 23.768939393939394  15.743371212121213 24.171401515151516  15.411931818181818 24.50284090909091  C 15.080492424242427 24.834280303030305  14.678030303030305 25  14.204545454545455 25  L 10.795454545454545 25  C 10.321969696969697 25  9.919507575757578 24.834280303030305  9.588068181818182 24.50284090909091  C 9.256628787878789 24.171401515151516  9.090909090909092 23.768939393939394  9.090909090909092 23.295454545454547  L 9.090909090909092 15.909090909090908  L 1.7045454545454544 15.909090909090908  C 1.2310606060606062 15.909090909090908  0.828598484848485 15.74337121212121  0.4971590909090909 15.411931818181818  C 0.16571969696969696 15.080492424242422  0 14.678030303030305  0 14.204545454545453  L 0 10.795454545454545  C 0 10.321969696969695  0.16571969696969696 9.919507575757573  0.4971590909090909 9.588068181818182  C 0.828598484848485 9.256628787878787  1.2310606060606062 9.090909090909092  1.7045454545454544 9.090909090909092  L 9.090909090909092 9.090909090909092  L 9.090909090909092 1.704545454545456  C 9.090909090909092 1.231060606060605  9.256628787878789 0.8285984848484834  9.588068181818182 0.49715909090909116  C 9.919507575757578 0.16571969696969613  10.321969696969697 0  10.795454545454545 0  L 14.204545454545455 0  C 14.678030303030305 0  15.080492424242427 0.16571969696969613  15.411931818181818 0.49715909090909116  C 15.743371212121213 0.8285984848484834  15.909090909090908 1.231060606060605  15.909090909090908 1.704545454545456  L 15.909090909090908 9.090909090909092  L 23.295454545454543 9.090909090909092  C 23.768939393939394 9.090909090909092  24.171401515151516 9.256628787878787  24.50284090909091 9.588068181818182  Z " fill-rule="nonzero" fill="#000000" stroke="none" transform="matrix(1 0 0 1 -752 70 )" />
  </g>
</svg>