<?xml version="1.0" encoding="utf-8"?>
<svg version="1.1" xmlns:xlink="http://www.w3.org/1999/xlink" width="25px" height="24px" xmlns="http://www.w3.org/2000/svg">
  <g transform="matrix(1 0 0 1 835 -71 )">
    <path d="M 23.088004190675747 14.352272727272727  C 23.24515453116815 14.102272727272727  23.323729701414354 13.880681818181818  23.323729701414354 13.6875  C 23.323729701414354 13.289772727272727  23.09236947791165 13.09090909090909  22.629649030906236 13  L 8.381351492928236 13  C 8.032128514056225 13.09090909090909  7.658896455386765 13.213068181818182  7.261655316919853 13.457386363636365  C 6.864414178452943 13.701704545454543  6.552296141086083 13.999999999999998  6.325301204819277 14.352272727272727  L 2.4751178627553694 20.539772727272727  C 2.3179675222629648 20.8125  2.239392352016763 21.039772727272727  2.239392352016763 21.22159090909091  C 2.239392352016763 21.61931818181818  2.4707525755194695 21.818181818181817  2.933473022524882 21.818181818181817  L 17.181770560502883 21.818181818181817  C 17.530993539374894 21.818181818181817  17.9064082416623 21.69318181818182  18.308014667365114 21.443181818181817  C 18.709621093067923 21.19318181818182  19.019556486816835 20.892045454545457  19.23782084861184 20.539772727272727  L 23.088004190675747 14.352272727272727  Z M 6.547930853850184 11.49715909090909  C 7.1765322158198 11.105113636363637  7.78767242884582 10.90909090909091  8.381351492928236 11  L 18.438973284442117 11  L 18.438973284442117 8.181818181818183  C 18.438973284442117 7.727272727272726  18.316745241836912 7.340909090909089  18.072289156626507 7.0227272727272725  C 17.8278330714161 6.704545454545453  17.530993539374894 6.545454545454545  17.181770560502883 6.545454545454545  L 9.63855421686747 6.545454545454545  C 9.28933123799546 6.545454545454545  8.992491705954253 6.386363636363634  8.748035620743845 6.0681818181818175  C 8.503579535533438 5.749999999999998  8.381351492928236 5.3636363636363615  8.381351492928236 4.90909090909091  L 8.381351492928236 3.8181818181818175  C 8.381351492928236 3.3636363636363633  8.259123450323031 2.977272727272724  8.014667365112624 2.65909090909091  C 7.7702112799022185 2.340909090909091  7.47337174786101 2.1818181818181825  7.1241487689889995 2.1818181818181825  L 2.933473022524882 2.1818181818181825  C 2.5842500436528724 2.1818181818181825  2.287410511611664 2.340909090909091  2.0429544264012574 2.65909090909091  C 1.7984983411908504 2.977272727272724  1.676270298585647 3.3636363636363633  2 3.8181818181818175  L 2 18.357954545454547  L 5.028810895756941 12.988636363636365  C 5.412956172516152 12.386363636363637  5.919329491880566 11.889204545454545  6.547930853850184 11.49715909090909  Z M 24.803562074384494 12.52840909090909  C 24.934520691461497 12.892045454545453  25 13.27840909090909  25 13.6875  C 25 14.392045454545453  24.799196787148595 15.073863636363633  24.397590361445783 15.732954545454545  L 20.534311157674175 21.920454545454547  C 20.158896455386767 22.52272727272727  19.652523136022353 23.019886363636363  19.015191199580933 23.411931818181817  C 18.377859263139516 23.803977272727273  17.7667190501135 24  17.181770560502883 24  L 2.933473022524882 24  C 2.13026017111926 24  1.4405447878470405 23.625  0.8643268727082243 22.875  C 0.2881089575694081 22.125  0 21.227272727272727  0 20.181818181818183  L 0 3.8181818181818175  C 0 2.772727272727269  0.2881089575694081 1.875  0.8643268727082243 1.125  C 1.4405447878470405 0.375  2.13026017111926 0  2.933473022524882 0  L 7.1241487689889995 0  C 7.927361620394622 0  8.617077003666841 0.375  9.193294918805657 1.125  C 9.769512833944475 1.875  10.057621791513881 2.772727272727269  10.057621791513881 3.8181818181818175  L 10.057621791513881 4.363636363636362  L 17.181770560502883 4.363636363636362  C 17.984983411908505 4.363636363636362  18.67469879518072 4.738636363636362  19.250916710319537 5.488636363636362  C 19.827134625458356 6.238636363636362  20.115243583027762 7.136363636363634  20.115243583027762 8.181818181818183  L 20.115243583027762 10.90909090909091  L 22.629649030906236 10.90909090909091  C 23.10110005238345 10.90909090909091  23.533263488737564 11.048295454545457  23.926139339968568 11.326704545454545  C 24.319015191199583 11.605113636363637  24.61148943600489 12.005681818181818  24.803562074384494 12.52840909090909  Z " fill-rule="nonzero" fill="#000000" stroke="none" transform="matrix(1 0 0 1 -835 71 )" />
  </g>
</svg>