<?xml version="1.0" encoding="utf-8"?>
<svg version="1.1" xmlns:xlink="http://www.w3.org/1999/xlink" width="20px" height="20px" xmlns="http://www.w3.org/2000/svg">
  <g transform="matrix(1 0 0 1 684 -73 )">
    <path d="M 18.63858364730508 0.08178770277341738  L 18.638583647305072 0  L 0 0  L 0 20  L 19.87896582940869 20  L 19.87896582940869 0.08178770277341738  L 18.63858364730508 0.08178770277341738  Z M 6.23476172161172 14.966374018838305  L 6.23476172161172 18.687520591313447  L 1.2732329408686536 18.687520591313447  L 1.2732329408686536 14.966374018838305  L 6.23476172161172 14.966374018838305  Z M 6.23476172161172 10.004845238095239  L 6.23476172161172 13.723511067503924  L 1.2732329408686536 13.723511067503924  L 1.2732329408686536 10.004845238095239  L 6.23476172161172 10.004845238095239  Z M 12.436672684458397 14.966374018838305  L 12.436672684458397 18.687520591313447  L 7.475143903715332 18.687520591313447  L 7.475143903715332 14.966374018838305  L 12.436672684458397 14.966374018838305  Z M 12.436672684458397 10.004845238095239  L 12.436672684458397 13.723511067503924  L 7.475143903715332 13.723511067503924  L 7.475143903715332 10.004845238095239  L 12.436672684458397 10.004845238095239  Z M 18.638583647305072 14.966374018838305  L 18.638583647305072 18.687520591313447  L 13.677054866562008 18.687520591313447  L 13.677054866562008 14.966374018838305  L 18.638583647305072 14.966374018838305  Z M 18.638583647305072 10.004845238095239  L 18.638583647305072 13.723511067503924  L 13.677054866562008 13.723511067503924  L 13.677054866562008 10.004845238095239  L 18.638583647305072 10.004845238095239  Z M 18.638583647305072 5  L 18.638583647305072 8.76198228676086  L 13.677054866562008 8.76198228676086  L 13.677054866562008 5.043316483516483  L 12.436672684458397 5.043316483516483  L 12.436672684458397 8.764463055991625  L 7.475143903715332 8.764463055991625  L 7.475143903715332 5.043316483516483  L 6.23476172161172 5.043316483516483  L 6.23476172161172 8.764463055991625  L 1.2732329408686536 8.764463055991625  L 1.2732329408686536 5  L 18.638583647305072 5  Z " fill-rule="nonzero" fill="#333333" stroke="none" transform="matrix(1 0 0 1 -684 73 )" />
  </g>
</svg>