<?xml version="1.0" encoding="utf-8"?>
<svg version="1.1" xmlns:xlink="http://www.w3.org/1999/xlink" width="13px" height="13px" viewBox="314 544  13 13" xmlns="http://www.w3.org/2000/svg">
  <path d="M 320.5 544  C 324.14 544  327 546.86  327 550.5  C 327 554.14  324.14 557  320.5 557  C 316.86 557  314 554.14  314 550.5  C 314 546.86  316.86 544  320.5 544  Z " fill-rule="nonzero" fill="#f0f0f0" stroke="none" />
  <path d="M 320.5 544.5  C 323.86 544.5  326.5 547.14  326.5 550.5  C 326.5 553.86  323.86 556.5  320.5 556.5  C 317.14 556.5  314.5 553.86  314.5 550.5  C 314.5 547.14  317.14 544.5  320.5 544.5  Z " stroke-width="1" stroke="#797979" fill="none" />
  <path d="M 320.5 553.75  C 318.68 553.75  317.25 552.32  317.25 550.5  C 317.25 548.68  318.68 547.25  320.5 547.25  C 322.32 547.25  323.75 548.68  323.75 550.5  C 323.75 552.32  322.32 553.75  320.5 553.75  " fill-rule="nonzero" fill="#797979" stroke="none" />
</svg>