<?xml version="1.0" encoding="utf-8"?>
<svg version="1.1" xmlns:xlink="http://www.w3.org/1999/xlink" width="13px" height="13px" viewBox="314 516  13 13" xmlns="http://www.w3.org/2000/svg">
  <path d="M 320.5 516  C 324.14 516  327 518.86  327 522.5  C 327 526.14  324.14 529  320.5 529  C 316.86 529  314 526.14  314 522.5  C 314 518.86  316.86 516  320.5 516  Z " fill-rule="nonzero" fill="#f0f0f0" stroke="none" />
  <path d="M 320.5 516.5  C 323.86 516.5  326.5 519.14  326.5 522.5  C 326.5 525.86  323.86 528.5  320.5 528.5  C 317.14 528.5  314.5 525.86  314.5 522.5  C 314.5 519.14  317.14 516.5  320.5 516.5  Z " stroke-width="1" stroke="#797979" fill="none" />
  <path d="M 320.5 525.75  C 318.68 525.75  317.25 524.32  317.25 522.5  C 317.25 520.68  318.68 519.25  320.5 519.25  C 322.32 519.25  323.75 520.68  323.75 522.5  C 323.75 524.32  322.32 525.75  320.5 525.75  " fill-rule="nonzero" fill="#797979" stroke="none" />
</svg>