<?xml version="1.0" encoding="utf-8"?>
<svg version="1.1" xmlns:xlink="http://www.w3.org/1999/xlink" width="13px" height="13px" viewBox="466 543  13 13" xmlns="http://www.w3.org/2000/svg">
  <path d="M 472.5 543  C 476.14 543  479 545.86  479 549.5  C 479 553.14  476.14 556  472.5 556  C 468.86 556  466 553.14  466 549.5  C 466 545.86  468.86 543  472.5 543  Z " fill-rule="nonzero" fill="#f0f0f0" stroke="none" />
  <path d="M 472.5 543.5  C 475.86 543.5  478.5 546.14  478.5 549.5  C 478.5 552.86  475.86 555.5  472.5 555.5  C 469.14 555.5  466.5 552.86  466.5 549.5  C 466.5 546.14  469.14 543.5  472.5 543.5  Z " stroke-width="1" stroke="#797979" fill="none" />
  <path d="M 472.5 552.75  C 470.68 552.75  469.25 551.32  469.25 549.5  C 469.25 547.68  470.68 546.25  472.5 546.25  C 474.32 546.25  475.75 547.68  475.75 549.5  C 475.75 551.32  474.32 552.75  472.5 552.75  " fill-rule="nonzero" fill="#797979" stroke="none" />
</svg>