<?xml version="1.0" encoding="utf-8"?>
<svg version="1.1" xmlns:xlink="http://www.w3.org/1999/xlink" width="13px" height="13px" viewBox="466 458  13 13" xmlns="http://www.w3.org/2000/svg">
  <path d="M 472.5 458  C 476.14 458  479 460.86  479 464.5  C 479 468.14  476.14 471  472.5 471  C 468.86 471  466 468.14  466 464.5  C 466 460.86  468.86 458  472.5 458  Z " fill-rule="nonzero" fill="#f0f0f0" stroke="none" />
  <path d="M 472.5 458.5  C 475.86 458.5  478.5 461.14  478.5 464.5  C 478.5 467.86  475.86 470.5  472.5 470.5  C 469.14 470.5  466.5 467.86  466.5 464.5  C 466.5 461.14  469.14 458.5  472.5 458.5  Z " stroke-width="1" stroke="#797979" fill="none" />
  <path d="M 472.5 467.75  C 470.68 467.75  469.25 466.32  469.25 464.5  C 469.25 462.68  470.68 461.25  472.5 461.25  C 474.32 461.25  475.75 462.68  475.75 464.5  C 475.75 466.32  474.32 467.75  472.5 467.75  " fill-rule="nonzero" fill="#797979" stroke="none" />
</svg>