<?xml version="1.0" encoding="utf-8"?>
<svg version="1.1" xmlns:xlink="http://www.w3.org/1999/xlink" width="13px" height="13px" viewBox="314 458  13 13" xmlns="http://www.w3.org/2000/svg">
  <path d="M 320.5 458  C 324.14 458  327 460.86  327 464.5  C 327 468.14  324.14 471  320.5 471  C 316.86 471  314 468.14  314 464.5  C 314 460.86  316.86 458  320.5 458  Z " fill-rule="nonzero" fill="#ffffff" stroke="none" />
  <path d="M 320.5 458.5  C 323.86 458.5  326.5 461.14  326.5 464.5  C 326.5 467.86  323.86 470.5  320.5 470.5  C 317.14 470.5  314.5 467.86  314.5 464.5  C 314.5 461.14  317.14 458.5  320.5 458.5  Z " stroke-width="1" stroke="#797979" fill="none" />
  <path d="M 320.5 467.75  C 318.68 467.75  317.25 466.32  317.25 464.5  C 317.25 462.68  318.68 461.25  320.5 461.25  C 322.32 461.25  323.75 462.68  323.75 464.5  C 323.75 466.32  322.32 467.75  320.5 467.75  " fill-rule="nonzero" fill="#797979" stroke="none" />
</svg>