<?xml version="1.0" encoding="utf-8"?>
<svg version="1.1" xmlns:xlink="http://www.w3.org/1999/xlink" width="13px" height="13px" viewBox="466 486  13 13" xmlns="http://www.w3.org/2000/svg">
  <path d="M 472.5 486  C 476.14 486  479 488.86  479 492.5  C 479 496.14  476.14 499  472.5 499  C 468.86 499  466 496.14  466 492.5  C 466 488.86  468.86 486  472.5 486  Z " fill-rule="nonzero" fill="#ffffff" stroke="none" />
  <path d="M 472.5 486.5  C 475.86 486.5  478.5 489.14  478.5 492.5  C 478.5 495.86  475.86 498.5  472.5 498.5  C 469.14 498.5  466.5 495.86  466.5 492.5  C 466.5 489.14  469.14 486.5  472.5 486.5  Z " stroke-width="1" stroke="#797979" fill="none" />
  <path d="M 472.5 495.75  C 470.68 495.75  469.25 494.32  469.25 492.5  C 469.25 490.68  470.68 489.25  472.5 489.25  C 474.32 489.25  475.75 490.68  475.75 492.5  C 475.75 494.32  474.32 495.75  472.5 495.75  " fill-rule="nonzero" fill="#797979" stroke="none" />
</svg>