<?xml version="1.0" encoding="utf-8"?>
<svg version="1.1" xmlns:xlink="http://www.w3.org/1999/xlink" width="13px" height="13px" viewBox="314 573  13 13" xmlns="http://www.w3.org/2000/svg">
  <path d="M 320.5 573  C 324.14 573  327 575.86  327 579.5  C 327 583.14  324.14 586  320.5 586  C 316.86 586  314 583.14  314 579.5  C 314 575.86  316.86 573  320.5 573  Z " fill-rule="nonzero" fill="#f0f0f0" stroke="none" />
  <path d="M 320.5 573.5  C 323.86 573.5  326.5 576.14  326.5 579.5  C 326.5 582.86  323.86 585.5  320.5 585.5  C 317.14 585.5  314.5 582.86  314.5 579.5  C 314.5 576.14  317.14 573.5  320.5 573.5  Z " stroke-width="1" stroke="#797979" fill="none" />
  <path d="M 320.5 582.75  C 318.68 582.75  317.25 581.32  317.25 579.5  C 317.25 577.68  318.68 576.25  320.5 576.25  C 322.32 576.25  323.75 577.68  323.75 579.5  C 323.75 581.32  322.32 582.75  320.5 582.75  " fill-rule="nonzero" fill="#797979" stroke="none" />
</svg>