<?xml version="1.0" encoding="utf-8"?>
<svg version="1.1" xmlns:xlink="http://www.w3.org/1999/xlink" width="13px" height="13px" viewBox="314 487  13 13" xmlns="http://www.w3.org/2000/svg">
  <path d="M 320.5 487  C 324.14 487  327 489.86  327 493.5  C 327 497.14  324.14 500  320.5 500  C 316.86 500  314 497.14  314 493.5  C 314 489.86  316.86 487  320.5 487  Z " fill-rule="nonzero" fill="#f0f0f0" stroke="none" />
  <path d="M 320.5 487.5  C 323.86 487.5  326.5 490.14  326.5 493.5  C 326.5 496.86  323.86 499.5  320.5 499.5  C 317.14 499.5  314.5 496.86  314.5 493.5  C 314.5 490.14  317.14 487.5  320.5 487.5  Z " stroke-width="1" stroke="#797979" fill="none" />
  <path d="M 320.5 496.75  C 318.68 496.75  317.25 495.32  317.25 493.5  C 317.25 491.68  318.68 490.25  320.5 490.25  C 322.32 490.25  323.75 491.68  323.75 493.5  C 323.75 495.32  322.32 496.75  320.5 496.75  " fill-rule="nonzero" fill="#797979" stroke="none" />
</svg>