<?xml version="1.0" encoding="utf-8"?>
<svg version="1.1" xmlns:xlink="http://www.w3.org/1999/xlink" width="13px" height="13px" viewBox="310 631  13 13" xmlns="http://www.w3.org/2000/svg">
  <path d="M 316.5 631  C 320.14 631  323 633.86  323 637.5  C 323 641.14  320.14 644  316.5 644  C 312.86 644  310 641.14  310 637.5  C 310 633.86  312.86 631  316.5 631  Z " fill-rule="nonzero" fill="#f0f0f0" stroke="none" />
  <path d="M 316.5 631.5  C 319.86 631.5  322.5 634.14  322.5 637.5  C 322.5 640.86  319.86 643.5  316.5 643.5  C 313.14 643.5  310.5 640.86  310.5 637.5  C 310.5 634.14  313.14 631.5  316.5 631.5  Z " stroke-width="1" stroke="#797979" fill="none" />
  <path d="M 316.5 640.75  C 314.68 640.75  313.25 639.32  313.25 637.5  C 313.25 635.68  314.68 634.25  316.5 634.25  C 318.32 634.25  319.75 635.68  319.75 637.5  C 319.75 639.32  318.32 640.75  316.5 640.75  " fill-rule="nonzero" fill="#797979" stroke="none" />
</svg>