<?xml version="1.0" encoding="utf-8"?>
<svg version="1.1" xmlns:xlink="http://www.w3.org/1999/xlink" width="13px" height="13px" viewBox="310 688  13 13" xmlns="http://www.w3.org/2000/svg">
  <path d="M 316.5 688  C 320.14 688  323 690.86  323 694.5  C 323 698.14  320.14 701  316.5 701  C 312.86 701  310 698.14  310 694.5  C 310 690.86  312.86 688  316.5 688  Z " fill-rule="nonzero" fill="#ffffff" stroke="none" />
  <path d="M 316.5 688.5  C 319.86 688.5  322.5 691.14  322.5 694.5  C 322.5 697.86  319.86 700.5  316.5 700.5  C 313.14 700.5  310.5 697.86  310.5 694.5  C 310.5 691.14  313.14 688.5  316.5 688.5  Z " stroke-width="1" stroke="#797979" fill="none" />
  <path d="M 316.5 697.75  C 314.68 697.75  313.25 696.32  313.25 694.5  C 313.25 692.68  314.68 691.25  316.5 691.25  C 318.32 691.25  319.75 692.68  319.75 694.5  C 319.75 696.32  318.32 697.75  316.5 697.75  " fill-rule="nonzero" fill="#797979" stroke="none" />
</svg>