<?xml version="1.0" encoding="utf-8"?>
<svg version="1.1" xmlns:xlink="http://www.w3.org/1999/xlink" width="13px" height="13px" viewBox="8 12  13 13" xmlns="http://www.w3.org/2000/svg">
  <path d="M 14.5 12  C 18.14 12  21 14.86  21 18.5  C 21 22.14  18.14 25  14.5 25  C 10.86 25  8 22.14  8 18.5  C 8 14.86  10.86 12  14.5 12  Z " fill-rule="nonzero" fill="#f0f0f0" stroke="none" />
  <path d="M 14.5 12.5  C 17.86 12.5  20.5 15.14  20.5 18.5  C 20.5 21.86  17.86 24.5  14.5 24.5  C 11.14 24.5  8.5 21.86  8.5 18.5  C 8.5 15.14  11.14 12.5  14.5 12.5  Z " stroke-width="1" stroke="#797979" fill="none" />
  <path d="M 14.5 21.75  C 12.68 21.75  11.25 20.32  11.25 18.5  C 11.25 16.68  12.68 15.25  14.5 15.25  C 16.32 15.25  17.75 16.68  17.75 18.5  C 17.75 20.32  16.32 21.75  14.5 21.75  " fill-rule="nonzero" fill="#797979" stroke="none" />
</svg>