<?xml version="1.0" encoding="utf-8"?>
<svg version="1.1" xmlns:xlink="http://www.w3.org/1999/xlink" width="13px" height="13px" viewBox="8 246  13 13" xmlns="http://www.w3.org/2000/svg">
  <path d="M 14.5 246  C 18.14 246  21 248.86  21 252.5  C 21 256.14  18.14 259  14.5 259  C 10.86 259  8 256.14  8 252.5  C 8 248.86  10.86 246  14.5 246  Z " fill-rule="nonzero" fill="#f0f0f0" stroke="none" />
  <path d="M 14.5 246.5  C 17.86 246.5  20.5 249.14  20.5 252.5  C 20.5 255.86  17.86 258.5  14.5 258.5  C 11.14 258.5  8.5 255.86  8.5 252.5  C 8.5 249.14  11.14 246.5  14.5 246.5  Z " stroke-width="1" stroke="#797979" fill="none" />
  <path d="M 14.5 255.75  C 12.68 255.75  11.25 254.32  11.25 252.5  C 11.25 250.68  12.68 249.25  14.5 249.25  C 16.32 249.25  17.75 250.68  17.75 252.5  C 17.75 254.32  16.32 255.75  14.5 255.75  " fill-rule="nonzero" fill="#797979" stroke="none" />
</svg>