<?xml version="1.0" encoding="utf-8"?>
<svg version="1.1" xmlns:xlink="http://www.w3.org/1999/xlink" width="13px" height="13px" viewBox="8 162  13 13" xmlns="http://www.w3.org/2000/svg">
  <path d="M 14.5 162  C 18.14 162  21 164.86  21 168.5  C 21 172.14  18.14 175  14.5 175  C 10.86 175  8 172.14  8 168.5  C 8 164.86  10.86 162  14.5 162  Z " fill-rule="nonzero" fill="#ffffff" stroke="none" />
  <path d="M 14.5 162.5  C 17.86 162.5  20.5 165.14  20.5 168.5  C 20.5 171.86  17.86 174.5  14.5 174.5  C 11.14 174.5  8.5 171.86  8.5 168.5  C 8.5 165.14  11.14 162.5  14.5 162.5  Z " stroke-width="1" stroke="#797979" fill="none" />
  <path d="M 14.5 171.75  C 12.68 171.75  11.25 170.32  11.25 168.5  C 11.25 166.68  12.68 165.25  14.5 165.25  C 16.32 165.25  17.75 166.68  17.75 168.5  C 17.75 170.32  16.32 171.75  14.5 171.75  " fill-rule="nonzero" fill="#797979" stroke="none" />
</svg>