<?xml version="1.0" encoding="utf-8"?>
<svg version="1.1" xmlns:xlink="http://www.w3.org/1999/xlink" width="13px" height="13px" viewBox="8 62  13 13" xmlns="http://www.w3.org/2000/svg">
  <path d="M 14.5 62  C 18.14 62  21 64.86  21 68.5  C 21 72.14  18.14 75  14.5 75  C 10.86 75  8 72.14  8 68.5  C 8 64.86  10.86 62  14.5 62  Z " fill-rule="nonzero" fill="#f0f0f0" stroke="none" />
  <path d="M 14.5 62.5  C 17.86 62.5  20.5 65.14  20.5 68.5  C 20.5 71.86  17.86 74.5  14.5 74.5  C 11.14 74.5  8.5 71.86  8.5 68.5  C 8.5 65.14  11.14 62.5  14.5 62.5  Z " stroke-width="1" stroke="#797979" fill="none" />
  <path d="M 14.5 71.75  C 12.68 71.75  11.25 70.32  11.25 68.5  C 11.25 66.68  12.68 65.25  14.5 65.25  C 16.32 65.25  17.75 66.68  17.75 68.5  C 17.75 70.32  16.32 71.75  14.5 71.75  " fill-rule="nonzero" fill="#797979" stroke="none" />
</svg>