<?xml version="1.0" encoding="utf-8"?>
<svg version="1.1" xmlns:xlink="http://www.w3.org/1999/xlink" width="13px" height="13px" viewBox="8 87  13 13" xmlns="http://www.w3.org/2000/svg">
  <path d="M 14.5 87  C 18.14 87  21 89.86  21 93.5  C 21 97.14  18.14 100  14.5 100  C 10.86 100  8 97.14  8 93.5  C 8 89.86  10.86 87  14.5 87  Z " fill-rule="nonzero" fill="#ffffff" stroke="none" />
  <path d="M 14.5 87.5  C 17.86 87.5  20.5 90.14  20.5 93.5  C 20.5 96.86  17.86 99.5  14.5 99.5  C 11.14 99.5  8.5 96.86  8.5 93.5  C 8.5 90.14  11.14 87.5  14.5 87.5  Z " stroke-width="1" stroke="#797979" fill="none" />
  <path d="M 14.5 96.75  C 12.68 96.75  11.25 95.32  11.25 93.5  C 11.25 91.68  12.68 90.25  14.5 90.25  C 16.32 90.25  17.75 91.68  17.75 93.5  C 17.75 95.32  16.32 96.75  14.5 96.75  " fill-rule="nonzero" fill="#797979" stroke="none" />
</svg>