<?xml version="1.0" encoding="utf-8"?>
<svg version="1.1" xmlns:xlink="http://www.w3.org/1999/xlink" width="13px" height="13px" viewBox="8 112  13 13" xmlns="http://www.w3.org/2000/svg">
  <path d="M 14.5 112  C 18.14 112  21 114.86  21 118.5  C 21 122.14  18.14 125  14.5 125  C 10.86 125  8 122.14  8 118.5  C 8 114.86  10.86 112  14.5 112  Z " fill-rule="nonzero" fill="#ffffff" stroke="none" />
  <path d="M 14.5 112.5  C 17.86 112.5  20.5 115.14  20.5 118.5  C 20.5 121.86  17.86 124.5  14.5 124.5  C 11.14 124.5  8.5 121.86  8.5 118.5  C 8.5 115.14  11.14 112.5  14.5 112.5  Z " stroke-width="1" stroke="#797979" fill="none" />
  <path d="M 14.5 121.75  C 12.68 121.75  11.25 120.32  11.25 118.5  C 11.25 116.68  12.68 115.25  14.5 115.25  C 16.32 115.25  17.75 116.68  17.75 118.5  C 17.75 120.32  16.32 121.75  14.5 121.75  " fill-rule="nonzero" fill="#797979" stroke="none" />
</svg>