<?xml version="1.0" encoding="utf-8"?>
<svg version="1.1" xmlns:xlink="http://www.w3.org/1999/xlink" width="13px" height="13px" viewBox="8 271  13 13" xmlns="http://www.w3.org/2000/svg">
  <path d="M 14.5 271  C 18.14 271  21 273.86  21 277.5  C 21 281.14  18.14 284  14.5 284  C 10.86 284  8 281.14  8 277.5  C 8 273.86  10.86 271  14.5 271  Z " fill-rule="nonzero" fill="#f0f0f0" stroke="none" />
  <path d="M 14.5 271.5  C 17.86 271.5  20.5 274.14  20.5 277.5  C 20.5 280.86  17.86 283.5  14.5 283.5  C 11.14 283.5  8.5 280.86  8.5 277.5  C 8.5 274.14  11.14 271.5  14.5 271.5  Z " stroke-width="1" stroke="#797979" fill="none" />
  <path d="M 14.5 280.75  C 12.68 280.75  11.25 279.32  11.25 277.5  C 11.25 275.68  12.68 274.25  14.5 274.25  C 16.32 274.25  17.75 275.68  17.75 277.5  C 17.75 279.32  16.32 280.75  14.5 280.75  " fill-rule="nonzero" fill="#797979" stroke="none" />
</svg>