<?xml version="1.0" encoding="utf-8"?>
<svg version="1.1" xmlns:xlink="http://www.w3.org/1999/xlink" width="25px" height="28px" xmlns="http://www.w3.org/2000/svg">
  <g transform="matrix(1 0 0 1 -9 -3 )">
    <path d="M 25 3.8997980913358115  C 25 1.7566404270997675  23.475658648042856 0  21.559593341669263 0  L 3.4901775583755894 0  C 1.5741122799866651 0  0 1.7566404270997675  0 3.8997980913358115  L 0 19.839703487054837  C 0 21.98286115129089  1.5741408803174175 23.702922243158277  3.4901775583755894 23.702922243158277  L 8.332989709594267 23.702922243158277  L 11.913487980011936 27.71034427387496  C 12.083075600137477 27.899551002431746  12.305068736881946 28  12.527061873626444 28  C 12.7496850012182 28  12.972365413425468 27.90778293045039  13.142067602782017 27.717583258384153  C 13.480927847609447 27.33763233833324  13.480297856762178 26.72388763851533  13.140635767240951 26.344833566627617  L 9.30581328128883 22.049101144633514  C 9.142955330183309 21.867357643928127  8.922308116048944 21.749035381477007  8.692239387674322 21.749035381477007  L 3.4901775583755894 21.749035350175582  C 2.5321592193465037 21.749035350175582  1.7468499662872037 20.911266292848012  2 19.839703487054837  L 2 3.8997980913358115  C 1.746849938302537 2.828235254241222  2.5321592193465037 1.9218559664684927  3.4901775303909233 2  L 21.559593313684598 2  C 22.517611652713683 1.9218559664684927  23.25315000572812 2.828203232892944  23 3.8997980913358115  L 23 19.839703487054837  C 23.25315000572812 20.91126632414944  22.517611624729017 21.749035350175582  21.559593313684598 21.749035350175582  L 14.436082459587068 21.749035350175582  C 13.956300101678815 21.749035350175582  13.567353933398227 22.18933255130473  13.567353933398227 22.725978796666933  C 13.567353933398227 23.262625042029143  13.956300101678815 23.70292224315827  14.436082459587068 23.70292224315827  L 21.559593341669263 23.70292224315827  C 23.47565862005819 23.70292224315827  24.99999997201532 21.98286115129089  25 19.839703487054837  L 25 3.8997980913358115  Z " fill-rule="nonzero" fill="#ffffff" stroke="none" transform="matrix(1 0 0 1 9 3 )" />
  </g>
</svg>