<?xml version="1.0" encoding="utf-8"?>
<svg version="1.1" xmlns:xlink="http://www.w3.org/1999/xlink" width="13px" height="13px" viewBox="12 268  13 13" xmlns="http://www.w3.org/2000/svg">
  <path d="M 18.5 268  C 22.14 268  25 270.86  25 274.5  C 25 278.14  22.14 281  18.5 281  C 14.86 281  12 278.14  12 274.5  C 12 270.86  14.86 268  18.5 268  Z " fill-rule="nonzero" fill="#ffffff" stroke="none" />
  <path d="M 18.5 268.5  C 21.86 268.5  24.5 271.14  24.5 274.5  C 24.5 277.86  21.86 280.5  18.5 280.5  C 15.14 280.5  12.5 277.86  12.5 274.5  C 12.5 271.14  15.14 268.5  18.5 268.5  Z " stroke-width="1" stroke="#797979" fill="none" />
  <path d="M 18.5 277.75  C 16.68 277.75  15.25 276.32  15.25 274.5  C 15.25 272.68  16.68 271.25  18.5 271.25  C 20.32 271.25  21.75 272.68  21.75 274.5  C 21.75 276.32  20.32 277.75  18.5 277.75  " fill-rule="nonzero" fill="#797979" stroke="none" />
</svg>