<?xml version="1.0" encoding="utf-8"?>
<svg version="1.1" xmlns:xlink="http://www.w3.org/1999/xlink" width="13px" height="13px" viewBox="12 296  13 13" xmlns="http://www.w3.org/2000/svg">
  <path d="M 18.5 296  C 22.14 296  25 298.86  25 302.5  C 25 306.14  22.14 309  18.5 309  C 14.86 309  12 306.14  12 302.5  C 12 298.86  14.86 296  18.5 296  Z " fill-rule="nonzero" fill="#ffffff" stroke="none" />
  <path d="M 18.5 296.5  C 21.86 296.5  24.5 299.14  24.5 302.5  C 24.5 305.86  21.86 308.5  18.5 308.5  C 15.14 308.5  12.5 305.86  12.5 302.5  C 12.5 299.14  15.14 296.5  18.5 296.5  Z " stroke-width="1" stroke="#797979" fill="none" />
  <path d="M 18.5 305.75  C 16.68 305.75  15.25 304.32  15.25 302.5  C 15.25 300.68  16.68 299.25  18.5 299.25  C 20.32 299.25  21.75 300.68  21.75 302.5  C 21.75 304.32  20.32 305.75  18.5 305.75  " fill-rule="nonzero" fill="#797979" stroke="none" />
</svg>