<?xml version="1.0" encoding="utf-8"?>
<svg version="1.1" xmlns:xlink="http://www.w3.org/1999/xlink" width="104px" height="26px" xmlns="http://www.w3.org/2000/svg">
  <g transform="matrix(1 0 0 1 -237 -27 )">
    <path d="M 237.5 32  A 4.5 4.5 0 0 1 242 27.5 L 336 27.5  A 4.5 4.5 0 0 1 340.5 32 L 340.5 48  A 4.5 4.5 0 0 1 336 52.5 L 242 52.5  A 4.5 4.5 0 0 1 237.5 48 L 237.5 32  Z " fill-rule="nonzero" fill="#ffffff" stroke="none" />
    <path d="M 237.5 32  A 4.5 4.5 0 0 1 242 27.5 L 336 27.5  A 4.5 4.5 0 0 1 340.5 32 L 340.5 48  A 4.5 4.5 0 0 1 336 52.5 L 242 52.5  A 4.5 4.5 0 0 1 237.5 48 L 237.5 32  Z " stroke-width="1" stroke="#adadad" fill="none" />
  </g>
</svg>