<?xml version="1.0" encoding="utf-8"?>
<svg version="1.1" xmlns:xlink="http://www.w3.org/1999/xlink" width="13px" height="13px" viewBox="50 286  13 13" xmlns="http://www.w3.org/2000/svg">
  <path d="M 56.5 286  C 60.14 286  63 288.86  63 292.5  C 63 296.14  60.14 299  56.5 299  C 52.86 299  50 296.14  50 292.5  C 50 288.86  52.86 286  56.5 286  Z " fill-rule="nonzero" fill="#f0f0f0" stroke="none" />
  <path d="M 56.5 286.5  C 59.86 286.5  62.5 289.14  62.5 292.5  C 62.5 295.86  59.86 298.5  56.5 298.5  C 53.14 298.5  50.5 295.86  50.5 292.5  C 50.5 289.14  53.14 286.5  56.5 286.5  Z " stroke-width="1" stroke="#797979" fill="none" />
  <path d="M 56.5 295.75  C 54.68 295.75  53.25 294.32  53.25 292.5  C 53.25 290.68  54.68 289.25  56.5 289.25  C 58.32 289.25  59.75 290.68  59.75 292.5  C 59.75 294.32  58.32 295.75  56.5 295.75  " fill-rule="nonzero" fill="#797979" stroke="none" />
</svg>