<?xml version="1.0" encoding="utf-8"?>
<svg version="1.1" xmlns:xlink="http://www.w3.org/1999/xlink" width="13px" height="13px" viewBox="50 210  13 13" xmlns="http://www.w3.org/2000/svg">
  <path d="M 56.5 210  C 60.14 210  63 212.86  63 216.5  C 63 220.14  60.14 223  56.5 223  C 52.86 223  50 220.14  50 216.5  C 50 212.86  52.86 210  56.5 210  Z " fill-rule="nonzero" fill="#ffffff" stroke="none" />
  <path d="M 56.5 210.5  C 59.86 210.5  62.5 213.14  62.5 216.5  C 62.5 219.86  59.86 222.5  56.5 222.5  C 53.14 222.5  50.5 219.86  50.5 216.5  C 50.5 213.14  53.14 210.5  56.5 210.5  Z " stroke-width="1" stroke="#797979" fill="none" />
  <path d="M 56.5 219.75  C 54.68 219.75  53.25 218.32  53.25 216.5  C 53.25 214.68  54.68 213.25  56.5 213.25  C 58.32 213.25  59.75 214.68  59.75 216.5  C 59.75 218.32  58.32 219.75  56.5 219.75  " fill-rule="nonzero" fill="#797979" stroke="none" />
</svg>