<?xml version="1.0" encoding="utf-8"?>
<svg version="1.1" xmlns:xlink="http://www.w3.org/1999/xlink" width="13px" height="13px" viewBox="509 286  13 13" xmlns="http://www.w3.org/2000/svg">
  <path d="M 515.5 286  C 519.14 286  522 288.86  522 292.5  C 522 296.14  519.14 299  515.5 299  C 511.86 299  509 296.14  509 292.5  C 509 288.86  511.86 286  515.5 286  Z " fill-rule="nonzero" fill="#f0f0f0" stroke="none" />
  <path d="M 515.5 286.5  C 518.86 286.5  521.5 289.14  521.5 292.5  C 521.5 295.86  518.86 298.5  515.5 298.5  C 512.14 298.5  509.5 295.86  509.5 292.5  C 509.5 289.14  512.14 286.5  515.5 286.5  Z " stroke-width="1" stroke="#797979" fill="none" />
  <path d="M 515.5 295.75  C 513.68 295.75  512.25 294.32  512.25 292.5  C 512.25 290.68  513.68 289.25  515.5 289.25  C 517.32 289.25  518.75 290.68  518.75 292.5  C 518.75 294.32  517.32 295.75  515.5 295.75  " fill-rule="nonzero" fill="#797979" stroke="none" />
</svg>