<?xml version="1.0" encoding="utf-8"?>
<svg version="1.1" xmlns:xlink="http://www.w3.org/1999/xlink" width="13px" height="13px" viewBox="26 684  13 13" xmlns="http://www.w3.org/2000/svg">
  <path d="M 32.5 684  C 36.14 684  39 686.86  39 690.5  C 39 694.14  36.14 697  32.5 697  C 28.86 697  26 694.14  26 690.5  C 26 686.86  28.86 684  32.5 684  Z " fill-rule="nonzero" fill="#f0f0f0" stroke="none" />
  <path d="M 32.5 684.5  C 35.86 684.5  38.5 687.14  38.5 690.5  C 38.5 693.86  35.86 696.5  32.5 696.5  C 29.14 696.5  26.5 693.86  26.5 690.5  C 26.5 687.14  29.14 684.5  32.5 684.5  Z " stroke-width="1" stroke="#797979" fill="none" />
  <path d="M 32.5 693.75  C 30.68 693.75  29.25 692.32  29.25 690.5  C 29.25 688.68  30.68 687.25  32.5 687.25  C 34.32 687.25  35.75 688.68  35.75 690.5  C 35.75 692.32  34.32 693.75  32.5 693.75  " fill-rule="nonzero" fill="#797979" stroke="none" />
</svg>