<?xml version="1.0" encoding="utf-8"?>
<svg version="1.1" xmlns:xlink="http://www.w3.org/1999/xlink" width="178px" height="19px" xmlns="http://www.w3.org/2000/svg">
  <defs>
    <mask fill="white" id="clip66">
      <path d="M 0 19  L 0 0  L 54.24761904761782 0  L 62.42361111110999 0  L 178 0  L 178 19  L 0 19  Z " fill-rule="evenodd" />
    </mask>
  </defs>
  <g transform="matrix(1 0 0 1 -9 -43 )">
    <path d="M 0 19  L 0 0  L 54.24761904761782 0  L 62.42361111110999 0  L 178 0  L 178 19  L 0 19  Z " fill-rule="nonzero" fill="#fcfcfc" stroke="none" transform="matrix(1 0 0 1 9 43 )" />
    <path d="M 0 19  L 0 0  L 54.24761904761782 0  L 62.42361111110999 0  L 178 0  L 178 19  L 0 19  Z " stroke-width="2" stroke="#797979" fill="none" transform="matrix(1 0 0 1 9 43 )" mask="url(#clip66)" />
  </g>
</svg>