<?xml version="1.0" encoding="utf-8"?>
<svg version="1.1" xmlns:xlink="http://www.w3.org/1999/xlink" width="19px" height="23px" xmlns="http://www.w3.org/2000/svg">
  <g transform="matrix(1 0 0 1 -350 -56 )">
    <path d="M 18.798125 8.63857  C 18.798046981973933 8.196357648524076  18.652866763802084 7.772291629538563  18.394517500000003 7.459647500000001  L 12.837682500000001 0.7329525000000005  C 12.579411262555102 0.4202139175027382  12.229095855567069 0.2444694428736627  11.86379 0.24437500000000043  L 1.5793750000000002 0.24437500000000043  C 0.8186027571080825 0.24437500000000043  0.20187500000000003 0.9909401796571525  0.20187500000000003 1.9118750000000002  L 0.20187500000000003 21.088125  C 0.20187500000000003 22.00905982034285  0.8186027571080821 22.755625  1.5793750000000002 22.755625  L 17.420625 22.755625  C 18.18139724289192 22.755625  18.798125 22.00905982034285  18.798125 21.088125  L 18.798125 8.63857  Z M 4.67875 4.83  L 4.67875 1.9118750000000002  L 8.81125 1.9118750000000002  L 8.81125 4.83  L 4.67875 4.83  Z M 14.321250000000001 17.33625  L 14.321250000000001 21.088125  L 4.67875 21.088125  L 4.67875 17.33625  L 14.321250000000001 17.33625  Z M 17.420625 8.63857  L 17.420625 21.088125  L 15.69875 21.088125  L 15.69875 16.5025  C 15.69875 16.04203258982858  15.390386121445959 15.668750000000001  15.010000000000002 15.668750000000001  L 3.9899999999999998 15.668750000000001  C 3.609613878554041 15.668750000000001  3.3012499999999996 16.04203258982858  3.3012499999999996 16.5025  L 3.3012499999999996 21.088125  L 1.5793750000000002 21.088125  L 1.5793750000000002 1.9118750000000002  L 3.3012499999999996 1.9118750000000002  L 3.3012499999999996 5.66375  C 3.3012499999999996 6.124217410171424  3.609613878554041 6.4975  3.9899999999999998 6.4975  L 9.5 6.4975  C 9.880386121445959 6.4975  10.18875 6.124217410171424  10.18875 5.66375  L 10.18875 1.9118750000000002  L 11.863789999999998 1.9118750000000002  L 17.420625 8.63857  Z " fill-rule="nonzero" fill="#1e1b1b" stroke="none" transform="matrix(1 0 0 1 350 56 )" />
  </g>
</svg>