<?xml version="1.0" encoding="utf-8"?>
<svg version="1.1" xmlns:xlink="http://www.w3.org/1999/xlink" width="24px" height="24px" xmlns="http://www.w3.org/2000/svg">
  <g transform="matrix(1 0 0 1 -39 -118 )">
    <path d="M 23.999999966499328 24  C 24.000331508989255 19.570816684898507  21.53978495877258 15.50481095231249  17.60662763089656 13.43507548563611  C 16.10855593536419 14.743958872441311  14.151121302278725 15.53748009984129  12.000000062920119 15.53748009984129  C 9.84887882356151 15.53748009984129  7.889730121326604 14.743958872441311  6.391658425794226 13.43507548563611  C 2.45916476863322 15.505270909156941  -0.0006672174875310774 19.571185898993818  0 24  L 23.999999966499328 24  Z M 5.001571294186633 7.076666725123741  C 5.001570843901621 10.925334056603553  8.13432013241476 14.04582371375879  12.000000062920112 14.04770799843783  C 15.864456384294876 14.046766148196781  18.99671560219874 10.927528675865359  18.99671560219874 7.080079914333589  C 18.99671560219874 7.078942184543524  18.996715322300535 7.077804454777323  18.99671476250415 7.076666725123741  C 18.9972860944178 7.040323362949687  18.997571773493473 7.003976106117686  18.997571773493473 6.967628292876591  C 18.997571773493473 3.119513444231284  15.864268497068137 0  11.999143028345388 0  C 8.134017559622649 0  5.000714283197305 3.119513444231284  5.000714283197305 6.967628292876591  C 5.000714283197305 7.003976106117686  5.000999962272977 7.040323362949687  5.001571294186633 7.076666725123741  Z " fill-rule="nonzero" fill="#cccccc" stroke="none" transform="matrix(1 0 0 1 39 118 )" />
  </g>
</svg>