<?xml version="1.0" encoding="utf-8"?>
<svg version="1.1" xmlns:xlink="http://www.w3.org/1999/xlink" width="19px" height="24px" xmlns="http://www.w3.org/2000/svg">
  <g transform="matrix(1 0 0 1 -38 -188 )">
    <path d="M 14.251445095598614 9.998631077328977  L 4.751445095598614 9.998631077328977  L 4.751445095598614 7.01163586499985  C 4.7601156127021005 6.176591372382099  5.0404624359430725 2.0013689360487827  9.502890191197235 2.0013689360487827  C 13.965317946451396 2.0013689360487827  14.242774578495135 6.176591372382099  14.254335286795849 6.9979466338305025  L 14.251445095598614 9.998631077328977  Z M 11.398843923521104 15.9972621234432  C 11.401734114718337 16.733743996459573  11.017341029747369 17.37166322311907  10.450867057359172 17.719370272739948  L 10.450867057359172 20.996577662107704  L 8.552023133838063 20.996577662107704  L 8.552023133838063 17.719370272739948  C 7.985549133205756 17.37166322311907  7.601156076478889 16.733743996459573  7.601156076478889 15.9972621234432  C 7.601156076478889 14.891170393477225  8.450867063305292 13.995893187394387  9.5 13.995893187394387  C 10.5491329366947 13.995893187394387  11.398843923521104 14.891170393477225  11.398843923521104 15.9972621234432  Z M 19 9.998631077328977  L 16.150289019119725 9.998631077328977  L 16.150289019119725 6.9979466070749545  C 16.150289019119725 6.9979466070749545  16.150289019119725 0  9.5 0  C 2.849710980880276 0  2.849710980880276 6.9979466070749545  2.849710980880276 6.9979466070749545  L 2.849710980880276 9.998631077328977  L 0 9.998631077328977  L 0 24  L 19 24  L 19 9.998631077328977  Z " fill-rule="nonzero" fill="#cccccc" stroke="none" transform="matrix(1 0 0 1 38 188 )" />
  </g>
</svg>