<?xml version="1.0" encoding="utf-8"?>
<svg version="1.1" xmlns:xlink="http://www.w3.org/1999/xlink" width="300px" height="50px" xmlns="http://www.w3.org/2000/svg">
  <g transform="matrix(1 0 0 1 -25 -175 )">
    <path d="M 26 185  A 9 9 0 0 1 35 176 L 315 176  A 9 9 0 0 1 324 185 L 324 215  A 9 9 0 0 1 315 224 L 35 224  A 9 9 0 0 1 26 215 L 26 185  Z " fill-rule="nonzero" fill="#ffffff" stroke="none" fill-opacity="0.4980392156862745" />
    <path d="M 25.5 185  A 9.5 9.5 0 0 1 35 175.5 L 315 175.5  A 9.5 9.5 0 0 1 324.5 185 L 324.5 215  A 9.5 9.5 0 0 1 315 224.5 L 35 224.5  A 9.5 9.5 0 0 1 25.5 215 L 25.5 185  Z " stroke-width="1" stroke="#cccccc" fill="none" stroke-opacity="0.6980392156862745" />
  </g>
</svg>