<?xml version="1.0" encoding="utf-8"?>
<svg version="1.1" xmlns:xlink="http://www.w3.org/1999/xlink" width="300px" height="50px" xmlns="http://www.w3.org/2000/svg">
  <g transform="matrix(1 0 0 1 -25 -175 )">
    <path d="M 26.5 185  A 8.5 8.5 0 0 1 35 176.5 L 315 176.5  A 8.5 8.5 0 0 1 323.5 185 L 323.5 215  A 8.5 8.5 0 0 1 315 223.5 L 35 223.5  A 8.5 8.5 0 0 1 26.5 215 L 26.5 185  Z " fill-rule="nonzero" fill="#ffffff" stroke="none" fill-opacity="0" />
    <path d="M 26 185  A 9 9 0 0 1 35 176 L 315 176  A 9 9 0 0 1 324 185 L 324 215  A 9 9 0 0 1 315 224 L 35 224  A 9 9 0 0 1 26 215 L 26 185  Z " stroke-width="2" stroke="#1abc9c" fill="none" />
  </g>
</svg>