<?xml version="1.0" encoding="utf-8"?>
<svg version="1.1" xmlns:xlink="http://www.w3.org/1999/xlink" width="13px" height="13px" viewBox="659 371  13 13" xmlns="http://www.w3.org/2000/svg">
  <path d="M 665.5 371  C 669.14 371  672 373.86  672 377.5  C 672 381.14  669.14 384  665.5 384  C 661.86 384  659 381.14  659 377.5  C 659 373.86  661.86 371  665.5 371  Z " fill-rule="nonzero" fill="#f0f0f0" stroke="none" />
  <path d="M 665.5 371.5  C 668.86 371.5  671.5 374.14  671.5 377.5  C 671.5 380.86  668.86 383.5  665.5 383.5  C 662.14 383.5  659.5 380.86  659.5 377.5  C 659.5 374.14  662.14 371.5  665.5 371.5  Z " stroke-width="1" stroke="#797979" fill="none" />
  <path d="M 665.5 380.75  C 663.68 380.75  662.25 379.32  662.25 377.5  C 662.25 375.68  663.68 374.25  665.5 374.25  C 667.32 374.25  668.75 375.68  668.75 377.5  C 668.75 379.32  667.32 380.75  665.5 380.75  " fill-rule="nonzero" fill="#797979" stroke="none" />
</svg>