<?xml version="1.0" encoding="utf-8"?>
<svg version="1.1" xmlns:xlink="http://www.w3.org/1999/xlink" width="32px" height="32px" xmlns="http://www.w3.org/2000/svg">
  <g transform="matrix(1 0 0 1 -364 -266 )">
    <path d="M 380 267  C 388.4 267  395 273.6  395 282  C 395 290.4  388.4 297  380 297  C 371.6 297  365 290.4  365 282  C 365 273.6  371.6 267  380 267  Z " fill-rule="nonzero" fill="#eae6e0" stroke="none" />
    <path d="M 380 267  C 388.4 267  395 273.6  395 282  C 395 290.4  388.4 297  380 297  C 371.6 297  365 290.4  365 282  C 365 273.6  371.6 267  380 267  Z " stroke-width="2" stroke="#4b4b4b" fill="none" />
  </g>
</svg>