<?xml version="1.0" encoding="utf-8"?>
<svg version="1.1" xmlns:xlink="http://www.w3.org/1999/xlink" width="32px" height="32px" xmlns="http://www.w3.org/2000/svg">
  <g transform="matrix(1 0 0 1 -406 -266 )">
    <path d="M 422 266  C 430.96 266  438 273.04  438 282  C 438 290.96  430.96 298  422 298  C 413.04 298  406 290.96  406 282  C 406 273.04  413.04 266  422 266  Z " fill-rule="nonzero" fill="#000080" stroke="none" />
    <path d="M 422 266.5  C 430.68 266.5  437.5 273.32  437.5 282  C 437.5 290.68  430.68 297.5  422 297.5  C 413.32 297.5  406.5 290.68  406.5 282  C 406.5 273.32  413.32 266.5  422 266.5  Z " stroke-width="1" stroke="#c2c2c2" fill="none" />
  </g>
</svg>