<?xml version="1.0" encoding="utf-8"?>
<svg version="1.1" xmlns:xlink="http://www.w3.org/1999/xlink" width="32px" height="32px" xmlns="http://www.w3.org/2000/svg">
  <g transform="matrix(1 0 0 1 -406 -266 )">
    <path d="M 422 267  C 430.4 267  437 273.6  437 282  C 437 290.4  430.4 297  422 297  C 413.6 297  407 290.4  407 282  C 407 273.6  413.6 267  422 267  Z " fill-rule="nonzero" fill="#000080" stroke="none" />
    <path d="M 422 267  C 430.4 267  437 273.6  437 282  C 437 290.4  430.4 297  422 297  C 413.6 297  407 290.4  407 282  C 407 273.6  413.6 267  422 267  Z " stroke-width="2" stroke="#4b4b4b" fill="none" />
  </g>
</svg>