<?xml version="1.0" encoding="utf-8"?>
<svg version="1.1" xmlns:xlink="http://www.w3.org/1999/xlink" width="32px" height="32px" xmlns="http://www.w3.org/2000/svg">
  <g transform="matrix(1 0 0 1 -448 -266 )">
    <path d="M 464 266  C 472.96 266  480 273.04  480 282  C 480 290.96  472.96 298  464 298  C 455.04 298  448 290.96  448 282  C 448 273.04  455.04 266  464 266  Z " fill-rule="nonzero" fill="#cc5240" stroke="none" />
    <path d="M 464 266.5  C 472.68 266.5  479.5 273.32  479.5 282  C 479.5 290.68  472.68 297.5  464 297.5  C 455.32 297.5  448.5 290.68  448.5 282  C 448.5 273.32  455.32 266.5  464 266.5  Z " stroke-width="1" stroke="#333333" fill="none" />
  </g>
</svg>