<?xml version="1.0" encoding="utf-8"?>
<svg version="1.1" xmlns:xlink="http://www.w3.org/1999/xlink" width="32px" height="32px" xmlns="http://www.w3.org/2000/svg">
  <g transform="matrix(1 0 0 1 -448 -266 )">
    <path d="M 464 267  C 472.4 267  479 273.6  479 282  C 479 290.4  472.4 297  464 297  C 455.6 297  449 290.4  449 282  C 449 273.6  455.6 267  464 267  Z " fill-rule="nonzero" fill="#cc5240" stroke="none" />
    <path d="M 464 267  C 472.4 267  479 273.6  479 282  C 479 290.4  472.4 297  464 297  C 455.6 297  449 290.4  449 282  C 449 273.6  455.6 267  464 267  Z " stroke-width="2" stroke="#4b4b4b" fill="none" />
  </g>
</svg>