<?xml version="1.0" encoding="utf-8"?>
<svg version="1.1" xmlns:xlink="http://www.w3.org/1999/xlink" width="32px" height="32px" xmlns="http://www.w3.org/2000/svg">
  <g transform="matrix(1 0 0 1 -490 -266 )">
    <path d="M 506 267  C 514.4 267  521 273.6  521 282  C 521 290.4  514.4 297  506 297  C 497.6 297  491 290.4  491 282  C 491 273.6  497.6 267  506 267  Z " fill-rule="nonzero" fill="#232325" stroke="none" />
    <path d="M 506 267  C 514.4 267  521 273.6  521 282  C 521 290.4  514.4 297  506 297  C 497.6 297  491 290.4  491 282  C 491 273.6  497.6 267  506 267  Z " stroke-width="2" stroke="#4b4b4b" fill="none" />
  </g>
</svg>