<?xml version="1.0" encoding="utf-8"?>
<svg version="1.1" xmlns:xlink="http://www.w3.org/1999/xlink" width="13px" height="13px" viewBox="47 164  13 13" xmlns="http://www.w3.org/2000/svg">
  <path d="M 53.5 164  C 57.14 164  60 166.86  60 170.5  C 60 174.14  57.14 177  53.5 177  C 49.86 177  47 174.14  47 170.5  C 47 166.86  49.86 164  53.5 164  Z " fill-rule="nonzero" fill="#ffffff" stroke="none" />
  <path d="M 53.5 164.5  C 56.86 164.5  59.5 167.14  59.5 170.5  C 59.5 173.86  56.86 176.5  53.5 176.5  C 50.14 176.5  47.5 173.86  47.5 170.5  C 47.5 167.14  50.14 164.5  53.5 164.5  Z " stroke-width="1" stroke="#797979" fill="none" />
  <path d="M 53.5 173.75  C 51.68 173.75  50.25 172.32  50.25 170.5  C 50.25 168.68  51.68 167.25  53.5 167.25  C 55.32 167.25  56.75 168.68  56.75 170.5  C 56.75 172.32  55.32 173.75  53.5 173.75  " fill-rule="nonzero" fill="#797979" stroke="none" />
</svg>