<?xml version="1.0" encoding="utf-8"?>
<svg version="1.1" xmlns:xlink="http://www.w3.org/1999/xlink" width="13px" height="13px" viewBox="316 204  13 13" xmlns="http://www.w3.org/2000/svg">
  <path d="M 322.5 204  C 326.14 204  329 206.86  329 210.5  C 329 214.14  326.14 217  322.5 217  C 318.86 217  316 214.14  316 210.5  C 316 206.86  318.86 204  322.5 204  Z " fill-rule="nonzero" fill="#f0f0f0" stroke="none" />
  <path d="M 322.5 204.5  C 325.86 204.5  328.5 207.14  328.5 210.5  C 328.5 213.86  325.86 216.5  322.5 216.5  C 319.14 216.5  316.5 213.86  316.5 210.5  C 316.5 207.14  319.14 204.5  322.5 204.5  Z " stroke-width="1" stroke="#797979" fill="none" />
  <path d="M 322.5 213.75  C 320.68 213.75  319.25 212.32  319.25 210.5  C 319.25 208.68  320.68 207.25  322.5 207.25  C 324.32 207.25  325.75 208.68  325.75 210.5  C 325.75 212.32  324.32 213.75  322.5 213.75  " fill-rule="nonzero" fill="#797979" stroke="none" />
</svg>