<?xml version="1.0" encoding="utf-8"?>
<svg version="1.1" xmlns:xlink="http://www.w3.org/1999/xlink" width="13px" height="13px" viewBox="148 257  13 13" xmlns="http://www.w3.org/2000/svg">
  <path d="M 154.5 257  C 158.14 257  161 259.86  161 263.5  C 161 267.14  158.14 270  154.5 270  C 150.86 270  148 267.14  148 263.5  C 148 259.86  150.86 257  154.5 257  Z " fill-rule="nonzero" fill="#ffffff" stroke="none" />
  <path d="M 154.5 257.5  C 157.86 257.5  160.5 260.14  160.5 263.5  C 160.5 266.86  157.86 269.5  154.5 269.5  C 151.14 269.5  148.5 266.86  148.5 263.5  C 148.5 260.14  151.14 257.5  154.5 257.5  Z " stroke-width="1" stroke="#797979" fill="none" />
  <path d="M 154.5 266.75  C 152.68 266.75  151.25 265.32  151.25 263.5  C 151.25 261.68  152.68 260.25  154.5 260.25  C 156.32 260.25  157.75 261.68  157.75 263.5  C 157.75 265.32  156.32 266.75  154.5 266.75  " fill-rule="nonzero" fill="#797979" stroke="none" />
</svg>