<?xml version="1.0" encoding="utf-8"?>
<svg version="1.1" xmlns:xlink="http://www.w3.org/1999/xlink" width="13px" height="13px" viewBox="259 257  13 13" xmlns="http://www.w3.org/2000/svg">
  <path d="M 265.5 257  C 269.14 257  272 259.86  272 263.5  C 272 267.14  269.14 270  265.5 270  C 261.86 270  259 267.14  259 263.5  C 259 259.86  261.86 257  265.5 257  Z " fill-rule="nonzero" fill="#f0f0f0" stroke="none" />
  <path d="M 265.5 257.5  C 268.86 257.5  271.5 260.14  271.5 263.5  C 271.5 266.86  268.86 269.5  265.5 269.5  C 262.14 269.5  259.5 266.86  259.5 263.5  C 259.5 260.14  262.14 257.5  265.5 257.5  Z " stroke-width="1" stroke="#797979" fill="none" />
  <path d="M 265.5 266.75  C 263.68 266.75  262.25 265.32  262.25 263.5  C 262.25 261.68  263.68 260.25  265.5 260.25  C 267.32 260.25  268.75 261.68  268.75 263.5  C 268.75 265.32  267.32 266.75  265.5 266.75  " fill-rule="nonzero" fill="#797979" stroke="none" />
</svg>