<?xml version="1.0" encoding="utf-8"?>
<svg version="1.1" xmlns:xlink="http://www.w3.org/1999/xlink" width="13px" height="13px" viewBox="433 257  13 13" xmlns="http://www.w3.org/2000/svg">
  <path d="M 439.5 257  C 443.14 257  446 259.86  446 263.5  C 446 267.14  443.14 270  439.5 270  C 435.86 270  433 267.14  433 263.5  C 433 259.86  435.86 257  439.5 257  Z " fill-rule="nonzero" fill="#f0f0f0" stroke="none" />
  <path d="M 439.5 257.5  C 442.86 257.5  445.5 260.14  445.5 263.5  C 445.5 266.86  442.86 269.5  439.5 269.5  C 436.14 269.5  433.5 266.86  433.5 263.5  C 433.5 260.14  436.14 257.5  439.5 257.5  Z " stroke-width="1" stroke="#797979" fill="none" />
  <path d="M 439.5 266.75  C 437.68 266.75  436.25 265.32  436.25 263.5  C 436.25 261.68  437.68 260.25  439.5 260.25  C 441.32 260.25  442.75 261.68  442.75 263.5  C 442.75 265.32  441.32 266.75  439.5 266.75  " fill-rule="nonzero" fill="#797979" stroke="none" />
</svg>