<?xml version="1.0" encoding="utf-8"?>
<svg version="1.1" xmlns:xlink="http://www.w3.org/1999/xlink" width="13px" height="13px" viewBox="575 257  13 13" xmlns="http://www.w3.org/2000/svg">
  <path d="M 581.5 257  C 585.14 257  588 259.86  588 263.5  C 588 267.14  585.14 270  581.5 270  C 577.86 270  575 267.14  575 263.5  C 575 259.86  577.86 257  581.5 257  Z " fill-rule="nonzero" fill="#ffffff" stroke="none" />
  <path d="M 581.5 257.5  C 584.86 257.5  587.5 260.14  587.5 263.5  C 587.5 266.86  584.86 269.5  581.5 269.5  C 578.14 269.5  575.5 266.86  575.5 263.5  C 575.5 260.14  578.14 257.5  581.5 257.5  Z " stroke-width="1" stroke="#797979" fill="none" />
  <path d="M 581.5 266.75  C 579.68 266.75  578.25 265.32  578.25 263.5  C 578.25 261.68  579.68 260.25  581.5 260.25  C 583.32 260.25  584.75 261.68  584.75 263.5  C 584.75 265.32  583.32 266.75  581.5 266.75  " fill-rule="nonzero" fill="#797979" stroke="none" />
</svg>