<?xml version="1.0" encoding="utf-8"?>
<svg version="1.1" xmlns:xlink="http://www.w3.org/1999/xlink" width="13px" height="13px" viewBox="149 209  13 13" xmlns="http://www.w3.org/2000/svg">
  <path d="M 155.5 209  C 159.14 209  162 211.86  162 215.5  C 162 219.14  159.14 222  155.5 222  C 151.86 222  149 219.14  149 215.5  C 149 211.86  151.86 209  155.5 209  Z " fill-rule="nonzero" fill="#f0f0f0" stroke="none" />
  <path d="M 155.5 209.5  C 158.86 209.5  161.5 212.14  161.5 215.5  C 161.5 218.86  158.86 221.5  155.5 221.5  C 152.14 221.5  149.5 218.86  149.5 215.5  C 149.5 212.14  152.14 209.5  155.5 209.5  Z " stroke-width="1" stroke="#797979" fill="none" />
  <path d="M 155.5 218.75  C 153.68 218.75  152.25 217.32  152.25 215.5  C 152.25 213.68  153.68 212.25  155.5 212.25  C 157.32 212.25  158.75 213.68  158.75 215.5  C 158.75 217.32  157.32 218.75  155.5 218.75  " fill-rule="nonzero" fill="#797979" stroke="none" />
</svg>