<?xml version="1.0" encoding="utf-8"?>
<svg version="1.1" xmlns:xlink="http://www.w3.org/1999/xlink" width="13px" height="13px" viewBox="260 209  13 13" xmlns="http://www.w3.org/2000/svg">
  <path d="M 266.5 209  C 270.14 209  273 211.86  273 215.5  C 273 219.14  270.14 222  266.5 222  C 262.86 222  260 219.14  260 215.5  C 260 211.86  262.86 209  266.5 209  Z " fill-rule="nonzero" fill="#f0f0f0" stroke="none" />
  <path d="M 266.5 209.5  C 269.86 209.5  272.5 212.14  272.5 215.5  C 272.5 218.86  269.86 221.5  266.5 221.5  C 263.14 221.5  260.5 218.86  260.5 215.5  C 260.5 212.14  263.14 209.5  266.5 209.5  Z " stroke-width="1" stroke="#797979" fill="none" />
  <path d="M 266.5 218.75  C 264.68 218.75  263.25 217.32  263.25 215.5  C 263.25 213.68  264.68 212.25  266.5 212.25  C 268.32 212.25  269.75 213.68  269.75 215.5  C 269.75 217.32  268.32 218.75  266.5 218.75  " fill-rule="nonzero" fill="#797979" stroke="none" />
</svg>