<?xml version="1.0" encoding="utf-8"?>
<svg version="1.1" xmlns:xlink="http://www.w3.org/1999/xlink" width="13px" height="13px" viewBox="434 209  13 13" xmlns="http://www.w3.org/2000/svg">
  <path d="M 440.5 209  C 444.14 209  447 211.86  447 215.5  C 447 219.14  444.14 222  440.5 222  C 436.86 222  434 219.14  434 215.5  C 434 211.86  436.86 209  440.5 209  Z " fill-rule="nonzero" fill="#ffffff" stroke="none" />
  <path d="M 440.5 209.5  C 443.86 209.5  446.5 212.14  446.5 215.5  C 446.5 218.86  443.86 221.5  440.5 221.5  C 437.14 221.5  434.5 218.86  434.5 215.5  C 434.5 212.14  437.14 209.5  440.5 209.5  Z " stroke-width="1" stroke="#797979" fill="none" />
  <path d="M 440.5 218.75  C 438.68 218.75  437.25 217.32  437.25 215.5  C 437.25 213.68  438.68 212.25  440.5 212.25  C 442.32 212.25  443.75 213.68  443.75 215.5  C 443.75 217.32  442.32 218.75  440.5 218.75  " fill-rule="nonzero" fill="#797979" stroke="none" />
</svg>