<?xml version="1.0" encoding="utf-8"?>
<svg version="1.1" xmlns:xlink="http://www.w3.org/1999/xlink" width="58px" height="58px" xmlns="http://www.w3.org/2000/svg">
  <g transform="matrix(1 0 0 1 -21 -78 )">
    <path d="M 57.999954687499994 0  C 38.66668175195312 9.062499999999998E-05  19.333318248046876 9.062499999999998E-05  4.5312500000000004E-05 9.062499999999998E-05  C 4.5312500000000004E-05 14.175087228515622  4.5312500000000004E-05 28.349993207031243  4.5312500000000004E-05 42.52498981054688  C 2.52911322265625 42.52498981054688  5.0582717578125 42.52498981054688  7.62358966796875 42.52498981054688  C 7.659477111328125 47.660428642578125  7.6951833046874984 52.77964565625  7.730980123046875 57.89886266992187  C 7.77502381640625 57.932575113281246  7.818976884765624 57.96628755664062  7.8630205214843745 58  C 7.90851421484375 57.90575016992187  7.9326204082031255 57.790203464843756  8.002492169921876 57.720331703125  C 12.994018728515625 52.72735514453125  17.989985912109375 47.73881915429688  22.98087815234375 42.74511759570313  C 23.13983417578125 42.58607094726563  23.293896392578123 42.517921060546875  23.520911677734375 42.51801168554688  C 34.877293949218746 42.52363043554688  46.233585539062496 42.52290543554688  57.58996781054687 42.52290543554688  C 57.712039515624994 42.52290543554688  57.83411116406249 42.52290543554688  57.999954687499994 42.52290543554688  C 57.999954687499994 28.33984320703126  57.999954687499994 14.169921603515636  57.999954687499994 0  Z M 54.11178580468751 3.87983149609375  C 54.111695123046886 15.458425871093747  54.111695123046886 27.039013996093743  54.111695123046886 38.660383371093744  C 53.980560974609375 38.660383371093744  53.85205489453125 38.660383371093744  53.72354887109375 38.660383371093744  C 43.02890933007813 38.660383371093744  32.3341791640625 38.661289621093744  21.639539623046876 38.65521774609375  C 21.37491501953125 38.65503649609375  21.188046552734377 38.7256332578125  20.998096892578122 38.91639859960937  C 17.960804775390624 41.96529071679687  14.915356408203122 45.00620783398437  11.871448666015624 48.04857495117187  C 11.800761279296873 48.11926233789062  11.725905142578123 48.18569034960936  11.606824062499996 48.297340179687495  C 11.606824062499996 45.057138970703114  11.606824062499996 41.87539083007812  11.606824062499996 38.66672712109374  C 9.020753083984374 38.66672712109374  6.466763355468749 38.66672712109374  3.8882142519531224 38.66672712109374  C 3.8882142519531224 27.059404621093748  3.8882142519531224 15.479178996093747  3.8882142519531224 3.87983149609375  C 20.624178708984374 3.87983149609375  37.35552134765625 3.87983149609375  54.11178580468751 3.87983149609375  Z " fill-rule="nonzero" fill="#16a085" stroke="none" transform="matrix(1 0 0 1 21 78 )" />
  </g>
</svg>