<?xml version="1.0" encoding="utf-8"?>
<svg version="1.1" xmlns:xlink="http://www.w3.org/1999/xlink" width="29px" height="24px" xmlns="http://www.w3.org/2000/svg">
  <g transform="matrix(1 0 0 1 -42 -56 )">
    <path d="M 26.782084861183865 14.352272727272727  C 26.964379256155052 14.102272727272727  27.05552645364065 13.880681818181818  27.05552645364065 13.6875  C 27.05552645364065 13.289772727272727  26.787148594377513 13.09090909090909  26.250392875851233 13  L 9.722367731796753 13  C 9.317269076305221 13.09090909090909  8.884319888248648 13.213068181818182  8.42352016762703 13.457386363636365  C 7.962720447005414 13.701704545454543  7.600663523659857 13.999999999999998  7.337349397590361 14.352272727272727  L 2.8711367207962284 20.539772727272727  C 2.688842325825039 20.8125  2.5976951283394447 21.039772727272727  2.5976951283394447 21.22159090909091  C 2.5976951283394447 21.61931818181818  2.8660729876025846 21.818181818181817  3.4028287061288633 21.818181818181817  L 19.930853850183343 21.818181818181817  C 20.335952505674875 21.818181818181817  20.771433560328273 21.69318181818182  21.237297014143532 21.443181818181817  C 21.703160467958792 21.19318181818182  22.06268552470753 20.892045454545457  22.315872184389733 20.539772727272727  L 26.782084861183865 14.352272727272727  Z M 7.595599790466213 11.49715909090909  C 8.324777370350969 11.105113636363637  9.03370001746115 10.90909090909091  9.722367731796753 11  L 21.389209009952857 11  L 21.389209009952857 8.181818181818183  C 21.389209009952857 7.727272727272726  21.247424480530817 7.340909090909089  20.96385542168675 7.0227272727272725  C 20.68028636284268 6.704545454545453  20.335952505674875 6.545454545454545  19.930853850183343 6.545454545454545  L 11.180722891566266 6.545454545454545  C 10.775624236074734 6.545454545454545  10.431290378906933 6.386363636363634  10.14772132006286 6.0681818181818175  C 9.864152261218788 5.749999999999998  9.722367731796753 5.3636363636363615  9.722367731796753 4.90909090909091  L 9.722367731796753 3.8181818181818175  C 9.722367731796753 3.3636363636363633  9.580583202374717 2.977272727272724  9.297014143530644 2.65909090909091  C 9.013445084686573 2.340909090909091  8.669111227518771 2.1818181818181825  8.264012572027239 2.1818181818181825  L 3.4028287061288633 2.1818181818181825  C 2.997730050637332 2.1818181818181825  2.6533961934695305 2.340909090909091  2.3698271346254587 2.65909090909091  C 2.0862580757813864 2.977272727272724  1.9444735463593505 3.3636363636363633  2 3.8181818181818175  L 2 18.357954545454547  L 5.833420639078051 12.988636363636365  C 6.2790291601187365 12.386363636363637  6.866422210581456 11.889204545454545  7.595599790466213 11.49715909090909  Z M 28.772132006286014 12.52840909090909  C 28.92404400209534 12.892045454545453  29 13.27840909090909  29 13.6875  C 29 14.392045454545453  28.76706827309237 15.073863636363633  28.30120481927711 15.732954545454545  L 23.819800942902045 21.920454545454547  C 23.384319888248648 22.52272727272727  22.79692683778593 23.019886363636363  22.05762179151388 23.411931818181817  C 21.31831674524184 23.803977272727273  20.60939409813166 24  19.930853850183343 24  L 3.4028287061288633 24  C 2.4711017984983417 24  1.671031953902567 23.625  1.00261917234154 22.875  C 0.3342063907805134 22.125  0 21.227272727272727  0 20.181818181818183  L 0 3.8181818181818175  C 0 2.772727272727269  0.3342063907805134 1.875  1.00261917234154 1.125  C 1.671031953902567 0.375  2.4711017984983417 0  3.4028287061288633 0  L 8.264012572027239 0  C 9.195739479657762 0  9.995809324253536 0.375  10.664222105814563 1.125  C 11.33263488737559 1.875  11.666841278156102 2.772727272727269  11.666841278156102 3.8181818181818175  L 11.666841278156102 4.363636363636362  L 19.930853850183343 4.363636363636362  C 20.862580757813866 4.363636363636362  21.662650602409638 4.738636363636362  22.331063383970665 5.488636363636362  C 22.999476165531693 6.238636363636362  23.333682556312205 7.136363636363634  23.333682556312205 8.181818181818183  L 23.333682556312205 10.90909090909091  L 26.250392875851233 10.90909090909091  C 26.7972760607648 10.90909090909091  27.298585646935575 11.048295454545457  27.75432163436354 11.326704545454545  C 28.210057621791517 11.605113636363637  28.549327745765673 12.005681818181818  28.772132006286014 12.52840909090909  Z " fill-rule="nonzero" fill="#000000" stroke="none" transform="matrix(1 0 0 1 42 56 )" />
  </g>
</svg>