<?xml version="1.0" encoding="utf-8"?>
<svg version="1.1" xmlns:xlink="http://www.w3.org/1999/xlink" width="13px" height="13px" viewBox="63 318  13 13" xmlns="http://www.w3.org/2000/svg">
  <path d="M 63.5 320  A 1.5 1.5 0 0 1 65 318.5 L 74 318.5  A 1.5 1.5 0 0 1 75.5 320 L 75.5 329  A 1.5 1.5 0 0 1 74 330.5 L 65 330.5  A 1.5 1.5 0 0 1 63.5 329 L 63.5 320  Z " fill-rule="nonzero" fill="#f0f0f0" stroke="none" />
  <path d="M 63.5 320  A 1.5 1.5 0 0 1 65 318.5 L 74 318.5  A 1.5 1.5 0 0 1 75.5 320 L 75.5 329  A 1.5 1.5 0 0 1 74 330.5 L 65 330.5  A 1.5 1.5 0 0 1 63.5 329 L 63.5 320  Z " stroke-width="1" stroke="#797979" fill="none" />
</svg>