<?xml version="1.0" encoding="utf-8"?>
<svg version="1.1" xmlns:xlink="http://www.w3.org/1999/xlink" width="13px" height="13px" viewBox="551 135  13 13" xmlns="http://www.w3.org/2000/svg">
  <path d="M 551.5 137  A 1.5 1.5 0 0 1 553 135.5 L 562 135.5  A 1.5 1.5 0 0 1 563.5 137 L 563.5 146  A 1.5 1.5 0 0 1 562 147.5 L 553 147.5  A 1.5 1.5 0 0 1 551.5 146 L 551.5 137  Z " fill-rule="nonzero" fill="#ffffff" stroke="none" />
  <path d="M 551.5 137  A 1.5 1.5 0 0 1 553 135.5 L 562 135.5  A 1.5 1.5 0 0 1 563.5 137 L 563.5 146  A 1.5 1.5 0 0 1 562 147.5 L 553 147.5  A 1.5 1.5 0 0 1 551.5 146 L 551.5 137  Z " stroke-width="1" stroke="#797979" fill="none" />
  <path d="M 553.7857142857143 141.5  L 556.5714285714286 144.2857142857143  L 561.2142857142857 137.78571428571428  " stroke-width="2.7857142857142856" stroke="#797979" fill="none" />
</svg>