<?xml version="1.0" encoding="utf-8"?>
<svg version="1.1" xmlns:xlink="http://www.w3.org/1999/xlink" width="13px" height="13px" viewBox="328 347  13 13" xmlns="http://www.w3.org/2000/svg">
  <path d="M 328.5 349  A 1.5 1.5 0 0 1 330 347.5 L 339 347.5  A 1.5 1.5 0 0 1 340.5 349 L 340.5 358  A 1.5 1.5 0 0 1 339 359.5 L 330 359.5  A 1.5 1.5 0 0 1 328.5 358 L 328.5 349  Z " fill-rule="nonzero" fill="#ffffff" stroke="none" />
  <path d="M 328.5 349  A 1.5 1.5 0 0 1 330 347.5 L 339 347.5  A 1.5 1.5 0 0 1 340.5 349 L 340.5 358  A 1.5 1.5 0 0 1 339 359.5 L 330 359.5  A 1.5 1.5 0 0 1 328.5 358 L 328.5 349  Z " stroke-width="1" stroke="#797979" fill="none" />
  <path d="M 330.7857142857143 353.5  L 333.57142857142856 356.2857142857143  L 338.2142857142857 349.7857142857143  " stroke-width="2.7857142857142856" stroke="#797979" fill="none" />
</svg>