<?xml version="1.0" encoding="utf-8"?>
<svg version="1.1" xmlns:xlink="http://www.w3.org/1999/xlink" width="13px" height="13px" viewBox="279 135  13 13" xmlns="http://www.w3.org/2000/svg">
  <path d="M 279.5 137  A 1.5 1.5 0 0 1 281 135.5 L 290 135.5  A 1.5 1.5 0 0 1 291.5 137 L 291.5 146  A 1.5 1.5 0 0 1 290 147.5 L 281 147.5  A 1.5 1.5 0 0 1 279.5 146 L 279.5 137  Z " fill-rule="nonzero" fill="#f0f0f0" stroke="none" />
  <path d="M 279.5 137  A 1.5 1.5 0 0 1 281 135.5 L 290 135.5  A 1.5 1.5 0 0 1 291.5 137 L 291.5 146  A 1.5 1.5 0 0 1 290 147.5 L 281 147.5  A 1.5 1.5 0 0 1 279.5 146 L 279.5 137  Z " stroke-width="1" stroke="#797979" fill="none" />
  <path d="M 281.7857142857143 141.5  L 284.57142857142856 144.2857142857143  L 289.2142857142857 137.78571428571428  " stroke-width="2.7857142857142856" stroke="#797979" fill="none" />
</svg>