<?xml version="1.0" encoding="utf-8"?>
<svg version="1.1" xmlns:xlink="http://www.w3.org/1999/xlink" width="13px" height="13px" viewBox="551 135  13 13" xmlns="http://www.w3.org/2000/svg">
  <path d="M 551.5 137  A 1.5 1.5 0 0 1 553 135.5 L 562 135.5  A 1.5 1.5 0 0 1 563.5 137 L 563.5 146  A 1.5 1.5 0 0 1 562 147.5 L 553 147.5  A 1.5 1.5 0 0 1 551.5 146 L 551.5 137  Z " fill-rule="nonzero" fill="#f0f0f0" stroke="none" />
  <path d="M 551.5 137  A 1.5 1.5 0 0 1 553 135.5 L 562 135.5  A 1.5 1.5 0 0 1 563.5 137 L 563.5 146  A 1.5 1.5 0 0 1 562 147.5 L 553 147.5  A 1.5 1.5 0 0 1 551.5 146 L 551.5 137  Z " stroke-width="1" stroke="#797979" fill="none" />
</svg>