<?xml version="1.0" encoding="utf-8"?>
<svg version="1.1" xmlns:xlink="http://www.w3.org/1999/xlink" width="13px" height="13px" viewBox="543 323.5  13 13" xmlns="http://www.w3.org/2000/svg">
  <path d="M 549.5 323.5  C 553.14 323.5  556 326.36  556 330  C 556 333.64  553.14 336.5  549.5 336.5  C 545.86 336.5  543 333.64  543 330  C 543 326.36  545.86 323.5  549.5 323.5  Z " fill-rule="nonzero" fill="#f0f0f0" stroke="none" />
  <path d="M 549.5 324  C 552.86 324  555.5 326.64  555.5 330  C 555.5 333.36  552.86 336  549.5 336  C 546.14 336  543.5 333.36  543.5 330  C 543.5 326.64  546.14 324  549.5 324  Z " stroke-width="1" stroke="#797979" fill="none" />
  <path d="M 549.5 333.25  C 547.68 333.25  546.25 331.82  546.25 330  C 546.25 328.18  547.68 326.75  549.5 326.75  C 551.32 326.75  552.75 328.18  552.75 330  C 552.75 331.82  551.32 333.25  549.5 333.25  " fill-rule="nonzero" fill="#797979" stroke="none" />
</svg>