<?xml version="1.0" encoding="utf-8"?>
<svg version="1.1" xmlns:xlink="http://www.w3.org/1999/xlink" width="13px" height="13px" viewBox="543 299  13 13" xmlns="http://www.w3.org/2000/svg">
  <path d="M 549.5 299  C 553.14 299  556 301.86  556 305.5  C 556 309.14  553.14 312  549.5 312  C 545.86 312  543 309.14  543 305.5  C 543 301.86  545.86 299  549.5 299  Z " fill-rule="nonzero" fill="#f0f0f0" stroke="none" />
  <path d="M 549.5 299.5  C 552.86 299.5  555.5 302.14  555.5 305.5  C 555.5 308.86  552.86 311.5  549.5 311.5  C 546.14 311.5  543.5 308.86  543.5 305.5  C 543.5 302.14  546.14 299.5  549.5 299.5  Z " stroke-width="1" stroke="#797979" fill="none" />
  <path d="M 549.5 308.75  C 547.68 308.75  546.25 307.32  546.25 305.5  C 546.25 303.68  547.68 302.25  549.5 302.25  C 551.32 302.25  552.75 303.68  552.75 305.5  C 552.75 307.32  551.32 308.75  549.5 308.75  " fill-rule="nonzero" fill="#797979" stroke="none" />
</svg>