<?xml version="1.0" encoding="utf-8"?>
<svg version="1.1" xmlns:xlink="http://www.w3.org/1999/xlink" width="13px" height="13px" viewBox="897 182  13 13" xmlns="http://www.w3.org/2000/svg">
  <path d="M 903.5 182  C 907.14 182  910 184.86  910 188.5  C 910 192.14  907.14 195  903.5 195  C 899.86 195  897 192.14  897 188.5  C 897 184.86  899.86 182  903.5 182  Z " fill-rule="nonzero" fill="#ffffff" stroke="none" />
  <path d="M 903.5 182.5  C 906.86 182.5  909.5 185.14  909.5 188.5  C 909.5 191.86  906.86 194.5  903.5 194.5  C 900.14 194.5  897.5 191.86  897.5 188.5  C 897.5 185.14  900.14 182.5  903.5 182.5  Z " stroke-width="1" stroke="#797979" fill="none" />
  <path d="M 903.5 191.75  C 901.68 191.75  900.25 190.32  900.25 188.5  C 900.25 186.68  901.68 185.25  903.5 185.25  C 905.32 185.25  906.75 186.68  906.75 188.5  C 906.75 190.32  905.32 191.75  903.5 191.75  " fill-rule="nonzero" fill="#797979" stroke="none" />
</svg>