<?xml version="1.0" encoding="utf-8"?>
<svg version="1.1" xmlns:xlink="http://www.w3.org/1999/xlink" width="13px" height="13px" viewBox="626 182  13 13" xmlns="http://www.w3.org/2000/svg">
  <path d="M 632.5 182  C 636.14 182  639 184.86  639 188.5  C 639 192.14  636.14 195  632.5 195  C 628.86 195  626 192.14  626 188.5  C 626 184.86  628.86 182  632.5 182  Z " fill-rule="nonzero" fill="#f0f0f0" stroke="none" />
  <path d="M 632.5 182.5  C 635.86 182.5  638.5 185.14  638.5 188.5  C 638.5 191.86  635.86 194.5  632.5 194.5  C 629.14 194.5  626.5 191.86  626.5 188.5  C 626.5 185.14  629.14 182.5  632.5 182.5  Z " stroke-width="1" stroke="#797979" fill="none" />
  <path d="M 632.5 191.75  C 630.68 191.75  629.25 190.32  629.25 188.5  C 629.25 186.68  630.68 185.25  632.5 185.25  C 634.32 185.25  635.75 186.68  635.75 188.5  C 635.75 190.32  634.32 191.75  632.5 191.75  " fill-rule="nonzero" fill="#797979" stroke="none" />
</svg>