<?xml version="1.0" encoding="utf-8"?>
<svg version="1.1" xmlns:xlink="http://www.w3.org/1999/xlink" width="19px" height="26px" xmlns="http://www.w3.org/2000/svg">
  <g transform="matrix(1 0 0 1 -213 -9 )">
    <path d="M 217.3 34.5  L 231.5 34.5  L 231.5 17.1  L 223.9 9.5  L 213.5 9.5  L 213.5 30.7  L 215.4 30.7  L 215.4 32.599999999999994  L 217.3 32.599999999999994  L 217.3 34.5  Z " fill-rule="nonzero" fill="#ffffff" stroke="none" />
    <path d="M 217.3 34.5  L 231.5 34.5  L 231.5 17.1  L 223.9 9.5  L 213.5 9.5  L 213.5 30.7  L 215.4 30.7  L 215.4 32.599999999999994  L 217.3 32.599999999999994  L 217.3 34.5  Z " stroke-width="1" stroke="#999999" fill="none" />
    <path d="M 227.7 15.2  L 229.6 15.7  L 229.6 32.6  L 217.8 32.6  M 223.9 10  L 223.9 13.3  L 227.7 13.3  L 227.7 30.7  L 215.9 30.7  M 231 17.1  L 229.6 17.1  " stroke-width="1" stroke="#999999" fill="none" />
  </g>
</svg>