<?xml version="1.0" encoding="utf-8"?>
<svg version="1.1" xmlns:xlink="http://www.w3.org/1999/xlink" width="13px" height="13px" viewBox="644 273  13 13" xmlns="http://www.w3.org/2000/svg">
  <path d="M 650.5 273  C 654.14 273  657 275.86  657 279.5  C 657 283.14  654.14 286  650.5 286  C 646.86 286  644 283.14  644 279.5  C 644 275.86  646.86 273  650.5 273  Z " fill-rule="nonzero" fill="#f0f0f0" stroke="none" />
  <path d="M 650.5 273.5  C 653.86 273.5  656.5 276.14  656.5 279.5  C 656.5 282.86  653.86 285.5  650.5 285.5  C 647.14 285.5  644.5 282.86  644.5 279.5  C 644.5 276.14  647.14 273.5  650.5 273.5  Z " stroke-width="1" stroke="#797979" fill="none" />
  <path d="M 650.5 282.75  C 648.68 282.75  647.25 281.32  647.25 279.5  C 647.25 277.68  648.68 276.25  650.5 276.25  C 652.32 276.25  653.75 277.68  653.75 279.5  C 653.75 281.32  652.32 282.75  650.5 282.75  " fill-rule="nonzero" fill="#797979" stroke="none" />
</svg>