<?xml version="1.0" encoding="utf-8"?>
<svg version="1.1" xmlns:xlink="http://www.w3.org/1999/xlink" width="13px" height="13px" viewBox="745 273  13 13" xmlns="http://www.w3.org/2000/svg">
  <path d="M 751.5 273  C 755.14 273  758 275.86  758 279.5  C 758 283.14  755.14 286  751.5 286  C 747.86 286  745 283.14  745 279.5  C 745 275.86  747.86 273  751.5 273  Z " fill-rule="nonzero" fill="#f0f0f0" stroke="none" />
  <path d="M 751.5 273.5  C 754.86 273.5  757.5 276.14  757.5 279.5  C 757.5 282.86  754.86 285.5  751.5 285.5  C 748.14 285.5  745.5 282.86  745.5 279.5  C 745.5 276.14  748.14 273.5  751.5 273.5  Z " stroke-width="1" stroke="#797979" fill="none" />
  <path d="M 751.5 282.75  C 749.68 282.75  748.25 281.32  748.25 279.5  C 748.25 277.68  749.68 276.25  751.5 276.25  C 753.32 276.25  754.75 277.68  754.75 279.5  C 754.75 281.32  753.32 282.75  751.5 282.75  " fill-rule="nonzero" fill="#797979" stroke="none" />
</svg>