<?xml version="1.0" encoding="utf-8"?>
<svg version="1.1" xmlns:xlink="http://www.w3.org/1999/xlink" width="13px" height="13px" viewBox="438 421  13 13" xmlns="http://www.w3.org/2000/svg">
  <path d="M 444.5 421  C 448.14 421  451 423.86  451 427.5  C 451 431.14  448.14 434  444.5 434  C 440.86 434  438 431.14  438 427.5  C 438 423.86  440.86 421  444.5 421  Z " fill-rule="nonzero" fill="#ffffff" stroke="none" />
  <path d="M 444.5 421.5  C 447.86 421.5  450.5 424.14  450.5 427.5  C 450.5 430.86  447.86 433.5  444.5 433.5  C 441.14 433.5  438.5 430.86  438.5 427.5  C 438.5 424.14  441.14 421.5  444.5 421.5  Z " stroke-width="1" stroke="#797979" fill="none" />
  <path d="M 444.5 430.75  C 442.68 430.75  441.25 429.32  441.25 427.5  C 441.25 425.68  442.68 424.25  444.5 424.25  C 446.32 424.25  447.75 425.68  447.75 427.5  C 447.75 429.32  446.32 430.75  444.5 430.75  " fill-rule="nonzero" fill="#797979" stroke="none" />
</svg>