<?xml version="1.0" encoding="utf-8"?>
<svg version="1.1" xmlns:xlink="http://www.w3.org/1999/xlink" width="13px" height="13px" viewBox="122 169  13 13" xmlns="http://www.w3.org/2000/svg">
  <path d="M 128.5 169  C 132.14 169  135 171.86  135 175.5  C 135 179.14  132.14 182  128.5 182  C 124.86 182  122 179.14  122 175.5  C 122 171.86  124.86 169  128.5 169  Z " fill-rule="nonzero" fill="#ffffff" stroke="none" />
  <path d="M 128.5 169.5  C 131.86 169.5  134.5 172.14  134.5 175.5  C 134.5 178.86  131.86 181.5  128.5 181.5  C 125.14 181.5  122.5 178.86  122.5 175.5  C 122.5 172.14  125.14 169.5  128.5 169.5  Z " stroke-width="1" stroke="#797979" fill="none" />
  <path d="M 128.5 178.75  C 126.68 178.75  125.25 177.32  125.25 175.5  C 125.25 173.68  126.68 172.25  128.5 172.25  C 130.32 172.25  131.75 173.68  131.75 175.5  C 131.75 177.32  130.32 178.75  128.5 178.75  " fill-rule="nonzero" fill="#797979" stroke="none" />
</svg>