<?xml version="1.0" encoding="utf-8"?>
<svg version="1.1" xmlns:xlink="http://www.w3.org/1999/xlink" width="13px" height="13px" viewBox="122 125  13 13" xmlns="http://www.w3.org/2000/svg">
  <path d="M 128.5 125  C 132.14 125  135 127.86  135 131.5  C 135 135.14  132.14 138  128.5 138  C 124.86 138  122 135.14  122 131.5  C 122 127.86  124.86 125  128.5 125  Z " fill-rule="nonzero" fill="#f0f0f0" stroke="none" />
  <path d="M 128.5 125.5  C 131.86 125.5  134.5 128.14  134.5 131.5  C 134.5 134.86  131.86 137.5  128.5 137.5  C 125.14 137.5  122.5 134.86  122.5 131.5  C 122.5 128.14  125.14 125.5  128.5 125.5  Z " stroke-width="1" stroke="#797979" fill="none" />
  <path d="M 128.5 134.75  C 126.68 134.75  125.25 133.32  125.25 131.5  C 125.25 129.68  126.68 128.25  128.5 128.25  C 130.32 128.25  131.75 129.68  131.75 131.5  C 131.75 133.32  130.32 134.75  128.5 134.75  " fill-rule="nonzero" fill="#797979" stroke="none" />
</svg>