<?xml version="1.0" encoding="utf-8"?>
<svg version="1.1" xmlns:xlink="http://www.w3.org/1999/xlink" width="13px" height="13px" viewBox="122 147  13 13" xmlns="http://www.w3.org/2000/svg">
  <path d="M 128.5 147  C 132.14 147  135 149.86  135 153.5  C 135 157.14  132.14 160  128.5 160  C 124.86 160  122 157.14  122 153.5  C 122 149.86  124.86 147  128.5 147  Z " fill-rule="nonzero" fill="#f0f0f0" stroke="none" />
  <path d="M 128.5 147.5  C 131.86 147.5  134.5 150.14  134.5 153.5  C 134.5 156.86  131.86 159.5  128.5 159.5  C 125.14 159.5  122.5 156.86  122.5 153.5  C 122.5 150.14  125.14 147.5  128.5 147.5  Z " stroke-width="1" stroke="#797979" fill="none" />
  <path d="M 128.5 156.75  C 126.68 156.75  125.25 155.32  125.25 153.5  C 125.25 151.68  126.68 150.25  128.5 150.25  C 130.32 150.25  131.75 151.68  131.75 153.5  C 131.75 155.32  130.32 156.75  128.5 156.75  " fill-rule="nonzero" fill="#797979" stroke="none" />
</svg>