<?xml version="1.0" encoding="utf-8"?>
<svg version="1.1" xmlns:xlink="http://www.w3.org/1999/xlink" width="8px" height="12px" xmlns="http://www.w3.org/2000/svg">
  <defs>
    <mask fill="white" id="clip291">
      <path d="M 0.8070175438596481 11.7196261682243  C 0.7192982456140351 12  0.631578947368421 12  0.543859649122807 12  C 0.45614035087719296 12  0.2807017543859649 11.85981308411215  0.19298245614035087 11.7196261682243  C 0.017543859649122806 11.4392523364486  0.017543859649122806 11.018691588785046  0.19298245614035087 10.73831775700935  L 7.2105263157894735 0.22429906542056235  C 7.385964912280702 -0.05607476635513859  7.649122807017544 -0.05607476635513859  7.824561403508772 0.22429906542056235  C 7.999999999999998 0.5046728971962633  7.999999999999998 0.9252336448598146  7.824561403508772 1.2056074766355156  L 0.8070175438596481 11.7196261682243  Z " fill-rule="evenodd" />
    </mask>
  </defs>
  <g transform="matrix(1 0 0 1 -214 -64 )">
    <path d="M 0.8070175438596481 11.7196261682243  C 0.7192982456140351 12  0.631578947368421 12  0.543859649122807 12  C 0.45614035087719296 12  0.2807017543859649 11.85981308411215  0.19298245614035087 11.7196261682243  C 0.017543859649122806 11.4392523364486  0.017543859649122806 11.018691588785046  0.19298245614035087 10.73831775700935  L 7.2105263157894735 0.22429906542056235  C 7.385964912280702 -0.05607476635513859  7.649122807017544 -0.05607476635513859  7.824561403508772 0.22429906542056235  C 7.999999999999998 0.5046728971962633  7.999999999999998 0.9252336448598146  7.824561403508772 1.2056074766355156  L 0.8070175438596481 11.7196261682243  Z " fill-rule="nonzero" fill="#3d3d3d" stroke="none" transform="matrix(1 0 0 1 214 64 )" />
    <path d="M 0.8070175438596481 11.7196261682243  C 0.7192982456140351 12  0.631578947368421 12  0.543859649122807 12  C 0.45614035087719296 12  0.2807017543859649 11.85981308411215  0.19298245614035087 11.7196261682243  C 0.017543859649122806 11.4392523364486  0.017543859649122806 11.018691588785046  0.19298245614035087 10.73831775700935  L 7.2105263157894735 0.22429906542056235  C 7.385964912280702 -0.05607476635513859  7.649122807017544 -0.05607476635513859  7.824561403508772 0.22429906542056235  C 7.999999999999998 0.5046728971962633  7.999999999999998 0.9252336448598146  7.824561403508772 1.2056074766355156  L 0.8070175438596481 11.7196261682243  Z " stroke-width="2" stroke="#ffffff" fill="none" transform="matrix(1 0 0 1 214 64 )" mask="url(#clip291)" />
  </g>
</svg>