<?xml version="1.0" encoding="utf-8"?>
<svg version="1.1" xmlns:xlink="http://www.w3.org/1999/xlink" width="8px" height="8px" xmlns="http://www.w3.org/2000/svg">
  <defs>
    <mask fill="white" id="clip295">
      <path d="M 0.9886363636363584 0.26917613636363635  C 0.6548295454545429 -0.06463068181818214  0.07954545454544938 0.16974431818181818  0.07954545454545454 0.6455965909090909  L 0.07954545454545454 6.789062500000001  C 0.07954545454545454 7.375000000000001  0.5553977272727273 7.8508522727272725  1.1448863636363635 7.8508522727272725  L 7.316761363636363 7.8508522727272725  C 7.792613636363637 7.8508522727272725  8.030539772727273 7.279119318181817  7.693181818181818 6.9453125  L 0.9886363636363584 0.26917613636363635  Z " fill-rule="evenodd" />
    </mask>
  </defs>
  <g transform="matrix(1 0 0 1 -40 -7 )">
    <path d="M 0.9886363636363584 0.26917613636363635  C 0.6548295454545429 -0.06463068181818214  0.07954545454544938 0.16974431818181818  0.07954545454545454 0.6455965909090909  L 0.07954545454545454 6.789062500000001  C 0.07954545454545454 7.375000000000001  0.5553977272727273 7.8508522727272725  1.1448863636363635 7.8508522727272725  L 7.316761363636363 7.8508522727272725  C 7.792613636363637 7.8508522727272725  8.030539772727273 7.279119318181817  7.693181818181818 6.9453125  L 0.9886363636363584 0.26917613636363635  Z " fill-rule="nonzero" fill="#aaaaaa" stroke="none" transform="matrix(1 0 0 1 40 7 )" />
    <path d="M 0.9886363636363584 0.26917613636363635  C 0.6548295454545429 -0.06463068181818214  0.07954545454544938 0.16974431818181818  0.07954545454545454 0.6455965909090909  L 0.07954545454545454 6.789062500000001  C 0.07954545454545454 7.375000000000001  0.5553977272727273 7.8508522727272725  1.1448863636363635 7.8508522727272725  L 7.316761363636363 7.8508522727272725  C 7.792613636363637 7.8508522727272725  8.030539772727273 7.279119318181817  7.693181818181818 6.9453125  L 0.9886363636363584 0.26917613636363635  Z " stroke-width="2" stroke="#aaaaaa" fill="none" transform="matrix(1 0 0 1 40 7 )" mask="url(#clip295)" />
  </g>
</svg>