<?xml version="1.0" encoding="utf-8"?>
<svg version="1.1" xmlns:xlink="http://www.w3.org/1999/xlink" width="25px" height="31px" xmlns="http://www.w3.org/2000/svg">
  <defs>
    <mask fill="white" id="clip320">
      <path d="M 24.878961267605636 11.905029296875  C 24.878961267605636 11.33740234375  24.418188820422536 10.876420454545453  23.847381161971832 10.876420454545453  L 17.142110475352112 10.876420454545453  C 15.43312610035211 10.876420454545453  14.047370158450704 9.49691495028409  14.047370158450704 7.794034090909091  L 14.047370158450704 1.116677024147727  C 14.047370158450704 0.5490500710227276  13.586597711267606 0.08806818181818182  13.0157900528169 0.08806818181818182  L 2.184198943661972 0.08806818181818182  C 1.046022227112676 0.08806818181818182  0.12103873239436619 1.006591796875  0.12103873239436619 2.141845703125  L 0.12103873239436619 28.854714133522727  C 0.12103873239436619 29.989968039772727  1.046022227112676 30.90849165482955  2.184198943661972 30.90849165482955  L 22.815801056338028 30.90849165482955  C 23.953977772887324 30.90849165482955  24.878961267605636 29.989968039772727  24.878961267605636 28.854714133522727  L 24.878961267605636 11.905029296875  Z M 17.657900528169016 18.582386363636367  C 17.657900528169016 19.287619850852273  17.076777068661972 19.865567294034093  16.36842539612676 19.865567294034093  L 13.789475132042254 19.865567294034093  L 13.789475132042254 22.43536931818182  C 13.789475132042254 23.140602805397727  13.208351672535212 23.718550248579547  12.5 23.718550248579547  C 11.79164832746479 23.718550248579547  11.210524867957746 23.140602805397727  11.210524867957746 22.43536931818182  L 11.210524867957746 19.865567294034093  L 8.63157460387324 19.865567294034093  C 7.923222931338028 19.865567294034093  7.342099471830986 19.287619850852273  7.342099471830986 18.582386363636367  C 7.342099471830986 17.877152876420453  7.923222931338028 17.299205433238637  8.63157460387324 17.299205433238637  L 11.210524867957746 17.299205433238637  L 11.210524867957746 14.729403409090912  C 11.210524867957746 14.024169921875002  11.79164832746479 13.446222478693183  12.5 13.446222478693183  C 13.208351672535212 13.446222478693183  13.789475132042254 14.024169921875002  13.789475132042254 14.729403409090912  L 13.789475132042254 17.299205433238637  L 16.36842539612676 17.299205433238637  C 17.076777068661972 17.299205433238637  17.657900528169016 17.877152876420453  17.657900528169016 18.582386363636367  Z " fill-rule="evenodd" />
    </mask>
  </defs>
  <g transform="matrix(1 0 0 1 -24 -6 )">
    <path d="M 24.878961267605636 11.905029296875  C 24.878961267605636 11.33740234375  24.418188820422536 10.876420454545453  23.847381161971832 10.876420454545453  L 17.142110475352112 10.876420454545453  C 15.43312610035211 10.876420454545453  14.047370158450704 9.49691495028409  14.047370158450704 7.794034090909091  L 14.047370158450704 1.116677024147727  C 14.047370158450704 0.5490500710227276  13.586597711267606 0.08806818181818182  13.0157900528169 0.08806818181818182  L 2.184198943661972 0.08806818181818182  C 1.046022227112676 0.08806818181818182  0.12103873239436619 1.006591796875  0.12103873239436619 2.141845703125  L 0.12103873239436619 28.854714133522727  C 0.12103873239436619 29.989968039772727  1.046022227112676 30.90849165482955  2.184198943661972 30.90849165482955  L 22.815801056338028 30.90849165482955  C 23.953977772887324 30.90849165482955  24.878961267605636 29.989968039772727  24.878961267605636 28.854714133522727  L 24.878961267605636 11.905029296875  Z M 17.657900528169016 18.582386363636367  C 17.657900528169016 19.287619850852273  17.076777068661972 19.865567294034093  16.36842539612676 19.865567294034093  L 13.789475132042254 19.865567294034093  L 13.789475132042254 22.43536931818182  C 13.789475132042254 23.140602805397727  13.208351672535212 23.718550248579547  12.5 23.718550248579547  C 11.79164832746479 23.718550248579547  11.210524867957746 23.140602805397727  11.210524867957746 22.43536931818182  L 11.210524867957746 19.865567294034093  L 8.63157460387324 19.865567294034093  C 7.923222931338028 19.865567294034093  7.342099471830986 19.287619850852273  7.342099471830986 18.582386363636367  C 7.342099471830986 17.877152876420453  7.923222931338028 17.299205433238637  8.63157460387324 17.299205433238637  L 11.210524867957746 17.299205433238637  L 11.210524867957746 14.729403409090912  C 11.210524867957746 14.024169921875002  11.79164832746479 13.446222478693183  12.5 13.446222478693183  C 13.208351672535212 13.446222478693183  13.789475132042254 14.024169921875002  13.789475132042254 14.729403409090912  L 13.789475132042254 17.299205433238637  L 16.36842539612676 17.299205433238637  C 17.076777068661972 17.299205433238637  17.657900528169016 17.877152876420453  17.657900528169016 18.582386363636367  Z " fill-rule="nonzero" fill="#aaaaaa" stroke="none" transform="matrix(1 0 0 1 24 6 )" />
    <path d="M 24.878961267605636 11.905029296875  C 24.878961267605636 11.33740234375  24.418188820422536 10.876420454545453  23.847381161971832 10.876420454545453  L 17.142110475352112 10.876420454545453  C 15.43312610035211 10.876420454545453  14.047370158450704 9.49691495028409  14.047370158450704 7.794034090909091  L 14.047370158450704 1.116677024147727  C 14.047370158450704 0.5490500710227276  13.586597711267606 0.08806818181818182  13.0157900528169 0.08806818181818182  L 2.184198943661972 0.08806818181818182  C 1.046022227112676 0.08806818181818182  0.12103873239436619 1.006591796875  0.12103873239436619 2.141845703125  L 0.12103873239436619 28.854714133522727  C 0.12103873239436619 29.989968039772727  1.046022227112676 30.90849165482955  2.184198943661972 30.90849165482955  L 22.815801056338028 30.90849165482955  C 23.953977772887324 30.90849165482955  24.878961267605636 29.989968039772727  24.878961267605636 28.854714133522727  L 24.878961267605636 11.905029296875  Z " stroke-width="2" stroke="#aaaaaa" fill="none" transform="matrix(1 0 0 1 24 6 )" mask="url(#clip320)" />
    <path d="M 17.657900528169016 18.582386363636367  C 17.657900528169016 19.287619850852273  17.076777068661972 19.865567294034093  16.36842539612676 19.865567294034093  L 13.789475132042254 19.865567294034093  L 13.789475132042254 22.43536931818182  C 13.789475132042254 23.140602805397727  13.208351672535212 23.718550248579547  12.5 23.718550248579547  C 11.79164832746479 23.718550248579547  11.210524867957746 23.140602805397727  11.210524867957746 22.43536931818182  L 11.210524867957746 19.865567294034093  L 8.63157460387324 19.865567294034093  C 7.923222931338028 19.865567294034093  7.342099471830986 19.287619850852273  7.342099471830986 18.582386363636367  C 7.342099471830986 17.877152876420453  7.923222931338028 17.299205433238637  8.63157460387324 17.299205433238637  L 11.210524867957746 17.299205433238637  L 11.210524867957746 14.729403409090912  C 11.210524867957746 14.024169921875002  11.79164832746479 13.446222478693183  12.5 13.446222478693183  C 13.208351672535212 13.446222478693183  13.789475132042254 14.024169921875002  13.789475132042254 14.729403409090912  L 13.789475132042254 17.299205433238637  L 16.36842539612676 17.299205433238637  C 17.076777068661972 17.299205433238637  17.657900528169016 17.877152876420453  17.657900528169016 18.582386363636367  Z " stroke-width="2" stroke="#aaaaaa" fill="none" transform="matrix(1 0 0 1 24 6 )" mask="url(#clip320)" />
  </g>
</svg>