<?xml version="1.0" encoding="utf-8"?>
<svg version="1.1" xmlns:xlink="http://www.w3.org/1999/xlink" width="24px" height="26px" xmlns="http://www.w3.org/2000/svg">
  <g transform="matrix(1 0 0 1 -280 -9 )">
    <path d="M 24 4.079787234042541  C 24 2.2127659574468512  22.878186968838598 0.7952127659574586  20.80453257790377 0.7952127659574586  L 19.20679886685552 0.7952127659574586  C 18.764872521246573 0.7952127659574586  18.25495750708224 1.0718085106383057  18.25495750708224 1.5212765957447145  C 18.25495750708224 1.9707446808510867  18.764872521246573 2.4202127659574586  19.20679886685552 2.4202127659574586  L 20.80453257790377 2.4202127659574586  C 21.756373937677196 2.4202127659574586  22.40226628895175 3.077127659574512  22 4.045212765957495  L 22 22.74999999999996  C 22.40226628895175 23.718085106382947  21.756373937677196 24.37499999999996  20.80453257790377 24  L 3.6033994334276938 24  C 2.651558073654405 24.37499999999996  1.5977337110482495 23.718085106382947  2 22.74999999999996  L 2 4.045212765957495  C 1.5977337110482495 3.077127659574512  2.243626062322937 2.4202127659574586  3.195467422096226 2.4202127659574586  L 5.201133144475943 2.4202127659574586  C 5.643059490084898 2.4202127659574586  5.81303116147301 1.9707446808510867  5.81303116147301 1.5212765957447145  C 5.81303116147301 1.0718085106383057  5.643059490084898 0.7952127659574586  5.201133144475943 0.7952127659574586  L 3.195467422096226 0.7952127659574586  C 0.9518413597732889 0.7952127659574586  0 2.2127659574468512  0 4.079787234042541  L 0 22.57712765957444  C 0 24.582446808510607  1.1898016997167815 26  3.3654390934843375 26  L 20.63456090651566 26  C 22.81019830028322 26  24 24.82446808510637  24 22.57712765957444  L 24 4.079787234042541  Z M 6.016997167138879 7.295212765957459  C 5.575070821529653 7.295212765957459  5.201133144475943 7.675531914893628  5.201133144475943 8.125  C 5.201133144475943 8.574468085106373  5.575070821529653 8.954787234042579  6.016997167138879 9  L 18.016997167138882 9  C 18.45892351274783 8.954787234042579  18.832861189801676 8.574468085106373  18.832861189801676 8.125  C 18.832861189801676 7.675531914893628  18.45892351274783 7.295212765957459  18.016997167138882 7.295212765957459  L 6.016997167138879 7.295212765957459  Z M 18.832861189801676 12.619680851063793  C 18.798866855524054 12.135638297872338  18.42492917847035 11.78989361702129  17.983002832861118 12  L 6.016997167138879 12  C 5.575070821529653 11.78989361702129  5.201133144475943 12.170212765957459  5.201133144475943 12.619680851063793  C 5.201133144475943 13.069148936170203  5.575070821529653 13.449468085106409  6.016997167138879 13  L 18.016997167138882 13  C 18.45892351274783 13.449468085106409  18.832861189801676 13.069148936170203  18.832861189801676 12.619680851063793  Z M 18.832861189801676 17.49468085106383  C 18.798866855524054 17.010638297872337  18.42492917847035 16.66489361702129  17.983002832861118 16.66489361702129  L 6.016997167138879 16.66489361702129  C 5.575070821529653 16.66489361702129  5.201133144475943 17.04521276595742  5.201133144475943 17.49468085106383  C 5.201133144475943 17.944148936170205  5.575070821529653 18.32446808510637  6.016997167138879 18  L 18.016997167138882 18  C 18.45892351274783 18.32446808510637  18.832861189801676 17.944148936170205  18.832861189801676 17.49468085106383  Z M 8.022662889518323 1.4175531914893924  C 8.022662889518323 2.1781914893616943  8.566572237960418 2.8351063829787475  9.246458923512865 2.8351063829787475  L 14.821529745042518 2.8351063829787475  C 15.467422096317343 2.8351063829787475  16.011331444759165 2.1781914893616943  16.011331444759165 1.4175531914893924  C 16.011331444759165 0.6569148936170536  15.467422096317343 0  14.787535410764896 0  L 9.246458923512865 0  C 8.566572237960418 0  8.022662889518323 0.6569148936170536  8.022662889518323 1.4175531914893924  Z " fill-rule="nonzero" fill="#999999" stroke="none" transform="matrix(1 0 0 1 280 9 )" />
  </g>
</svg>