<?xml version="1.0" encoding="utf-8"?>
<svg version="1.1" xmlns:xlink="http://www.w3.org/1999/xlink" width="80px" height="80px" xmlns="http://www.w3.org/2000/svg">
  <g transform="matrix(1 0 0 1 -19 -72 )">
    <path d="M 5.909090909090909 40  C 5.909090909090909 21.17897727272727  21.17897727272727 5.909090909090909  40 5.909090909090909  C 58.82102272727273 5.909090909090909  74.0909090909091 21.17897727272727  74.0909090909091 40  C 74.0909090909091 58.82102272727273  58.82102272727273 74.0909090909091  40 74.0909090909091  C 21.17897727272727 74.0909090909091  5.909090909090909 58.82102272727273  5.909090909090909 40  Z M 79.77272727272728 40  C 79.77272727272728 18.05397727272727  61.94602272727273 0.2272727272727273  40 0.2272727272727273  C 18.053977272727273 0.2272727272727273  0.2272727272727273 18.053977272727273  0.2272727272727273 40  C 0.2272727272727273 61.94602272727273  18.053977272727273 79.77272727272728  40 79.77272727272728  C 61.94602272727273 79.77272727272728  79.77272727272728 61.94602272727273  79.77272727272728 40  Z " fill-rule="nonzero" fill="#000000" stroke="none" transform="matrix(1 0 0 1 19 72 )" />
  </g>
</svg>