<?xml version="1.0" encoding="utf-8"?>
<svg version="1.1" xmlns:xlink="http://www.w3.org/1999/xlink" width="24px" height="26px" xmlns="http://www.w3.org/2000/svg">
  <g transform="matrix(1 0 0 1 -174 -6 )">
    <path d="M 5.563090701219512 6.193291884816754  C 5.893302210365853 5.805519878926702  6.257298018292682 5.445132526178011  6.655163871951218 5.122711469240838  L 4.683612804878047 3.28785994764398  C 4.374123475609755 2.9989385634816754  3.871760670731705 2.9989385634816754  3.561042301829267 3.28785994764398  C 3.2514672256097548 3.575824198298429  3.2514672256097548 4.043038285340314  3.561042301829267 4.331002535994765  L 5.563119283536585 6.193238710732985  Z M 11.97521913109756 3.243326652486911  C 11.982879192073167 3.243326652486911  11.989338795731706 3.243326652486911  11.998142149390244 3.243326652486911  C 12.258498475609755 3.243326652486911  12.515739329268289 3.2585078534031418  12.76857850609756 3.282861583769633  L 12.76857850609756 0.7840518651832457  C 12.76857850609756 0.37655227421465937  12.413243140243903 0.046075343586387  11.975133384146341 0.046075343586387  C 11.537023628048782 0.046075343586387  11.182802972560975 0.37652568717277435  11.182802972560975 0.7840518651832457  L 11.182802972560975 3.2823830170157065  C 11.435642149390244 3.258587614528795  11.692768673780488 3.243326652486911  11.953267911585366 3.243326652486911  C 11.960985137195122 3.243326652486911  11.96853086890244 3.243326652486911  11.975047637195122 3.243326652486911  Z M 18.389119664634144 6.1923347513089  L 20.389052972560975 4.331055710078534  C 20.699628429878047 4.043091459424084  20.699628429878047 3.5758773723821995  20.389052972560975 3.2879131217277493  C 20.080535442073174 2.998991737565446  19.577172256097562 2.998991737565446  19.266425304878044 3.2879131217277493  L 17.293730945121947 5.122764643324607  C 17.692682926829264 5.445079352094241  18.056735899390244 5.805094486256545  18.389119664634144 6.192281577225131  Z M 3.6143483231707316 11.425648314790577  C 3.6143483231707316 11.069302192408376  3.644931402439024 10.72058655104712  3.6896055640243905 10.375912140052357  L 0.8690453506097561 10.375912140052357  C 0.43205030487804885 10.375912140052357  0.07668635670731738 10.706442244764398  0.07668635670731738 11.113888661649215  C 0.07668635670731738 11.521414839659684  0.43207888719512216 11.851865183246074  0.8690453506097566 11.851865183246074  L 3.624180640243903 11.851865183246074  C 3.617635289634147 11.711485602094243  3.6143197408536594 11.570547693062828  3.6143197408536594 11.425595140706807  Z M 23.08087842987805 10.37599190117801  L 20.26143292682927 10.37599190117801  C 20.307164634146343 10.720666312172774  20.336690167682928 11.0694351276178  20.336690167682928 11.425728075916231  C 20.336690167682928 11.570627454188482  20.333403201219515 11.711618537303664  20.32797256097561 11.851998118455498  L 23.080878429878055 11.851998118455498  C 23.519102515243905 11.851998118455498  23.87323742378049 11.521547774869111  23.87323742378049 11.11402159685864  C 23.87323742378049 10.706495418848167  23.519102515243905 10.376045075261782  23.080878429878055 10.376045075261782  Z M 18.806507240853662 16.424995909685865  C 18.483927210365856 16.864931691753927  18.142883003048784 17.245020042539263  17.814843749999998 17.588710732984293  L 19.266453887195123 18.94010348494764  C 19.577086509146348 19.22806773560209  20.08056402439024 19.22806773560209  20.38908155487805 18.94010348494764  C 20.699657012195125 18.65118210078534  20.699657012195125 18.184925147251306  20.38908155487805 17.895897414921464  L 18.806478658536587 16.424995909685865  Z M 3.560985137195122 17.89587082787958  C 3.2514100609756103 18.184792212041884  3.2514100609756103 18.65104916557592  3.560985137195122 18.940076897905758  C 3.8716177591463414 19.228041148560212  4.374094893292683 19.228041148560212  4.6835556402439025 18.940076897905758  L 6.136394817073172 17.58778018651833  C 5.808412728658537 17.245099803664925  5.467225609756099 16.864027732329845  5.14461699695122 16.425102257853403  L 3.5610708841463428 17.896003763089006  Z M 19.235870807926826 11.425648314790577  C 19.236928353658538 9.895404532068063  18.688862423780485 8.480202879581155  17.765653582317075 7.346823871073299  C 16.955916539634146 6.35135184882199  15.856183307926827 5.57075629908377  14.58218368902439 5.112555219240838  L 14.588729039634147 5.080065854057593  L 14.044921875000004 4.931550638089005  C 13.62196074695122 4.817492228403141  13.185994664634148 4.738395778795813  12.741425304878051 4.695803337696336  L 12.67822980182927 4.68926292539267  L 12.67608612804878 4.68926292539267  L 12.673828125000004 4.688757771596858  C 12.455945121951217 4.669508753272252  12.229173018292684 4.654752945026178  11.992711509146345 4.654752945026178  L 11.95789824695122 4.654752945026178  C 11.72135099085366 4.654752945026178  11.494664634146345 4.66956192735602  11.276695884146344 4.688757771596858  L 11.273408917682929 4.68926292539267  L 11.20806974085366 4.695803337696336  C 10.764043445121953 4.738342604712042  10.32799161585366 4.8174390543193715  9.906173780487807 4.931550638089005  L 9.379801829268295 5.074429401178011  L 9.385232469512198 5.106918766361257  C 8.1046875 5.564588105366493  6.998466082317076 6.347230857329843  6.184298780487806 7.346717522905759  C 5.262290396341466 8.480069944371728  4.71408155487805 9.895191835732984  4.71408155487805 11.425541966623037  C 4.71408155487805 12.522895533376964  4.917930640243904 13.425073625654452  5.235051448170733 14.171717522905757  C 5.711261432926832 15.291404204842932  6.438195503048782 16.047672611256544  7.02238948170732 16.62139438808901  C 7.314500762195124 16.907311436518327  7.571741615853661 17.151566590314136  7.746008003048783 17.360381217277485  C 7.924761814024395 17.570206151832462  8.010823170731708 17.732466868455496  8.035861280487808 17.861201325261778  C 8.163309832317076 18.487724967277487  8.176400533536587 19.27845017997382  8.176400533536587 19.47912917212042  L 8.176400533536587 19.536929401178007  C 8.176400533536587 20.443148723821988  8.965529725609759 21.175143160994764  9.938757621951222 21.176153468586385  L 14.012023628048784 21.176153468586385  C 14.986451981707322 21.175169748036648  15.774380716463416 20.442111829188477  15.774380716463416 19.536929401178007  L 15.774380716463416 19.481176374345548  C 15.773323170731711 19.282464823298426  15.787471417682926 18.48971899541885  15.914977134146346 17.862211632853402  C 15.932355182926829 17.77505930955497  15.97379954268293 17.675650359947642  16.055516387195123 17.55404123036649  C 16.194998094512197 17.342142506544498  16.458812881097565 17.07858516034031  16.785737423780493 16.76124222840314  C 17.27400914634147 16.28376554319372  17.895160060975613 15.68170197971204  18.388948170731712 14.82557264397906  C 18.88376524390244 13.970506789921464  19.2379287347561 12.865948134816755  19.235727896341466 11.425568553664924  Z M 17.57163681402439 13.750711714659689  C 17.182517149390243 14.663604384816754  16.59832317073171 15.281460651178012  16.03496570121951 15.834896515052355  C 15.753687118902437 16.111694208115182  15.477982088414635 16.36916312172775  15.237204649390241 16.65409644960733  C 14.999657012195119 16.934908785994764  14.787176067073167 17.256292948298427  14.705402057926825 17.650605366492144  C 14.551714939024388 18.420034358638745  14.545141006097559 19.24524296465969  14.54425495426829 19.4814422447644  C 14.54425495426829 19.512841541230365  14.54425495426829 19.53004335732984  14.54425495426829 19.537168684554977  C 14.54319740853658 19.81088228075916  14.306621570121948 20.031847185863874  14.01239519817073 20.031847185863874  L 9.939129192073167 20.031847185863874  C 9.78984375 20.031847185863874  9.66013719512195 19.97710446662304  9.562014100609753 19.88694780759162  C 9.46509146341463 19.795647905759164  9.407326600609753 19.676006217277486  9.407326600609753 19.537221858638745  C 9.407326600609753 19.530096531413612  9.407326600609753 19.511884407722512  9.407326600609753 19.479474803664917  C 9.406269054878047 19.241334669502614  9.398580411585364 18.418093504581147  9.244921875 17.650738301701566  C 9.192673399390241 17.390265052356018  9.07817263719512 17.156990346858638  8.939834222560973 16.950222922120417  C 8.694626524390241 16.588320107984295  8.380792682926826 16.29035912958115  8.056955030487803 15.970968995418847  C 7.567740091463413 15.496602994109947  7.049942835365853 14.984084587696332  6.646674923780486 14.28508466950262  C 6.2445217225609735 13.585606184554972  5.945922256097559 12.69664185209424  5.944778963414632 11.425914185209422  C 5.945836509146338 10.151145287958114  6.398151676829266 8.981235683900524  7.165415396341461 8.038007198952878  C 7.93270769817073 7.095709260471202  9.011690167682925 6.384053910340313  10.257307545731706 6.037438645287957  L 10.410994664634144 5.993889070680627  C 10.711794969512193 5.921891361256543  11.020226753048778 5.864649460078533  11.337890624999996 5.833675556282722  L 11.340034298780486 5.833675556282722  L 11.398913871951217 5.827587123691098  C 11.585241996951218 5.8109170484293164  11.766110899390242 5.800202470549737  11.944921874999997 5.799245337041882  L 11.976505335365852 5.802302846858637  L 12.008117378048778 5.800282231675391  C 12.185670731707315 5.800282231675391  12.367654344512193 5.811448789267014  12.552982088414632 5.827666884816752  L 12.550724085365854 5.827666884816752  L 12.611804496951219 5.833755317408375  L 12.612862042682927 5.833755317408375  C 12.929925685975608 5.864676047120418  13.238443216463418 5.92088105366492  13.538128810975607 5.993968831806282  L 13.693931021341463 6.037518406413612  C 14.93960556402439 6.384133671465968  16.018502286585363 7.095868782722512  16.78582317073171 8.038086960078534  C 17.551857850609753 8.981342032068063  18.00531631097561 10.15127822316754  18.00531631097561 11.42599394633508  C 18.005402057926826 12.394001554319372  17.8311356707317 13.141150605366493  17.57175114329268 13.750924410994763  Z M 12.742597179878047 4.695989446989529  L 12.74033917682927 4.695989446989529  L 12.742597179878047 4.695989446989529  Z M 11.210127667682928 4.695989446989529  L 11.207983993902438 4.695989446989529  C 11.207983993902438 4.695989446989529  11.209041539634145 4.695989446989529  11.210127667682928 4.695989446989529  Z M 14.753191692073173 22.33003108638744  C 14.753191692073173 21.93864324280105  14.413090701219513 21.624437581806284  13.99578887195122 21.624437581806284  L 9.955135289634145 21.624437581806284  C 9.537719131097562 21.624437581806284  9.197732469512193 21.938749590968587  9.197732469512193 22.33003108638744  C 9.197732469512193 22.717244764397904  9.537833460365853 23.03365714986911  9.955135289634145 23.03365714986911  L 13.99578887195122 23.03365714986911  C 14.413205030487806 23.03365714986911  14.753191692073173 22.717297938481675  14.753191692073173 22.33003108638744  Z M 14.753191692073173 24.10615183246073  C 14.753191692073173 23.71784808573298  14.413090701219513 23.40255235602094  13.99578887195122 23.40255235602094  L 9.955135289634145 23.40255235602094  C 9.537719131097562 23.40255235602094  9.197732469512193 23.71779491164921  9.197732469512193 24.10615183246073  C 9.197732469512193 24.49639643324607  9.537833460365853 24.81174533704188  9.955135289634145 24.81174533704188  L 13.99578887195122 24.81174533704188  C 14.413205030487806 24.81174533704188  14.753191692073173 24.496502781413607  14.753191692073173 24.10615183246073  Z M 12.329439786585365 25.194838023560212  L 10.248504192073167 25.194838023560212  C 10.248504192073167 25.216134244109945  10.244102515243902 25.236340395942406  10.244102515243902 25.258753272251308  C 10.244102515243902 25.648067326570683  10.887147484756095 25.963283295157066  11.481631097560975 25.963283295157066  L 12.469035823170731 25.963283295157066  C 13.064062499999999 25.963283295157066  13.70599275914634 25.648040739528795  13.70599275914634 25.258753272251308  C 13.70599275914634 25.23649991819372  13.702705792682927 25.216214005235603  13.702705792682927 25.194838023560212  L 12.329496951219515 25.194838023560212  Z " fill-rule="nonzero" fill="#ffffff" stroke="none" transform="matrix(1 0 0 1 174 6 )" />
  </g>
</svg>