<?xml version="1.0" encoding="utf-8"?>
<svg version="1.1" xmlns:xlink="http://www.w3.org/1999/xlink" width="24px" height="26px" xmlns="http://www.w3.org/2000/svg">
  <g transform="matrix(1 0 0 1 -71 -6 )">
    <path d="M 7.669565217391303 18.55208333333333  C 7.682608695652172 16.737499999999997  6.508695652173913 15.220833333333331  5 14.73333333333333  L 5 1.0833333333333333  C 4.9173913043478255 0.4875  4.447826086956521 0  3.8739130434782605 0  C 3.299999999999999 0  2.830434782608695 0.4874999999999999  3 1.0833333333333333  L 3 14.706249999999999  C 1.1999999999999997 15.166666666666664  0 16.710416666666667  0 18.538541666666667  C 0 20.366666666666667  1.1999999999999997 21.910416666666666  2.830434782608695 22.37083333333333  L 2.830434782608695 24.916666666666668  C 2.830434782608695 25.512500000000003  3.299999999999999 26  3.8739130434782605 26  C 4.447826086956521 26  4.9173913043478255 25.512500000000003  4.9173913043478255 24.916666666666668  L 4.9173913043478255 22.357291666666665  C 6.5086956521739125 21.86979166666666  7.669565217391303 20.353125  7.669565217391303 18.55208333333333  Z M 24 18.55208333333333  C 24 16.75104166666666  22.839130434782607 15.220833333333331  21 14.73333333333333  L 21 1.0833333333333333  C 21.24782608695652 0.4875  20.778260869565216 0  20.204347826086952 0  C 19.630434782608695 0  19.16086956521739 0.4874999999999999  19 1.0833333333333333  L 19 14.706249999999999  C 17.530434782608694 15.166666666666664  16.33043478260869 16.710416666666664  16.33043478260869 18.538541666666664  C 16.33043478260869 20.366666666666664  17.530434782608694 21.910416666666666  19.16086956521739 22.37083333333333  L 19.16086956521739 24.916666666666668  C 19.16086956521739 25.512500000000003  19.630434782608695 26  20.204347826086952 26  C 20.778260869565216 26  21.24782608695652 25.512500000000003  21.24782608695652 24.916666666666668  L 21.24782608695652 22.357291666666665  C 22.839130434782604 21.86979166666666  24 20.353125  24 18.55208333333333  Z M 15.834782608695651 6.838541666666666  C 15.834782608695651 5.010416666666665  14.64782608695652 3.466666666666666  13.017391304347827 3.0062500000000005  L 13.017391304347827 1.0833333333333333  C 13.017391304347827 0.4875  12.547826086956519 0  11.97391304347826 0  C 11.4 0  10.930434782608696 0.4874999999999999  10.930434782608696 1.0833333333333333  L 10.930434782608696 3.019791666666667  C 9.326086956521738 3.4937500000000004  8.152173913043478 5.023958333333334  8.152173913043478 6.838541666666666  C 8.152173913043478 8.653125  9.326086956521738 10.169791666666665  11 10.657291666666666  L 11 24.916666666666668  C 10.930434782608696 25.512500000000003  11.4 26  11.97391304347826 26  C 12.547826086956519 26  13.017391304347827 25.512500000000003  13 24.916666666666668  L 13 10.670833333333333  C 14.64782608695652 10.210416666666665  15.834782608695651 8.666666666666666  15.834782608695651 6.838541666666666  Z " fill-rule="nonzero" fill="#ffffff" stroke="none" transform="matrix(1 0 0 1 71 6 )" />
  </g>
</svg>