<?xml version="1.0" encoding="utf-8"?>
<svg version="1.1" xmlns:xlink="http://www.w3.org/1999/xlink" width="13px" height="13px" viewBox="426 213  13 13" xmlns="http://www.w3.org/2000/svg">
  <path d="M 432.5 213  C 436.14 213  439 215.86  439 219.5  C 439 223.14  436.14 226  432.5 226  C 428.86 226  426 223.14  426 219.5  C 426 215.86  428.86 213  432.5 213  Z " fill-rule="nonzero" fill="#f0f0f0" stroke="none" />
  <path d="M 432.5 213.5  C 435.86 213.5  438.5 216.14  438.5 219.5  C 438.5 222.86  435.86 225.5  432.5 225.5  C 429.14 225.5  426.5 222.86  426.5 219.5  C 426.5 216.14  429.14 213.5  432.5 213.5  Z " stroke-width="1" stroke="#797979" fill="none" />
  <path d="M 432.5 222.75  C 430.68 222.75  429.25 221.32  429.25 219.5  C 429.25 217.68  430.68 216.25  432.5 216.25  C 434.32 216.25  435.75 217.68  435.75 219.5  C 435.75 221.32  434.32 222.75  432.5 222.75  " fill-rule="nonzero" fill="#797979" stroke="none" />
</svg>