<?xml version="1.0" encoding="utf-8"?>
<svg version="1.1" xmlns:xlink="http://www.w3.org/1999/xlink" width="20px" height="28px" xmlns="http://www.w3.org/2000/svg">
  <g transform="matrix(1 0 0 1 -346 -101 )">
    <path d="M 350.5 128.5  L 365.5 128.5  L 365.5 109.5  L 357.5 101.5  L 346.5 101.5  L 346.5 124.5  L 348.5 124.5  L 348.5 126.5  L 350.5 126.5  L 350.5 128.5  Z " fill-rule="nonzero" fill="#f2f2f2" stroke="none" fill-opacity="0" />
    <path d="M 350.5 128.5  L 365.5 128.5  L 365.5 109.5  L 357.5 101.5  L 346.5 101.5  L 346.5 124.5  L 348.5 124.5  L 348.5 126.5  L 350.5 126.5  L 350.5 128.5  Z " stroke-width="1" stroke="#999999" fill="none" />
    <path d="M 361.5 107.5  L 363.5 108  L 363.5 126.5  L 351 126.5  M 357.5 102  L 357.5 105.5  L 361.5 105.5  L 361.5 124.5  L 349 124.5  M 365 109.5  L 363.5 109.5  " stroke-width="1" stroke="#999999" fill="none" />
  </g>
</svg>