<?xml version="1.0" encoding="utf-8"?>
<svg version="1.1" xmlns:xlink="http://www.w3.org/1999/xlink" width="13px" height="13px" viewBox="781 677  13 13" xmlns="http://www.w3.org/2000/svg">
  <path d="M 787.5 677  C 791.14 677  794 679.86  794 683.5  C 794 687.14  791.14 690  787.5 690  C 783.86 690  781 687.14  781 683.5  C 781 679.86  783.86 677  787.5 677  Z " fill-rule="nonzero" fill="#ffffff" stroke="none" />
  <path d="M 787.5 677.5  C 790.86 677.5  793.5 680.14  793.5 683.5  C 793.5 686.86  790.86 689.5  787.5 689.5  C 784.14 689.5  781.5 686.86  781.5 683.5  C 781.5 680.14  784.14 677.5  787.5 677.5  Z " stroke-width="1" stroke="#797979" fill="none" />
  <path d="M 787.5 686.75  C 785.68 686.75  784.25 685.32  784.25 683.5  C 784.25 681.68  785.68 680.25  787.5 680.25  C 789.32 680.25  790.75 681.68  790.75 683.5  C 790.75 685.32  789.32 686.75  787.5 686.75  " fill-rule="nonzero" fill="#797979" stroke="none" />
</svg>