<?xml version="1.0" encoding="utf-8"?>
<svg version="1.1" xmlns:xlink="http://www.w3.org/1999/xlink" width="13px" height="13px" viewBox="781 696  13 13" xmlns="http://www.w3.org/2000/svg">
  <path d="M 787.5 696  C 791.14 696  794 698.86  794 702.5  C 794 706.14  791.14 709  787.5 709  C 783.86 709  781 706.14  781 702.5  C 781 698.86  783.86 696  787.5 696  Z " fill-rule="nonzero" fill="#f0f0f0" stroke="none" />
  <path d="M 787.5 696.5  C 790.86 696.5  793.5 699.14  793.5 702.5  C 793.5 705.86  790.86 708.5  787.5 708.5  C 784.14 708.5  781.5 705.86  781.5 702.5  C 781.5 699.14  784.14 696.5  787.5 696.5  Z " stroke-width="1" stroke="#797979" fill="none" />
  <path d="M 787.5 705.75  C 785.68 705.75  784.25 704.32  784.25 702.5  C 784.25 700.68  785.68 699.25  787.5 699.25  C 789.32 699.25  790.75 700.68  790.75 702.5  C 790.75 704.32  789.32 705.75  787.5 705.75  " fill-rule="nonzero" fill="#797979" stroke="none" />
</svg>