<?xml version="1.0" encoding="utf-8"?>
<svg version="1.1" xmlns:xlink="http://www.w3.org/1999/xlink" width="45px" height="53px" xmlns="http://www.w3.org/2000/svg">
  <g transform="matrix(1 0 0 1 -281 -99 )">
    <path d="M 281.5 104  A 4.5 4.5 0 0 1 286 99.5 L 321 99.5  A 4.5 4.5 0 0 1 325.5 104 L 325.5 147  A 4.5 4.5 0 0 1 321 151.5 L 286 151.5  A 4.5 4.5 0 0 1 281.5 147 L 281.5 104  Z " fill-rule="nonzero" fill="#d7d7d7" stroke="none" />
    <path d="M 281.5 104  A 4.5 4.5 0 0 1 286 99.5 L 321 99.5  A 4.5 4.5 0 0 1 325.5 104 L 325.5 147  A 4.5 4.5 0 0 1 321 151.5 L 286 151.5  A 4.5 4.5 0 0 1 281.5 147 L 281.5 104  Z " stroke-width="1" stroke="#adadad" fill="none" />
  </g>
</svg>