<?xml version="1.0" encoding="utf-8"?>
<svg version="1.1" xmlns:xlink="http://www.w3.org/1999/xlink" width="26px" height="26px" xmlns="http://www.w3.org/2000/svg">
  <g transform="matrix(1 0 0 1 -23 -133 )">
    <path d="M 38.5 133.5  L 33.5 133.5  L 33.5 143.5  L 23.5 143.5  L 23.5 148.5  L 33.5 148.5  L 33.5 158.5  L 38.5 158.5  L 38.5 148.5  L 48.5 148.5  L 48.5 143.5  L 38.5 143.5  L 38.5 133.5  Z " fill-rule="nonzero" fill="#1abc9c" stroke="none" />
    <path d="M 38.5 133.5  L 33.5 133.5  L 33.5 143.5  L 23.5 143.5  L 23.5 148.5  L 33.5 148.5  L 33.5 158.5  L 38.5 158.5  L 38.5 148.5  L 48.5 148.5  L 48.5 143.5  L 38.5 143.5  L 38.5 133.5  Z " stroke-width="1" stroke="#8f8f8f" fill="none" />
  </g>
</svg>