<?xml version="1.0" encoding="utf-8"?>
<svg version="1.1" xmlns:xlink="http://www.w3.org/1999/xlink" width="50px" height="55px" xmlns="http://www.w3.org/2000/svg">
  <g transform="matrix(1 0 0 1 -65 -82 )">
    <path d="M 65.5 85  A 2.5 2.5 0 0 1 68 82.5 L 112 82.5  A 2.5 2.5 0 0 1 114.5 85 L 114.5 134  A 2.5 2.5 0 0 1 112 136.5 L 68 136.5  A 2.5 2.5 0 0 1 65.5 134 L 65.5 85  Z " fill-rule="nonzero" fill="#d7d7d7" stroke="none" />
    <path d="M 65.5 85  A 2.5 2.5 0 0 1 68 82.5 L 112 82.5  A 2.5 2.5 0 0 1 114.5 85 L 114.5 134  A 2.5 2.5 0 0 1 112 136.5 L 68 136.5  A 2.5 2.5 0 0 1 65.5 134 L 65.5 85  Z " stroke-width="1" stroke="#adadad" fill="none" />
  </g>
</svg>