<?xml version="1.0" encoding="utf-8"?>
<svg version="1.1" xmlns:xlink="http://www.w3.org/1999/xlink" width="19px" height="23px" xmlns="http://www.w3.org/2000/svg">
  <g transform="matrix(1 0 0 1 -27 -91 )">
    <path d="M 31.3 113.5  L 45.5 113.5  L 45.5 99.1  L 37.9 91.5  L 27.5 91.5  L 27.5 109.7  L 29.4 109.7  L 29.4 111.6  L 31.3 111.6  L 31.3 113.5  Z " fill-rule="nonzero" fill="#ffffff" stroke="none" fill-opacity="0.996078431372549" />
    <path d="M 31.3 113.5  L 45.5 113.5  L 45.5 99.1  L 37.9 91.5  L 27.5 91.5  L 27.5 109.7  L 29.4 109.7  L 29.4 111.6  L 31.3 111.6  L 31.3 113.5  Z " stroke-width="1" stroke="#8f8f8f" fill="none" />
    <path d="M 41.7 97.2  L 43.6 97.7  L 43.6 111.6  L 31.8 111.6  M 37.9 92  L 37.9 95.3  L 41.7 95.3  L 41.7 109.7  L 29.9 109.7  M 45 99.1  L 43.6 99.1  " stroke-width="1" stroke="#8f8f8f" fill="none" />
  </g>
</svg>