<?xml version="1.0" encoding="utf-8"?>
<svg version="1.1" xmlns:xlink="http://www.w3.org/1999/xlink" width="31px" height="31px" xmlns="http://www.w3.org/2000/svg">
  <g transform="matrix(1 0 0 1 -70 -36 )">
    <path d="M 88.5 36.5  L 82.5 36.5  L 82.5 48.5  L 70.5 48.5  L 70.5 54.5  L 82.5 54.5  L 82.5 66.5  L 88.5 66.5  L 88.5 54.5  L 100.5 54.5  L 100.5 48.5  L 88.5 48.5  L 88.5 36.5  Z " fill-rule="nonzero" fill="#ffff80" stroke="none" />
    <path d="M 88.5 36.5  L 82.5 36.5  L 82.5 48.5  L 70.5 48.5  L 70.5 54.5  L 82.5 54.5  L 82.5 66.5  L 88.5 66.5  L 88.5 54.5  L 100.5 54.5  L 100.5 48.5  L 88.5 48.5  L 88.5 36.5  Z " stroke-width="1" stroke="#999999" fill="none" />
  </g>
</svg>