<?xml version="1.0" encoding="utf-8"?>
<svg version="1.1" xmlns:xlink="http://www.w3.org/1999/xlink" width="44px" height="53px" xmlns="http://www.w3.org/2000/svg">
  <g transform="matrix(1 0 0 1 -6 -42 )">
    <path d="M 6.5 47  A 4.5 4.5 0 0 1 11 42.5 L 45 42.5  A 4.5 4.5 0 0 1 49.5 47 L 49.5 90  A 4.5 4.5 0 0 1 45 94.5 L 11 94.5  A 4.5 4.5 0 0 1 6.5 90 L 6.5 47  Z " fill-rule="nonzero" fill="#ffffff" stroke="none" />
    <path d="M 6.5 47  A 4.5 4.5 0 0 1 11 42.5 L 45 42.5  A 4.5 4.5 0 0 1 49.5 47 L 49.5 90  A 4.5 4.5 0 0 1 45 94.5 L 11 94.5  A 4.5 4.5 0 0 1 6.5 90 L 6.5 47  Z " stroke-width="1" stroke="#adadad" fill="none" />
  </g>
</svg>