<?xml version="1.0" encoding="utf-8"?>
<svg version="1.1" xmlns:xlink="http://www.w3.org/1999/xlink" width="13px" height="13px" viewBox="373 648  13 13" xmlns="http://www.w3.org/2000/svg">
  <path d="M 379.5 648  C 383.14 648  386 650.86  386 654.5  C 386 658.14  383.14 661  379.5 661  C 375.86 661  373 658.14  373 654.5  C 373 650.86  375.86 648  379.5 648  Z " fill-rule="nonzero" fill="#f0f0f0" stroke="none" />
  <path d="M 379.5 648.5  C 382.86 648.5  385.5 651.14  385.5 654.5  C 385.5 657.86  382.86 660.5  379.5 660.5  C 376.14 660.5  373.5 657.86  373.5 654.5  C 373.5 651.14  376.14 648.5  379.5 648.5  Z " stroke-width="1" stroke="#797979" fill="none" />
  <path d="M 379.5 657.75  C 377.68 657.75  376.25 656.32  376.25 654.5  C 376.25 652.68  377.68 651.25  379.5 651.25  C 381.32 651.25  382.75 652.68  382.75 654.5  C 382.75 656.32  381.32 657.75  379.5 657.75  " fill-rule="nonzero" fill="#797979" stroke="none" />
</svg>