<?xml version="1.0" encoding="utf-8"?>
<svg version="1.1" xmlns:xlink="http://www.w3.org/1999/xlink" width="8px" height="8px" xmlns="http://www.w3.org/2000/svg">
  <g transform="matrix(1 0 0 1 -655 -146 )">
    <path d="M 3.8830000002285137 0.38450000716145993  L 3.9999999999999987 0.37808333333333505  C 4.552284753066835 0.37808333333333505  5.000000005859373 0.7884889825280688  5.000000005859373 1.2947500071614588  L 5.000000005859373 3.128083333333334  L 6.999999994140623 3.128083333333334  C 7.506974824063069 3.1281446417799423  7.9336839414591385 3.4759648584661917  7.992999992201169 3.9375000071614608  L 8 4.044750007161459  C 7.999999987055826 4.551011023404681  7.5522847380545475 4.9614166595052085  6.999999994140626 4.9614166595052085  L 5.000000005859376 4.9614166595052085  L 5.000000005859376 6.794750007161459  C 4.999933123917752 7.259476935498038  4.62049288827385 7.650626960541736  4.116999999771483 7.705000007161459  L 4.000000000000001 7.711416659505214  C 3.4477152560860778 7.711416659505214  3.0000000070848007 7.301011023404683  2.9999999941406266 6.794750007161461  L 2.9999999941406266 4.961416659505211  L 1.0000000058593748 4.961416659505211  C 0.49302518388725675 4.961355352342767  0.06631606949305724 4.613535147335615  0.007000007798828003 4.152000007161462  L 0 4.044750007161459  C 0 3.5384889825280674  0.44771525279253827 3.128083333333334  1.0000000058593748 3.128083333333334  L 2.999999994140624 3.128083333333334  L 2.9999999941406252 1.2947500071614613  C 3.0000668760822458 0.8300230788248845  3.3795071117261504 0.4388730537811855  3.8830000002285137 0.38450000716145993  Z " fill-rule="nonzero" fill="#388bd6" stroke="none" transform="matrix(1 0 0 1 655 146 )" />
  </g>
</svg>