<?xml version="1.0" encoding="utf-8"?>
<svg version="1.1" xmlns:xlink="http://www.w3.org/1999/xlink" width="10px" height="10px" xmlns="http://www.w3.org/2000/svg">
  <g transform="matrix(1 0 0 1 -893 -572 )">
    <path d="M 898 572  C 900.8 572  903 574.2  903 577  C 903 579.8  900.8 582  898 582  C 895.2 582  893 579.8  893 577  C 893 574.2  895.2 572  898 572  Z " fill-rule="nonzero" fill="#333333" stroke="none" />
    <path d="M 898 572.5  C 900.52 572.5  902.5 574.48  902.5 577  C 902.5 579.52  900.52 581.5  898 581.5  C 895.48 581.5  893.5 579.52  893.5 577  C 893.5 574.48  895.48 572.5  898 572.5  Z " stroke-width="1" stroke="#d7d7d7" fill="none" />
  </g>
</svg>