<?xml version="1.0" encoding="utf-8"?>
<svg version="1.1" xmlns:xlink="http://www.w3.org/1999/xlink" width="23px" height="23px" xmlns="http://www.w3.org/2000/svg">
  <g transform="matrix(1 0 0 1 -295 -119 )">
    <path d="M 22.457912457912457 17.19191919191919  C 22.819304152637486 17.553310886644216  23 17.992143658810324  23 18.50841750841751  C 23 19.024691358024693  22.819304152637486 19.463524130190795  22.457912457912457 19.824915824915823  L 19.824915824915823 22.457912457912457  C 19.4635241301908 22.819304152637486  19.024691358024693 23  18.50841750841751 23  C 17.992143658810328 23  17.553310886644223 22.819304152637486  17.191919191919194 22.457912457912457  L 11.5 16.765993265993266  L 5.808080808080809 22.457912457912457  C 5.446689113355781 22.819304152637486  5.007856341189675 23  4.491582491582491 23  C 3.975308641975309 23  3.5364758698092036 22.819304152637486  3.175084175084175 22.457912457912457  L 0.5420875420875421 19.824915824915823  C 0.1806958473625142 19.463524130190795  0 19.024691358024693  0 18.50841750841751  C 0 17.992143658810324  0.1806958473625142 17.553310886644216  0.5420875420875421 17.19191919191919  L 6.2340067340067336 11.5  L 0.5420875420875421 5.808080808080807  C 0.1806958473625142 5.446689113355778  0 5.007856341189675  0 4.491582491582491  C 0 3.9753086419753085  0.1806958473625142 3.5364758698092  0.5420875420875421 3.175084175084176  L 3.175084175084175 0.5420875420875422  C 3.5364758698092036 0.1806958473625132  3.975308641975309 0  4.491582491582491 0  C 5.007856341189675 0  5.446689113355781 0.1806958473625132  5.808080808080809 0.5420875420875422  L 11.5 6.234006734006735  L 17.191919191919194 0.5420875420875422  C 17.553310886644223 0.1806958473625132  17.992143658810328 0  18.50841750841751 0  C 19.024691358024693 0  19.4635241301908 0.1806958473625132  19.824915824915823 0.5420875420875422  L 22.457912457912457 3.175084175084176  C 22.819304152637486 3.5364758698092  23 3.9753086419753085  23 4.491582491582491  C 23 5.007856341189675  22.819304152637486 5.446689113355778  22.457912457912457 5.808080808080807  L 16.765993265993266 11.5  L 22.457912457912457 17.19191919191919  Z " fill-rule="nonzero" fill="#000000" stroke="none" transform="matrix(1 0 0 1 295 119 )" />
  </g>
</svg>