<?xml version="1.0" encoding="utf-8"?>
<svg version="1.1" xmlns:xlink="http://www.w3.org/1999/xlink" width="30px" height="34px" xmlns="http://www.w3.org/2000/svg">
  <g transform="matrix(1 0 0 1 -15 -6 )">
    <path d="M 30 4.735469110907771  C 30 2.1330633757640034  28.17079037765143 0  25.871512010003116 0  L 4.188213070050708 0  C 1.8889347359839983 0  0 2.1330633757640034  0 4.735469110907771  L 0 24.09106851999516  C 0 26.693474255138938  1.888969056380901 28.78211986669219  4.188213070050708 28.78211986669219  L 9.99958765151312 28.78211986669219  L 14.296185576014324 33.64827518970531  C 14.49969072016497 33.87802621723855  14.766082484258334 34  15.032474248351733 34  C 15.29962200146184 34  15.566838496110563 33.88802212983262  15.77048112333842 33.65706538518076  C 16.177113417131338 33.19569641083322  16.176357428114613 32.450434989625755  15.768762920689142 31.990155045190676  L 11.166975937546596 26.77390853276927  C 10.97154639621997 26.55321999619844  10.706769739258732 26.409542963222084  10.430687265209187 26.409542963222084  L 4.188213070050708 26.409542925213206  C 3.0385910632158044 26.409542925213206  2.0962199595446442 25.39225192702973  2 24.09106851999516  L 2 4.735469110907771  C 2.0962199259630445 3.434285665864341  3.0385910632158044 2.3336822449974552  4.188213036469108 3  L 25.871511976421516 3  C 27.02113398325642 2.3336822449974552  27.903780006873745 3.4342467827985748  28 4.735469110907771  L 28 24.09106851999516  C 27.903780006873745 25.392251965038607  27.02113394967482 26.409542925213206  25.871511976421516 26.409542925213206  L 17.323298951504484 26.409542925213206  C 16.747560122014576 26.409542925213206  16.280824720077874 26.944189526584314  16.280824720077874 27.595831395952704  C 16.280824720077874 28.247473265321105  16.747560122014576 28.782119866692184  17.323298951504484 28.782119866692184  L 25.871512010003116 28.782119866692184  C 28.17079034406983 28.782119866692184  29.999999966418386 26.693474255138938  30 24.09106851999516  L 30 4.735469110907771  Z " fill-rule="nonzero" fill="#ffffff" stroke="none" transform="matrix(1 0 0 1 15 6 )" />
  </g>
</svg>