<?xml version="1.0" encoding="utf-8"?>
<svg version="1.1" xmlns:xlink="http://www.w3.org/1999/xlink" width="612px" height="190px" xmlns="http://www.w3.org/2000/svg">
  <defs>
    <mask fill="white" id="clip290">
      <path d="M 0 190  L 0 0  L 13.951543374972472 0  L 16.519115194612564 0  L 27.431295428085974 0  L 612 0  L 612 190  L 0 190  Z " fill-rule="evenodd" />
    </mask>
  </defs>
  <g transform="matrix(1 0 0 1 -238 0 )">
    <path d="M 0 190  L 0 0  L 13.951543374972472 0  L 16.519115194612564 0  L 27.431295428085974 0  L 612 0  L 612 190  L 0 190  Z " fill-rule="nonzero" fill="#ffffff" stroke="none" transform="matrix(1 0 0 1 238 0 )" />
    <path d="M 0 190  L 0 0  L 13.951543374972472 0  L 16.519115194612564 0  L 27.431295428085974 0  L 612 0  L 612 190  L 0 190  Z " stroke-width="2" stroke="#797979" fill="none" transform="matrix(1 0 0 1 238 0 )" mask="url(#clip290)" />
  </g>
</svg>