<?xml version="1.0" encoding="utf-8"?>
<svg version="1.1" xmlns:xlink="http://www.w3.org/1999/xlink" width="28px" height="28px" xmlns="http://www.w3.org/2000/svg">
  <g transform="matrix(1 0 0 1 -74 -87 )">
    <path d="M 7 18.666666666666668  L 7 25.666666666666664  L 21 25.666666666666664  L 21 18.666666666666668  L 7 18.666666666666668  Z M 23.333333333333336 18.083333333333332  L 23.333333333333336 25.666666666666664  L 25.666666666666664 25.666666666666664  L 25.666666666666664 9.333333333333334  C 25.666666666666664 9.163194444444441  25.60590277777778 8.929253472222221  25.484375 8.631510416666666  C 25.362847222222225 8.333767361111109  25.241319444444446 8.124131944444441  25.119791666666664 8.002604166666666  L 19.997395833333336 2.8802083333333344  C 19.87586805555556 2.758680555555553  19.669270833333336 2.637152777777775  19.377604166666664 2.515625  C 19.0859375 2.394097222222222  18.848958333333336 2.3333333333333344  18.666666666666664 2.3333333333333344  L 18.666666666666664 9.916666666666666  C 18.666666666666664 10.402777777777779  18.49652777777778 10.815972222222221  18.15625 11.15625  C 17.81597222222222 11.496527777777779  17.40277777777778 11.666666666666666  16.916666666666664 12  L 6.416666666666666 12  C 5.930555555555556 11.666666666666666  5.517361111111112 11.496527777777779  5.177083333333334 11.15625  C 4.836805555555556 10.815972222222221  4.666666666666666 10.402777777777779  4.666666666666666 9.916666666666666  L 4.666666666666666 2.3333333333333344  L 2.333333333333333 2.3333333333333344  L 2.333333333333333 25.666666666666664  L 4.666666666666666 25.666666666666664  L 4.666666666666666 18.083333333333332  C 4.666666666666666 17.597222222222218  4.836805555555556 17.184027777777775  5.177083333333334 16.84375  C 5.517361111111112 16.503472222222218  5.930555555555556 16.333333333333332  6.416666666666666 16  L 21.583333333333336 16  C 22.069444444444446 16.333333333333332  22.48263888888889 16.503472222222218  22.822916666666664 16.84375  C 23.163194444444446 17.184027777777775  23.333333333333336 17.597222222222218  23.333333333333336 18.083333333333332  Z M 16.16015625 9.16015625  C 16.27560763888889 9.044704861111109  16.333333333333336 8.907986111111109  16.333333333333336 8.75  L 16.333333333333336 2.9166666666666656  C 16.333333333333336 2.758680555555553  16.27560763888889 2.621961805555553  16.16015625 2.5065104166666656  C 16.044704861111114 2.391059027777775  15.907986111111112 2.3333333333333344  15.75 2.3333333333333344  L 12.25 2.3333333333333344  C 12.09201388888889 2.3333333333333344  11.95529513888889 2.391059027777775  11.83984375 2.5065104166666656  C 11.724392361111112 2.621961805555553  11.666666666666668 2.758680555555553  11.666666666666668 2.9166666666666656  L 11.666666666666668 8.75  C 11.666666666666668 8.907986111111109  11.724392361111112 9.044704861111109  11.83984375 9.16015625  C 11.95529513888889 9.275607638888888  12.09201388888889 9.333333333333334  12.25 9.333333333333334  L 15.75 9.333333333333334  C 15.907986111111112 9.333333333333334  16.044704861111114 9.275607638888888  16.16015625 9.16015625  Z M 27.635416666666664 7.729166666666666  C 27.87847222222222 8.3125  28 8.847222222222221  28 9.333333333333334  L 28 26.25  C 28 26.736111111111114  27.82986111111111 27.149305555555554  27.489583333333336 27.489583333333336  C 27.14930555555556 27.829861111111114  26.736111111111114 28  26.25 28  L 1.75 28  C 1.263888888888889 28  0.8506944444444445 27.829861111111114  0.5104166666666667 27.489583333333336  C 0.17013888888888887 27.149305555555554  0 26.736111111111114  0 26.25  L 0 1.75  C 0 1.2638888888888875  0.17013888888888887 0.8506944444444406  0.5104166666666667 0.5104166666666656  C 0.8506944444444445 0.1701388888888875  1.263888888888889 0  1.75 0  L 18.666666666666664 0  C 19.15277777777778 0  19.6875 0.12152777777777501  20.270833333333336 0.36458333333333437  C 20.854166666666664 0.6076388888888875  21.315972222222225 0.8993055555555531  21.65625 1.2395833333333344  L 26.760416666666664 6.34375  C 27.100694444444446 6.684027777777775  27.392361111111114 7.145833333333334  27.635416666666664 7.729166666666666  Z " fill-rule="nonzero" fill="#000000" stroke="none" transform="matrix(1 0 0 1 74 87 )" />
  </g>
</svg>