<?xml version="1.0" encoding="utf-8"?>
<svg version="1.1" xmlns:xlink="http://www.w3.org/1999/xlink" width="30px" height="30px" xmlns="http://www.w3.org/2000/svg">
  <g transform="matrix(1 0 0 1 -140 -85 )">
    <path d="M 29.40340909090909 11.505681818181818  C 29.801136363636363 11.903409090909086  30 12.386363636363635  30 12.954545454545453  L 30 17.045454545454543  C 30 17.613636363636363  29.801136363636363 18.096590909090907  29.40340909090909 18.49431818181818  C 29.00568181818182 18.892045454545453  28.522727272727273 19.09090909090909  27.954545454545453 19.09090909090909  L 19.09090909090909 19.09090909090909  L 19.09090909090909 27.954545454545457  C 19.09090909090909 28.522727272727273  18.892045454545457 29.005681818181817  18.49431818181818 29.40340909090909  C 18.096590909090914 29.801136363636363  17.613636363636363 30  17.045454545454547 30  L 12.954545454545455 30  C 12.386363636363637 30  11.903409090909093 29.801136363636363  11.505681818181818 29.40340909090909  C 11.107954545454547 29.005681818181817  10.90909090909091 28.522727272727273  10.90909090909091 27.954545454545457  L 10.90909090909091 19.09090909090909  L 2.0454545454545454 19.09090909090909  C 1.4772727272727275 19.09090909090909  0.994318181818182 18.892045454545453  0.5965909090909091 18.49431818181818  C 0.19886363636363635 18.096590909090907  0 17.613636363636363  0 17.045454545454543  L 0 12.954545454545453  C 0 12.386363636363635  0.19886363636363635 11.903409090909086  0.5965909090909091 11.505681818181818  C 0.994318181818182 11.107954545454545  1.4772727272727275 10.90909090909091  2.0454545454545454 10.90909090909091  L 10.90909090909091 10.90909090909091  L 10.90909090909091 2.0454545454545467  C 10.90909090909091 1.477272727272726  11.107954545454547 0.9943181818181801  11.505681818181818 0.5965909090909094  C 11.903409090909093 0.19886363636363535  12.386363636363637 0  12.954545454545455 0  L 17.045454545454547 0  C 17.613636363636363 0  18.096590909090914 0.19886363636363535  18.49431818181818 0.5965909090909094  C 18.892045454545457 0.9943181818181801  19.09090909090909 1.477272727272726  19.09090909090909 2.0454545454545467  L 19.09090909090909 10.90909090909091  L 27.954545454545453 10.90909090909091  C 28.522727272727273 10.90909090909091  29.00568181818182 11.107954545454545  29.40340909090909 11.505681818181818  Z " fill-rule="nonzero" fill="#000000" stroke="none" transform="matrix(1 0 0 1 140 85 )" />
  </g>
</svg>