<?xml version="1.0" encoding="utf-8"?>
<svg version="1.1" xmlns:xlink="http://www.w3.org/1999/xlink" width="13px" height="13px" viewBox="42 389  13 13" xmlns="http://www.w3.org/2000/svg">
  <path d="M 48.5 389  C 52.14 389  55 391.86  55 395.5  C 55 399.14  52.14 402  48.5 402  C 44.86 402  42 399.14  42 395.5  C 42 391.86  44.86 389  48.5 389  Z " fill-rule="nonzero" fill="#f0f0f0" stroke="none" />
  <path d="M 48.5 389.5  C 51.86 389.5  54.5 392.14  54.5 395.5  C 54.5 398.86  51.86 401.5  48.5 401.5  C 45.14 401.5  42.5 398.86  42.5 395.5  C 42.5 392.14  45.14 389.5  48.5 389.5  Z " stroke-width="1" stroke="#797979" fill="none" />
  <path d="M 48.5 398.75  C 46.68 398.75  45.25 397.32  45.25 395.5  C 45.25 393.68  46.68 392.25  48.5 392.25  C 50.32 392.25  51.75 393.68  51.75 395.5  C 51.75 397.32  50.32 398.75  48.5 398.75  " fill-rule="nonzero" fill="#797979" stroke="none" />
</svg>