<?xml version="1.0" encoding="utf-8"?>
<svg version="1.1" xmlns:xlink="http://www.w3.org/1999/xlink" width="13px" height="13px" viewBox="217 389  13 13" xmlns="http://www.w3.org/2000/svg">
  <path d="M 223.5 389  C 227.14 389  230 391.86  230 395.5  C 230 399.14  227.14 402  223.5 402  C 219.86 402  217 399.14  217 395.5  C 217 391.86  219.86 389  223.5 389  Z " fill-rule="nonzero" fill="#f0f0f0" stroke="none" />
  <path d="M 223.5 389.5  C 226.86 389.5  229.5 392.14  229.5 395.5  C 229.5 398.86  226.86 401.5  223.5 401.5  C 220.14 401.5  217.5 398.86  217.5 395.5  C 217.5 392.14  220.14 389.5  223.5 389.5  Z " stroke-width="1" stroke="#797979" fill="none" />
  <path d="M 223.5 398.75  C 221.68 398.75  220.25 397.32  220.25 395.5  C 220.25 393.68  221.68 392.25  223.5 392.25  C 225.32 392.25  226.75 393.68  226.75 395.5  C 226.75 397.32  225.32 398.75  223.5 398.75  " fill-rule="nonzero" fill="#797979" stroke="none" />
</svg>