<?xml version="1.0" encoding="utf-8"?>
<svg version="1.1" xmlns:xlink="http://www.w3.org/1999/xlink" width="13px" height="13px" viewBox="42 493  13 13" xmlns="http://www.w3.org/2000/svg">
  <path d="M 48.5 493  C 52.14 493  55 495.86  55 499.5  C 55 503.14  52.14 506  48.5 506  C 44.86 506  42 503.14  42 499.5  C 42 495.86  44.86 493  48.5 493  Z " fill-rule="nonzero" fill="#f0f0f0" stroke="none" />
  <path d="M 48.5 493.5  C 51.86 493.5  54.5 496.14  54.5 499.5  C 54.5 502.86  51.86 505.5  48.5 505.5  C 45.14 505.5  42.5 502.86  42.5 499.5  C 42.5 496.14  45.14 493.5  48.5 493.5  Z " stroke-width="1" stroke="#797979" fill="none" />
  <path d="M 48.5 502.75  C 46.68 502.75  45.25 501.32  45.25 499.5  C 45.25 497.68  46.68 496.25  48.5 496.25  C 50.32 496.25  51.75 497.68  51.75 499.5  C 51.75 501.32  50.32 502.75  48.5 502.75  " fill-rule="nonzero" fill="#797979" stroke="none" />
</svg>