<?xml version="1.0" encoding="utf-8"?>
<svg version="1.1" xmlns:xlink="http://www.w3.org/1999/xlink" width="13px" height="13px" viewBox="659 298  13 13" xmlns="http://www.w3.org/2000/svg">
  <path d="M 665.5 298  C 669.14 298  672 300.86  672 304.5  C 672 308.14  669.14 311  665.5 311  C 661.86 311  659 308.14  659 304.5  C 659 300.86  661.86 298  665.5 298  Z " fill-rule="nonzero" fill="#ffffff" stroke="none" />
  <path d="M 665.5 298.5  C 668.86 298.5  671.5 301.14  671.5 304.5  C 671.5 307.86  668.86 310.5  665.5 310.5  C 662.14 310.5  659.5 307.86  659.5 304.5  C 659.5 301.14  662.14 298.5  665.5 298.5  Z " stroke-width="1" stroke="#797979" fill="none" />
  <path d="M 665.5 307.75  C 663.68 307.75  662.25 306.32  662.25 304.5  C 662.25 302.68  663.68 301.25  665.5 301.25  C 667.32 301.25  668.75 302.68  668.75 304.5  C 668.75 306.32  667.32 307.75  665.5 307.75  " fill-rule="nonzero" fill="#797979" stroke="none" />
</svg>