<?xml version="1.0" encoding="utf-8"?>
<svg version="1.1" xmlns:xlink="http://www.w3.org/1999/xlink" width="16px" height="21px" xmlns="http://www.w3.org/2000/svg">
  <g transform="matrix(1 0 0 1 -713 -538 )">
    <path d="M 2.1321521222426467 2  L 13.842509931985296 2  C 14.338711530330881 1.6150880071806069  14.744118810661766 2.144413694738051  14.74411878952206 2.798449660443474  L 14.74411878952206 18.171065625861672  C 14.74411878952206 18.82233022369026  14.340823027573533 19.35442727912454  13.842509931985296 19  L 2.1321521222426476 19  C 1.6359505238970589 19.35442725137868  1.2305432435661767 18.82510156382123  1.2305432435661767 18.171065625861672  L 1.2305432435661767 2.7984496604434748  C 1.2305432435661767 2.1471850626148896  1.6338390055147058 1.6150880071806069  2.1321521222426467 2  Z M 15.64572766819853 2.7984496604434748  C 15.64572766819853 1.490377784524356  14.839136123161763 0.4317263816636034  13.842509931985292 0.4317263816636034  L 2.1321521222426476 0.4317263816636034  C 1.1376374283088235 0.4317263816636034  0.33104588327205836 1.490377784524356  0.33104588327205836 2.7956783203124997  L 0.33104588327205836 18.168294285730695  C 0.33104588327205836 19.473594821518837  1.1376374283088229 20.53224622437959  2.1321521222426467 20.53224622437959  L 13.84462142922794 20.53224622437959  C 14.839136123161763 20.53224622437959  15.64572766819853 19.473594821518837  15.64572766819853 18.168294285730695  L 15.64572766819853 2.7984496604434748  Z " fill-rule="nonzero" fill="#000000" stroke="none" transform="matrix(1 0 0 1 713 538 )" />
  </g>
</svg>