<?xml version="1.0" encoding="utf-8"?>
<svg version="1.1" xmlns:xlink="http://www.w3.org/1999/xlink" width="13px" height="13px" viewBox="204 569  13 13" xmlns="http://www.w3.org/2000/svg">
  <path d="M 210.5 569  C 214.14 569  217 571.86  217 575.5  C 217 579.14  214.14 582  210.5 582  C 206.86 582  204 579.14  204 575.5  C 204 571.86  206.86 569  210.5 569  Z " fill-rule="nonzero" fill="#ffffff" stroke="none" />
  <path d="M 210.5 569.5  C 213.86 569.5  216.5 572.14  216.5 575.5  C 216.5 578.86  213.86 581.5  210.5 581.5  C 207.14 581.5  204.5 578.86  204.5 575.5  C 204.5 572.14  207.14 569.5  210.5 569.5  Z " stroke-width="1" stroke="#797979" fill="none" />
  <path d="M 210.5 578.75  C 208.68 578.75  207.25 577.32  207.25 575.5  C 207.25 573.68  208.68 572.25  210.5 572.25  C 212.32 572.25  213.75 573.68  213.75 575.5  C 213.75 577.32  212.32 578.75  210.5 578.75  " fill-rule="nonzero" fill="#797979" stroke="none" />
</svg>