<?xml version="1.0" encoding="utf-8"?>
<svg version="1.1" xmlns:xlink="http://www.w3.org/1999/xlink" width="13px" height="13px" viewBox="391 258  13 13" xmlns="http://www.w3.org/2000/svg">
  <path d="M 397.5 258  C 401.14 258  404 260.86  404 264.5  C 404 268.14  401.14 271  397.5 271  C 393.86 271  391 268.14  391 264.5  C 391 260.86  393.86 258  397.5 258  Z " fill-rule="nonzero" fill="#ffffff" stroke="none" />
  <path d="M 397.5 258.5  C 400.86 258.5  403.5 261.14  403.5 264.5  C 403.5 267.86  400.86 270.5  397.5 270.5  C 394.14 270.5  391.5 267.86  391.5 264.5  C 391.5 261.14  394.14 258.5  397.5 258.5  Z " stroke-width="1" stroke="#797979" fill="none" />
  <path d="M 397.5 267.75  C 395.68 267.75  394.25 266.32  394.25 264.5  C 394.25 262.68  395.68 261.25  397.5 261.25  C 399.32 261.25  400.75 262.68  400.75 264.5  C 400.75 266.32  399.32 267.75  397.5 267.75  " fill-rule="nonzero" fill="#797979" stroke="none" />
</svg>