<?xml version="1.0" encoding="utf-8"?>
<svg version="1.1" xmlns:xlink="http://www.w3.org/1999/xlink" width="13px" height="13px" viewBox="669 297  13 13" xmlns="http://www.w3.org/2000/svg">
  <path d="M 669.5 299  A 1.5 1.5 0 0 1 671 297.5 L 680 297.5  A 1.5 1.5 0 0 1 681.5 299 L 681.5 308  A 1.5 1.5 0 0 1 680 309.5 L 671 309.5  A 1.5 1.5 0 0 1 669.5 308 L 669.5 299  Z " fill-rule="nonzero" fill="#f0f0f0" stroke="none" />
  <path d="M 669.5 299  A 1.5 1.5 0 0 1 671 297.5 L 680 297.5  A 1.5 1.5 0 0 1 681.5 299 L 681.5 308  A 1.5 1.5 0 0 1 680 309.5 L 671 309.5  A 1.5 1.5 0 0 1 669.5 308 L 669.5 299  Z " stroke-width="1" stroke="#797979" fill="none" />
</svg>