<?xml version="1.0" encoding="utf-8"?>
<svg version="1.1" xmlns:xlink="http://www.w3.org/1999/xlink" width="13px" height="13px" viewBox="582 298  13 13" xmlns="http://www.w3.org/2000/svg">
  <path d="M 582.5 300  A 1.5 1.5 0 0 1 584 298.5 L 593 298.5  A 1.5 1.5 0 0 1 594.5 300 L 594.5 309  A 1.5 1.5 0 0 1 593 310.5 L 584 310.5  A 1.5 1.5 0 0 1 582.5 309 L 582.5 300  Z " fill-rule="nonzero" fill="#ffffff" stroke="none" />
  <path d="M 582.5 300  A 1.5 1.5 0 0 1 584 298.5 L 593 298.5  A 1.5 1.5 0 0 1 594.5 300 L 594.5 309  A 1.5 1.5 0 0 1 593 310.5 L 584 310.5  A 1.5 1.5 0 0 1 582.5 309 L 582.5 300  Z " stroke-width="1" stroke="#797979" fill="none" />
  <path d="M 584.7857142857143 304.5  L 587.5714285714286 307.2857142857143  L 592.2142857142857 300.7857142857143  " stroke-width="2.7857142857142856" stroke="#797979" fill="none" />
</svg>