<?xml version="1.0" encoding="utf-8"?>
<svg version="1.1" xmlns:xlink="http://www.w3.org/1999/xlink" width="13px" height="13px" viewBox="178 135  13 13" xmlns="http://www.w3.org/2000/svg">
  <path d="M 178.5 137  A 1.5 1.5 0 0 1 180 135.5 L 189 135.5  A 1.5 1.5 0 0 1 190.5 137 L 190.5 146  A 1.5 1.5 0 0 1 189 147.5 L 180 147.5  A 1.5 1.5 0 0 1 178.5 146 L 178.5 137  Z " fill-rule="nonzero" fill="#ffffff" stroke="none" />
  <path d="M 178.5 137  A 1.5 1.5 0 0 1 180 135.5 L 189 135.5  A 1.5 1.5 0 0 1 190.5 137 L 190.5 146  A 1.5 1.5 0 0 1 189 147.5 L 180 147.5  A 1.5 1.5 0 0 1 178.5 146 L 178.5 137  Z " stroke-width="1" stroke="#797979" fill="none" />
  <path d="M 180.78571428571428 141.5  L 183.57142857142858 144.2857142857143  L 188.21428571428572 137.78571428571428  " stroke-width="2.7857142857142856" stroke="#797979" fill="none" />
</svg>