<?xml version="1.0" encoding="utf-8"?>
<svg version="1.1" xmlns:xlink="http://www.w3.org/1999/xlink" width="13px" height="13px" viewBox="415 297  13 13" xmlns="http://www.w3.org/2000/svg">
  <path d="M 415.5 299  A 1.5 1.5 0 0 1 417 297.5 L 426 297.5  A 1.5 1.5 0 0 1 427.5 299 L 427.5 308  A 1.5 1.5 0 0 1 426 309.5 L 417 309.5  A 1.5 1.5 0 0 1 415.5 308 L 415.5 299  Z " fill-rule="nonzero" fill="#ffffff" stroke="none" />
  <path d="M 415.5 299  A 1.5 1.5 0 0 1 417 297.5 L 426 297.5  A 1.5 1.5 0 0 1 427.5 299 L 427.5 308  A 1.5 1.5 0 0 1 426 309.5 L 417 309.5  A 1.5 1.5 0 0 1 415.5 308 L 415.5 299  Z " stroke-width="1" stroke="#797979" fill="none" />
  <path d="M 417.7857142857143 303.5  L 420.57142857142856 306.2857142857143  L 425.2142857142857 299.7857142857143  " stroke-width="2.7857142857142856" stroke="#797979" fill="none" />
</svg>