<?xml version="1.0" encoding="utf-8"?>
<svg version="1.1" xmlns:xlink="http://www.w3.org/1999/xlink" width="13px" height="13px" viewBox="468 160  13 13" xmlns="http://www.w3.org/2000/svg">
  <path d="M 468.5 162  A 1.5 1.5 0 0 1 470 160.5 L 479 160.5  A 1.5 1.5 0 0 1 480.5 162 L 480.5 171  A 1.5 1.5 0 0 1 479 172.5 L 470 172.5  A 1.5 1.5 0 0 1 468.5 171 L 468.5 162  Z " fill-rule="nonzero" fill="#f0f0f0" stroke="none" />
  <path d="M 468.5 162  A 1.5 1.5 0 0 1 470 160.5 L 479 160.5  A 1.5 1.5 0 0 1 480.5 162 L 480.5 171  A 1.5 1.5 0 0 1 479 172.5 L 470 172.5  A 1.5 1.5 0 0 1 468.5 171 L 468.5 162  Z " stroke-width="1" stroke="#797979" fill="none" />
  <path d="M 470.7857142857143 166.5  L 473.57142857142856 169.2857142857143  L 478.2142857142857 162.78571428571428  " stroke-width="2.7857142857142856" stroke="#797979" fill="none" />
</svg>