<?xml version="1.0" encoding="utf-8"?>
<svg version="1.1" xmlns:xlink="http://www.w3.org/1999/xlink" width="13px" height="13px" viewBox="63 293  13 13" xmlns="http://www.w3.org/2000/svg">
  <path d="M 63.5 295  A 1.5 1.5 0 0 1 65 293.5 L 74 293.5  A 1.5 1.5 0 0 1 75.5 295 L 75.5 304  A 1.5 1.5 0 0 1 74 305.5 L 65 305.5  A 1.5 1.5 0 0 1 63.5 304 L 63.5 295  Z " fill-rule="nonzero" fill="#ffffff" stroke="none" />
  <path d="M 63.5 295  A 1.5 1.5 0 0 1 65 293.5 L 74 293.5  A 1.5 1.5 0 0 1 75.5 295 L 75.5 304  A 1.5 1.5 0 0 1 74 305.5 L 65 305.5  A 1.5 1.5 0 0 1 63.5 304 L 63.5 295  Z " stroke-width="1" stroke="#797979" fill="none" />
</svg>