<?xml version="1.0" encoding="utf-8"?>
<svg version="1.1" xmlns:xlink="http://www.w3.org/1999/xlink" width="13px" height="13px" viewBox="582 323  13 13" xmlns="http://www.w3.org/2000/svg">
  <path d="M 582.5 325  A 1.5 1.5 0 0 1 584 323.5 L 593 323.5  A 1.5 1.5 0 0 1 594.5 325 L 594.5 334  A 1.5 1.5 0 0 1 593 335.5 L 584 335.5  A 1.5 1.5 0 0 1 582.5 334 L 582.5 325  Z " fill-rule="nonzero" fill="#f0f0f0" stroke="none" />
  <path d="M 582.5 325  A 1.5 1.5 0 0 1 584 323.5 L 593 323.5  A 1.5 1.5 0 0 1 594.5 325 L 594.5 334  A 1.5 1.5 0 0 1 593 335.5 L 584 335.5  A 1.5 1.5 0 0 1 582.5 334 L 582.5 325  Z " stroke-width="1" stroke="#797979" fill="none" />
</svg>