<?xml version="1.0" encoding="utf-8"?>
<svg version="1.1" xmlns:xlink="http://www.w3.org/1999/xlink" width="13px" height="13px" viewBox="328 323  13 13" xmlns="http://www.w3.org/2000/svg">
  <path d="M 328.5 325  A 1.5 1.5 0 0 1 330 323.5 L 339 323.5  A 1.5 1.5 0 0 1 340.5 325 L 340.5 334  A 1.5 1.5 0 0 1 339 335.5 L 330 335.5  A 1.5 1.5 0 0 1 328.5 334 L 328.5 325  Z " fill-rule="nonzero" fill="#ffffff" stroke="none" />
  <path d="M 328.5 325  A 1.5 1.5 0 0 1 330 323.5 L 339 323.5  A 1.5 1.5 0 0 1 340.5 325 L 340.5 334  A 1.5 1.5 0 0 1 339 335.5 L 330 335.5  A 1.5 1.5 0 0 1 328.5 334 L 328.5 325  Z " stroke-width="1" stroke="#797979" fill="none" />
  <path d="M 330.7857142857143 329.5  L 333.57142857142856 332.2857142857143  L 338.2142857142857 325.7857142857143  " stroke-width="2.7857142857142856" stroke="#797979" fill="none" />
</svg>