<?xml version="1.0" encoding="utf-8"?>
<svg version="1.1" xmlns:xlink="http://www.w3.org/1999/xlink" width="13px" height="13px" viewBox="551 160  13 13" xmlns="http://www.w3.org/2000/svg">
  <path d="M 551.5 162  A 1.5 1.5 0 0 1 553 160.5 L 562 160.5  A 1.5 1.5 0 0 1 563.5 162 L 563.5 171  A 1.5 1.5 0 0 1 562 172.5 L 553 172.5  A 1.5 1.5 0 0 1 551.5 171 L 551.5 162  Z " fill-rule="nonzero" fill="#f0f0f0" stroke="none" />
  <path d="M 551.5 162  A 1.5 1.5 0 0 1 553 160.5 L 562 160.5  A 1.5 1.5 0 0 1 563.5 162 L 563.5 171  A 1.5 1.5 0 0 1 562 172.5 L 553 172.5  A 1.5 1.5 0 0 1 551.5 171 L 551.5 162  Z " stroke-width="1" stroke="#797979" fill="none" />
  <path d="M 553.7857142857143 166.5  L 556.5714285714286 169.2857142857143  L 561.2142857142857 162.78571428571428  " stroke-width="2.7857142857142856" stroke="#797979" fill="none" />
</svg>