<?xml version="1.0" encoding="utf-8"?>
<svg version="1.1" xmlns:xlink="http://www.w3.org/1999/xlink" width="13px" height="13px" viewBox="462 601  13 13" xmlns="http://www.w3.org/2000/svg">
  <path d="M 468.5 601  C 472.14 601  475 603.86  475 607.5  C 475 611.14  472.14 614  468.5 614  C 464.86 614  462 611.14  462 607.5  C 462 603.86  464.86 601  468.5 601  Z " fill-rule="nonzero" fill="#ffffff" stroke="none" />
  <path d="M 468.5 601.5  C 471.86 601.5  474.5 604.14  474.5 607.5  C 474.5 610.86  471.86 613.5  468.5 613.5  C 465.14 613.5  462.5 610.86  462.5 607.5  C 462.5 604.14  465.14 601.5  468.5 601.5  Z " stroke-width="1" stroke="#797979" fill="none" />
  <path d="M 468.5 610.75  C 466.68 610.75  465.25 609.32  465.25 607.5  C 465.25 605.68  466.68 604.25  468.5 604.25  C 470.32 604.25  471.75 605.68  471.75 607.5  C 471.75 609.32  470.32 610.75  468.5 610.75  " fill-rule="nonzero" fill="#797979" stroke="none" />
</svg>