<?xml version="1.0" encoding="utf-8"?>
<svg version="1.1" xmlns:xlink="http://www.w3.org/1999/xlink" width="13px" height="13px" viewBox="310 573  13 13" xmlns="http://www.w3.org/2000/svg">
  <path d="M 316.5 573  C 320.14 573  323 575.86  323 579.5  C 323 583.14  320.14 586  316.5 586  C 312.86 586  310 583.14  310 579.5  C 310 575.86  312.86 573  316.5 573  Z " fill-rule="nonzero" fill="#ffffff" stroke="none" />
  <path d="M 316.5 573.5  C 319.86 573.5  322.5 576.14  322.5 579.5  C 322.5 582.86  319.86 585.5  316.5 585.5  C 313.14 585.5  310.5 582.86  310.5 579.5  C 310.5 576.14  313.14 573.5  316.5 573.5  Z " stroke-width="1" stroke="#797979" fill="none" />
  <path d="M 316.5 582.75  C 314.68 582.75  313.25 581.32  313.25 579.5  C 313.25 577.68  314.68 576.25  316.5 576.25  C 318.32 576.25  319.75 577.68  319.75 579.5  C 319.75 581.32  318.32 582.75  316.5 582.75  " fill-rule="nonzero" fill="#797979" stroke="none" />
</svg>