<?xml version="1.0" encoding="utf-8"?>
<svg version="1.1" xmlns:xlink="http://www.w3.org/1999/xlink" width="13px" height="13px" viewBox="42 588  13 13" xmlns="http://www.w3.org/2000/svg">
  <path d="M 48.5 588  C 52.14 588  55 590.86  55 594.5  C 55 598.14  52.14 601  48.5 601  C 44.86 601  42 598.14  42 594.5  C 42 590.86  44.86 588  48.5 588  Z " fill-rule="nonzero" fill="#f0f0f0" stroke="none" />
  <path d="M 48.5 588.5  C 51.86 588.5  54.5 591.14  54.5 594.5  C 54.5 597.86  51.86 600.5  48.5 600.5  C 45.14 600.5  42.5 597.86  42.5 594.5  C 42.5 591.14  45.14 588.5  48.5 588.5  Z " stroke-width="1" stroke="#797979" fill="none" />
  <path d="M 48.5 597.75  C 46.68 597.75  45.25 596.32  45.25 594.5  C 45.25 592.68  46.68 591.25  48.5 591.25  C 50.32 591.25  51.75 592.68  51.75 594.5  C 51.75 596.32  50.32 597.75  48.5 597.75  " fill-rule="nonzero" fill="#797979" stroke="none" />
</svg>