<?xml version="1.0" encoding="utf-8"?>
<svg version="1.1" xmlns:xlink="http://www.w3.org/1999/xlink" width="18px" height="19px" xmlns="http://www.w3.org/2000/svg">
  <g transform="matrix(1 0 0 1 -589 -77 )">
    <path d="M 14.612215909090908 8.7578125  C 14.688920454545455 8.83877840909091  14.727272727272728 8.942234848484848  14.727272727272728 9.068181818181818  L 14.727272727272728 9.931818181818182  C 14.727272727272728 10.05776515151515  14.688920454545455 10.16122159090909  14.612215909090908 10.2421875  C 14.535511363636363 10.32315340909091  14.437500000000004 10.363636363636363  14.318181818181817 10.363636363636363  L 9.818181818181817 10.363636363636363  L 9.818181818181817 15.113636363636363  C 9.818181818181817 15.239583333333332  9.779829545454545 15.343039772727272  9.703125 15.424005681818182  C 9.626420454545455 15.50497159090909  9.528409090909092 15.545454545454545  9.409090909090908 15.545454545454545  L 8.590909090909092 15.545454545454545  C 8.47159090909091 15.545454545454545  8.373579545454545 15.50497159090909  8.296875 15.424005681818182  C 8.220170454545455 15.343039772727272  8.181818181818182 15.239583333333332  8.181818181818182 15.113636363636363  L 8.181818181818182 10.363636363636363  L 3.681818181818182 10.363636363636363  C 3.5625000000000004 10.363636363636363  3.4644886363636362 10.32315340909091  3.387784090909091 10.2421875  C 3.311079545454546 10.16122159090909  3.272727272727273 10.05776515151515  3.272727272727273 9.931818181818182  L 3.272727272727273 9.068181818181818  C 3.272727272727273 8.942234848484848  3.311079545454546 8.83877840909091  3.387784090909091 8.7578125  C 3.4644886363636362 8.67684659090909  3.5625000000000004 8.636363636363637  3.681818181818182 8.636363636363637  L 8.181818181818182 8.636363636363637  L 8.181818181818182 3.886363636363637  C 8.181818181818182 3.760416666666664  8.220170454545455 3.656960227272728  8.296875 3.5759943181818183  C 8.373579545454545 3.495028409090909  8.47159090909091 3.4545454545454537  8.590909090909092 3.4545454545454537  L 9.409090909090908 3.4545454545454537  C 9.528409090909092 3.4545454545454537  9.626420454545455 3.495028409090909  9.703125 3.5759943181818183  C 9.779829545454545 3.656960227272728  9.818181818181817 3.760416666666664  9.818181818181817 3.886363636363637  L 9.818181818181817 8.636363636363637  L 14.318181818181817 8.636363636363637  C 14.437500000000004 8.636363636363637  14.535511363636363 8.67684659090909  14.612215909090908 8.7578125  Z M 15.762784090909092 16.63849431818182  C 16.163352272727273 16.215672348484844  16.363636363636363 15.707386363636363  16.363636363636363 15.113636363636363  L 16.363636363636363 3.886363636363637  C 16.363636363636363 3.292613636363637  16.163352272727273 2.7843276515151505  15.762784090909092 2.3615056818181817  C 15.36221590909091 1.9386837121212102  14.880681818181817 1.727272727272728  14.318181818181817 2  L 3.681818181818182 2  C 3.119318181818182 1.727272727272728  2.6377840909090913 1.9386837121212102  2.237215909090909 2.3615056818181817  C 1.8366477272727275 2.7843276515151505  1.6363636363636365 3.292613636363637  1.6363636363636365 3.886363636363637  L 1.6363636363636365 15.113636363636363  C 1.6363636363636365 15.707386363636363  1.8366477272727275 16.215672348484844  2.237215909090909 16.63849431818182  C 2.6377840909090913 17.06131628787879  3.119318181818182 17.272727272727273  3.681818181818182 17  L 14.318181818181817 17  C 14.880681818181817 17.272727272727273  15.36221590909091 17.06131628787879  15.762784090909092 16.63849431818182  Z M 16.919744318181817 1.1402698863636371  C 17.639914772727273 1.9004498106060597  18 2.815814393939392  18 3.886363636363637  L 18 15.113636363636363  C 18 16.184185606060606  17.639914772727273 17.09955018939394  16.919744318181817 17.859730113636363  C 16.199573863636363 18.61991003787879  15.332386363636365 19  14.318181818181817 19  L 3.681818181818182 19  C 2.6676136363636367 19  1.8004261363636367 18.61991003787879  1.0802556818181819 17.859730113636363  C 0.3600852272727273 17.09955018939394  0 16.184185606060606  0 15.113636363636363  L 0 3.886363636363637  C 0 2.815814393939392  0.3600852272727273 1.9004498106060597  1.0802556818181819 1.1402698863636371  C 1.8004261363636367 0.38008996212121027  2.6676136363636367 0  3.681818181818182 0  L 14.318181818181817 0  C 15.332386363636365 0  16.199573863636363 0.38008996212121027  16.919744318181817 1.1402698863636371  Z " fill-rule="nonzero" fill="#555555" stroke="none" transform="matrix(1 0 0 1 589 77 )" />
  </g>
</svg>