<?xml version="1.0" encoding="utf-8"?>
<svg version="1.1" xmlns:xlink="http://www.w3.org/1999/xlink" width="15px" height="12px" xmlns="http://www.w3.org/2000/svg">
  <g transform="matrix(1 0 0 1 -357 -42 )">
    <path d="M 15 2.660869565217392  C 15 2.8657004830917874  14.941066997518611 3.041545893719806  14.823200992555831 3.188405797101449  L 7.918734491315136 11.779710144927536  C 7.800868486352358 11.926570048309179  7.661290322580645 12  7.5 12  C 7.338709677419356 12  7.199131513647644 11.926570048309179  7.081265508684863 11.779710144927536  L 0.17679900744416874 3.188405797101449  C 0.05893300248138966 3.041545893719806  0 2.8657004830917874  0 2.660869565217392  C 0 2.456038647342994  0.05893300248138966 2.2801932367149753  0.17679900744416874 2.1333333333333337  L 1.7214640198511166 0.22028985507246368  C 1.839330024813896 0.07342995169082078  1.9789081885856084 0  2.1401985111662527 0  C 2.3014888337468986 0  2.441066997518611 0.07342995169082078  2.5589330024813894 0.22028985507246368  L 7.5 6.376811594202898  L 12.44106699751861 0.22028985507246368  C 12.55893300248139 0.07342995169082078  12.698511166253102 0  12.859801488833748 0  C 13.021091811414394 0  13.160669975186106 0.07342995169082078  13.278535980148883 0.22028985507246368  L 14.823200992555831 2.1333333333333337  C 14.941066997518611 2.2801932367149753  15 2.456038647342994  15 2.660869565217392  Z " fill-rule="nonzero" fill="#555555" stroke="none" transform="matrix(1 0 0 1 357 42 )" />
  </g>
</svg>