<?xml version="1.0" encoding="utf-8"?>
<svg version="1.1" xmlns:xlink="http://www.w3.org/1999/xlink" width="13px" height="13px" viewBox="282 343  13 13" xmlns="http://www.w3.org/2000/svg">
  <path d="M 288.5 343  C 292.14 343  295 345.86  295 349.5  C 295 353.14  292.14 356  288.5 356  C 284.86 356  282 353.14  282 349.5  C 282 345.86  284.86 343  288.5 343  Z " fill-rule="nonzero" fill="#ffffff" stroke="none" />
  <path d="M 288.5 343.5  C 291.86 343.5  294.5 346.14  294.5 349.5  C 294.5 352.86  291.86 355.5  288.5 355.5  C 285.14 355.5  282.5 352.86  282.5 349.5  C 282.5 346.14  285.14 343.5  288.5 343.5  Z " stroke-width="1" stroke="#797979" fill="none" />
  <path d="M 288.5 352.75  C 286.68 352.75  285.25 351.32  285.25 349.5  C 285.25 347.68  286.68 346.25  288.5 346.25  C 290.32 346.25  291.75 347.68  291.75 349.5  C 291.75 351.32  290.32 352.75  288.5 352.75  " fill-rule="nonzero" fill="#797979" stroke="none" />
</svg>