<?xml version="1.0" encoding="utf-8"?>
<svg version="1.1" xmlns:xlink="http://www.w3.org/1999/xlink" width="13px" height="13px" viewBox="340 132  13 13" xmlns="http://www.w3.org/2000/svg">
  <path d="M 346.5 132  C 350.14 132  353 134.86  353 138.5  C 353 142.14  350.14 145  346.5 145  C 342.86 145  340 142.14  340 138.5  C 340 134.86  342.86 132  346.5 132  Z " fill-rule="nonzero" fill="#f0f0f0" stroke="none" />
  <path d="M 346.5 132.5  C 349.86 132.5  352.5 135.14  352.5 138.5  C 352.5 141.86  349.86 144.5  346.5 144.5  C 343.14 144.5  340.5 141.86  340.5 138.5  C 340.5 135.14  343.14 132.5  346.5 132.5  Z " stroke-width="1" stroke="#797979" fill="none" />
  <path d="M 346.5 141.75  C 344.68 141.75  343.25 140.32  343.25 138.5  C 343.25 136.68  344.68 135.25  346.5 135.25  C 348.32 135.25  349.75 136.68  349.75 138.5  C 349.75 140.32  348.32 141.75  346.5 141.75  " fill-rule="nonzero" fill="#797979" stroke="none" />
</svg>