<?xml version="1.0" encoding="utf-8"?>
<svg version="1.1" xmlns:xlink="http://www.w3.org/1999/xlink" width="17px" height="18px" xmlns="http://www.w3.org/2000/svg">
  <g transform="matrix(1 0 0 1 -750 -338 )">
    <path d="M 10.42067307692308 9.002884604116584  L 16.46875 15.403846153846153  C 16.597688904169722 15.539254757615685  16.67021520398547 15.723578695938366  16.67021520398547 15.915865378981369  C 16.67021520398547 16.10815206202437  16.597688904169722 16.292476000347055  16.46875 16.427884604116585  L 15.515224348332332 17.4375  C 15.387338444772217 17.57402354559148  15.213254725245248 17.650816098337557  15.031650635704628 17.650816098337557  C 14.850046546164007 17.650816098337557  14.675962826637042 17.574023545591473  14.548076923076922 17.4375  L 8.50272434833233 11.033653846153848  L 2.4546474252554082 17.437500000000004  C 2.3267615216952957 17.57402354559148  2.152677802168322 17.65081609833757  1.9710737126277031 17.65081609833757  C 1.7894696230870821 17.65081609833757  1.615385903560114 17.574023545591487  1.487499999999999 17.437500000000004  L 0.5339743483323303 16.427884604116592  C 0.40503544416260634 16.292476000347065  0.3325091443468547 16.108152062024384  0.3325091443468547 15.91586537898138  C 0.3325091443468547 15.723578695938375  0.405035444162604 15.53925475761569  0.5339743483323303 15.403846153846159  L 6.579326923076923 9.002884604116595  L 0.5312499999999988 2.596153846153846  C 0.4023110958302725 2.4607452423843155  0.32978479601452326 2.276421304061638  0.32978479601452326 2.08413462101863  C 0.32978479601452326 1.8918479379756221  0.4023110958302725 1.7075239996529463  0.5312499999999988 1.5721153958834129  L 1.4847756516676676 0.5624999999999988  C 1.6126615552277828 0.4259764544085239  1.786745274754754 0.3491839016624364  1.9683493642953727 0.3491839016624364  C 2.1499534538359915 0.3491839016624364  2.3240371733629646 0.4259764544085239  2.4519230769230766 0.5624999999999988  L 8.50272434833233 6.966346153846154  L 14.550801271409258 0.5624999999999988  C 14.678687176211785 0.4259764439942317  14.85277090260111 0.34918388462122363  15.034375000000004 0.34918388462122363  C 15.215979097398893 0.34918388462122363  15.390062823788211 0.42597644399423296  15.517948728590744 0.5624999999999988  L 16.47147434833233 1.5721153958834129  C 16.600413252502054 1.7075239996529439  16.67293955231781 1.8918479379756221  16.67293955231781 2.08413462101863  C 16.67293955231781 2.2764213040616403  16.60041325250206 2.460745242384313  16.47147434833233 2.596153846153846  L 10.42067307692308 9.002884604116584  Z " fill-rule="nonzero" fill="#000000" stroke="none" transform="matrix(1 0 0 1 750 338 )" />
  </g>
</svg>