<?xml version="1.0" encoding="utf-8"?>
<svg version="1.1" xmlns:xlink="http://www.w3.org/1999/xlink" width="16px" height="13px" xmlns="http://www.w3.org/2000/svg">
  <g transform="matrix(1 0 0 1 -1484 -51 )">
    <path d="M 14.776322682032477 7.7741477272727275  C 14.876898899947616 7.63873106060606  14.927187008905186 7.518702651515151  14.927187008905186 7.4140625  C 14.927187008905186 7.198626893939394  14.779116465863455 7.09090909090909  14.48297537977999 7.09090909090909  L 5.3640649554740705 7.09090909090909  C 5.140562248995984 7.09090909090909  4.90169373144753 7.157078598484849  4.647459402828706 7.289417613636364  C 4.393225074209884 7.421756628787877  4.1934695302950935 7.583333333333332  4.048192771084337 7.7741477272727275  L 1.5840754321634363 11.125710227272727  C 1.4834992142482974 11.2734375  1.4332111052907281 11.39654356060606  1.4332111052907281 11.49502840909091  C 1.4332111052907281 11.710464015151514  1.5812816483324605 11.818181818181818  1.8774227344159247 11.818181818181818  L 10.996333158721844 11.818181818181818  C 11.219835865199931 11.818181818181818  11.460101274663874 11.750473484848486  11.717129387113673 11.615056818181818  C 11.974157499563471 11.479640151515152  12.172516151562775 11.316524621212123  12.312205343111577 11.125710227272727  L 14.776322682032477 7.7741477272727275  Z M 4.190675746464118 6.22762784090909  C 4.592980618124672 6.015269886363637  4.9841103544613246 5.90909090909091  5.3640649554740705 5.90909090909091  L 11.800942902042955 5.90909090909091  L 11.800942902042955 4.4318181818181825  C 11.800942902042955 4.18560606060606  11.722716954775624 3.9763257575757565  11.566265060240964 3.8039772727272725  C 11.409813165706305 3.631628787878787  11.219835865199931 3.545454545454545  10.996333158721844 3.545454545454545  L 6.168674698795181 3.545454545454545  C 5.9451719923170945 3.545454545454545  5.755194691810722 3.459280303030302  5.598742797276061 3.286931818181818  C 5.442290902741401 3.114583333333332  5.3640649554740705 2.9053030303030294  5.3640649554740705 2.6590909090909096  L 5.3640649554740705 2.068181818181818  C 5.3640649554740705 1.8219696969696968  5.28583900820674 1.6126893939393923  5.129387113672079 1.4403409090909096  C 4.97293521913742 1.2679924242424243  4.7829579186310465 1.181818181818182  4.55945521215296 1.181818181818182  L 1.8774227344159247 1.181818181818182  C 1.6539200279378383 1.181818181818182  1.4639427274314651 1.2679924242424243  1.3074908328968047 1.4403409090909096  C 1.1510389383621442 1.6126893939393923  1.072812991094814 1.8219696969696968  1.072812991094814 2.068181818181818  L 1.072812991094814 9.943892045454545  L 3.2184389732844423 7.035511363636364  C 3.4642919504103373 6.709280303030303  3.788370874803562 6.439985795454545  4.190675746464118 6.22762784090909  Z M 15.874279727606076 6.78622159090909  C 15.958093242535359 6.983191287878787  16 7.19247159090909  16 7.4140625  C 16 7.795691287878787  15.8714859437751 8.165009469696969  15.614457831325302 8.522017045454545  L 13.141959140911473 11.873579545454545  C 12.90169373144753 12.199810606060606  12.577614807054305 12.469105113636363  12.169722367731797 12.681463068181818  C 11.761829928409291 12.893821022727273  11.37070019207264 13  10.996333158721844 13  L 1.8774227344159247 13  C 1.3633665095163263 13  0.921948664222106 12.796875  0.5531691985332635 12.390625  C 0.18438973284442117 11.984375  0 11.49810606060606  0 10.931818181818182  L 0 2.068181818181818  C 0 1.5018939393939372  0.18438973284442117 1.015625  0.5531691985332635 0.609375  C 0.921948664222106 0.203125  1.3633665095163263 0  1.8774227344159247 0  L 4.55945521215296 0  C 5.0735114370525585 0  5.514929282346778 0.203125  5.8837087480356205 0.609375  C 6.2524882137244635 1.015625  6.436877946568885 1.5018939393939372  6.436877946568885 2.068181818181818  L 6.436877946568885 2.363636363636363  L 10.996333158721844 2.363636363636363  C 11.510389383621444 2.363636363636363  11.951807228915662 2.566761363636363  12.320586694604504 2.973011363636363  C 12.689366160293348 3.379261363636363  12.87375589313777 3.865530303030302  12.87375589313777 4.4318181818181825  L 12.87375589313777 5.90909090909091  L 14.48297537977999 5.90909090909091  C 14.784704033525408 5.90909090909091  15.06128863279204 5.984493371212123  15.312729177579884 6.135298295454545  C 15.564169722367733 6.28610321969697  15.75135323904313 6.503077651515151  15.874279727606076 6.78622159090909  Z " fill-rule="nonzero" fill="#000000" stroke="none" transform="matrix(1 0 0 1 1484 51 )" />
  </g>
</svg>