<?xml version="1.0" encoding="utf-8"?>
<svg version="1.1" xmlns:xlink="http://www.w3.org/1999/xlink" width="13px" height="13px" viewBox="405 96  13 13" xmlns="http://www.w3.org/2000/svg">
  <path d="M 411.5 96  C 415.14 96  418 98.86  418 102.5  C 418 106.14  415.14 109  411.5 109  C 407.86 109  405 106.14  405 102.5  C 405 98.86  407.86 96  411.5 96  Z " fill-rule="nonzero" fill="#f0f0f0" stroke="none" />
  <path d="M 411.5 96.5  C 414.86 96.5  417.5 99.14  417.5 102.5  C 417.5 105.86  414.86 108.5  411.5 108.5  C 408.14 108.5  405.5 105.86  405.5 102.5  C 405.5 99.14  408.14 96.5  411.5 96.5  Z " stroke-width="1" stroke="#7f7f7f" fill="none" />
  <path d="M 411.5 105.75  C 409.68 105.75  408.25 104.32  408.25 102.5  C 408.25 100.68  409.68 99.25  411.5 99.25  C 413.32 99.25  414.75 100.68  414.75 102.5  C 414.75 104.32  413.32 105.75  411.5 105.75  " fill-rule="nonzero" fill="#7f7f7f" stroke="none" />
</svg>