<?xml version="1.0" encoding="utf-8"?>
<svg version="1.1" xmlns:xlink="http://www.w3.org/1999/xlink" width="13px" height="13px" viewBox="543 96  13 13" xmlns="http://www.w3.org/2000/svg">
  <path d="M 549.5 96  C 553.14 96  556 98.86  556 102.5  C 556 106.14  553.14 109  549.5 109  C 545.86 109  543 106.14  543 102.5  C 543 98.86  545.86 96  549.5 96  Z " fill-rule="nonzero" fill="#f2f2f2" stroke="none" />
  <path d="M 549.5 96.5  C 552.86 96.5  555.5 99.14  555.5 102.5  C 555.5 105.86  552.86 108.5  549.5 108.5  C 546.14 108.5  543.5 105.86  543.5 102.5  C 543.5 99.14  546.14 96.5  549.5 96.5  Z " stroke-width="1" stroke="#7f7f7f" fill="none" />
  <path d="M 549.5 105.75  C 547.68 105.75  546.25 104.32  546.25 102.5  C 546.25 100.68  547.68 99.25  549.5 99.25  C 551.32 99.25  552.75 100.68  552.75 102.5  C 552.75 104.32  551.32 105.75  549.5 105.75  " fill-rule="nonzero" fill="#7f7f7f" stroke="none" />
</svg>