<?xml version="1.0" encoding="utf-8"?>
<svg version="1.1" xmlns:xlink="http://www.w3.org/1999/xlink" width="13px" height="13px" viewBox="543 144  13 13" xmlns="http://www.w3.org/2000/svg">
  <path d="M 549.5 144  C 553.14 144  556 146.86  556 150.5  C 556 154.14  553.14 157  549.5 157  C 545.86 157  543 154.14  543 150.5  C 543 146.86  545.86 144  549.5 144  Z " fill-rule="nonzero" fill="#f0f0f0" stroke="none" />
  <path d="M 549.5 144.5  C 552.86 144.5  555.5 147.14  555.5 150.5  C 555.5 153.86  552.86 156.5  549.5 156.5  C 546.14 156.5  543.5 153.86  543.5 150.5  C 543.5 147.14  546.14 144.5  549.5 144.5  Z " stroke-width="1" stroke="#7f7f7f" fill="none" />
  <path d="M 549.5 153.75  C 547.68 153.75  546.25 152.32  546.25 150.5  C 546.25 148.68  547.68 147.25  549.5 147.25  C 551.32 147.25  552.75 148.68  552.75 150.5  C 552.75 152.32  551.32 153.75  549.5 153.75  " fill-rule="nonzero" fill="#7f7f7f" stroke="none" />
</svg>