<?xml version="1.0" encoding="utf-8"?>
<svg version="1.1" xmlns:xlink="http://www.w3.org/1999/xlink" width="13px" height="13px" viewBox="398 342  13 13" xmlns="http://www.w3.org/2000/svg">
  <path d="M 398.5 344  A 1.5 1.5 0 0 1 400 342.5 L 409 342.5  A 1.5 1.5 0 0 1 410.5 344 L 410.5 353  A 1.5 1.5 0 0 1 409 354.5 L 400 354.5  A 1.5 1.5 0 0 1 398.5 353 L 398.5 344  Z " fill-rule="nonzero" fill="#ffffff" stroke="none" />
  <path d="M 398.5 344  A 1.5 1.5 0 0 1 400 342.5 L 409 342.5  A 1.5 1.5 0 0 1 410.5 344 L 410.5 353  A 1.5 1.5 0 0 1 409 354.5 L 400 354.5  A 1.5 1.5 0 0 1 398.5 353 L 398.5 344  Z " stroke-width="1" stroke="#797979" fill="none" />
</svg>