<?xml version="1.0" encoding="utf-8"?>
<svg version="1.1" xmlns:xlink="http://www.w3.org/1999/xlink" width="13px" height="13px" viewBox="398 317  13 13" xmlns="http://www.w3.org/2000/svg">
  <path d="M 398.5 319  A 1.5 1.5 0 0 1 400 317.5 L 409 317.5  A 1.5 1.5 0 0 1 410.5 319 L 410.5 328  A 1.5 1.5 0 0 1 409 329.5 L 400 329.5  A 1.5 1.5 0 0 1 398.5 328 L 398.5 319  Z " fill-rule="nonzero" fill="#f0f0f0" stroke="none" />
  <path d="M 398.5 319  A 1.5 1.5 0 0 1 400 317.5 L 409 317.5  A 1.5 1.5 0 0 1 410.5 319 L 410.5 328  A 1.5 1.5 0 0 1 409 329.5 L 400 329.5  A 1.5 1.5 0 0 1 398.5 328 L 398.5 319  Z " stroke-width="1" stroke="#797979" fill="none" />
  <path d="M 400.7857142857143 323.5  L 403.57142857142856 326.2857142857143  L 408.2142857142857 319.7857142857143  " stroke-width="2.7857142857142856" stroke="#797979" fill="none" />
</svg>