<?xml version="1.0" encoding="utf-8"?>
<svg version="1.1" xmlns:xlink="http://www.w3.org/1999/xlink" width="13px" height="13px" viewBox="380 620  13 13" xmlns="http://www.w3.org/2000/svg">
  <path d="M 380.5 622  A 1.5 1.5 0 0 1 382 620.5 L 391 620.5  A 1.5 1.5 0 0 1 392.5 622 L 392.5 631  A 1.5 1.5 0 0 1 391 632.5 L 382 632.5  A 1.5 1.5 0 0 1 380.5 631 L 380.5 622  Z " fill-rule="nonzero" fill="#f0f0f0" stroke="none" />
  <path d="M 380.5 622  A 1.5 1.5 0 0 1 382 620.5 L 391 620.5  A 1.5 1.5 0 0 1 392.5 622 L 392.5 631  A 1.5 1.5 0 0 1 391 632.5 L 382 632.5  A 1.5 1.5 0 0 1 380.5 631 L 380.5 622  Z " stroke-width="1" stroke="#797979" fill="none" />
</svg>