<?xml version="1.0" encoding="utf-8"?>
<svg version="1.1" xmlns:xlink="http://www.w3.org/1999/xlink" width="13px" height="13px" viewBox="596 620  13 13" xmlns="http://www.w3.org/2000/svg">
  <path d="M 596.5 622  A 1.5 1.5 0 0 1 598 620.5 L 607 620.5  A 1.5 1.5 0 0 1 608.5 622 L 608.5 631  A 1.5 1.5 0 0 1 607 632.5 L 598 632.5  A 1.5 1.5 0 0 1 596.5 631 L 596.5 622  Z " fill-rule="nonzero" fill="#ffffff" stroke="none" />
  <path d="M 596.5 622  A 1.5 1.5 0 0 1 598 620.5 L 607 620.5  A 1.5 1.5 0 0 1 608.5 622 L 608.5 631  A 1.5 1.5 0 0 1 607 632.5 L 598 632.5  A 1.5 1.5 0 0 1 596.5 631 L 596.5 622  Z " stroke-width="1" stroke="#797979" fill="none" />
</svg>