<?xml version="1.0" encoding="utf-8"?>
<svg version="1.1" xmlns:xlink="http://www.w3.org/1999/xlink" width="13px" height="13px" viewBox="596 736  13 13" xmlns="http://www.w3.org/2000/svg">
  <path d="M 596.5 738  A 1.5 1.5 0 0 1 598 736.5 L 607 736.5  A 1.5 1.5 0 0 1 608.5 738 L 608.5 747  A 1.5 1.5 0 0 1 607 748.5 L 598 748.5  A 1.5 1.5 0 0 1 596.5 747 L 596.5 738  Z " fill-rule="nonzero" fill="#ffffff" stroke="none" />
  <path d="M 596.5 738  A 1.5 1.5 0 0 1 598 736.5 L 607 736.5  A 1.5 1.5 0 0 1 608.5 738 L 608.5 747  A 1.5 1.5 0 0 1 607 748.5 L 598 748.5  A 1.5 1.5 0 0 1 596.5 747 L 596.5 738  Z " stroke-width="1" stroke="#797979" fill="none" />
  <path d="M 598.7857142857143 742.5  L 601.5714285714286 745.2857142857142  L 606.2142857142857 738.7857142857143  " stroke-width="2.7857142857142856" stroke="#797979" fill="none" />
</svg>