<?xml version="1.0" encoding="utf-8"?>
<svg version="1.1" xmlns:xlink="http://www.w3.org/1999/xlink" width="13px" height="13px" viewBox="26 419  13 13" xmlns="http://www.w3.org/2000/svg">
  <path d="M 26.5 421  A 1.5 1.5 0 0 1 28 419.5 L 37 419.5  A 1.5 1.5 0 0 1 38.5 421 L 38.5 430  A 1.5 1.5 0 0 1 37 431.5 L 28 431.5  A 1.5 1.5 0 0 1 26.5 430 L 26.5 421  Z " fill-rule="nonzero" fill="#ffffff" stroke="none" />
  <path d="M 26.5 421  A 1.5 1.5 0 0 1 28 419.5 L 37 419.5  A 1.5 1.5 0 0 1 38.5 421 L 38.5 430  A 1.5 1.5 0 0 1 37 431.5 L 28 431.5  A 1.5 1.5 0 0 1 26.5 430 L 26.5 421  Z " stroke-width="1" stroke="#797979" fill="none" />
</svg>