<?xml version="1.0" encoding="utf-8"?>
<svg version="1.1" xmlns:xlink="http://www.w3.org/1999/xlink" width="17px" height="17px" xmlns="http://www.w3.org/2000/svg">
  <g transform="matrix(1 0 0 1 -6 -4 )">
    <path d="M 8.494809078776042 16.755137467447916  C 3.9334960807291663 16.755137467447916  0.23580200846354177 13.057443395182291  0.23580200846354177 8.496130397135417  C 0.23580200846354177 3.9348362879774315  3.9334960807291663 0.23712334526909792  8.494809060329862 0.23712334526909792  C 13.056291929253472 0.23712334526909792  16.753816112196183 3.934817417534723  16.753816112196183 8.496130397135417  C 16.753816112196183 13.057443376736112  13.056291947699654 16.755137467447916  8.494809078776042 16.755137467447916  Z M 8.494809078776042 16.036958835720487  C 12.65951652235243 16.036958835720487  16.03563749891493 12.660837840711805  16.03563749891493 8.496130397135417  C 16.03563749891493 4.331441842447918  12.65951650390625 0.9553019585503473  8.494809060329862 0.9553019585503473  C 4.330101616753472 0.9553019585503473  0.9539806401909723 4.3314418424479175  0.9539806401909723 8.496130397135417  C 0.9539806401909723 12.66081895182292  4.330101635199652 16.036958835720487  8.494809078776042 16.036958835720487  Z " fill-rule="nonzero" fill="#1abc9c" stroke="none" transform="matrix(1 0 0 1 6 4 )" />
  </g>
</svg>