<?xml version="1.0" encoding="utf-8"?>
<svg version="1.1" xmlns:xlink="http://www.w3.org/1999/xlink" width="9px" height="8px" xmlns="http://www.w3.org/2000/svg">
  <g transform="matrix(1 0 0 1 -10 -9 )">
    <path d="M 8.785054740234374 1.8617897265625016  C 9.0254077734375 1.5609136914062507  9.0154425234375 1.1094997656250003  8.76728278125 0.8262917773437506  C 8.76728278125 0.8262917773437506  8.758324863281251 0.8155390625000001  8.75332423828125 0.8108022851562495  C 8.747226369140625 0.8042267382812502  8.733537650390627 0.7927745117187497  8.733537650390627 0.7927745117187497  C 8.456075771484375 0.5502989062499992  8.048813888671877 0.5861546093749999  7.8108532382812506 0.8798554687499998  L 3.8966710605468746 5.71014052734375  L 1.9779839296875 3.169443124999999  C 1.7359220390625003 2.84888046875  1.303351330078125 2.806649101562499  1.01419737890625 3.07626630859375  C 0.7236223945312497 3.3471626367187497  0.6863156894531244 3.825078613281251  0.9294388417968741 4.147060312500001  L 3.349733888671874 7.351927421875001  C 3.5917957792968744 7.672490078125001  4.024312523437499 7.714721445312501  4.31350245703125 7.445104238281251  C 4.345682642578123 7.415104570312501  4.37458904296875 7.38244671875  4.40050946484375 7.347870156250002  L 8.785054740234374 1.8617897265625016  Z " fill-rule="nonzero" fill="#1abc9c" stroke="none" transform="matrix(1 0 0 1 10 9 )" />
  </g>
</svg>