<?xml version="1.0" encoding="utf-8"?>
<svg version="1.1" xmlns:xlink="http://www.w3.org/1999/xlink" width="13px" height="13px" viewBox="562 100  13 13" xmlns="http://www.w3.org/2000/svg">
  <path d="M 562.5 102  A 1.5 1.5 0 0 1 564 100.5 L 573 100.5  A 1.5 1.5 0 0 1 574.5 102 L 574.5 111  A 1.5 1.5 0 0 1 573 112.5 L 564 112.5  A 1.5 1.5 0 0 1 562.5 111 L 562.5 102  Z " fill-rule="nonzero" fill="#ffffff" stroke="none" />
  <path d="M 562.5 102  A 1.5 1.5 0 0 1 564 100.5 L 573 100.5  A 1.5 1.5 0 0 1 574.5 102 L 574.5 111  A 1.5 1.5 0 0 1 573 112.5 L 564 112.5  A 1.5 1.5 0 0 1 562.5 111 L 562.5 102  Z " stroke-width="1" stroke="#797979" fill="none" />
  <path d="M 564.7857142857143 106.5  L 567.5714285714286 109.28571428571428  L 572.2142857142857 102.78571428571429  " stroke-width="2.7857142857142856" stroke="#797979" fill="none" />
</svg>