<?xml version="1.0" encoding="utf-8"?>
<svg version="1.1" xmlns:xlink="http://www.w3.org/1999/xlink" width="13px" height="13px" viewBox="42 232  13 13" xmlns="http://www.w3.org/2000/svg">
  <path d="M 42.5 234  A 1.5 1.5 0 0 1 44 232.5 L 53 232.5  A 1.5 1.5 0 0 1 54.5 234 L 54.5 243  A 1.5 1.5 0 0 1 53 244.5 L 44 244.5  A 1.5 1.5 0 0 1 42.5 243 L 42.5 234  Z " fill-rule="nonzero" fill="#f0f0f0" stroke="none" />
  <path d="M 42.5 234  A 1.5 1.5 0 0 1 44 232.5 L 53 232.5  A 1.5 1.5 0 0 1 54.5 234 L 54.5 243  A 1.5 1.5 0 0 1 53 244.5 L 44 244.5  A 1.5 1.5 0 0 1 42.5 243 L 42.5 234  Z " stroke-width="1" stroke="#797979" fill="none" />
  <path d="M 44.785714285714285 238.5  L 47.57142857142857 241.2857142857143  L 52.214285714285715 234.78571428571428  " stroke-width="2.7857142857142856" stroke="#797979" fill="none" />
</svg>