<?xml version="1.0" encoding="utf-8"?>
<svg version="1.1" xmlns:xlink="http://www.w3.org/1999/xlink" width="13px" height="13px" viewBox="42 256  13 13" xmlns="http://www.w3.org/2000/svg">
  <path d="M 42.5 258  A 1.5 1.5 0 0 1 44 256.5 L 53 256.5  A 1.5 1.5 0 0 1 54.5 258 L 54.5 267  A 1.5 1.5 0 0 1 53 268.5 L 44 268.5  A 1.5 1.5 0 0 1 42.5 267 L 42.5 258  Z " fill-rule="nonzero" fill="#ffffff" stroke="none" />
  <path d="M 42.5 258  A 1.5 1.5 0 0 1 44 256.5 L 53 256.5  A 1.5 1.5 0 0 1 54.5 258 L 54.5 267  A 1.5 1.5 0 0 1 53 268.5 L 44 268.5  A 1.5 1.5 0 0 1 42.5 267 L 42.5 258  Z " stroke-width="1" stroke="#797979" fill="none" />
</svg>