<?xml version="1.0" encoding="utf-8"?>
<svg version="1.1" xmlns:xlink="http://www.w3.org/1999/xlink" width="13px" height="13px" viewBox="293 256  13 13" xmlns="http://www.w3.org/2000/svg">
  <path d="M 293.5 258  A 1.5 1.5 0 0 1 295 256.5 L 304 256.5  A 1.5 1.5 0 0 1 305.5 258 L 305.5 267  A 1.5 1.5 0 0 1 304 268.5 L 295 268.5  A 1.5 1.5 0 0 1 293.5 267 L 293.5 258  Z " fill-rule="nonzero" fill="#f0f0f0" stroke="none" />
  <path d="M 293.5 258  A 1.5 1.5 0 0 1 295 256.5 L 304 256.5  A 1.5 1.5 0 0 1 305.5 258 L 305.5 267  A 1.5 1.5 0 0 1 304 268.5 L 295 268.5  A 1.5 1.5 0 0 1 293.5 267 L 293.5 258  Z " stroke-width="1" stroke="#797979" fill="none" />
</svg>