<?xml version="1.0" encoding="utf-8"?>
<svg version="1.1" xmlns:xlink="http://www.w3.org/1999/xlink" width="13px" height="13px" viewBox="371 319  13 13" xmlns="http://www.w3.org/2000/svg">
  <path d="M 371.5 325.5  A 6 6 0 0 1 377.5 319.5 A 6 6 0 0 1 383.5 325.5 A 6 6 0 0 1 377.5 331.5 A 6 6 0 0 1 371.5 325.5 Z " fill-rule="nonzero" fill="#ffffff" stroke="none" />
  <path d="M 371.5 325.5  A 6 6 0 0 1 377.5 319.5 A 6 6 0 0 1 383.5 325.5 A 6 6 0 0 1 377.5 331.5 A 6 6 0 0 1 371.5 325.5 Z " stroke-width="1" stroke="#797979" fill="none" />
</svg>