<?xml version="1.0" encoding="utf-8"?>
<svg version="1.1" xmlns:xlink="http://www.w3.org/1999/xlink" width="13px" height="13px" viewBox="363 256  13 13" xmlns="http://www.w3.org/2000/svg">
  <path d="M 363.5 258  A 1.5 1.5 0 0 1 365 256.5 L 374 256.5  A 1.5 1.5 0 0 1 375.5 258 L 375.5 267  A 1.5 1.5 0 0 1 374 268.5 L 365 268.5  A 1.5 1.5 0 0 1 363.5 267 L 363.5 258  Z " fill-rule="nonzero" fill="#f0f0f0" stroke="none" />
  <path d="M 363.5 258  A 1.5 1.5 0 0 1 365 256.5 L 374 256.5  A 1.5 1.5 0 0 1 375.5 258 L 375.5 267  A 1.5 1.5 0 0 1 374 268.5 L 365 268.5  A 1.5 1.5 0 0 1 363.5 267 L 363.5 258  Z " stroke-width="1" stroke="#797979" fill="none" />
  <path d="M 365.7857142857143 262.5  L 368.57142857142856 265.2857142857143  L 373.2142857142857 258.7857142857143  " stroke-width="2.7857142857142856" stroke="#797979" fill="none" />
</svg>