<?xml version="1.0" encoding="utf-8"?>
<svg version="1.1" xmlns:xlink="http://www.w3.org/1999/xlink" width="38px" height="38px" xmlns="http://www.w3.org/2000/svg">
  <g transform="matrix(1 0 0 1 -95 -47 )">
    <path d="M 114 47  C 124.64 47  133 55.36  133 66  C 133 76.64  124.64 85  114 85  C 103.36 85  95 76.64  95 66  C 95 55.36  103.36 47  114 47  Z " fill-rule="nonzero" fill="#ffffff" stroke="none" />
    <path d="M 114 47.5  C 124.36 47.5  132.5 55.64  132.5 66  C 132.5 76.36  124.36 84.5  114 84.5  C 103.64 84.5  95.5 76.36  95.5 66  C 95.5 55.64  103.64 47.5  114 47.5  Z " stroke-width="1" stroke="#797979" fill="none" />
  </g>
</svg>