<?xml version="1.0" encoding="utf-8"?>
<svg version="1.1" xmlns:xlink="http://www.w3.org/1999/xlink" width="12px" height="12px" xmlns="http://www.w3.org/2000/svg">
  <g transform="matrix(1 0 0 1 -665 -150 )">
    <path d="M 671 150  C 674.36 150  677 152.64  677 156  C 677 159.36  674.36 162  671 162  C 667.64 162  665 159.36  665 156  C 665 152.64  667.64 150  671 150  Z " fill-rule="nonzero" fill="#aaaa00" stroke="none" />
    <path d="M 671 150.5  C 674.08 150.5  676.5 152.92  676.5 156  C 676.5 159.08  674.08 161.5  671 161.5  C 667.92 161.5  665.5 159.08  665.5 156  C 665.5 152.92  667.92 150.5  671 150.5  Z " stroke-width="1" stroke="#aaaa00" fill="none" />
  </g>
</svg>