<?xml version="1.0" encoding="utf-8"?>
<svg version="1.1" xmlns:xlink="http://www.w3.org/1999/xlink" width="13px" height="13px" viewBox="698 319  13 13" xmlns="http://www.w3.org/2000/svg">
  <path d="M 698.5 321  A 1.5 1.5 0 0 1 700 319.5 L 709 319.5  A 1.5 1.5 0 0 1 710.5 321 L 710.5 330  A 1.5 1.5 0 0 1 709 331.5 L 700 331.5  A 1.5 1.5 0 0 1 698.5 330 L 698.5 321  Z " fill-rule="nonzero" fill="#ffffff" stroke="none" />
  <path d="M 698.5 321  A 1.5 1.5 0 0 1 700 319.5 L 709 319.5  A 1.5 1.5 0 0 1 710.5 321 L 710.5 330  A 1.5 1.5 0 0 1 709 331.5 L 700 331.5  A 1.5 1.5 0 0 1 698.5 330 L 698.5 321  Z " stroke-width="1" stroke="#797979" fill="none" />
</svg>