<?xml version="1.0" encoding="utf-8"?>
<svg version="1.1" xmlns:xlink="http://www.w3.org/1999/xlink" width="6px" height="7px" xmlns="http://www.w3.org/2000/svg">
  <defs>
    <mask fill="white" id="clip300">
      <path d="M 0.6052631578947361 6.836448598130842  C 0.5394736842105263 7  0.47368421052631576 7  0.4078947368421053 7  C 0.3421052631578947 7  0.21052631578947367 6.91822429906542  0.14473684210526316 6.836448598130842  C 0.013157894736842105 6.672897196261684  0.013157894736842105 6.427570093457944  0.14473684210526316 6.264018691588787  L 5.407894736842105 0.13084112149532803  C 5.5394736842105265 -0.03271028037383084  5.7368421052631575 -0.03271028037383084  5.868421052631579 0.13084112149532803  C 5.999999999999998 0.2943925233644869  5.999999999999998 0.5397196261682252  5.868421052631579 0.7032710280373842  L 0.6052631578947361 6.836448598130842  Z " fill-rule="evenodd" />
    </mask>
  </defs>
  <g transform="matrix(1 0 0 1 -157 -122 )">
    <path d="M 0.6052631578947361 6.836448598130842  C 0.5394736842105263 7  0.47368421052631576 7  0.4078947368421053 7  C 0.3421052631578947 7  0.21052631578947367 6.91822429906542  0.14473684210526316 6.836448598130842  C 0.013157894736842105 6.672897196261684  0.013157894736842105 6.427570093457944  0.14473684210526316 6.264018691588787  L 5.407894736842105 0.13084112149532803  C 5.5394736842105265 -0.03271028037383084  5.7368421052631575 -0.03271028037383084  5.868421052631579 0.13084112149532803  C 5.999999999999998 0.2943925233644869  5.999999999999998 0.5397196261682252  5.868421052631579 0.7032710280373842  L 0.6052631578947361 6.836448598130842  Z " fill-rule="nonzero" fill="#3d3d3d" stroke="none" transform="matrix(1 0 0 1 157 122 )" />
    <path d="M 0.6052631578947361 6.836448598130842  C 0.5394736842105263 7  0.47368421052631576 7  0.4078947368421053 7  C 0.3421052631578947 7  0.21052631578947367 6.91822429906542  0.14473684210526316 6.836448598130842  C 0.013157894736842105 6.672897196261684  0.013157894736842105 6.427570093457944  0.14473684210526316 6.264018691588787  L 5.407894736842105 0.13084112149532803  C 5.5394736842105265 -0.03271028037383084  5.7368421052631575 -0.03271028037383084  5.868421052631579 0.13084112149532803  C 5.999999999999998 0.2943925233644869  5.999999999999998 0.5397196261682252  5.868421052631579 0.7032710280373842  L 0.6052631578947361 6.836448598130842  Z " stroke-width="2" stroke="#ffffff" fill="none" transform="matrix(1 0 0 1 157 122 )" mask="url(#clip300)" />
  </g>
</svg>