<?xml version="1.0" encoding="utf-8"?>
<svg version="1.1" xmlns:xlink="http://www.w3.org/1999/xlink" width="9px" height="6px" xmlns="http://www.w3.org/2000/svg">
  <g transform="matrix(1 0 0 1 -3 -4 )">
    <path d="M 8.43902027027027 0.13555327868852465  C 8.49626951544021 0.0761444245824254  8.574832395797868 0.04263685957870479  8.656875 0.04263685957870479  C 8.824847793432781 0.04263685957870479  8.961016647011336 0.18029389734937473  8.961016647011336 0.35010245901639336  C 8.961016647011336 0.43025492077489597  8.93005538348511 0.5072389401458511  8.874729729729731 0.5646516393442624  L 3.7626689189189197 5.866905737704919  C 3.6505807241984556 5.9831033981643476  3.4684439812664727 5.991179157305949  3.346722972972973 5.885348360655739  L 0.1204054054054054 3.085758196721312  C 0.05106956776605111 3.027358578494486  0.010978960406886038 2.94083911278438  0.010978960406886038 2.8496051878379527  C 0.010978960406886038 2.6798455311276683  0.14710859728265824 2.5422281386576246  0.3150330144609402 2.5422281386576246  C 0.38929395494484464 2.5422281386576246  0.4609875173533391 2.5697022735465316  0.5165878378378378 2.619467213114754  L 3.526418918918919 5.231557377049181  L 8.43902027027027 0.13524590163934427  Z " fill-rule="nonzero" fill="#000000" stroke="none" transform="matrix(1 0 0 1 3 4 )" />
  </g>
</svg>