<?xml version="1.0" encoding="utf-8"?>
<svg version="1.1" xmlns:xlink="http://www.w3.org/1999/xlink" width="13px" height="13px" viewBox="836 507  13 13" xmlns="http://www.w3.org/2000/svg">
  <path d="M 842.5 507  C 846.14 507  849 509.86  849 513.5  C 849 517.14  846.14 520  842.5 520  C 838.86 520  836 517.14  836 513.5  C 836 509.86  838.86 507  842.5 507  Z " fill-rule="nonzero" fill="#ffffff" stroke="none" />
  <path d="M 842.5 507.5  C 845.86 507.5  848.5 510.14  848.5 513.5  C 848.5 516.86  845.86 519.5  842.5 519.5  C 839.14 519.5  836.5 516.86  836.5 513.5  C 836.5 510.14  839.14 507.5  842.5 507.5  Z " stroke-width="1" stroke="#797979" fill="none" />
  <path d="M 842.5 516.75  C 840.68 516.75  839.25 515.32  839.25 513.5  C 839.25 511.68  840.68 510.25  842.5 510.25  C 844.32 510.25  845.75 511.68  845.75 513.5  C 845.75 515.32  844.32 516.75  842.5 516.75  " fill-rule="nonzero" fill="#797979" stroke="none" />
</svg>