<?xml version="1.0" encoding="utf-8"?>
<svg version="1.1" xmlns:xlink="http://www.w3.org/1999/xlink" width="13px" height="13px" viewBox="836 477  13 13" xmlns="http://www.w3.org/2000/svg">
  <path d="M 842.5 477  C 846.14 477  849 479.86  849 483.5  C 849 487.14  846.14 490  842.5 490  C 838.86 490  836 487.14  836 483.5  C 836 479.86  838.86 477  842.5 477  Z " fill-rule="nonzero" fill="#f0f0f0" stroke="none" />
  <path d="M 842.5 477.5  C 845.86 477.5  848.5 480.14  848.5 483.5  C 848.5 486.86  845.86 489.5  842.5 489.5  C 839.14 489.5  836.5 486.86  836.5 483.5  C 836.5 480.14  839.14 477.5  842.5 477.5  Z " stroke-width="1" stroke="#797979" fill="none" />
  <path d="M 842.5 486.75  C 840.68 486.75  839.25 485.32  839.25 483.5  C 839.25 481.68  840.68 480.25  842.5 480.25  C 844.32 480.25  845.75 481.68  845.75 483.5  C 845.75 485.32  844.32 486.75  842.5 486.75  " fill-rule="nonzero" fill="#797979" stroke="none" />
</svg>