<?xml version="1.0" encoding="utf-8"?>
<svg version="1.1" xmlns:xlink="http://www.w3.org/1999/xlink" width="19px" height="19px" xmlns="http://www.w3.org/2000/svg">
  <g transform="matrix(1 0 0 1 -723 -277 )">
    <path d="M 18.224401 16.700329411764706  L 10.983501 9.87284705882353  L 18.235167672851567 3.0417882352941175  C 18.701563193159103 2.601615504847932  18.701563193159103 1.8892393912917729  18.235167672851563 1.4490666608455878  C 18.011205952230096 1.2370680071715752  17.706675282115135 1.1178660606476138  17.389034336425784 1.1178660606476138  C 17.071393390736432 1.1178660606476138  16.766862720621468 1.2370680071715756  16.542901 1.4490666608455878  L 9.290601000000002 8.280125484375  L 2.0440009999999997 1.4484705882352942  C 1.8200392793785334 1.2364719345612816  1.5155086092635701 1.1172699880373198  1.1978676635742185 1.1172699880373198  C 0.8802267178848668 1.1172699880373198  0.5756960477699036 1.2364719345612816  0.35173432714843733 1.4484705882352942  C -0.11508240566875551 1.888712052605261  -0.11508240566875544 2.601546770924151  0.35173432714843733 3.041788235294118  L 7.603400999999999 9.87284705882353  L 0.3517343271484375 16.700329411764706  C 0.12695468504804228 16.911836894613508  0.0006703455961436311 17.198732509902282  0.0006703455961436311 17.49788449603179  C 0.0006703455961436311 18.119881974786082  0.5357299346613767 18.624450168096182  1.1966010000000002 18.62566275091912  C 1.5037676728515625 18.62566275091912  1.8084010000000004 18.51598432536765  2.041467672851563 18.29364705882353  L 9.288067672851563 11.46556863327206  L 16.537201 18.29364705882353  C 16.767101 18.5136  17.07743432714844 18.62566275091912  17.382067672851562 18.62566275091912  C 17.689234345703124 18.62566275091912  17.99386767285156 18.51598432536765  18.224401 18.29364705882353  C 18.69121773281719 17.853405594453566  18.69121773281719 17.140570876134674  18.224401 16.700329411764706  Z " fill-rule="nonzero" fill="#f7fafc" stroke="none" transform="matrix(1 0 0 1 723 277 )" />
  </g>
</svg>