<?xml version="1.0" encoding="utf-8"?>
<svg version="1.1" xmlns:xlink="http://www.w3.org/1999/xlink" width="13px" height="13px" viewBox="547 427  13 13" xmlns="http://www.w3.org/2000/svg">
  <path d="M 553.5 427  C 557.14 427  560 429.86  560 433.5  C 560 437.14  557.14 440  553.5 440  C 549.86 440  547 437.14  547 433.5  C 547 429.86  549.86 427  553.5 427  Z " fill-rule="nonzero" fill="#f0f0f0" stroke="none" />
  <path d="M 553.5 427.5  C 556.86 427.5  559.5 430.14  559.5 433.5  C 559.5 436.86  556.86 439.5  553.5 439.5  C 550.14 439.5  547.5 436.86  547.5 433.5  C 547.5 430.14  550.14 427.5  553.5 427.5  Z " stroke-width="1" stroke="#797979" fill="none" />
  <path d="M 553.5 436.75  C 551.68 436.75  550.25 435.32  550.25 433.5  C 550.25 431.68  551.68 430.25  553.5 430.25  C 555.32 430.25  556.75 431.68  556.75 433.5  C 556.75 435.32  555.32 436.75  553.5 436.75  " fill-rule="nonzero" fill="#797979" stroke="none" />
</svg>