<?xml version="1.0" encoding="utf-8"?>
<svg version="1.1" xmlns:xlink="http://www.w3.org/1999/xlink" width="13px" height="13px" viewBox="547 457  13 13" xmlns="http://www.w3.org/2000/svg">
  <path d="M 553.5 457  C 557.14 457  560 459.86  560 463.5  C 560 467.14  557.14 470  553.5 470  C 549.86 470  547 467.14  547 463.5  C 547 459.86  549.86 457  553.5 457  Z " fill-rule="nonzero" fill="#ffffff" stroke="none" />
  <path d="M 553.5 457.5  C 556.86 457.5  559.5 460.14  559.5 463.5  C 559.5 466.86  556.86 469.5  553.5 469.5  C 550.14 469.5  547.5 466.86  547.5 463.5  C 547.5 460.14  550.14 457.5  553.5 457.5  Z " stroke-width="1" stroke="#797979" fill="none" />
  <path d="M 553.5 466.75  C 551.68 466.75  550.25 465.32  550.25 463.5  C 550.25 461.68  551.68 460.25  553.5 460.25  C 555.32 460.25  556.75 461.68  556.75 463.5  C 556.75 465.32  555.32 466.75  553.5 466.75  " fill-rule="nonzero" fill="#797979" stroke="none" />
</svg>