<?xml version="1.0" encoding="utf-8"?>
<svg version="1.1" xmlns:xlink="http://www.w3.org/1999/xlink" width="19px" height="19px" xmlns="http://www.w3.org/2000/svg">
  <g transform="matrix(1 0 0 1 1 -150 )">
    <path d="M 13.124348958333334 8.856770833333334  C 13.347005208333334 9.01345486111111  13.458333333333334 9.227864583333334  13.458333333333334 9.5  C 13.458333333333334 9.772135416666668  13.347005208333334 9.986545138888888  13.124348958333334 10.143229166666668  L 7.582682291666667 14.1015625  C 7.327039930555556 14.291232638888888  7.054904513888889 14.311848958333334  6.766276041666667 14.163411458333332  C 6.477647569444445 14.023220486111107  6.333333333333333 13.788194444444445  6.333333333333333 13.458333333333332  L 6.333333333333333 5.541666666666666  C 6.333333333333333 5.211805555555554  6.477647569444445 4.9767795138888875  6.766276041666667 4.836588541666666  C 7.054904513888889 4.688151041666666  7.327039930555556 4.70876736111111  7.582682291666667 4.8984375  L 13.124348958333334 8.856770833333334  Z M 15.722005208333334 15.722005208333334  C 15.796223958333334 15.647786458333334  15.833333333333334 15.552951388888888  15.833333333333334 15.4375  L 15.833333333333334 3.5625  C 15.833333333333334 3.44704861111111  15.796223958333334 3.352213541666666  15.722005208333334 3.277994791666666  C 15.647786458333334 3.203776041666666  15.55295138888889 3.166666666666666  15.4375 3.166666666666666  L 3.5625 3.166666666666666  C 3.4470486111111116 3.166666666666666  3.3522135416666665 3.203776041666666  3.2779947916666665 3.277994791666666  C 3.2037760416666665 3.352213541666666  3.1666666666666665 3.44704861111111  3.1666666666666665 3.5625  L 3.1666666666666665 15.4375  C 3.1666666666666665 15.552951388888888  3.2037760416666665 15.647786458333334  3.2779947916666665 15.722005208333334  C 3.3522135416666665 15.796223958333334  3.4470486111111116 15.833333333333334  3.5625 15.833333333333334  L 15.4375 15.833333333333334  C 15.55295138888889 15.833333333333334  15.647786458333334 15.796223958333334  15.722005208333334 15.722005208333334  Z M 17.954752604166664 1.045247395833334  C 18.65158420138889 1.742078993055554  19 2.581163194444442  19 3.5625  L 19 15.4375  C 19 16.418836805555554  18.65158420138889 17.257921006944446  17.954752604166664 17.954752604166664  C 17.257921006944446 18.65158420138889  16.418836805555557 19  15.4375 19  L 3.5625 19  C 2.5811631944444446 19  1.7420789930555558 18.65158420138889  1.0452473958333335 17.954752604166664  C 0.34841579861111105 17.257921006944446  0 16.418836805555554  0 15.4375  L 0 3.5625  C 0 2.581163194444442  0.34841579861111105 1.742078993055554  1.0452473958333335 1.045247395833334  C 1.7420789930555558 0.34841579861110994  2.5811631944444446 0  3.5625 0  L 15.4375 0  C 16.418836805555557 0  17.257921006944446 0.34841579861110994  17.954752604166664 1.045247395833334  Z " fill-rule="nonzero" fill="#000000" stroke="none" transform="matrix(1 0 0 1 -1 150 )" />
  </g>
</svg>