<?xml version="1.0" encoding="utf-8"?>
<svg version="1.1" xmlns:xlink="http://www.w3.org/1999/xlink" width="13px" height="13px" viewBox="101 256  13 13" xmlns="http://www.w3.org/2000/svg">
  <path d="M 107.5 256  C 111.14 256  114 258.86  114 262.5  C 114 266.14  111.14 269  107.5 269  C 103.86 269  101 266.14  101 262.5  C 101 258.86  103.86 256  107.5 256  Z " fill-rule="nonzero" fill="#ffffff" stroke="none" />
  <path d="M 107.5 256.5  C 110.86 256.5  113.5 259.14  113.5 262.5  C 113.5 265.86  110.86 268.5  107.5 268.5  C 104.14 268.5  101.5 265.86  101.5 262.5  C 101.5 259.14  104.14 256.5  107.5 256.5  Z " stroke-width="1" stroke="#797979" fill="none" />
  <path d="M 107.5 265.75  C 105.68 265.75  104.25 264.32  104.25 262.5  C 104.25 260.68  105.68 259.25  107.5 259.25  C 109.32 259.25  110.75 260.68  110.75 262.5  C 110.75 264.32  109.32 265.75  107.5 265.75  " fill-rule="nonzero" fill="#797979" stroke="none" />
</svg>