<?xml version="1.0" encoding="utf-8"?>
<svg version="1.1" xmlns:xlink="http://www.w3.org/1999/xlink" width="13px" height="13px" viewBox="101 434  13 13" xmlns="http://www.w3.org/2000/svg">
  <path d="M 107.5 434  C 111.14 434  114 436.86  114 440.5  C 114 444.14  111.14 447  107.5 447  C 103.86 447  101 444.14  101 440.5  C 101 436.86  103.86 434  107.5 434  Z " fill-rule="nonzero" fill="#ffffff" stroke="none" />
  <path d="M 107.5 434.5  C 110.86 434.5  113.5 437.14  113.5 440.5  C 113.5 443.86  110.86 446.5  107.5 446.5  C 104.14 446.5  101.5 443.86  101.5 440.5  C 101.5 437.14  104.14 434.5  107.5 434.5  Z " stroke-width="1" stroke="#797979" fill="none" />
  <path d="M 107.5 443.75  C 105.68 443.75  104.25 442.32  104.25 440.5  C 104.25 438.68  105.68 437.25  107.5 437.25  C 109.32 437.25  110.75 438.68  110.75 440.5  C 110.75 442.32  109.32 443.75  107.5 443.75  " fill-rule="nonzero" fill="#797979" stroke="none" />
</svg>