<?xml version="1.0" encoding="utf-8"?>
<svg version="1.1" xmlns:xlink="http://www.w3.org/1999/xlink" width="13px" height="13px" viewBox="336 256  13 13" xmlns="http://www.w3.org/2000/svg">
  <path d="M 342.5 256  C 346.14 256  349 258.86  349 262.5  C 349 266.14  346.14 269  342.5 269  C 338.86 269  336 266.14  336 262.5  C 336 258.86  338.86 256  342.5 256  Z " fill-rule="nonzero" fill="#ffffff" stroke="none" />
  <path d="M 342.5 256.5  C 345.86 256.5  348.5 259.14  348.5 262.5  C 348.5 265.86  345.86 268.5  342.5 268.5  C 339.14 268.5  336.5 265.86  336.5 262.5  C 336.5 259.14  339.14 256.5  342.5 256.5  Z " stroke-width="1" stroke="#797979" fill="none" />
  <path d="M 342.5 265.75  C 340.68 265.75  339.25 264.32  339.25 262.5  C 339.25 260.68  340.68 259.25  342.5 259.25  C 344.32 259.25  345.75 260.68  345.75 262.5  C 345.75 264.32  344.32 265.75  342.5 265.75  " fill-rule="nonzero" fill="#797979" stroke="none" />
</svg>