<?xml version="1.0" encoding="utf-8"?>
<svg version="1.1" xmlns:xlink="http://www.w3.org/1999/xlink" width="13px" height="13px" viewBox="576 280.5  13 13" xmlns="http://www.w3.org/2000/svg">
  <path d="M 582.5 280.5  C 586.14 280.5  589 283.36  589 287  C 589 290.64  586.14 293.5  582.5 293.5  C 578.86 293.5  576 290.64  576 287  C 576 283.36  578.86 280.5  582.5 280.5  Z " fill-rule="nonzero" fill="#ffffff" stroke="none" />
  <path d="M 582.5 281  C 585.86 281  588.5 283.64  588.5 287  C 588.5 290.36  585.86 293  582.5 293  C 579.14 293  576.5 290.36  576.5 287  C 576.5 283.64  579.14 281  582.5 281  Z " stroke-width="1" stroke="#797979" fill="none" />
  <path d="M 582.5 290.25  C 580.68 290.25  579.25 288.82  579.25 287  C 579.25 285.18  580.68 283.75  582.5 283.75  C 584.32 283.75  585.75 285.18  585.75 287  C 585.75 288.82  584.32 290.25  582.5 290.25  " fill-rule="nonzero" fill="#797979" stroke="none" />
</svg>