<?xml version="1.0" encoding="utf-8"?>
<svg version="1.1" xmlns:xlink="http://www.w3.org/1999/xlink" width="38px" height="35px" xmlns="http://www.w3.org/2000/svg">
  <g transform="matrix(1 0 0 1 -23 -412 )">
    <path d="M 37.54875 18.995535714285715  C 37.84958333333334 19.27827380952381  38.00000000000001 19.61309523809524  38 20  C 38.00000000000001 20.38690476190476  37.84958333333334 20.72172619047619  37.54875 21.004464285714285  C 37.24791666666667 21.287202380952383  36.89166666666667 21.42857142857143  36.48 21.42857142857143  L 31.159999999999997 21.42857142857143  C 31.159999999999997 23.97321428571429  30.629583333333336 26.130952380952376  29.568749999999998 27.901785714285715  L 34.50875 32.566964285714285  C 34.809583333333336 32.84970238095239  34.96 33.18452380952381  34.96 33.57142857142857  C 34.96 33.958333333333336  34.809583333333336 34.29315476190476  34.50875 34.575892857142854  C 34.22375 34.858630952380956  33.8675 35  33.44 35  C 33.0125 35  32.65625 34.858630952380956  32.37125 34.575892857142854  L 27.66875 30.17857142857143  C 27.589583333333334 30.25297619047619  27.47083333333334 30.34970238095238  27.3125 30.46875  C 27.154166666666672 30.58779761904762  26.82166666666667 30.79985119047619  26.315 31.104910714285715  C 25.808333333333334 31.409970238095237  25.29375 31.681547619047617  24.77125 31.919642857142858  C 24.24875 32.157738095238095  23.599583333333335 32.373511904761905  22.823749999999997 32.566964285714285  C 22.047916666666666 32.760416666666664  21.28 32.85714285714286  20 32.85714285714286  L 20 12.857142857142856  L 18 12.857142857142856  L 18 32.85714285714286  C 16.6725 32.85714285714286  15.868958333333335 32.75669642857143  15.069374999999999 32.55580357142857  C 14.269791666666668 32.354910714285715  13.581041666666668 32.109375  13.003124999999999 31.81919642857143  C 12.425208333333336 31.529017857142858  11.902708333333335 31.238839285714285  11.435625000000002 30.948660714285715  C 10.968541666666669 30.658482142857142  10.624166666666667 30.416666666666668  10.4025 30.223214285714285  L 10.04625 29.910714285714285  L 5.7 34.53125  C 5.383333333333335 34.84375  5.003333333333334 35  4.56 35  C 4.18 35  3.839583333333334 34.88095238095238  3.53875 34.642857142857146  C 3.237916666666667 34.375  3.0756249999999996 34.04389880952381  3.051875 33.64955357142857  C 3.0281249999999997 33.255208333333336  3.150833333333334 32.90922619047619  3.42 32.61160714285714  L 8.2175 27.544642857142858  C 7.299166666666667 25.848214285714285  6.84 23.809523809523803  6.84 21.42857142857143  L 1.52 21.42857142857143  C 1.1083333333333334 21.42857142857143  0.7520833333333334 21.287202380952383  0.45125 21.004464285714285  C 0.1504166666666667 20.72172619047619  0 20.38690476190476  0 20  C 0 19.61309523809524  0.1504166666666667 19.27827380952381  0.45125 18.995535714285715  C 0.7520833333333334 18.712797619047617  1.1083333333333334 18.57142857142857  1.52 18.57142857142857  L 6.84 18.57142857142857  L 6.84 12.008928571428573  L 2.7312499999999997 8.147321428571429  C 2.430416666666667 7.864583333333332  2.28 7.529761904761902  2.28 7.142857142857143  C 2.28 6.755952380952376  2.430416666666667 6.42113095238095  2.7312499999999997 6.138392857142857  C 3.032083333333334 5.855654761904759  3.3883333333333336 5.714285714285713  3.8000000000000003 5.714285714285713  C 4.211666666666667 5.714285714285713  4.567916666666667 5.855654761904759  4.8687499999999995 6.138392857142857  L 8.9775 10  L 29.0225 10  L 33.13125 6.138392857142857  C 33.43208333333334 5.855654761904759  33.788333333333334 5.714285714285713  34.2 5.714285714285713  C 34.61166666666667 5.714285714285713  34.96791666666667 5.855654761904759  35.26875 6.138392857142857  C 35.56958333333333 6.42113095238095  35.72 6.755952380952376  35.72 7.142857142857143  C 35.72 7.529761904761902  35.56958333333333 7.864583333333332  35.26875 8.147321428571429  L 31.159999999999997 12.008928571428573  L 31.159999999999997 18.57142857142857  L 36.48 18.57142857142857  C 36.89166666666667 18.57142857142857  37.24791666666667 18.712797619047617  37.54875 18.995535714285715  Z M 24.379375000000003 2.087053571428571  C 25.859791666666673 3.478422619047617  26.599999999999998 5.163690476190475  26.599999999999998 7.142857142857143  L 11.4 7.142857142857143  C 11.4 5.163690476190475  12.140208333333335 3.478422619047617  13.620625 2.087053571428571  C 15.101041666666667 0.6956845238095211  16.894166666666667 0  19 0  C 21.105833333333333 0  22.898958333333336 0.6956845238095211  24.379375000000003 2.087053571428571  Z " fill-rule="nonzero" fill="#ffffff" stroke="none" transform="matrix(1 0 0 1 23 412 )" />
  </g>
</svg>