<?xml version="1.0" encoding="utf-8"?>
<svg version="1.1" xmlns:xlink="http://www.w3.org/1999/xlink" width="35px" height="31px" xmlns="http://www.w3.org/2000/svg">
  <g transform="matrix(1 0 0 1 -512 0 )">
    <path d="M 23.128255208333332 25.651692708333336  C 23.264973958333332 25.530598958333336  23.333333333333332 25.375868055555554  23.333333333333332 25.1875  L 23.333333333333332 21.958333333333332  C 23.333333333333332 21.76996527777778  23.264973958333332 21.615234375  23.128255208333332 21.494140625  C 22.991536458333332 21.373046875  22.81684027777778 21.3125  22.604166666666668 21.3125  L 20 21.3125  L 20 10.979166666666666  C 20.416666666666668 10.79079861111111  20.348307291666668 10.636067708333334  20.211588541666668 10.514973958333334  C 20.074869791666668 10.393880208333334  19.900173611111114 10.333333333333334  19.6875 10.333333333333334  L 12.395833333333334 10.333333333333334  C 12.183159722222225 10.333333333333334  12.008463541666666 10.393880208333334  11.871744791666666 10.514973958333334  C 11.735026041666666 10.636067708333334  11.666666666666666 10.79079861111111  11.666666666666666 10.979166666666666  L 11.666666666666666 14.208333333333334  C 11.666666666666666 14.39670138888889  11.735026041666666 14.551432291666666  11.871744791666666 14.672526041666666  C 12.008463541666666 14.793619791666666  12.183159722222225 14.854166666666666  12.395833333333334 14.854166666666666  L 14.583333333333334 14.854166666666666  L 14.583333333333334 21.3125  L 12.395833333333334 21.3125  C 12.183159722222225 21.3125  12.008463541666666 21.373046875  11.871744791666666 21.494140625  C 11.735026041666666 21.615234375  11.666666666666666 21.76996527777778  11.666666666666666 21.958333333333332  L 11.666666666666666 25.1875  C 11.666666666666666 25.375868055555554  11.735026041666666 25.530598958333336  11.871744791666666 25.651692708333336  C 12.008463541666666 25.772786458333336  12.183159722222225 25.833333333333336  12.395833333333334 25.833333333333336  L 22.604166666666668 25.833333333333336  C 22.81684027777778 25.833333333333336  22.991536458333332 25.772786458333336  23.128255208333332 25.651692708333336  Z M 20.211588541666668 7.568359375  C 20.348307291666668 7.447265625  20.416666666666668 7.29253472222222  20.416666666666668 7.104166666666665  L 20.416666666666668 3.875  C 20.416666666666668 3.6866319444444424  20.348307291666668 3.5319010416666656  20.211588541666668 3.4108072916666656  C 20.074869791666668 3.2897135416666656  19.900173611111114 3.2291666666666656  19.6875 3.2291666666666656  L 15.3125 3.2291666666666656  C 15.099826388888891 3.2291666666666656  14.925130208333334 3.2897135416666656  14.788411458333334 3.4108072916666656  C 14.651692708333334 3.5319010416666656  14.583333333333334 3.6866319444444424  14.583333333333334 3.875  L 14.583333333333334 7.104166666666665  C 14.583333333333334 7.29253472222222  14.651692708333334 7.447265625  14.788411458333334 7.568359375  C 14.925130208333334 7.689453125  15.099826388888891 7.75  15.3125 7.75  L 19.6875 7.75  C 19.900173611111114 7.75  20.074869791666668 7.689453125  20.211588541666668 7.568359375  Z M 32.65299479166667 7.7197265625  C 34.21766493055555 10.094509548611107  35 12.687934027777773  35 15.5  C 35 18.31206597222222  34.21766493055555 20.905490451388886  32.65299479166667 23.2802734375  C 31.088324652777782 25.65505642361111  28.96538628472222 27.53537326388889  26.2841796875 28.921223958333336  C 23.602973090277782 30.307074652777782  20.674913194444446 31  17.5 31  C 14.325086805555557 31  11.397026909722223 30.307074652777782  8.7158203125 28.921223958333336  C 6.034613715277779 27.53537326388889  3.9116753472222228 25.65505642361111  2.3470052083333335 23.2802734375  C 0.7823350694444443 20.905490451388886  0 18.31206597222222  0 15.5  C 0 12.687934027777773  0.7823350694444443 10.094509548611107  2.3470052083333335 7.7197265625  C 3.9116753472222228 5.344943576388888  6.034613715277779 3.464626736111108  8.7158203125 2.0787760416666656  C 11.397026909722223 0.6929253472222195  14.325086805555557 0  17.5 0  C 20.674913194444446 0  23.602973090277782 0.6929253472222195  26.2841796875 2.0787760416666656  C 28.96538628472222 3.464626736111108  31.088324652777782 5.344943576388888  32.65299479166667 7.7197265625  Z " fill-rule="nonzero" fill="#eafeff" stroke="none" transform="matrix(1 0 0 1 512 0 )" />
  </g>
</svg>