<?xml version="1.0" encoding="utf-8"?>
<svg version="1.1" xmlns:xlink="http://www.w3.org/1999/xlink" width="13px" height="13px" viewBox="101 458  13 13" xmlns="http://www.w3.org/2000/svg">
  <path d="M 107.5 458  C 111.14 458  114 460.86  114 464.5  C 114 468.14  111.14 471  107.5 471  C 103.86 471  101 468.14  101 464.5  C 101 460.86  103.86 458  107.5 458  Z " fill-rule="nonzero" fill="#f0f0f0" stroke="none" />
  <path d="M 107.5 458.5  C 110.86 458.5  113.5 461.14  113.5 464.5  C 113.5 467.86  110.86 470.5  107.5 470.5  C 104.14 470.5  101.5 467.86  101.5 464.5  C 101.5 461.14  104.14 458.5  107.5 458.5  Z " stroke-width="1" stroke="#797979" fill="none" />
  <path d="M 107.5 467.75  C 105.68 467.75  104.25 466.32  104.25 464.5  C 104.25 462.68  105.68 461.25  107.5 461.25  C 109.32 461.25  110.75 462.68  110.75 464.5  C 110.75 466.32  109.32 467.75  107.5 467.75  " fill-rule="nonzero" fill="#797979" stroke="none" />
</svg>