<?xml version="1.0" encoding="utf-8"?>
<svg version="1.1" xmlns:xlink="http://www.w3.org/1999/xlink" width="13px" height="13px" viewBox="336 280.5  13 13" xmlns="http://www.w3.org/2000/svg">
  <path d="M 342.5 280.5  C 346.14 280.5  349 283.36  349 287  C 349 290.64  346.14 293.5  342.5 293.5  C 338.86 293.5  336 290.64  336 287  C 336 283.36  338.86 280.5  342.5 280.5  Z " fill-rule="nonzero" fill="#f0f0f0" stroke="none" />
  <path d="M 342.5 281  C 345.86 281  348.5 283.64  348.5 287  C 348.5 290.36  345.86 293  342.5 293  C 339.14 293  336.5 290.36  336.5 287  C 336.5 283.64  339.14 281  342.5 281  Z " stroke-width="1" stroke="#797979" fill="none" />
  <path d="M 342.5 290.25  C 340.68 290.25  339.25 288.82  339.25 287  C 339.25 285.18  340.68 283.75  342.5 283.75  C 344.32 283.75  345.75 285.18  345.75 287  C 345.75 288.82  344.32 290.25  342.5 290.25  " fill-rule="nonzero" fill="#797979" stroke="none" />
</svg>