<?xml version="1.0" encoding="utf-8"?>
<svg version="1.1" xmlns:xlink="http://www.w3.org/1999/xlink" width="13px" height="13px" viewBox="336 433  13 13" xmlns="http://www.w3.org/2000/svg">
  <path d="M 342.5 433  C 346.14 433  349 435.86  349 439.5  C 349 443.14  346.14 446  342.5 446  C 338.86 446  336 443.14  336 439.5  C 336 435.86  338.86 433  342.5 433  Z " fill-rule="nonzero" fill="#ffffff" stroke="none" />
  <path d="M 342.5 433.5  C 345.86 433.5  348.5 436.14  348.5 439.5  C 348.5 442.86  345.86 445.5  342.5 445.5  C 339.14 445.5  336.5 442.86  336.5 439.5  C 336.5 436.14  339.14 433.5  342.5 433.5  Z " stroke-width="1" stroke="#797979" fill="none" />
  <path d="M 342.5 442.75  C 340.68 442.75  339.25 441.32  339.25 439.5  C 339.25 437.68  340.68 436.25  342.5 436.25  C 344.32 436.25  345.75 437.68  345.75 439.5  C 345.75 441.32  344.32 442.75  342.5 442.75  " fill-rule="nonzero" fill="#797979" stroke="none" />
</svg>