<?xml version="1.0" encoding="utf-8"?>
<svg version="1.1" xmlns:xlink="http://www.w3.org/1999/xlink" width="13px" height="13px" viewBox="576 256  13 13" xmlns="http://www.w3.org/2000/svg">
  <path d="M 582.5 256  C 586.14 256  589 258.86  589 262.5  C 589 266.14  586.14 269  582.5 269  C 578.86 269  576 266.14  576 262.5  C 576 258.86  578.86 256  582.5 256  Z " fill-rule="nonzero" fill="#ffffff" stroke="none" />
  <path d="M 582.5 256.5  C 585.86 256.5  588.5 259.14  588.5 262.5  C 588.5 265.86  585.86 268.5  582.5 268.5  C 579.14 268.5  576.5 265.86  576.5 262.5  C 576.5 259.14  579.14 256.5  582.5 256.5  Z " stroke-width="1" stroke="#797979" fill="none" />
  <path d="M 582.5 265.75  C 580.68 265.75  579.25 264.32  579.25 262.5  C 579.25 260.68  580.68 259.25  582.5 259.25  C 584.32 259.25  585.75 260.68  585.75 262.5  C 585.75 264.32  584.32 265.75  582.5 265.75  " fill-rule="nonzero" fill="#797979" stroke="none" />
</svg>