<svg t="1720948456629" class="icon" viewBox="0 0 1024 1024" version="1.1" xmlns="http://www.w3.org/2000/svg" p-id="6784" width="18" height="18"><path d="M819 65H205c-77.2 0-140 62.8-140 140v614c0 77.2 62.8 140 140 140h614c77.2 0 140-62.8 140-140V205c0-77.2-62.8-140-140-140z m-459.4 80h304.8v260.8c0 31.6-25.7 57.4-57.4 57.4H416.9c-31.6 0-57.4-25.7-57.4-57.4V145zM879 819c0 33.1-26.9 60-60 60H205c-33.1 0-60-26.9-60-60V205c0-33.1 26.9-60 60-60h74.6v260.8c0 75.7 61.6 137.4 137.4 137.4h190.1c75.7 0 137.4-61.6 137.4-137.4V145H819c33.1 0 60 26.9 60 60v614z" fill="#515151" p-id="6785"></path><path d="M574.3 393.1c22.1 0 40-17.9 40-40v-93.8c0-22.1-17.9-40-40-40s-40 17.9-40 40v93.8c0 22 17.9 40 40 40z" fill="#515151" p-id="6786"></path></svg>