<svg t="1720948537106" class="icon" viewBox="0 0 1024 1024" version="1.1" xmlns="http://www.w3.org/2000/svg" p-id="9625" width="18" height="18"><path d="M783.551 1024H78.356C35.153 1024 0 988.845 0 945.644V425.118l263.026-263.025h520.525c43.203 0 78.354 35.153 78.354 78.355v705.195c-0.001 43.202-35.151 78.357-78.354 78.357zM78.356 457.578v488.065h705.242l-0.047-705.195H295.485L78.356 457.578z" fill="#515151" p-id="9626"></path><path d="M282.079 483.35h-0.452l-242.899-2.824c-15.809-0.177-29.949-9.849-35.873-24.501a39.167 39.167 0 0 1 8.785-42.537L254.539 173.41c11.234-11.118 28.06-14.377 42.63-8.302a39.2 39.2 0 0 1 24.081 36.156v242.9a39.166 39.166 0 0 1-11.64 27.86 39.097 39.097 0 0 1-27.531 11.326z m-148.638-80.085l109.46 1.271V295.067l-109.46 108.198zM984.822 760.045c-21.633 0-39.179-17.541-39.179-39.18V78.356h-485.8c-21.631 0-39.176-17.539-39.176-39.179S438.212 0 459.843 0h524.979C1006.453 0 1024 17.538 1024 39.177v681.688c0 21.639-17.547 39.18-39.178 39.18zM658.184 835.947H195.887c-21.631 0-39.177-17.539-39.177-39.177 0-21.642 17.546-39.181 39.177-39.181h462.296c21.631 0 39.178 17.539 39.178 39.181 0 21.638-17.547 39.177-39.177 39.177zM658.184 663.566H195.887c-21.631 0-39.177-17.538-39.177-39.178s17.546-39.179 39.177-39.179h462.296c21.631 0 39.178 17.539 39.178 39.179s-17.547 39.178-39.177 39.178zM658.184 483.35H415.283c-21.631 0-39.177-17.539-39.177-39.177 0-21.64 17.546-39.179 39.177-39.179h242.901c21.631 0 39.178 17.54 39.178 39.179-0.001 21.638-17.548 39.177-39.178 39.177z" fill="#515151" p-id="9627"></path></svg>