<svg t="1720948580403" class="icon" viewBox="0 0 1024 1024" version="1.1" xmlns="http://www.w3.org/2000/svg" p-id="10867" width="45" height="45"><path d="M788.992 555.712c-50.816-22.848-109.568-16.32-157.184 14.72L561.92 498.56l301.696-310.08a36.224 36.224 0 0 0 0-48.96 35.84 35.84 0 0 0-49.216 0L512.704 449.6l-301.76-311.68a33.92 33.92 0 0 0-47.616 0 36.224 36.224 0 0 0 0 48.96l301.696 310.08L393.6 572.032a179.392 179.392 0 0 0-30.208-16.32 165.376 165.376 0 0 0-185.792 37.504 183.04 183.04 0 0 0-36.48 190.976c26.944 65.28 87.296 107.648 157.184 107.648 93.696 0 169.92-78.272 169.92-174.592 0-34.24-9.6-66.88-27.008-94.656l71.488-73.408 68.288 71.808a178.304 178.304 0 0 0-15.936 164.8c27.008 65.28 87.36 107.712 157.248 107.712 93.696 0 169.92-78.336 169.92-174.592a172.864 172.864 0 0 0-103.232-163.2z m36.48 161.536c0 57.152-46.016 104.448-101.568 104.448-55.616 0-101.632-47.36-101.632-104.448 0-26.112 9.536-52.224 27.008-71.808 1.536 0 3.2-1.6 3.2-3.2l3.136-3.328c19.072-16.32 42.88-26.112 66.688-26.112 57.152 1.664 103.232 47.36 103.232 104.448z m-619.264-39.168a100.352 100.352 0 0 1 93.696-63.616c55.552 0 100.032 47.36 100.032 104.448 0 42.432-23.808 79.936-61.952 96.256a98.24 98.24 0 0 1-109.568-22.848 105.28 105.28 0 0 1-22.208-114.24z" fill="#515151" p-id="10868"></path></svg>