<svg t="1720949576248" class="icon" viewBox="0 0 1024 1024" version="1.1" xmlns="http://www.w3.org/2000/svg" p-id="37262" width="45" height="45"><path d="M933.5 670.8c-9.5 0-18.3-5.9-21.7-15.3-56.7-158.9-208.2-265.6-377-265.6-153.2 0-290.7 85.4-358.8 222.8-5.6 11.4-19.4 16.1-30.9 10.4-11.4-5.6-16.1-19.5-10.4-30.9C210.6 439 363.9 343.8 534.8 343.8c188.2 0 357.1 119 420.4 296.2 4.3 12-2 25.2-14 29.4-2.6 0.9-5.2 1.4-7.7 1.4z" fill="#515151" p-id="37263"></path><path d="M130.8 463.5l148.7 131.7c0.3 0.3 0.2 0.7-0.2 0.8L90.8 659c-0.4 0.1-0.7-0.2-0.6-0.6L130 463.8c0-0.4 0.5-0.5 0.8-0.3z" fill="#515151" p-id="37264"></path><path d="M94.4 680.7c-6.3 0-12.6-2.3-17.5-6.6-7-6.2-10.2-15.8-8.3-25L106.4 464c1.9-9.2 8.6-16.7 17.4-19.7 8.9-3 18.8-1 25.8 5.3L291 574.9c7 6.2 10.2 15.8 8.3 25-1.9 9.2-8.6 16.7-17.5 19.7l-179.3 59.8c-2.5 0.8-5.3 1.3-8.1 1.3z m50.3-174.1l-24.1 118.1L235 586.6l-90.3-80zM119.1 484z" fill="#515151" p-id="37265"></path></svg>