<svg t="1720949699390" class="icon" viewBox="0 0 1024 1024" version="1.1" xmlns="http://www.w3.org/2000/svg" p-id="38543" width="45" height="45"><path d="M848.8 206.7c-7.5-9.3-21-13.4-30.4-4L340.9 681.8c-7.3 7.3-7.3 19.1 0 26.4l4 4c5.8 5.8 14.6 7 21.6 3.5 0.8-0.4 480.2-482.1 487.5-492.5 0.9-5.9-0.8-12.1-5.2-16.5z" fill="#515151" p-id="38544"></path><path d="M936.6 85.9c-24.7-24.7-48.1-25.5-63.3-21.8-16.3 4-26.5 13.9-27.6 15l-24 24-9.3-9.3c-11.5-11.5-30.2-11.5-41.7 0L590.2 274.2c-3.9 3.9-3.9 10.2 0 14.1 2 2 4.5 2.9 7.1 2.9s5.1-1 7.1-2.9l180.5-180.5c3.7-3.7 9.7-3.7 13.4 0l9.3 9.3-625.5 627.1c-1.6 1.6-2.9 3.6-3.6 5.9l-6.9 20.6c-1.8 5.4-0.4 11.3 3.6 15.4l1.6 1.6-80.2 126c-2.5 3.9-2 9.1 1.3 12.4 1.9 2 4.5 3 7.1 3 1.8 0 3.6-0.5 5.2-1.5l127.9-78.4 0.9 0.9c2.9 2.9 6.7 4.4 10.6 4.4 1.5 0 3.1-0.2 4.6-0.7l20.8-6.6c2.3-0.7 4.4-2 6.1-3.7l661.6-667.1c2.2-2.2 16.7-17.4 16.9-40.8 0.2-17.6-7.6-34.2-23-49.7z m-69.7 14.4c0.1 0 0.1 0 0 0 0.1 0 0 0 0 0z m-711 775.9L199 834l2.5 2.5c2 2 5.1 2 7.1 0s2-5.1 0-7.1l-6-6-6-6c-2-2-5.1-2-7.1 0s-2 5.1 0 7.1l2.4 2.4-43.3 42.3 43.6-68.4 32.9 32.9-69.2 42.5zM929 140.6c-1.8 8-6.8 13.6-7.4 14.2-23.1 22.1-45.2 45.4-67.7 68.1 0 0 0 0.1-0.1 0.2-7.3 10.4-486.7 492.1-487.5 492.5l-23.7 23.7c-0.8 0.8-1.6 1.5-2.5 2.1l-77.7 78.2-8.6 2.8-50.8-51 2.8-8.4 661-662.6c0.4-0.4 6.1-5.5 14.5-7.3 11-2.3 22.5 2.5 34.1 14 11.4 11.5 16 22.7 13.6 33.5z" fill="#515151" p-id="38545"></path></svg>