<svg t="1720949837929" class="icon" viewBox="0 0 1024 1024" version="1.1" xmlns="http://www.w3.org/2000/svg" p-id="39745" width="45" height="45"><path d="M565.096296 289.185185s-0.948148 0 0 0c-110.933333-20.859259-208.592593 40.77037-237.985185 148.859259-14.222222 53.096296-24.651852 101.451852 44.562963 221.866667 14.222222 25.6 11.377778 70.162963 8.533333 95.762963-1.896296 14.222222 64.474074 36.02963 89.125926 42.666667l95.762963-509.155556z" fill="#FDB813" p-id="39746"></path><path d="M732.918519 513.896296c11.377778-111.881481-56.888889-203.851852-166.874075-224.711111h-0.948148L469.333333 798.340741c25.6 2.844444 94.814815 6.637037 98.607408-7.585185 6.637037-25.6 20.859259-67.318519 42.666666-86.281482C719.644444 618.192593 727.22963 568.888889 732.918519 513.896296z" fill="#FD9B13" p-id="39747"></path><path d="M467.437037 806.874074c-7.585185-0.948148-12.325926-7.585185-14.222222-14.222222l-38.874074-256c-0.948148-5.688889 0.948148-11.377778 4.74074-15.170371 3.792593-3.792593 9.481481-5.688889 15.170371-4.74074l167.822222 31.288889c5.688889 0.948148 10.42963 4.740741 12.325926 9.481481 1.896296 4.740741 1.896296 11.377778-0.948148 16.118519L486.4 798.340741c-3.792593 6.637037-11.377778 10.42963-18.962963 8.533333z m-14.222222-251.259259l27.496296 182.992592L572.681481 578.37037l-119.466666-22.755555z" fill="#F12A3F" p-id="39748"></path><path d="M375.466667 709.214815l-25.6 137.481481c0 2.844444 1.896296 5.688889 7.585185 10.42963l65.422222 54.992593c5.688889 4.740741 15.17037 8.533333 23.703704 10.429629l36.029629-193.422222-107.14074-19.911111z" fill="#2D4375" p-id="39749"></path><path d="M482.607407 729.125926l-36.029629 193.422222c9.481481 1.896296 18.014815 1.896296 25.6-0.948148l80.592592-27.496296c6.637037-1.896296 10.42963-4.740741 11.377778-6.637037L589.748148 749.037037l-107.140741-19.911111z" fill="#1E2D4F" p-id="39750"></path><path d="M612.503704 217.125926c-3.792593 18.014815-20.859259 29.392593-38.874074 26.548148-18.014815-3.792593-30.340741-20.859259-26.548149-38.874074l18.962963-100.503704c3.792593-18.014815 20.859259-29.392593 38.874075-26.548148 18.014815 3.792593 30.340741 20.859259 26.548148 38.874074l-18.962963 100.503704z" fill="#FDB813" p-id="39751"></path><path d="M382.103704 228.503704c10.42963 15.17037 6.637037 36.02963-8.533334 46.459259-15.17037 10.42963-36.02963 6.637037-46.459259-8.533333l-57.837037-84.385186c-10.42963-15.17037-6.637037-36.02963 8.533333-46.459259 15.17037-10.42963 36.02963-6.637037 46.45926 8.533334l57.837037 84.385185zM757.57037 298.666667c-15.17037 10.42963-18.962963 31.288889-8.533333 46.459259 10.42963 15.17037 31.288889 18.962963 46.459259 8.533333l84.385185-57.837037c15.17037-10.42963 18.962963-31.288889 8.533334-46.459259-10.42963-15.17037-31.288889-18.962963-46.459259-8.533333l-84.385186 57.837037z" fill="#FDB813" p-id="39752"></path><path d="M252.207407 361.244444c18.014815 3.792593 30.340741 20.859259 26.548149 38.874075-3.792593 18.014815-20.859259 29.392593-38.874075 26.548148l-100.503703-18.962963c-18.014815-3.792593-30.340741-20.859259-26.548148-38.874074 3.792593-18.014815 20.859259-29.392593 38.874074-26.548149l100.503703 18.962963zM931.081481 488.296296c18.014815 3.792593 30.340741 20.859259 26.548149 38.874074-3.792593 18.014815-20.859259 29.392593-38.874074 26.548149l-100.503704-18.962963c-18.014815-3.792593-30.340741-20.859259-26.548148-38.874075 3.792593-18.014815 20.859259-29.392593 38.874074-26.548148l100.503703 18.962963z" fill="#FDB813" p-id="39753"></path><path d="M593.540741 807.822222c1.896296-7.585185-3.792593-15.17037-11.377778-16.118518l-107.140741-19.911111-4.740741 27.496296 107.140741 19.911111c6.637037 0.948148 14.222222-3.792593 16.118519-11.377778z" fill="#CEEFF6" p-id="39754"></path><path d="M366.933333 750.933333c-7.585185-1.896296-15.17037 3.792593-16.118518 11.377778-1.896296 7.585185 3.792593 15.17037 11.377778 16.118519l107.14074 19.911111 4.740741-27.496297-107.140741-19.911111zM356.503704 808.77037c-7.585185-1.896296-15.17037 3.792593-16.118519 11.377778-1.896296 7.585185 3.792593 15.17037 11.377778 16.118519l107.140741 19.911111 4.74074-27.496297-107.14074-19.911111z" fill="#FFFFFF" p-id="39755"></path><path d="M570.785185 848.592593l-107.140741-19.911112-4.74074 27.496297 107.14074 19.911111c7.585185 1.896296 15.17037-3.792593 16.118519-11.377778 1.896296-7.585185-2.844444-15.17037-11.377778-16.118518z" fill="#CEEFF6" p-id="39756"></path></svg>