<svg t="1720950015470" class="icon" viewBox="0 0 1024 1024" version="1.1" xmlns="http://www.w3.org/2000/svg" p-id="43903" width="45" height="45"><path d="M0 0m192 0l640 0q192 0 192 192l0 640q0 192-192 192l-640 0q-192 0-192-192l0-640q0-192 192-192Z" fill="#515151" fill-opacity=".05" p-id="43904"></path><path d="M620.736 256c27.168 0 53.216 11.296 72.256 31.296l93.952 98.752a106.56 106.56 0 0 1 29.056 73.44v203.776c0 57.856-45.376 104.736-101.344 104.736H309.344C253.344 768 208 721.12 208 663.264v-302.528C208 302.88 253.376 256 309.344 256z m-13.248 48H309.344C280.224 304 256 329.056 256 360.736v302.528c0 31.68 24.224 56.736 53.344 56.736h405.312c29.12 0 53.344-25.056 53.344-56.736v-196.768h-108.128c-27.296 0-49.728-20.192-52.16-46.016l-0.192-4.608-0.032-111.872zM512 416c12.16 0 23.168 7.264 27.968 18.432l67.008 156.256a12.416 12.416 0 0 1-11.392 17.312h-5.504a20.48 20.48 0 0 1-18.752-12.224l-17.12-38.816h-84.608l-16.96 38.752a20.48 20.48 0 0 1-18.784 12.288h-5.44a12.416 12.416 0 0 1-11.424-17.312l67.04-156.256A30.432 30.432 0 0 1 512 416z m0.768 34.24h-1.248l-34.08 81.088h69.056l-33.728-81.088z m147.104-128.096v93.728l89.12-0.032-89.12-93.696z" fill="#515151" opacity=".75" p-id="43905"></path></svg>