<?xml version="1.0" encoding="utf-8"?>
<svg version="1.1" xmlns:xlink="http://www.w3.org/1999/xlink" width="21px" height="22px" xmlns="http://www.w3.org/2000/svg">
  <g transform="matrix(1 0 0 1 -11 -125 )">
    <path d="M 13.26164383561644 7.548177083333334  L 20.496575342465754 18.90625  C 21.03356164383562 19.75607638888889  21.136643835616436 20.48415798611111  20.80582191780822 21.090494791666664  C 20.474999999999998 21.69683159722222  19.8013698630137 22  18.784931506849315 22  L 2.2150684931506848 22  C 1.1986301369863015 22  0.525 21.69683159722222  0.19417808219178082 21.090494791666664  C -0.13664383561643836 20.48415798611111  -0.03356164383561637 19.75607638888889  0.5034246575342466 18.90625  L 7.738356164383561 7.548177083333334  L 7.738356164383561 1.8333333333333341  L 6.817808219178082 1.8333333333333341  C 6.568493150684933 1.8333333333333341  6.352739726027398 1.7426215277777748  6.170547945205479 1.5611979166666659  C 5.988356164383561 1.3797743055555545  5.897260273972603 1.1649305555555545  5.897260273972603 0.9166666666666659  C 5.897260273972603 0.6684027777777748  5.988356164383561 0.4535590277777748  6.170547945205479 0.27213541666666585  C 6.352739726027398 0.09071180555555447  6.568493150684933 0  6.817808219178082 0  L 14.182191780821917 0  C 14.431506849315072 0  14.647260273972604 0.09071180555555447  14.829452054794519 0.27213541666666585  C 15.01164383561644 0.4535590277777748  15.102739726027398 0.6684027777777748  15.102739726027398 0.9166666666666659  C 15.102739726027398 1.1649305555555545  15.01164383561644 1.3797743055555545  14.829452054794519 1.5611979166666659  C 14.647260273972604 1.7426215277777748  14.431506849315072 1.8333333333333341  14.182191780821917 1.8333333333333341  L 13.26164383561644 1.8333333333333341  L 13.26164383561644 7.548177083333334  Z M 9.57945205479452 8.078125  L 9.291780821917808 8.522135416666666  L 5.379452054794521 14.666666666666668  L 15.62054794520548 14.666666666666668  L 11.708219178082192 8.522135416666666  L 11.420547945205481 8.078125  L 11.420547945205481 7.548177083333334  L 11.420547945205481 1.8333333333333341  L 9.57945205479452 1.8333333333333341  L 9.57945205479452 7.548177083333334  L 9.57945205479452 8.078125  Z " fill-rule="nonzero" fill="#ffffff" stroke="none" transform="matrix(1 0 0 1 11 125 )" />
  </g>
</svg>