<?xml version="1.0" encoding="utf-8"?>
<svg version="1.1" xmlns:xlink="http://www.w3.org/1999/xlink" width="20px" height="19px" xmlns="http://www.w3.org/2000/svg">
  <g transform="matrix(1 0 0 1 -12 -125 )">
    <path d="M 16.171875 15.36328125  C 16.501736111111114 15.049913194444441  16.666666666666668 14.678819444444441  16.666666666666668 14.25  C 16.666666666666668 13.821180555555555  16.501736111111114 13.450086805555555  16.171875 13.13671875  C 15.842013888888891 12.823350694444445  15.451388888888891 12.666666666666668  15 12.666666666666668  C 14.548611111111114 12.666666666666668  14.157986111111114 12.823350694444445  13.828125 13.13671875  C 13.498263888888891 13.450086805555555  13.333333333333332 13.821180555555555  13.333333333333332 14.25  C 13.333333333333332 14.678819444444441  13.498263888888891 15.049913194444441  13.828125 15.36328125  C 14.157986111111114 15.676649305555554  14.548611111111114 15.833333333333334  15 15.833333333333334  C 15.451388888888891 15.833333333333334  15.842013888888891 15.676649305555554  16.171875 15.36328125  Z M 6.171875 5.86328125  C 6.501736111111112 5.549913194444442  6.666666666666666 5.178819444444442  6.666666666666666 4.75  C 6.666666666666666 4.321180555555554  6.501736111111112 3.950086805555554  6.171875 3.63671875  C 5.842013888888889 3.323350694444442  5.451388888888889 3.166666666666666  5 3.166666666666666  C 4.548611111111112 3.166666666666666  4.157986111111112 3.323350694444442  3.828125 3.63671875  C 3.498263888888889 3.950086805555554  3.333333333333333 4.321180555555554  3.333333333333333 4.75  C 3.333333333333333 5.178819444444442  3.498263888888889 5.549913194444442  3.828125 5.86328125  C 4.157986111111112 6.176649305555554  4.548611111111112 6.333333333333334  5 6.333333333333334  C 5.451388888888889 6.333333333333334  5.842013888888889 6.176649305555554  6.171875 5.86328125  Z M 18.53515625 10.8916015625  C 19.51171875 11.8193359375  20 12.938802083333332  20 14.25  C 20 15.561197916666666  19.51171875 16.6806640625  18.53515625 17.6083984375  C 17.55859375 18.5361328125  16.380208333333332 19  15 19  C 13.619791666666668 19  12.441406250000002 18.5361328125  11.46484375 17.6083984375  C 10.48828125 16.6806640625  10 15.561197916666666  10 14.25  C 10 12.938802083333332  10.48828125 11.8193359375  11.46484375 10.8916015625  C 12.441406250000002 9.9638671875  13.619791666666668 9.5  15 9.5  C 16.380208333333332 9.5  17.55859375 9.9638671875  18.53515625 10.8916015625  Z M 18.502604166666668 0.23502604166666596  C 18.66753472222222 0.39171006944444187  18.75 0.5772569444444419  18.75 0.791666666666666  C 18.75 0.956597222222222  18.69357638888889 1.11328125  18.580729166666668 1.26171875  L 4.830729166666667 18.678385416666664  C 4.665798611111112 18.89279513888889  4.444444444444445 19  4.166666666666667 19  L 2.0833333333333335 19  C 1.8576388888888893 19  1.6623263888888888 18.92165798611111  1.4973958333333335 18.764973958333336  C 1.3324652777777777 18.608289930555554  1.25 18.422743055555554  1.25 18.208333333333336  C 1.25 18.04340277777778  1.3064236111111112 17.88671875  1.4192708333333335 17.73828125  L 15.169270833333332 0.32161458333333404  C 15.334201388888891 0.10720486111110994  15.555555555555555 0  15.833333333333332 0  L 17.916666666666668 0  C 18.142361111111114 0  18.337673611111114 0.07834201388888795  18.502604166666668 0.23502604166666596  Z M 8.53515625 1.3916015625  C 9.51171875 2.3193359375  10 3.438802083333334  10 4.75  C 10 6.061197916666666  9.51171875 7.1806640625  8.53515625 8.1083984375  C 7.55859375 9.0361328125  6.380208333333334 9.5  5 9.5  C 3.619791666666667 9.5  2.4414062500000004 9.0361328125  1.46484375 8.1083984375  C 0.48828125 7.1806640625  0 6.061197916666666  0 4.75  C 0 3.438802083333334  0.48828125 2.3193359375  1.46484375 1.3916015625  C 2.4414062500000004 0.4638671875  3.619791666666667 0  5 0  C 6.380208333333334 0  7.55859375 0.4638671875  8.53515625 1.3916015625  Z " fill-rule="nonzero" fill="#ffffff" stroke="none" transform="matrix(1 0 0 1 12 125 )" />
  </g>
</svg>