<?xml version="1.0" encoding="utf-8"?>
<svg version="1.1" xmlns:xlink="http://www.w3.org/1999/xlink" width="23px" height="23px" xmlns="http://www.w3.org/2000/svg">
  <g transform="matrix(1 0 0 1 -1080 -11 )">
    <path d="M 12.777777787760492 12.77777778776042  L 12.777777787760492 0  L 10.222222212239508 0  L 10.222222212239508 12.77777778776042  L 12.777777787760492 12.77777778776042  Z M 23 11.5  C 23 7.998888878906239  21.42833333333331 4.881111121093749  18.949444454427066 2.772777787760404  L 17.13499999999996 4.5872222122395705  C 19.15388887890626 6.210000000000008  20.444444454427085 8.70166666666666  20.444444454427085 11.5  C 20.444444454427085 16.445000000000014  16.445000000000007 20.44444445442708  11.5 20.44444445442708  C 6.554999999999994 20.44444445442708  2.555555545572913 16.445000000000014  2.555555545572913 11.5  C 2.555555545572913 8.70166666666666  3.8461111210937418 6.210000000000008  5.85222221223956 4.574444454427066  L 4.050555545572934 2.772777787760404  C 1.5716666666666899 4.881111121093749  0 7.998888878906239  0 11.5  C 0 17.85055554557293  5.149444454427124 23  11.5 23  C 17.850555545572874 23  23 17.85055554557293  23 11.5  Z " fill-rule="nonzero" fill="#ffffff" stroke="none" transform="matrix(1 0 0 1 1080 11 )" />
  </g>
</svg>