<?xml version="1.0" encoding="utf-8"?>
<svg version="1.1" xmlns:xlink="http://www.w3.org/1999/xlink" width="24px" height="21px" xmlns="http://www.w3.org/2000/svg">
  <g transform="matrix(1 0 0 1 -1017 -11 )">
    <path d="M 15.859375 17.376953125  C 15.953125 17.294921875  16 17.190104166666664  16 17.0625  L 16 14.874999999999998  C 16 14.747395833333332  15.953125 14.642578125  15.859375 14.560546875  C 15.765625 14.478515625  15.645833333333332 14.4375  15.5 14.4375  L 14 14.4375  L 14 7.437499999999999  C 14 7.309895833333334  13.953125 7.205078125000001  13.859375 7.123046875000001  C 13.765625 7.041015625000001  13.645833333333336 7.000000000000001  13.5 7.000000000000001  L 8.5 7.000000000000001  C 8.354166666666668 7.000000000000001  8.234375 7.041015625000001  8.140625 7.123046875000001  C 8.046875 7.205078125000001  8 7.309895833333334  8 7.437499999999999  L 8 9.625  C 8 9.752604166666666  8.046875 9.857421875  8.140625 9.939453125  C 8.234375 10.021484375  8.354166666666668 10.0625  8.5 10.0625  L 10 10.0625  L 10 14.4375  L 8.5 14.4375  C 8.354166666666668 14.4375  8.234375 14.478515625  8.140625 14.560546875  C 8.046875 14.642578125  8 14.747395833333332  8 14.874999999999998  L 8 17.0625  C 8 17.190104166666664  8.046875 17.294921875  8.140625 17.376953125  C 8.234375 17.458984375  8.354166666666668 17.5  8.5 17.5  L 15.5 17.5  C 15.645833333333332 17.5  15.765625 17.458984375  15.859375 17.376953125  Z M 13.859375 5.126953125  C 13.953125 5.044921875  14 4.940104166666665  14 4.812499999999999  L 14 2.625  C 14 2.497395833333332  13.953125 2.392578124999999  13.859375 2.310546874999999  C 13.765625 2.228515624999999  13.645833333333336 2.187499999999999  13.5 2.187499999999999  L 10.5 2.187499999999999  C 10.354166666666668 2.187499999999999  10.234375 2.228515624999999  10.140625 2.310546874999999  C 10.046875 2.392578124999999  10 2.497395833333332  10 2.625  L 10 4.812499999999999  C 10 4.940104166666665  10.046875 5.044921875  10.140625 5.126953125  C 10.234375 5.208984375  10.354166666666668 5.25  10.5 5.25  L 13.5 5.25  C 13.645833333333336 5.25  13.765625 5.208984375  13.859375 5.126953125  Z M 22.390625 5.2294921875  C 23.463541666666664 6.838216145833331  24 8.59505208333333  24 10.5  C 24 12.404947916666668  23.463541666666664 14.161783854166664  22.390625 15.7705078125  C 21.317708333333336 17.379231770833332  19.861979166666668 18.652994791666668  18.0234375 19.591796875  C 16.184895833333336 20.530598958333336  14.177083333333334 21  12 21  C 9.822916666666668 21  7.815104166666667 20.530598958333336  5.9765625 19.591796875  C 4.138020833333334 18.652994791666668  2.682291666666667 17.379231770833332  1.609375 15.7705078125  C 0.5364583333333333 14.161783854166664  0 12.404947916666668  0 10.5  C 0 8.59505208333333  0.5364583333333333 6.838216145833331  1.609375 5.2294921875  C 2.682291666666667 3.6207682291666665  4.138020833333334 2.3470052083333313  5.9765625 1.4082031249999991  C 7.815104166666667 0.46940104166666485  9.822916666666668 0  12 0  C 14.177083333333334 0  16.184895833333336 0.46940104166666485  18.0234375 1.4082031249999991  C 19.861979166666668 2.3470052083333313  21.317708333333336 3.6207682291666665  22.390625 5.2294921875  Z " fill-rule="nonzero" fill="#34bfec" stroke="none" transform="matrix(1 0 0 1 1017 11 )" />
  </g>
</svg>