<?xml version="1.0" encoding="utf-8"?>
<svg version="1.1" xmlns:xlink="http://www.w3.org/1999/xlink" width="14px" height="14px" xmlns="http://www.w3.org/2000/svg">
  <defs>
    <mask fill="white" id="clip161">
      <path d="M 0.5069283333333332 12.9993  C 0.5069283333333332 12.9993  5.91185 0.99655  5.91185 0.99655  C 6.136520833333334 0.5530266666666668  7.863479166666666 0.5530266666666668  8.088179166666666 0.99655  C 8.088179166666666 0.99655  13.493083333333335 12.9993  13.493083333333335 12.9993  C 13.718220833333335 13.443766666666667  13.437608333333333 14  12.9882375 14  C 12.9882375 14  1.0117625 14  1.0117625 14  C 0.5624004166666666 14  0.2817820833333334 13.443766666666667  0.5069283333333332 12.9993  Z " fill-rule="evenodd" />
    </mask>
  </defs>
  <g transform="matrix(1 0 0 1 -306 -280 )">
    <path d="M 0.5069283333333332 12.9993  C 0.5069283333333332 12.9993  5.91185 0.99655  5.91185 0.99655  C 6.136520833333334 0.5530266666666668  7.863479166666666 0.5530266666666668  8.088179166666666 0.99655  C 8.088179166666666 0.99655  13.493083333333335 12.9993  13.493083333333335 12.9993  C 13.718220833333335 13.443766666666667  13.437608333333333 14  12.9882375 14  C 12.9882375 14  1.0117625 14  1.0117625 14  C 0.5624004166666666 14  0.2817820833333334 13.443766666666667  0.5069283333333332 12.9993  Z " fill-rule="nonzero" fill="#ffffff" stroke="none" fill-opacity="0" transform="matrix(1 0 0 1 306 280 )" />
    <path d="M 0.5069283333333332 12.9993  C 0.5069283333333332 12.9993  5.91185 0.99655  5.91185 0.99655  C 6.136520833333334 0.5530266666666668  7.863479166666666 0.5530266666666668  8.088179166666666 0.99655  C 8.088179166666666 0.99655  13.493083333333335 12.9993  13.493083333333335 12.9993  C 13.718220833333335 13.443766666666667  13.437608333333333 14  12.9882375 14  C 12.9882375 14  1.0117625 14  1.0117625 14  C 0.5624004166666666 14  0.2817820833333334 13.443766666666667  0.5069283333333332 12.9993  Z " stroke-width="4" stroke="#333333" fill="none" transform="matrix(1 0 0 1 306 280 )" mask="url(#clip161)" />
  </g>
</svg>