<?xml version="1.0" encoding="utf-8"?>
<svg version="1.1" xmlns:xlink="http://www.w3.org/1999/xlink" width="21px" height="26px" xmlns="http://www.w3.org/2000/svg">
  <g transform="matrix(1 0 0 1 -19 -6 )">
    <path d="M 20.878917945359277 3.2659866898148153  C 20.878917945359277 1.473032407407408  19.55025729790419 0.019506448412698878  17.91132695546407 0  L 3.0733720059880234 0  C 1.434441663547904 0.01950644841269851  0.10578101609281433 1.4730324074074073  0.10578101609281433 3.2659866898148144  L 0.10578101609281433 22.744841269841267  C 0.10578101609281433 24.537795552248674  1.434441663547904 25.99134837962963  3.0733720059880234 25.99134837962963  L 11.02360006549401 25.99134837962963  L 11.02360006549401 24.969301835317456  L 3.0733720059880234 24.969301835317456  C 2.0475392964071855 25.00938946759259  0.9850626871257481 23.64041832010582  1 22.744841269841267  L 1 3.2659866898148153  C 0.9850626871257481 2.0635995370370375  1.864344358158682 0.9814215443121694  3.0733720059880234 1  L 17.91132695546407 1  C 19.23026174214072 0.9814215443121694  20.017958224176645 2.0836164847883603  20.017958224176645 3.2659866898148153  L 20.017958224176645 12.544527116402117  L 20.878917945359277 10.921273561507938  L 20.878917945359277 3.2659866898148153  Z " fill-rule="nonzero" fill="#ffffff" stroke="none" transform="matrix(1 0 0 1 19 6 )" />
  </g>
</svg>