<?xml version="1.0" encoding="utf-8"?>
<svg version="1.1" xmlns:xlink="http://www.w3.org/1999/xlink" width="60px" height="66px" xmlns="http://www.w3.org/2000/svg">
  <g transform="matrix(1 0 0 1 -8 -3 )">
    <path d="M 8.5 6  A 2.5 2.5 0 0 1 11 3.5 L 65 3.5  A 2.5 2.5 0 0 1 67.5 6 L 67.5 66  A 2.5 2.5 0 0 1 65 68.5 L 11 68.5  A 2.5 2.5 0 0 1 8.5 66 L 8.5 6  Z " fill-rule="nonzero" fill="#ffffff" stroke="none" />
    <path d="M 8.5 6  A 2.5 2.5 0 0 1 11 3.5 L 65 3.5  A 2.5 2.5 0 0 1 67.5 6 L 67.5 66  A 2.5 2.5 0 0 1 65 68.5 L 11 68.5  A 2.5 2.5 0 0 1 8.5 66 L 8.5 6  Z " stroke-width="1" stroke="#adadad" fill="none" />
  </g>
</svg>