<?xml version="1.0" encoding="utf-8"?>
<svg version="1.1" xmlns:xlink="http://www.w3.org/1999/xlink" width="31px" height="31px" xmlns="http://www.w3.org/2000/svg">
  <g transform="matrix(1 0 0 1 -91 -5 )">
    <path d="M 109.5 5.5  L 103.5 5.5  L 103.5 17.5  L 91.5 17.5  L 91.5 23.5  L 103.5 23.5  L 103.5 35.5  L 109.5 35.5  L 109.5 23.499999999999996  L 121.5 23.5  L 121.5 17.5  L 109.5 17.5  L 109.5 5.5  Z " fill-rule="nonzero" fill="#aaaaaa" stroke="none" />
    <path d="M 109.5 5.5  L 103.5 5.5  L 103.5 17.5  L 91.5 17.5  L 91.5 23.5  L 103.5 23.5  L 103.5 35.5  L 109.5 35.5  L 109.5 23.499999999999996  L 121.5 23.5  L 121.5 17.5  L 109.5 17.5  L 109.5 5.5  Z " stroke-width="1" stroke="#999999" fill="none" />
  </g>
</svg>