<?xml version="1.0" encoding="utf-8"?>
<svg version="1.1" xmlns:xlink="http://www.w3.org/1999/xlink" width="12px" height="13px" xmlns="http://www.w3.org/2000/svg">
  <g transform="matrix(1 0 0 1 -31 -19 )">
    <path d="M 11.517680921052632 3.9722697368421076  C 12.099597039473682 3.3405777138157897  12.099597039473682 2.3189658717105264  11.517656250000002 1.6885300164473698  L 10.463610197368421 0.5466467927631568  C 10.172097039473684 0.23142886513157934  9.790805921052634 0.0738199013157887  9.40956414473684 0.0738199013157887  C 9.028322368421051 0.0738199013157887  8.647080592105263 0.23142886513157934  8.355493421052628 0.5466467927631568  L 1.9565378289473667 7.478260690789472  C 1.6661595394736843 7.794066611842106  0.7754358552631557 9.013832236842104  0.7754358552631557 9.426870888157895  L 0.030197368421051196 12.991393914473685  L 3.319958881578946 12.184052220394738  C 3.319958881578946 12.184052220394738  4.827705592105264 11.219101562500004  5.11926809210526 10.903883634868421  L 11.517680921052632 3.9722697368421076  Z M 9.409588815789473 5.113538240131579  L 4.593083881578948 10.331365131578947  C 4.508560855263157 10.417987253289475  4.217590460526317 10.631669407894737  3.8604769736842077 10.877103207236845  L 1.9295230263157879 8.785851151315791  C 2.1279029605263156 8.49182771381579  2.348166118421051 8.195933388157894  2.4838569078947357 8.049496299342106  L 7.302088815789471 2.8303865131578947  L 9.409588815789473 5.113538240131579  Z " fill-rule="nonzero" fill="#ffffff" stroke="none" transform="matrix(1 0 0 1 31 19 )" />
  </g>
</svg>