<?xml version="1.0" encoding="utf-8"?>
<svg version="1.1" xmlns:xlink="http://www.w3.org/1999/xlink" width="8px" height="12px" xmlns="http://www.w3.org/2000/svg">
  <defs>
    <mask fill="white" id="clip318">
      <path d="M 7.821428571428571 11.77570093457944  C 7.821428571428571 11.77570093457944  7.642857142857143 11.91588785046729  7.553571428571429 11.91588785046729  C 7.464285714285714 11.91588785046729  7.375 11.91588785046729  7.285714285714286 11.77570093457944  L 0.14285714285714285 1.2616822429906542  C -0.03571428571428571 0.9813084112149533  -0.03571428571428571 0.5607476635514018  0.14285714285714285 0.2803738317757009  C 0.32142857142857195 0  0.5892857142857143 0  0.7678571428571433 0.2803738317757009  L 7.821428571428571 10.794392523364486  C 8 11.074766355140186  8 11.495327102803737  7.821428571428571 11.77570093457944  Z " fill-rule="evenodd" />
    </mask>
  </defs>
  <g transform="matrix(1 0 0 1 -214 -98 )">
    <path d="M 7.821428571428571 11.77570093457944  C 7.821428571428571 11.77570093457944  7.642857142857143 11.91588785046729  7.553571428571429 11.91588785046729  C 7.464285714285714 11.91588785046729  7.375 11.91588785046729  7.285714285714286 11.77570093457944  L 0.14285714285714285 1.2616822429906542  C -0.03571428571428571 0.9813084112149533  -0.03571428571428571 0.5607476635514018  0.14285714285714285 0.2803738317757009  C 0.32142857142857195 0  0.5892857142857143 0  0.7678571428571433 0.2803738317757009  L 7.821428571428571 10.794392523364486  C 8 11.074766355140186  8 11.495327102803737  7.821428571428571 11.77570093457944  Z " fill-rule="nonzero" fill="#3d3d3d" stroke="none" transform="matrix(1 0 0 1 214 98 )" />
    <path d="M 7.821428571428571 11.77570093457944  C 7.821428571428571 11.77570093457944  7.642857142857143 11.91588785046729  7.553571428571429 11.91588785046729  C 7.464285714285714 11.91588785046729  7.375 11.91588785046729  7.285714285714286 11.77570093457944  L 0.14285714285714285 1.2616822429906542  C -0.03571428571428571 0.9813084112149533  -0.03571428571428571 0.5607476635514018  0.14285714285714285 0.2803738317757009  C 0.32142857142857195 0  0.5892857142857143 0  0.7678571428571433 0.2803738317757009  L 7.821428571428571 10.794392523364486  C 8 11.074766355140186  8 11.495327102803737  7.821428571428571 11.77570093457944  Z " stroke-width="2" stroke="#ffffff" fill="none" transform="matrix(1 0 0 1 214 98 )" mask="url(#clip318)" />
  </g>
</svg>