<?xml version="1.0" encoding="utf-8"?>
<svg version="1.1" xmlns:xlink="http://www.w3.org/1999/xlink" width="24px" height="26px" xmlns="http://www.w3.org/2000/svg">
  <g transform="matrix(1 0 0 1 -122 -6 )">
    <path d="M 23.3036382767341 18.284587604748605  C 23.466848067196533 18.056742273335665  23.657259492413296 17.857377610713456  23.87487249819364 17.68649358851257  L 5.051343099710984 17.68649358851257  C 4.851864468930637 17.68649358851257  4.643318623554915 17.74345491663757  4.425705563583816 17.85737757288757  C 4.208092503612718 17.971300229137572  4.004080265534683 18.142184222969043  3.813668849349712 18.370029554381986  C 3.623257433164741 18.59787488579493  3.469114848265897 18.868441215665737  3.3512410946531803 19.181728543994417  C 3.2333673410404637 19.495015872323094  3.174430473265897 19.85102419910964  3.1744304913294807 20.249753524354055  C 3.1744305093930647 20.648482849598466  3.2243001716040482 21.01873150605215  3.3240394779624296 21.360499493715086  C 3.4237787843208114 21.70226748137803  3.555253341763007 22.006061250290973  3.7184631502890184 22.271880800453914  C 3.8816729588150296 22.537700350616863  4.0811515986271685 22.7465585726548  4.3168990697254355 22.898455466567736  C 4.552646540823701 23.05035236048068  4.806528441112718 23.12630080743715  5.078544770592487 23  L 23.874872552384392 23  C 23.657259492413296 22.89845547602421  23.466848067196533 22.642129485277007  23.3036382767341 22.357322835195536  C 23.15856289739884 22.110490403864066  23.027088339956645 21.81619018491039  22.909214604407513 21.4744221783345  C 22.79134086885838 21.13265417175862  22.732404001083815 20.74341840592994  22.732404001083815 20.306714880848464  C 22.732404001083815 19.813049999272586  22.79134086885838 19.40482712406891  22.909214604407513 19.082046255237433  C 23.027088339956645 18.759265386405964  23.15856289739884 18.49344583624302  23.3036382767341 18.284587604748605  Z M 23.69806189486994 25.048745652932958  C 23.815935630419073 25.1341876498487  23.87487249819364 25.271844204638043  23.87487249819364 25.461715402409215  C 23.87487249819364 25.784496290153637  23.675393858381504 25.945886734025844  23.276436578757227 26  L 3.3920435061416176 26  C 2.775473184609826 25.945886734025844  2.2586421784682074 25.812976958944372  1.8415504877167628 25.54715740878143  C 1.424458796965318 25.281337858618485  1.084438394147399 24.915835981872675  0.8214892792630057 24.450651778544  C 0.558540164378613 23.98546757521532  0.37266234645953744 23.43009458580657  0.2638558255057801 22.784532810317742  C 0.1550493045520232 22.138971034828916  0.10064604407514427 21.445941490630826  0.10064604407514427 20.705444177723464  L 0.10064604407514427 4.1866578866969295  C 0.10064604407514427 2.7246503608007475  0.4724016799132949 1.6661189398568461  1.2159129515895952 1.0110636238652262  C 1.9594242232658965 0.3560083078736062  3.02028787933526 0.028480649877796138  4.398503919797688 0.028480649877795867  L 5.323359402095376 0.028480649877795867  L 7.1730703937861255 0.028480649877795867  L 9.702822182080924 0.028480649877795867  C 10.627677673410403 0.028480649877795867  11.57520119219653 0.023733870169928083  12.545392738439306 0.014240310754192515  C 13.515584284682081 0.004746770251397506  14.463107803468212 0  15.387963294797688 0  L 17.94491669978324 0  L 19.849030951950866 0  L 20.801088078034677 0  C 21.308851878612714 0  21.753145204118493 0.10917587654213307  22.13396805455202 0.32752762962639925  C 22.514790904985542 0.5458793827106655  22.832143280346816 0.8496731516236078  23.086025180635836 1.238908936365226  C 23.339907080924856 1.6281447211068447  23.534852113439303 2.088582154184125  23.670860278179184 2.6202212355970698  C 23.80686844291907 3.151860317010013  23.874872525289014 3.721473636085898  23.874872525289014 4.329061192824724  L 23.874872525289014 15.863730918296092  C 20.411198031069365 15.863730918296092  17.292077546965313 15.854237358880356  14.51751107297687 15.835250240048886  L 11.035702158598259 15.835250240048886  C 9.875099196170515 15.835250240048886  8.836903567557798 15.830503460341017  7.921115272760108 15.821009900925281  C 7.0053269779624205 15.811516341509545  6.248214884393057 15.806769561801676  5.649778992052017 15.806769561801676  L 4.643318605491324 15.806769561801676  C 4.262495755057797 15.806769561801676  3.8907401192196467 15.925439007216019  3.5280516979768715 16.162777898044695  C 3.165363276734097 16.400116788873373  2.8389436958092427 16.72289766716132  2.5487929552023054 17.13112053290852  C 2.258642214595369 17.539343398655728  2.0228947344653117 18.01402116140014  1.8415505148121323 18.555153821141758  C 1.6602062951589538 19.09628648088338  1.569534185332364 19.661153020251394  1.5695341853323637 20.249753439245808  C 1.569534185332364 20.971263652234637  1.6647398934248492 21.62157218851839  1.8551513096098202 22.20067904809707  C 2.0455627257947917 22.77978590767575  2.294911018786121 23.268704009543764  2.6031961885838086 23.667433353701117  C 2.911481358381497 24.066162697858474  3.2515017611994166 24.37470324647928  3.623257397037566 24.59305499956355  C 3.9950130328757165 24.811406752647816  4.362235070447971 24.92058263864642  4.724923509754329 25  L 23.30363822254335 25  C 23.44871360187861 24.92058265755936  23.580188159320805 24.963303656017228  23.69806189486994 25.048745652932958  Z M 16 0  L 12 0  L 12 11.022017743976956  L 14.245494743497108 7.946105826641062  L 16 11.022017743976956  L 16 0  Z " fill-rule="nonzero" fill="#ffffff" stroke="none" transform="matrix(1 0 0 1 122 6 )" />
  </g>
</svg>