<?xml version="1.0" encoding="utf-8"?>
<svg version="1.1" xmlns:xlink="http://www.w3.org/1999/xlink" width="31px" height="31px" xmlns="http://www.w3.org/2000/svg">
  <g transform="matrix(1 0 0 1 -713 -15 )">
    <path d="M 9.863636363636363 16.69230769230769  L 12.681818181818183 28.615384615384617  L 14.795454545454547 20.26923076923077  L 12.681818181818183 17.884615384615383  L 9.863636363636363 16.69230769230769  Z M 16.204545454545453 20.26923076923077  L 18.31818181818182 28.615384615384617  L 21.136363636363633 16.69230769230769  L 18.31818181818182 17.884615384615383  L 16.204545454545453 20.26923076923077  Z M 21.752840909090907 10.302283653846153  C 21.782196969696972 10.190504807692308  21.81155303030303 10.022836538461538  21.840909090909093 9.799278846153847  C 21.81155303030303 9.749599358974358  21.782196969696972 9.712339743589743  21.752840909090907 9.6875  C 21.606060606060613 9.588141025641022  20.901515151515152 9.538461538461538  19.639204545454547 9.538461538461538  C 18.611742424242426 9.538461538461538  17.386126893939394 9.656450320512818  15.962357954545453 9.892427884615383  C 15.859611742424242 9.917267628205126  15.705492424242427 9.9296875  15.5 9.9296875  C 15.294507575757576 9.9296875  15.14038825757576 9.917267628205126  15.037642045454547 9.892427884615383  C 13.613873106060607 9.656450320512818  12.388257575757576 9.538461538461538  11.360795454545453 9.538461538461538  C 10.098484848484848 9.538461538461538  9.393939393939394 9.588141025641022  9.24715909090909 9.6875  C 9.217803030303031 9.712339743589743  9.18844696969697 9.749599358974358  9.15909090909091 9.799278846153847  C 9.18844696969697 10.022836538461538  9.217803030303031 10.190504807692308  9.24715909090909 10.302283653846153  C 9.276515151515152 10.33954326923077  9.331557765151516 10.3799078525641  9.412286931818183 10.423377403846153  C 9.493016098484848 10.466846955128204  9.548058712121213 10.53205128205128  9.577414772727273 10.618990384615383  C 9.606770833333334 10.66866987179487  9.661813446969697 10.795973557692308  9.742542613636363 11.000901442307692  C 9.823271780303031 11.205829326923078  9.874644886363637 11.333133012820513  9.896661931818183 11.3828125  C 9.918678977272727 11.432491987179484  9.97372159090909 11.538060897435896  10.061789772727273 11.69951923076923  C 10.149857954545453 11.860977564102562  10.212239583333334 11.966546474358974  10.24893465909091 12.016225961538462  C 10.285629734848486 12.065905448717949  10.351680871212123 12.15284455128205  10.447088068181817 12.27704326923077  C 10.542495265151516 12.401241987179484  10.630563446969697 12.48507612179487  10.711292613636363 12.528545673076922  C 10.792021780303033 12.572015224358974  10.894767992424244 12.631009615384617  11.01953125 12.705528846153847  C 11.144294507575758 12.780048076923078  11.272727272727273 12.829727564102566  11.404829545454547 12.854567307692308  C 11.536931818181817 12.87940705128205  11.687381628787879 12.904246794871796  11.856178977272727 12.929086538461538  C 12.024976325757576 12.95392628205128  12.204782196969697 12.966346153846153  12.39559659090909 12.966346153846153  C 12.924005681818183 12.966346153846153  13.357007575757576 12.888721955128204  13.694602272727273 12.733473557692308  C 14.03219696969697 12.578225160256409  14.270714962121213 12.39192708333333  14.41015625 12.174579326923078  C 14.549597537878789 11.957231570512818  14.65601325757576 11.74298878205128  14.72940340909091 11.531850961538462  C 14.802793560606062 11.320713141025639  14.887192234848486 11.13752003205128  14.982599431818183 10.982271634615383  C 15.078006628787879 10.827023237179484  15.206439393939396 10.749399038461538  15.367897727272727 10.749399038461538  L 15.632102272727273 10.749399038461538  C 15.793560606060607 10.749399038461538  15.921993371212123 10.827023237179484  16.01740056818182 10.982271634615383  C 16.112807765151516 11.13752003205128  16.19720643939394 11.320713141025639  16.270596590909093 11.531850961538462  C 16.343986742424242 11.74298878205128  16.450402462121215 11.957231570512818  16.58984375 12.174579326923078  C 16.72928503787879 12.39192708333333  16.96780303030303 12.578225160256409  17.305397727272727 12.733473557692308  C 17.642992424242426 12.888721955128204  18.07599431818182 12.966346153846153  18.604403409090907 12.966346153846153  C 18.795217803030305 12.966346153846153  18.975023674242426 12.95392628205128  19.143821022727273 12.929086538461538  C 19.312618371212125 12.904246794871796  19.46306818181818 12.87940705128205  19.595170454545453 12.854567307692308  C 19.727272727272727 12.829727564102566  19.855705492424242 12.780048076923078  19.98046875 12.705528846153847  C 20.105232007575758 12.631009615384617  20.20797821969697 12.572015224358974  20.288707386363633 12.528545673076922  C 20.369436553030305 12.48507612179487  20.457504734848488 12.401241987179484  20.55291193181818 12.27704326923077  C 20.64831912878788 12.15284455128205  20.714370265151516 12.065905448717949  20.751065340909093 12.016225961538462  C 20.787760416666668 11.966546474358974  20.85014204545455 11.860977564102562  20.938210227272727 11.69951923076923  C 21.02627840909091 11.538060897435896  21.081321022727277 11.432491987179484  21.10333806818182 11.3828125  C 21.125355113636367 11.333133012820513  21.176728219696972 11.205829326923078  21.257457386363633 11.000901442307692  C 21.338186553030305 10.795973557692308  21.393229166666668 10.66866987179487  21.422585227272727 10.618990384615383  C 21.451941287878793 10.53205128205128  21.506983901515152 10.466846955128204  21.58771306818182 10.423377403846153  C 21.668442234848488 10.3799078525641  21.72348484848485 10.33954326923077  21.752840909090907 10.302283653846153  Z M 30.823863636363633 23.408353365384617  C 30.94128787878788 24.29637419871795  31 25.218549679487182  31 26.17487980769231  C 31 27.677684294871796  30.464251893939394 28.857572115384617  29.39275568181818 29.71454326923077  C 28.321259469696972 30.571514423076923  26.89749053030303 31  25.121448863636367 31  L 5.878551136363637 31  C 4.10250946969697 31  2.6787405303030303 30.571514423076923  1.6072443181818183 29.71454326923077  C 0.535748106060606 28.857572115384617  0 27.677684294871796  0 26.17487980769231  C 0 25.417267628205128  0.03302556818181818 24.68449519230769  0.09907670454545456 23.9765625  C 0.1651278409090909 23.26862980769231  0.3045691287878788 22.489282852564102  0.5174005681818181 21.638521634615383  C 0.7302320075757577 20.787760416666664  1.005445075757576 20.020833333333332  1.343039772727273 19.337740384615383  C 1.68063446969697 18.654647435897434  2.1466619318181817 18.011919070512818  2.741122159090909 17.40955528846154  C 3.3355823863636367 16.807191506410255  4.021780303030304 16.344551282051277  4.799715909090908 16.021634615384617  L 2.8181818181818183 11.923076923076922  L 7.529829545454545 11.923076923076922  C 7.20691287878788 11.128205128205126  7.045454545454545 10.33333333333333  7.045454545454545 9.538461538461538  C 7.045454545454545 9.389423076923078  7.060132575757576 9.190705128205126  7.089488636363637 8.942307692307692  C 4.241950757575758 8.445512820512818  2.8181818181818183 7.8493589743589745  2.8181818181818183 7.153846153846152  C 2.8181818181818183 6.445913461538461  4.359375 5.831129807692308  7.441761363636363 5.309495192307692  C 7.69128787878788 4.53946314102564  8.06924715909091 3.7073317307692304  8.575639204545453 2.813100961538461  C 9.08203125 1.9188701923076916  9.599431818181817 1.2109375  10.12784090909091 0.689302884615383  C 10.597537878787879 0.22976762820512997  11.155303030303033 0  11.801136363636363 0  C 12.241477272727273 0  12.857954545454547 0.19250801282051644  13.650568181818183 0.577524038461539  C 14.443181818181817 0.9625400641025615  15.05965909090909 1.155048076923078  15.5 1.155048076923078  C 15.940340909090908 1.155048076923078  16.55681818181818 0.9625400641025615  17.34943181818182 0.577524038461539  C 18.142045454545453 0.19250801282051644  18.758522727272727 0  19.198863636363633 0  C 19.84469696969697 0  20.402462121212125 0.22976762820512997  20.872159090909093 0.689302884615383  C 21.400568181818183 1.2109375  21.917968750000004 1.9188701923076916  22.424360795454547 2.813100961538461  C 22.930752840909093 3.7073317307692304  23.308712121212125 4.53946314102564  23.558238636363633 5.309495192307692  C 26.640625 5.831129807692308  28.18181818181818 6.445913461538461  28.18181818181818 7.153846153846152  C 28.18181818181818 7.8493589743589745  26.758049242424246 8.445512820512818  23.910511363636367 8.942307692307692  C 24.013257575757578 9.948317307692308  23.866477272727273 10.94190705128205  23.470170454545453 11.923076923076922  L 28.18181818181818 11.923076923076922  L 26.376420454545453 16.114783653846157  C 27.301136363636367 16.524639423076923  28.090080492424246 17.123898237179485  28.743252840909093 17.912560096153843  C 29.39642518939394 18.701221955128204  29.87713068181818 19.592347756410255  30.18536931818182 20.5859375  C 30.493607954545453 21.57952724358974  30.706439393939394 22.520332532051277  30.823863636363633 23.408353365384617  Z " fill-rule="nonzero" fill="#ff0000" stroke="none" transform="matrix(1 0 0 1 713 15 )" />
  </g>
</svg>