<?xml version="1.0" encoding="utf-8"?>
<svg version="1.1" xmlns:xlink="http://www.w3.org/1999/xlink" width="15px" height="19px" xmlns="http://www.w3.org/2000/svg">
  <g transform="matrix(1 0 0 1 -227 -16 )">
    <path d="M 14.609375 5.428571428571428  L 10 5.428571428571428  L 10 0.42410714285714346  C 10.143229166666666 0.5230654761904754  10.260416666666666 0.6220238095238073  10.3515625 0.7209821428571435  L 14.3359375 5.046875  C 14.427083333333336 5.145833333333332  14.518229166666668 5.273065476190475  14.609375 5.428571428571428  Z M 8.75 0  L 8.75 5.767857142857143  C 8.75 6.0505952380952355  8.841145833333334 6.290922619047619  9.0234375 6.488839285714285  C 9.205729166666666 6.686755952380951  9.427083333333334 6.785714285714285  9.6875 6.785714285714285  L 15 6.785714285714285  L 15 17.982142857142858  C 15 18.264880952380953  14.908854166666666 18.505208333333332  14.7265625 18.703125  C 14.544270833333336 18.901041666666668  14.322916666666668 19  14.0625 19  L 0.9375 19  C 0.6770833333333335 19  0.45572916666666674 18.901041666666668  0.2734375 18.703125  C 0.09114583333333331 18.505208333333332  0 18.264880952380953  0 17.982142857142858  L 0 1.0178571428571435  C 0 0.7351190476190471  0.09114583333333331 0.49479166666666596  0.2734375 0.296875  C 0.45572916666666674 0.09895833333333404  0.6770833333333335 0  0.9375 0  L 8.75 0  Z " fill-rule="nonzero" fill="#ffffff" stroke="none" transform="matrix(1 0 0 1 227 16 )" />
  </g>
</svg>