<?xml version="1.0" encoding="utf-8"?>
<svg version="1.1" xmlns:xlink="http://www.w3.org/1999/xlink" width="138px" height="39px" xmlns="http://www.w3.org/2000/svg">
  <defs>
    <mask fill="white" id="clip397">
      <path d="M 0 39  L 0 0  L 58.52222222222409 0  L 138 0  L 138 39  L 57.2592592592579 39  L 0 39  Z " fill-rule="evenodd" />
    </mask>
  </defs>
  <g transform="matrix(1 0 0 1 0 -156 )">
    <path d="M 0 39  L 0 0  L 58.52222222222409 0  L 138 0  L 138 39  L 57.2592592592579 39  L 0 39  Z " fill-rule="nonzero" fill="#1abc9c" stroke="none" transform="matrix(1 0 0 1 0 156 )" />
    <path d="M 0 39  L 0 0  L 58.52222222222409 0  L 138 0  L 138 39  L 57.2592592592579 39  L 0 39  Z " stroke-width="2" stroke="#797979" fill="none" transform="matrix(1 0 0 1 0 156 )" mask="url(#clip397)" />
  </g>
</svg>