<?xml version="1.0" encoding="utf-8"?>
<svg version="1.1" xmlns:xlink="http://www.w3.org/1999/xlink" width="44px" height="62px" xmlns="http://www.w3.org/2000/svg">
  <g transform="matrix(1 0 0 1 -125 -32 )">
    <path d="M 125.5 35  A 2.5 2.5 0 0 1 128 32.5 L 166 32.5  A 2.5 2.5 0 0 1 168.5 35 L 168.5 91  A 2.5 2.5 0 0 1 166 93.5 L 128 93.5  A 2.5 2.5 0 0 1 125.5 91 L 125.5 35  Z " fill-rule="nonzero" fill="#ffffff" stroke="none" />
    <path d="M 125.5 35  A 2.5 2.5 0 0 1 128 32.5 L 166 32.5  A 2.5 2.5 0 0 1 168.5 35 L 168.5 91  A 2.5 2.5 0 0 1 166 93.5 L 128 93.5  A 2.5 2.5 0 0 1 125.5 91 L 125.5 35  Z " stroke-width="1" stroke="#adadad" fill="none" />
  </g>
</svg>