<?xml version="1.0" encoding="utf-8"?>
<svg version="1.1" xmlns:xlink="http://www.w3.org/1999/xlink" width="21px" height="24px" xmlns="http://www.w3.org/2000/svg">
  <g transform="matrix(1 0 0 1 -53 -41 )">
    <path d="M 15.8046875 0.9107142857142865  L 20.0703125 5.0892857142857135  C 20.325520833333336 5.339285714285713  20.544270833333336 5.67857142857143  20.7265625 6.107142857142857  C 20.908854166666668 6.5357142857142865  21 6.928571428571428  21 7.2857142857142865  L 21 22.714285714285715  C 21 23.071428571428573  20.872395833333332 23.375  20.6171875 23.625  C 20.361979166666668 23.875  20.052083333333336 24  19.6875 24  L 1.3125 24  C 0.9479166666666667 24  0.6380208333333334 23.875  0.3828125 23.625  C 0.12760416666666666 23.375  0 23.071428571428573  0 22.714285714285715  L 0 1.2857142857142865  C 0 0.9285714285714279  0.12760416666666666 0.6249999999999991  0.3828125 0.375  C 0.6380208333333334 0.1250000000000009  0.9479166666666667 0  1.3125 0  L 13.5625 0  C 13.927083333333336 0  14.328125 0.0892857142857153  14.765625 0.26785714285714324  C 15.203125 0.4464285714285712  15.549479166666668 0.6607142857142847  15.8046875 0.9107142857142865  Z M 14.560546875 2.1160714285714297  C 14.451171875 2.0089285714285703  14.264322916666668 1.910714285714283  14 1.8214285714285703  L 14 6.857142857142857  L 19.140625 6.857142857142857  C 19.049479166666668 6.598214285714283  18.94921875 6.41517857142857  18.83984375 6.3080357142857135  L 14.560546875 2.1160714285714297  Z M 2 22  L 19 22  L 19 8.57142857142857  L 13.5625 8.57142857142857  C 13.197916666666666 8.57142857142857  12.888020833333334 8.44642857142857  12.6328125 8.19642857142857  C 12.377604166666666 7.946428571428571  12.25 7.64285714285714  12.25 7.2857142857142865  L 12.25 2  L 2 2  L 2 22  Z M 5.25 11.57142857142857  L 5.25 10.714285714285714  C 5.25 10.589285714285712  5.291015625 10.486607142857142  5.373046875 10.40625  C 5.455078125000001 10.325892857142858  5.559895833333334 10.285714285714286  5.6875 10.285714285714286  L 15.3125 10.285714285714286  C 15.44010416666667 10.285714285714286  15.544921875 10.325892857142858  15.626953125 10.40625  C 15.708984375 10.486607142857142  15.75 10.589285714285712  15.75 10.714285714285714  L 15.75 11.57142857142857  C 15.75 11.696428571428571  15.708984375 11.799107142857142  15.626953125 11.879464285714286  C 15.544921875 11.95982142857143  15.44010416666667 12  15.3125 12  L 5.6875 12  C 5.559895833333334 12  5.455078125000001 11.95982142857143  5.373046875 11.879464285714286  C 5.291015625 11.799107142857142  5.25 11.696428571428571  5.25 11.57142857142857  Z M 5.6875 13.714285714285714  L 15.3125 13.714285714285714  C 15.44010416666667 13.714285714285714  15.544921875 13.754464285714286  15.626953125 13.834821428571427  C 15.708984375 13.915178571428573  15.75 14.017857142857142  15.75 14.142857142857142  L 15.75 15  C 15.75 15.124999999999998  15.708984375 15.227678571428573  15.626953125 15.308035714285714  C 15.544921875 15.388392857142858  15.44010416666667 15.428571428571427  15.3125 15.428571428571427  L 5.6875 15.428571428571427  C 5.559895833333334 15.428571428571427  5.455078125000001 15.388392857142858  5.373046875 15.308035714285714  C 5.291015625 15.227678571428573  5.25 15.124999999999998  5.25 15  L 5.25 14.142857142857142  C 5.25 14.017857142857142  5.291015625 13.915178571428573  5.373046875 13.834821428571427  C 5.455078125000001 13.754464285714286  5.559895833333334 13.714285714285714  5.6875 13.714285714285714  Z M 5.6875 17.142857142857142  L 15.3125 17.142857142857142  C 15.44010416666667 17.142857142857142  15.544921875 17.183035714285715  15.626953125 17.263392857142858  C 15.708984375 17.34375  15.75 17.446428571428573  15.75 17.571428571428573  L 15.75 18.428571428571427  C 15.75 18.553571428571427  15.708984375 18.65625  15.626953125 18.736607142857142  C 15.544921875 18.816964285714285  15.44010416666667 18.857142857142858  15.3125 18.857142857142858  L 5.6875 18.857142857142858  C 5.559895833333334 18.857142857142858  5.455078125000001 18.816964285714285  5.373046875 18.736607142857142  C 5.291015625 18.65625  5.25 18.553571428571427  5.25 18.428571428571427  L 5.25 17.571428571428573  C 5.25 17.446428571428573  5.291015625 17.34375  5.373046875 17.263392857142858  C 5.455078125000001 17.183035714285715  5.559895833333334 17.142857142857142  5.6875 17.142857142857142  Z " fill-rule="nonzero" fill="#000000" stroke="none" transform="matrix(1 0 0 1 53 41 )" />
  </g>
</svg>