<?xml version="1.0" encoding="utf-8"?>
<svg version="1.1" xmlns:xlink="http://www.w3.org/1999/xlink" width="31px" height="24px" xmlns="http://www.w3.org/2000/svg">
  <g transform="matrix(1 0 0 1 -48 -6 )">
    <path d="M 6.478515625 17.616477272727273  C 6.588076636904762 17.72443181818182  6.642857142857142 17.852272727272727  6.642857142857142 18  L 6.642857142857142 19.09090909090909  C 6.642857142857142 19.23863636363636  6.588076636904762 19.366477272727273  6.478515625 19.474431818181817  C 6.368954613095238 19.582386363636363  6.239211309523809 19.636363636363633  6.089285714285714 19.636363636363633  L 4.982142857142858 19.636363636363633  C 4.832217261904763 19.636363636363633  4.702473958333334 19.582386363636363  4.592912946428572 19.474431818181817  C 4.483351934523809 19.366477272727273  4.428571428571428 19.23863636363636  4.428571428571428 19.09090909090909  L 4.428571428571428 18  C 4.428571428571428 17.852272727272727  4.483351934523809 17.72443181818182  4.592912946428572 17.616477272727273  C 4.702473958333334 17.508522727272727  4.832217261904763 17.454545454545453  4.982142857142858 17.454545454545453  L 6.089285714285714 17.454545454545453  C 6.239211309523809 17.454545454545453  6.368954613095238 17.508522727272727  6.478515625 17.616477272727273  Z M 6.478515625 13.25284090909091  C 6.588076636904762 13.360795454545453  6.642857142857142 13.488636363636363  6.642857142857142 13.636363636363635  L 6.642857142857142 14.727272727272727  C 6.642857142857142 14.875  6.588076636904762 15.002840909090907  6.478515625 15.110795454545455  C 6.368954613095238 15.218749999999998  6.239211309523809 15.272727272727273  6.089285714285714 15.272727272727273  L 4.982142857142858 15.272727272727273  C 4.832217261904763 15.272727272727273  4.702473958333334 15.218749999999998  4.592912946428572 15.110795454545455  C 4.483351934523809 15.002840909090907  4.428571428571428 14.875  4.428571428571428 14.727272727272727  L 4.428571428571428 13.636363636363635  C 4.428571428571428 13.488636363636363  4.483351934523809 13.360795454545453  4.592912946428572 13.25284090909091  C 4.702473958333334 13.144886363636362  4.832217261904763 13.09090909090909  4.982142857142858 13.09090909090909  L 6.089285714285714 13.09090909090909  C 6.239211309523809 13.09090909090909  6.368954613095238 13.144886363636362  6.478515625 13.25284090909091  Z M 6.478515625 8.889204545454545  C 6.588076636904762 8.99715909090909  6.642857142857142 9.124999999999998  6.642857142857142 9.272727272727273  L 6.642857142857142 10.363636363636363  C 6.642857142857142 10.511363636363637  6.588076636904762 10.639204545454543  6.478515625 10.74715909090909  C 6.368954613095238 10.855113636363637  6.239211309523809 10.90909090909091  6.089285714285714 10.90909090909091  L 4.982142857142858 10.90909090909091  C 4.832217261904763 10.90909090909091  4.702473958333334 10.855113636363637  4.592912946428572 10.74715909090909  C 4.483351934523809 10.639204545454543  4.428571428571428 10.511363636363637  4.428571428571428 10.363636363636363  L 4.428571428571428 9.272727272727273  C 4.428571428571428 9.124999999999998  4.483351934523809 8.99715909090909  4.592912946428572 8.889204545454545  C 4.702473958333334 8.78125  4.832217261904763 8.727272727272727  4.982142857142858 8.727272727272727  L 6.089285714285714 8.727272727272727  C 6.239211309523809 8.727272727272727  6.368954613095238 8.78125  6.478515625 8.889204545454545  Z M 26.40708705357143 17.616477272727273  C 26.516648065476186 17.72443181818182  26.57142857142857 17.852272727272727  26.57142857142857 18  L 26.57142857142857 19.09090909090909  C 26.57142857142857 19.23863636363636  26.516648065476186 19.366477272727273  26.40708705357143 19.474431818181817  C 26.297526041666668 19.582386363636363  26.167782738095237 19.636363636363633  26.017857142857142 19.636363636363633  L 9.410714285714285 19.636363636363633  C 9.260788690476192 19.636363636363633  9.131045386904763 19.582386363636363  9.021484375 19.474431818181817  C 8.911923363095239 19.366477272727273  8.857142857142856 19.23863636363636  8.857142857142856 19.09090909090909  L 8.857142857142856 18  C 8.857142857142856 17.852272727272727  8.911923363095239 17.72443181818182  9.021484375 17.616477272727273  C 9.131045386904763 17.508522727272727  9.260788690476192 17.454545454545453  9.410714285714285 17  L 26.017857142857142 17  C 26.167782738095237 17.454545454545453  26.297526041666668 17.508522727272727  26.40708705357143 17.616477272727273  Z M 26.40708705357143 13.25284090909091  C 26.516648065476186 13.360795454545453  26.57142857142857 13.488636363636363  26.57142857142857 13.636363636363635  L 26.57142857142857 14.727272727272727  C 26.57142857142857 14.875  26.516648065476186 15.002840909090907  26.40708705357143 15.110795454545455  C 26.297526041666668 15.218749999999998  26.167782738095237 15.272727272727273  26.017857142857142 15  L 9.410714285714285 15  C 9.260788690476192 15.272727272727273  9.131045386904763 15.218749999999998  9.021484375 15.110795454545455  C 8.911923363095239 15.002840909090907  8.857142857142856 14.875  8.857142857142856 14.727272727272727  L 8.857142857142856 13.636363636363635  C 8.857142857142856 13.488636363636363  8.911923363095239 13.360795454545453  9.021484375 13.25284090909091  C 9.131045386904763 13.144886363636362  9.260788690476192 13.09090909090909  9.410714285714285 13  L 26.017857142857142 13  C 26.167782738095237 13.09090909090909  26.297526041666668 13.144886363636362  26.40708705357143 13.25284090909091  Z M 26.40708705357143 8.889204545454545  C 26.516648065476186 8.99715909090909  26.57142857142857 9.124999999999998  26.57142857142857 9.272727272727273  L 26.57142857142857 10.363636363636363  C 26.57142857142857 10.511363636363637  26.516648065476186 10.639204545454543  26.40708705357143 10.74715909090909  C 26.297526041666668 10.855113636363637  26.167782738095237 10.90909090909091  26.017857142857142 11  L 9.410714285714285 11  C 9.260788690476192 10.90909090909091  9.131045386904763 10.855113636363637  9.021484375 10.74715909090909  C 8.911923363095239 10.639204545454543  8.857142857142856 10.511363636363637  8.857142857142856 10.363636363636363  L 8.857142857142856 9.272727272727273  C 8.857142857142856 9.124999999999998  8.911923363095239 8.99715909090909  9.021484375 8.889204545454545  C 9.131045386904763 8.78125  9.260788690476192 8.727272727272727  9.410714285714285 9  L 26.017857142857142 9  C 26.167782738095237 8.727272727272727  26.297526041666668 8.78125  26.40708705357143 8.889204545454545  Z M 28.621372767857142 21.65625  C 28.73093377976191 21.548295454545457  28.78571428571429 21.420454545454547  28.78571428571429 21.272727272727273  L 28.78571428571429 7.09090909090909  C 28.78571428571429 6.943181818181816  28.73093377976191 6.815340909090908  28.621372767857142 6.707386363636362  C 28.511811755952383 6.599431818181817  28.382068452380953 6.545454545454545  28.232142857142858 7  L 2.767857142857143 7  C 2.617931547619048 6.545454545454545  2.488188244047619 6.599431818181817  2.378627232142857 6.707386363636362  C 2.269066220238096 6.815340909090908  2.214285714285714 6.943181818181816  2.214285714285714 7.09090909090909  L 2.214285714285714 21.272727272727273  C 2.214285714285714 21.420454545454547  2.269066220238096 21.548295454545457  2.378627232142857 21.65625  C 2.488188244047619 21.764204545454543  2.617931547619048 21.818181818181817  2.767857142857143 21.818181818181817  L 28.232142857142858 21.818181818181817  C 28.382068452380953 21.818181818181817  28.511811755952383 21.764204545454543  28.621372767857142 21.65625  Z M 30.18694196428571 0.8011363636363624  C 30.72898065476191 1.3352272727272707  31 1.9772727272727275  31 2.7272727272727275  L 31 21.272727272727273  C 31 22.022727272727273  30.72898065476191 22.66477272727273  30.18694196428571 23.198863636363637  C 29.64490327380953 23.732954545454543  28.993303571428577 24  28.232142857142858 24  L 2.767857142857143 24  C 2.006696428571429 24  1.3550967261904763 23.732954545454543  0.8130580357142857 23.198863636363637  C 0.27101934523809523 22.66477272727273  0 22.022727272727273  0 21.272727272727273  L 0 2.7272727272727275  C 0 1.9772727272727275  0.27101934523809523 1.3352272727272707  0.8130580357142857 0.8011363636363624  C 1.3550967261904763 0.2670454545454515  2.006696428571429 0  2.767857142857143 0  L 28.232142857142858 0  C 28.993303571428577 0  29.64490327380953 0.2670454545454515  30.18694196428571 0.8011363636363624  Z " fill-rule="nonzero" fill="#ffffff" stroke="none" transform="matrix(1 0 0 1 48 6 )" />
  </g>
</svg>