<?xml version="1.0" encoding="utf-8"?>
<svg version="1.1" xmlns:xlink="http://www.w3.org/1999/xlink" width="27px" height="23px" xmlns="http://www.w3.org/2000/svg">
  <g transform="matrix(1 0 0 1 -74 -57 )">
    <path d="M 6.75 15  L 6.75 21  L 20.25 21  L 20.25 15  L 6.75 15  Z M 22.5 14.854166666666664  L 22.5 21.083333333333332  L 24.75 21.083333333333332  L 24.75 7.666666666666668  C 24.75 7.526909722222219  24.69140625 7.334743923611111  24.57421875 7.090169270833332  C 24.457031250000004 6.8455946180555545  24.339843750000004 6.673394097222219  24.22265625 6.573567708333332  L 19.283203125 2.3658854166666674  C 19.166015625000004 2.266059027777776  18.966796875 2.1662326388888866  18.685546875 2.06640625  C 18.404296875 1.9665798611111107  18.17578125 1.9166666666666674  18 1.9166666666666674  L 18 8.145833333333332  C 18 8.54513888888889  17.8359375 8.88454861111111  17.5078125 9.1640625  C 17.1796875 9.44357638888889  16.78125 9.583333333333332  16.3125 10  L 6.1875 10  C 5.718750000000001 9.583333333333332  5.320312500000001 9.44357638888889  4.9921875 9.1640625  C 4.664062500000001 8.88454861111111  4.5 8.54513888888889  4.5 8.145833333333332  L 4.5 1.9166666666666674  L 2.25 1.9166666666666674  L 2.25 21.083333333333332  L 4.5 21.083333333333332  L 4.5 14.854166666666664  C 4.5 14.454861111111109  4.664062500000001 14.115451388888886  4.9921875 13.8359375  C 5.320312500000001 13.556423611111109  5.718750000000001 13.416666666666664  6.1875 13  L 20.8125 13  C 21.281250000000004 13.416666666666664  21.6796875 13.556423611111109  22.0078125 13.8359375  C 22.335937500000004 14.115451388888886  22.5 14.454861111111109  22.5 14.854166666666664  Z M 15.5830078125 7.5244140625  C 15.694335937500002 7.4295789930555545  15.750000000000002 7.3172743055555545  15.750000000000002 7.1875  L 15.750000000000002 2.3958333333333326  C 15.750000000000002 2.266059027777776  15.694335937500002 2.153754340277776  15.5830078125 2.0589192708333326  C 15.471679687500002 1.9640842013888866  15.339843750000002 1.9166666666666674  15.1875 1.9166666666666674  L 11.8125 1.9166666666666674  C 11.66015625 1.9166666666666674  11.5283203125 1.9640842013888866  11.4169921875 2.0589192708333326  C 11.305664062500002 2.153754340277776  11.25 2.266059027777776  11.25 2.3958333333333326  L 11.25 7.1875  C 11.25 7.3172743055555545  11.305664062500002 7.4295789930555545  11.4169921875 7.5244140625  C 11.5283203125 7.619249131944443  11.66015625 7.666666666666668  11.8125 7.666666666666668  L 15.1875 7.666666666666668  C 15.339843750000002 7.666666666666668  15.471679687500002 7.619249131944443  15.5830078125 7.5244140625  Z M 26.6484375 6.348958333333332  C 26.8828125 6.828125  27 7.267361111111111  27 7.666666666666668  L 27 21.5625  C 27 21.961805555555557  26.8359375 22.301215277777775  26.5078125 22.580729166666668  C 26.179687500000004 22.860243055555557  25.78125 23  25.3125 23  L 1.6875 23  C 1.2187500000000002 23  0.8203125000000001 22.860243055555557  0.49218750000000006 22.580729166666668  C 0.16406249999999997 22.301215277777775  0 21.961805555555557  0 21.5625  L 0 1.4375  C 0 1.0381944444444433  0.16406249999999997 0.6987847222222191  0.49218750000000006 0.4192708333333325  C 0.8203125000000001 0.1397569444444433  1.2187500000000002 0  1.6875 0  L 18 0  C 18.46875 0  18.984375 0.09982638888888662  19.546875 0.2994791666666675  C 20.109375 0.4991319444444433  20.554687500000004 0.7387152777777758  20.8828125 1.0182291666666674  L 25.8046875 5.2109375  C 26.132812500000004 5.490451388888887  26.4140625 5.869791666666668  26.6484375 6.348958333333332  Z " fill-rule="nonzero" fill="#000000" stroke="none" transform="matrix(1 0 0 1 74 57 )" />
  </g>
</svg>