<?xml version="1.0" encoding="utf-8"?>
<svg version="1.1" xmlns:xlink="http://www.w3.org/1999/xlink" width="29px" height="25px" xmlns="http://www.w3.org/2000/svg">
  <g transform="matrix(1 0 0 1 -140 -55 )">
    <path d="M 28.423295454545453 9.588068181818182  C 28.807765151515152 9.919507575757573  29 10.321969696969695  29 10.795454545454545  L 29 14.204545454545453  C 29 14.678030303030305  28.807765151515152 15.080492424242422  28.423295454545453 15.411931818181818  C 28.038825757575758 15.74337121212121  27.5719696969697 15.909090909090908  27.02272727272727 15.909090909090908  L 18.454545454545453 15.909090909090908  L 18.454545454545453 23.295454545454547  C 18.454545454545453 23.768939393939394  18.262310606060606 24.171401515151516  17.87784090909091 24.50284090909091  C 17.493371212121218 24.834280303030305  17.026515151515152 25  16.47727272727273 25  L 12.522727272727273 25  C 11.97348484848485 25  11.506628787878789 24.834280303030305  11.122159090909092 24.50284090909091  C 10.737689393939394 24.171401515151516  10.545454545454545 23.768939393939394  10.545454545454545 23.295454545454547  L 10.545454545454545 15.909090909090908  L 1.977272727272727 15.909090909090908  C 1.4280303030303032 15.909090909090908  0.9611742424242425 15.74337121212121  0.5767045454545454 15.411931818181818  C 0.19223484848484845 15.080492424242422  0 14.678030303030305  0 14.204545454545453  L 0 10.795454545454545  C 0 10.321969696969695  0.19223484848484845 9.919507575757573  0.5767045454545454 9.588068181818182  C 0.9611742424242425 9.256628787878787  1.4280303030303032 9.090909090909092  1.977272727272727 9.090909090909092  L 10.545454545454545 9.090909090909092  L 10.545454545454545 1.704545454545456  C 10.545454545454545 1.231060606060605  10.737689393939394 0.8285984848484834  11.122159090909092 0.49715909090909116  C 11.506628787878789 0.16571969696969613  11.97348484848485 0  12.522727272727273 0  L 16.47727272727273 0  C 17.026515151515152 0  17.493371212121218 0.16571969696969613  17.87784090909091 0.49715909090909116  C 18.262310606060606 0.8285984848484834  18.454545454545453 1.231060606060605  18.454545454545453 1.704545454545456  L 18.454545454545453 9.090909090909092  L 27.02272727272727 9.090909090909092  C 27.5719696969697 9.090909090909092  28.038825757575758 9.256628787878787  28.423295454545453 9.588068181818182  Z " fill-rule="nonzero" fill="#000000" stroke="none" transform="matrix(1 0 0 1 140 55 )" />
  </g>
</svg>