<?xml version="1.0" encoding="utf-8"?>
<svg version="1.1" xmlns:xlink="http://www.w3.org/1999/xlink" width="13px" height="13px" viewBox="895 180  13 13" xmlns="http://www.w3.org/2000/svg">
  <path d="M 901.5 180  C 905.14 180  908 182.86  908 186.5  C 908 190.14  905.14 193  901.5 193  C 897.86 193  895 190.14  895 186.5  C 895 182.86  897.86 180  901.5 180  Z " fill-rule="nonzero" fill="#ffffff" stroke="none" />
  <path d="M 901.5 180.5  C 904.86 180.5  907.5 183.14  907.5 186.5  C 907.5 189.86  904.86 192.5  901.5 192.5  C 898.14 192.5  895.5 189.86  895.5 186.5  C 895.5 183.14  898.14 180.5  901.5 180.5  Z " stroke-width="1" stroke="#797979" fill="none" />
  <path d="M 901.5 189.75  C 899.68 189.75  898.25 188.32  898.25 186.5  C 898.25 184.68  899.68 183.25  901.5 183.25  C 903.32 183.25  904.75 184.68  904.75 186.5  C 904.75 188.32  903.32 189.75  901.5 189.75  " fill-rule="nonzero" fill="#797979" stroke="none" />
</svg>