<?xml version="1.0" encoding="utf-8"?>
<svg version="1.1" xmlns:xlink="http://www.w3.org/1999/xlink" width="13px" height="13px" viewBox="622 180  13 13" xmlns="http://www.w3.org/2000/svg">
  <path d="M 628.5 180  C 632.14 180  635 182.86  635 186.5  C 635 190.14  632.14 193  628.5 193  C 624.86 193  622 190.14  622 186.5  C 622 182.86  624.86 180  628.5 180  Z " fill-rule="nonzero" fill="#ffffff" stroke="none" />
  <path d="M 628.5 180.5  C 631.86 180.5  634.5 183.14  634.5 186.5  C 634.5 189.86  631.86 192.5  628.5 192.5  C 625.14 192.5  622.5 189.86  622.5 186.5  C 622.5 183.14  625.14 180.5  628.5 180.5  Z " stroke-width="1" stroke="#797979" fill="none" />
  <path d="M 628.5 189.75  C 626.68 189.75  625.25 188.32  625.25 186.5  C 625.25 184.68  626.68 183.25  628.5 183.25  C 630.32 183.25  631.75 184.68  631.75 186.5  C 631.75 188.32  630.32 189.75  628.5 189.75  " fill-rule="nonzero" fill="#797979" stroke="none" />
</svg>