<?xml version="1.0" encoding="utf-8"?>
<svg version="1.1" xmlns:xlink="http://www.w3.org/1999/xlink" width="13px" height="13px" viewBox="704 590  13 13" xmlns="http://www.w3.org/2000/svg">
  <path d="M 710.5 590  C 714.14 590  717 592.86  717 596.5  C 717 600.14  714.14 603  710.5 603  C 706.86 603  704 600.14  704 596.5  C 704 592.86  706.86 590  710.5 590  Z " fill-rule="nonzero" fill="#f0f0f0" stroke="none" />
  <path d="M 710.5 590.5  C 713.86 590.5  716.5 593.14  716.5 596.5  C 716.5 599.86  713.86 602.5  710.5 602.5  C 707.14 602.5  704.5 599.86  704.5 596.5  C 704.5 593.14  707.14 590.5  710.5 590.5  Z " stroke-width="1" stroke="#797979" fill="none" />
  <path d="M 710.5 599.75  C 708.68 599.75  707.25 598.32  707.25 596.5  C 707.25 594.68  708.68 593.25  710.5 593.25  C 712.32 593.25  713.75 594.68  713.75 596.5  C 713.75 598.32  712.32 599.75  710.5 599.75  " fill-rule="nonzero" fill="#797979" stroke="none" />
</svg>