<?xml version="1.0" encoding="utf-8"?>
<svg version="1.1" xmlns:xlink="http://www.w3.org/1999/xlink" width="10px" height="10px" xmlns="http://www.w3.org/2000/svg">
  <g transform="matrix(1 0 0 1 -405 -58 )">
    <path d="M 9.814453125 0.3298611111111116  C 9.938151041666668 0.5497685185185164  10 0.8101851851851827  10 1.1111111111111116  C 10 1.412037037037036  9.938151041666668 1.6724537037037024  9.814453125 1.8923611111111116  L 5.439453125 9.67013888888889  C 5.315755208333334 9.890046296296294  5.169270833333334 10  5 10  C 4.830729166666668 10  4.684244791666668 9.890046296296294  4.560546875 9.67013888888889  L 0.185546875 1.8923611111111116  C 0.06184895833333333 1.6724537037037024  0 1.412037037037036  0 1.1111111111111116  C 0 0.8101851851851827  0.06184895833333333 0.5497685185185164  0.185546875 0.3298611111111116  C 0.3092447916666667 0.10995370370370239  0.45572916666666674 0  0.625 0  L 9.375 0  C 9.544270833333334 0  9.690755208333334 0.10995370370370239  9.814453125 0.3298611111111116  Z " fill-rule="nonzero" fill="#7f7f7f" stroke="none" transform="matrix(1 0 0 1 405 58 )" />
  </g>
</svg>