<?xml version="1.0" encoding="utf-8"?>
<svg version="1.1" xmlns:xlink="http://www.w3.org/1999/xlink" width="8px" height="16px" xmlns="http://www.w3.org/2000/svg">
  <g transform="matrix(1 0 0 1 -172 -307 )">
    <path d="M 7.736111111111111 7.296875  C 7.912037037037038 7.494791666666666  8 7.729166666666666  8 8  C 8 8.270833333333332  7.912037037037038 8.505208333333332  7.736111111111111 8.703125  L 1.5138888888888888 15.703125  C 1.337962962962963 15.901041666666668  1.1296296296296298 16  0.8888888888888888 16  C 0.6481481481481483 16  0.4398148148148148 15.901041666666668  0.2638888888888889 15.703125  C 0.08796296296296297 15.505208333333332  0 15.270833333333332  0 15  L 0 1  C 0 0.7291666666666643  0.08796296296296297 0.4947916666666643  0.2638888888888889 0.296875  C 0.4398148148148148 0.09895833333333215  0.6481481481481483 0  0.8888888888888888 0  C 1.1296296296296298 0  1.337962962962963 0.09895833333333215  1.5138888888888888 0.296875  L 7.736111111111111 7.296875  Z " fill-rule="nonzero" fill="#000000" stroke="none" transform="matrix(1 0 0 1 172 307 )" />
  </g>
</svg>