<?xml version="1.0" encoding="utf-8"?>
<svg version="1.1" xmlns:xlink="http://www.w3.org/1999/xlink" width="265px" height="182px" xmlns="http://www.w3.org/2000/svg">
  <defs>
    <mask fill="white" id="clip312">
      <path d="M 0 182  L 0 0  L 122.40476190476191 0  L 134.60317460317384 0  L 265 0  L 265 182  L 0 182  Z " fill-rule="evenodd" />
    </mask>
  </defs>
  <g transform="matrix(1 0 0 1 -291 -489 )">
    <path d="M 0 182  L 0 0  L 122.40476190476191 0  L 134.60317460317384 0  L 265 0  L 265 182  L 0 182  Z " fill-rule="nonzero" fill="#d7d7d7" stroke="none" fill-opacity="0" transform="matrix(1 0 0 1 291 489 )" />
    <path d="M 0 182  L 0 0  L 122.40476190476191 0  L 134.60317460317384 0  L 265 0  L 265 182  L 0 182  Z " stroke-width="4" stroke="#797979" fill="none" transform="matrix(1 0 0 1 291 489 )" mask="url(#clip312)" />
  </g>
</svg>