<?xml version="1.0" encoding="utf-8"?>
<svg version="1.1" xmlns:xlink="http://www.w3.org/1999/xlink" width="15px" height="13px" xmlns="http://www.w3.org/2000/svg">
  <g transform="matrix(1 0 0 1 -9 -43 )">
    <path d="M 14.820713415674916 9.918360964296307  C 14.505745958888232 9.437277856749002  13.886754667953968 9.32116616924047  13.438549463446599 9.657987448701606  C 12.345272507236889 10.47721287473038  11.066091645196444 10.88791189669121  9.758397165894278 10.86899592804208  C 9.585492145392628 10.867072233204267  9.413771660720176 10.857479961442115  9.244168042869703 10.841516132884609  C 9.174840654448536 10.83451790138043  9.10547192097236 10.822377443607259  9.03582617562686 10.813097417431681  C 8.902273378586129 10.79418144878255  8.768422897148513 10.775042759505203  8.638469187155732 10.74814378480954  C 8.557902145500893 10.731821856418446  8.479195631326386 10.709752862405201  8.400470511877092 10.690232054402975  C 8.272970630905519 10.658212688793931  8.146043378947374 10.62592693184533  8.021615435571118 10.586282660023338  C 7.961644433123068 10.56644960643448  7.903219735736457 10.543732102356744  7.843862707356959 10.522311618407993  C 7.700318877746999 10.470817299043738  7.5573662824253605 10.417737732855153  7.418076858987028 10.355354121599758  C 7.386598801273249 10.341870789450585  7.356307346641449 10.325974650495763  7.324808616400105 10.310882052630912  C 7.162487930008561 10.234412453408806  7.001372451973668 10.154165337649323  6.846311957260824 10.063967850294096  C 6.8387540811853516 10.05978637967617  6.832382808191747 10.056275254478468  6.824824932116274 10.052161473463226  C 6.298783526844484 9.743132234746193  5.81726040967068 9.357386657287547  5.3951149934038245 8.906667795386593  C 5.388743720410219 8.899669563882416  5.381779145875737 8.891306622646566  5.374835243868705 8.88332361660003  C 5.243694930794056 8.74254889482028  5.118630273569019 8.595424451600843  4.999599927138355 8.441904432694766  C 4.974768087034723 8.409260575912516  4.9505316157247465 8.374088184939415  4.9254041584771215 8.340505407861768  C 4.066251845881557 7.190919784125562  3.5480866736096863 5.736104273565431  3.5480866736096863 4.153327027954441  L 5.005464805896805 4.153327027954441  C 5.043103276823115 4.153327027954441  5.079534472139994 4.132017904319772  5.098627618593246 4.094565902210832  C 5.11774350482684 4.05711390010189  5.114545464813477 4.013266322306308  5.093843995716096 3.980041645062249  L 2.644074976211571 0.05030865954928925  C 2.6251492772314893 0.01996624925860739  2.5926148533594437 0  2.5556751138647176 0  C 2.5187353743698786 0  2.486178210717604 0.019990268149895858  2.4672752515178638 0.05030865954928925  L 0.017464969648238893 3.9799499365682753  C -0.003238566701808865 4.013176797347895  -0.006413866934829838 4.057022191607918  0.012681346771200848 4.0944741937168585  C 0.03179723300479452 4.131926195825859  0.06820775579411112 4.153235319460469  0.10586483199509247 4.153235319460469  L 1.5635393256373353 4.153235319460469  C 1.5635393256373353 6.0139635420104645  2.1059223639442854 7.738698985680551  3.0274581629539825 9.164715845598497  C 3.038677143660093 9.18459256989875  3.0468489938041188 9.20570080826087  3.059252510339431 9.225555697205396  C 3.1546376197483297 9.371383120295844  3.260650475575241 9.506054860155478  3.3630022267715134 9.643923296090623  C 3.4011699144033463 9.696066125519373  3.436902378288642 9.749772366416723  3.4765729586740104 9.800930421303116  C 3.6273997197427885 9.996708404109265  3.7875828667847933 10.18063852290871  3.9523387769227627 10.360406822910397  C 3.9680891756697103 10.378316181661443  3.9826302315545616 10.39589145947013  3.998085013157517 10.411901142274651  C 4.551075125354804 11.003977729952727  5.176439756535453 11.50301823403371  5.8566093255272 11.90188686027238  C 5.874178906699353 11.913110233105881  5.891748487871506 11.924648035061514  5.911118646194079 11.935179227119125  C 6.1070549296489425 12.0477361187185  6.308434289610081 12.149471408029418  6.5125630957365335 12.24577406084038  C 6.5634526568279 12.269094220735596  6.613114269782386 12.295344685366823  6.664892749558848 12.318398453922422  C 6.839344075121828 12.395806973439985  7.018599696089523 12.463601385839667  7.199401622118658 12.528240589339614  C 7.284795698958439 12.559275180406244  7.369598541510009 12.59093644618164  7.456197826706555 12.619376996990239  C 7.613989162309929 12.6692838859946  7.775400257488927 12.711183750061084  7.938314245421348 12.752437287598692  C 8.046125611145902 12.779312243403066  8.153302330274338 12.808425323167445  8.263273975128772 12.83080656276732  C 8.308997471583298 12.840735099007393  8.351992194400072 12.855781842625229  8.396847444697066 12.863116338607268  C 8.550066017204477 12.892227234836087  8.70451253784888 12.908527327871456  8.858049467280738 12.928360381460314  C 8.913468379160276 12.935426302567176  8.967977699827266 12.94535265527163  9.023419351487146 12.951704560246876  C 9.299310769781075 12.980839475366924  9.574269857082115 13  9.848976739546954 13  C 11.530043940846472 13  13.170235353404085 12.450159540866327  14.577188973779753 11.39616037027391  C 15.025435523342248 11.05936092616844  15.134772521600677 10.39850515154827  14.820713415674916 9.918360964296307  Z " fill-rule="nonzero" fill="#999999" stroke="none" transform="matrix(1 0 0 1 9 43 )" />
  </g>
</svg>