<?xml version="1.0" encoding="utf-8"?>
<svg version="1.1" xmlns:xlink="http://www.w3.org/1999/xlink" width="13px" height="13px" viewBox="391 299  13 13" xmlns="http://www.w3.org/2000/svg">
  <path d="M 397.5 299  C 401.14 299  404 301.86  404 305.5  C 404 309.14  401.14 312  397.5 312  C 393.86 312  391 309.14  391 305.5  C 391 301.86  393.86 299  397.5 299  Z " fill-rule="nonzero" fill="#ffffff" stroke="none" />
  <path d="M 397.5 299.5  C 400.86 299.5  403.5 302.14  403.5 305.5  C 403.5 308.86  400.86 311.5  397.5 311.5  C 394.14 311.5  391.5 308.86  391.5 305.5  C 391.5 302.14  394.14 299.5  397.5 299.5  Z " stroke-width="1" stroke="#797979" fill="none" />
  <path d="M 397.5 308.75  C 395.68 308.75  394.25 307.32  394.25 305.5  C 394.25 303.68  395.68 302.25  397.5 302.25  C 399.32 302.25  400.75 303.68  400.75 305.5  C 400.75 307.32  399.32 308.75  397.5 308.75  " fill-rule="nonzero" fill="#797979" stroke="none" />
</svg>