<?xml version="1.0" encoding="utf-8"?>
<svg version="1.1" xmlns:xlink="http://www.w3.org/1999/xlink" width="13px" height="13px" viewBox="531 162  13 13" xmlns="http://www.w3.org/2000/svg">
  <path d="M 537.5 162  C 541.14 162  544 164.86  544 168.5  C 544 172.14  541.14 175  537.5 175  C 533.86 175  531 172.14  531 168.5  C 531 164.86  533.86 162  537.5 162  Z " fill-rule="nonzero" fill="#ffffff" stroke="none" />
  <path d="M 537.5 162.5  C 540.86 162.5  543.5 165.14  543.5 168.5  C 543.5 171.86  540.86 174.5  537.5 174.5  C 534.14 174.5  531.5 171.86  531.5 168.5  C 531.5 165.14  534.14 162.5  537.5 162.5  Z " stroke-width="1" stroke="#797979" fill="none" />
  <path d="M 537.5 171.75  C 535.68 171.75  534.25 170.32  534.25 168.5  C 534.25 166.68  535.68 165.25  537.5 165.25  C 539.32 165.25  540.75 166.68  540.75 168.5  C 540.75 170.32  539.32 171.75  537.5 171.75  " fill-rule="nonzero" fill="#797979" stroke="none" />
</svg>