<?xml version="1.0" encoding="utf-8"?>
<svg version="1.1" xmlns:xlink="http://www.w3.org/1999/xlink" width="13px" height="13px" viewBox="279 164  13 13" xmlns="http://www.w3.org/2000/svg">
  <path d="M 285.5 164  C 289.14 164  292 166.86  292 170.5  C 292 174.14  289.14 177  285.5 177  C 281.86 177  279 174.14  279 170.5  C 279 166.86  281.86 164  285.5 164  Z " fill-rule="nonzero" fill="#f0f0f0" stroke="none" />
  <path d="M 285.5 164.5  C 288.86 164.5  291.5 167.14  291.5 170.5  C 291.5 173.86  288.86 176.5  285.5 176.5  C 282.14 176.5  279.5 173.86  279.5 170.5  C 279.5 167.14  282.14 164.5  285.5 164.5  Z " stroke-width="1" stroke="#797979" fill="none" />
  <path d="M 285.5 173.75  C 283.68 173.75  282.25 172.32  282.25 170.5  C 282.25 168.68  283.68 167.25  285.5 167.25  C 287.32 167.25  288.75 168.68  288.75 170.5  C 288.75 172.32  287.32 173.75  285.5 173.75  " fill-rule="nonzero" fill="#797979" stroke="none" />
</svg>